<svg xmlns="http://www.w3.org/2000/svg" xmlns:xlink="http://www.w3.org/1999/xlink"  zoomAndPan="magnify" viewBox="0 0 224.87999 225" preserveAspectRatio="xMidYMid meet" version="1.0"><defs><clipPath id="a04db7d0bf"><path d="M 22.488281 49.421875 L 202 49.421875 L 202 175 L 22.488281 175 Z M 22.488281 49.421875 " clip-rule="nonzero"/></clipPath></defs><g clip-path="url(#a04db7d0bf)"><path fill="currentColor" d="M 125.179688 49.421875 C 122.757812 49.429688 121.402344 49.667969 121.664062 50.089844 C 121.773438 50.265625 122.589844 50.414062 123.472656 50.414062 C 128.34375 50.414062 135.660156 52.042969 139.777344 54.042969 C 141.113281 54.691406 143.417969 56.1875 144.898438 57.371094 C 149.042969 60.679688 151.8125 64.496094 154.082031 70 C 154.773438 71.683594 155.585938 73.523438 155.882812 74.085938 C 156.351562 74.972656 156.445312 75.019531 156.566406 74.441406 C 156.9375 72.699219 154.898438 66.933594 152.695312 63.480469 C 147.242188 54.941406 138.550781 50.035156 127.933594 49.496094 C 126.910156 49.441406 125.984375 49.417969 125.179688 49.421875 Z M 119.246094 59.1875 C 111.835938 59.066406 104.847656 61.230469 99.40625 65.558594 C 93.871094 69.960938 91.136719 76.222656 92.054688 82.390625 C 92.847656 87.699219 95.195312 91.734375 99.117188 94.527344 C 101.972656 96.558594 104.4375 97.421875 107.421875 97.421875 C 110.140625 97.421875 112.578125 96.765625 115.683594 95.203125 C 118.410156 93.832031 119.394531 92.855469 118.863281 92.035156 C 118.386719 91.292969 117.75 91.367188 114.828125 92.480469 C 112.722656 93.285156 112.074219 93.378906 109.367188 93.257812 C 104.859375 93.054688 102.828125 91.703125 100.917969 87.625 C 100.011719 85.695312 99.925781 85.210938 100.035156 82.675781 C 100.136719 80.320312 100.339844 79.484375 101.289062 77.5625 C 104.289062 71.480469 109.472656 68.375 116.707031 68.332031 C 124.503906 68.285156 129.988281 72.226562 133.128906 80.140625 C 134.089844 82.5625 134.242188 83.359375 134.25 86.007812 C 134.261719 89.394531 133.75 91.324219 131.863281 95.035156 C 127.90625 102.824219 120.152344 107.421875 110.222656 107.871094 C 103.429688 108.179688 100.65625 107.132812 91.113281 100.660156 C 83.832031 95.722656 81.382812 94.308594 77.625 92.863281 C 73.65625 91.335938 69.410156 90.609375 64.457031 90.609375 C 57.816406 90.605469 51.1875 92.128906 45.214844 95.027344 C 39.183594 97.957031 34.503906 102.632812 29.902344 110.339844 C 27.46875 114.410156 25.226562 118.832031 24.746094 120.5 C 24.164062 122.515625 27.152344 119.894531 29.691406 116.15625 C 33.824219 110.066406 40.355469 105.316406 48.128906 102.738281 C 52.871094 101.164062 56.453125 100.683594 61.566406 100.929688 C 70.914062 101.386719 80.566406 104.628906 95.71875 112.40625 C 100.410156 114.8125 105.480469 117.214844 106.980469 117.738281 C 109.546875 118.636719 110.050781 118.695312 115.339844 118.699219 C 120.945312 118.703125 120.988281 118.695312 124.613281 117.445312 C 131.050781 115.226562 135.519531 112.621094 139.757812 108.597656 C 146.066406 102.617188 149.222656 95.046875 149.242188 85.839844 C 149.25 81.074219 148.691406 78.699219 146.515625 74.28125 C 145.234375 71.671875 144.421875 70.554688 142.167969 68.300781 C 138.910156 65.042969 136.300781 63.261719 132.792969 61.902344 C 128.285156 60.160156 123.691406 59.261719 119.246094 59.1875 Z M 118.640625 61.652344 C 127.886719 61.652344 135.53125 64.628906 140.84375 70.300781 C 143.300781 72.921875 144.660156 75.21875 145.917969 78.855469 C 146.730469 81.21875 146.855469 82.121094 146.875 85.667969 C 146.914062 95.671875 142.625 104.144531 134.621094 109.882812 C 132.179688 111.632812 126.910156 114.210938 123.53125 115.316406 C 120.996094 116.144531 120.003906 116.277344 115.683594 116.363281 C 108.5 116.507812 109.738281 116.953125 92.308594 108 C 79.175781 101.261719 65.792969 97.828125 56.390625 98.789062 C 48.996094 99.546875 43.054688 101.78125 36.035156 106.445312 L 35.046875 107.101562 L 35.492188 106.261719 C 36.304688 104.738281 40.742188 100.449219 43.234375 98.785156 C 46.003906 96.933594 49.574219 95.464844 54.492188 94.152344 C 57.175781 93.4375 58.894531 93.222656 63.15625 93.082031 C 69.222656 92.878906 72.320312 93.335938 76.730469 95.082031 C 80.273438 96.480469 82.078125 97.53125 89.234375 102.351562 C 99.546875 109.296875 101.179688 110.003906 107.636719 110.277344 C 115.386719 110.609375 122.449219 108.402344 127.835938 103.964844 C 133.007812 99.707031 136.8125 92.105469 136.832031 85.976562 C 136.839844 83.535156 135.703125 79.394531 134.289062 76.710938 C 130.859375 70.203125 126.128906 66.875 119.0625 66.007812 C 113.519531 65.324219 107.632812 66.96875 103.90625 70.242188 C 97.53125 75.84375 95.671875 84.191406 99.441406 90.261719 C 100.085938 91.292969 100.5625 92.1875 100.5 92.25 C 100.210938 92.535156 98.507812 91.058594 97.425781 89.585938 C 95.804688 87.378906 94.554688 83.917969 94.300781 80.917969 C 93.886719 76 96.292969 71.070312 100.894531 67.421875 C 105.859375 63.484375 111.488281 61.652344 118.640625 61.652344 Z M 59.019531 82.1875 C 58.15625 82.214844 57.253906 82.273438 56.375 82.371094 C 48.621094 83.222656 40.117188 87.175781 33.777344 92.867188 C 28.382812 97.714844 22.523438 105.082031 22.523438 107.023438 C 22.523438 108.171875 23.445312 107.648438 24.671875 105.800781 C 25.347656 104.789062 27.039062 102.605469 28.4375 100.949219 C 37.101562 90.664062 46.324219 85.386719 58.183594 83.925781 C 63.1875 83.3125 63.8125 83.183594 63.8125 82.792969 C 63.8125 82.351562 61.605469 82.117188 59.019531 82.1875 Z M 170.449219 100.359375 C 166.457031 100.375 163.585938 101.222656 159.679688 103.539062 C 151.175781 108.585938 146.734375 115.835938 146.734375 124.679688 C 146.734375 129.574219 148.6875 132.941406 152.664062 134.894531 C 155.367188 136.222656 157.742188 136.476562 161.019531 135.78125 C 164.261719 135.097656 168.996094 132.832031 169.5 131.730469 C 170.167969 130.261719 169.632812 130.019531 165.621094 129.964844 C 161.445312 129.910156 160.167969 129.511719 158.363281 127.710938 C 155.101562 124.457031 155.65625 119.957031 159.652344 117.25 C 162.152344 115.554688 163.941406 115.039062 167.378906 115.023438 C 173.964844 114.988281 179.648438 118.027344 182.058594 122.871094 C 183.339844 125.449219 183.625 130.089844 182.746094 134.039062 C 181.265625 140.667969 176.105469 147.460938 170.332031 150.367188 C 162.664062 154.226562 150.894531 153.039062 137.179688 147.023438 C 129.054688 143.457031 125.007812 140.792969 114.742188 132.261719 C 103.835938 123.199219 97.433594 118.984375 89.234375 115.464844 C 81.207031 112.015625 72.230469 110.523438 64.613281 111.367188 C 61.09375 111.757812 53.324219 113.695312 51.503906 114.636719 C 50.316406 115.246094 50.152344 115.992188 51.273438 115.675781 C 51.695312 115.554688 54.652344 115.371094 57.84375 115.261719 C 62.902344 115.09375 64.089844 115.160156 67.128906 115.785156 C 74.855469 117.375 85.433594 121.953125 92.988281 126.984375 C 97.144531 129.75 104.945312 135.835938 108.679688 139.226562 C 113.949219 144.003906 122.238281 149.414062 130.527344 153.480469 C 137.230469 156.769531 143.71875 158.671875 150.828125 159.433594 C 154.765625 159.855469 163.574219 159.566406 166.695312 158.914062 C 168.199219 158.601562 170.71875 157.824219 172.292969 157.1875 C 182.152344 153.199219 187.933594 147.039062 191.296875 136.933594 C 192.210938 134.183594 192.257812 133.734375 192.253906 127.90625 C 192.238281 115.910156 190.015625 109.757812 184.042969 105.171875 C 179.65625 101.804688 175.519531 100.339844 170.449219 100.359375 Z M 169.164062 102.929688 C 169.917969 102.890625 170.71875 102.902344 171.605469 102.953125 C 177.101562 103.273438 183.125 106.511719 186.039062 110.707031 C 188.707031 114.554688 189.914062 120.785156 189.648438 129.320312 C 189.472656 134.824219 189 136.734375 186.6875 141.308594 C 183.070312 148.457031 176.6875 153.4375 167.796875 156.054688 C 165.679688 156.679688 164.277344 156.796875 157.824219 156.890625 C 152.390625 156.96875 149.539062 156.863281 147.492188 156.507812 C 140.992188 155.375 134.261719 152.882812 127.160156 148.96875 C 119.527344 144.761719 115.644531 142.070312 109.667969 136.84375 C 96.132812 125.011719 86.472656 119.160156 73.28125 114.8125 C 71.453125 114.207031 69.957031 113.628906 69.957031 113.519531 C 69.957031 113.207031 75.082031 113.695312 78 114.289062 C 88.933594 116.503906 99.25 122.179688 111.757812 132.851562 C 121.195312 140.902344 125.617188 144.027344 132.058594 147.1875 C 143.09375 152.601562 151.90625 155.058594 160.214844 155.042969 C 167.183594 155.027344 172.816406 152.792969 177.472656 148.179688 C 185.664062 140.078125 188.296875 127.402344 183.296875 120.144531 C 179.335938 114.394531 170.257812 111.121094 163.296875 112.929688 C 155.589844 114.933594 151.707031 121.085938 154.589844 126.730469 C 156 129.488281 158.195312 131.25 161.550781 132.320312 C 162.859375 132.734375 161.421875 133.34375 158.816406 133.472656 C 154.730469 133.679688 151.734375 132.140625 150.050781 128.960938 C 149.433594 127.804688 149.308594 127.011719 149.324219 124.332031 C 149.359375 115.953125 154.011719 109.121094 162.601562 104.835938 C 165.058594 103.613281 166.902344 103.046875 169.164062 102.929688 Z M 69.679688 106.003906 C 65.808594 105.898438 60.519531 106.1875 59.660156 106.675781 C 58.976562 107.066406 59.996094 107.152344 66.953125 107.3125 C 71.402344 107.410156 75.152344 107.601562 75.285156 107.738281 C 75.644531 108.09375 77.464844 108.035156 77.464844 107.664062 C 77.464844 107.253906 75.804688 106.738281 72.863281 106.242188 C 72.101562 106.113281 70.96875 106.035156 69.679688 106.003906 Z M 200.359375 115.78125 C 200.121094 115.902344 200.097656 117.429688 200.210938 122.023438 C 200.359375 127.761719 200.292969 129.003906 199.679688 131.882812 C 197.675781 141.289062 193.726562 147.796875 185.125 155.859375 C 182.777344 158.058594 180.859375 159.988281 180.859375 160.148438 C 180.859375 160.683594 181.453125 160.441406 183.519531 159.066406 C 186.484375 157.089844 191.914062 151.847656 194.257812 148.699219 C 198 143.675781 200.722656 136.871094 201.695312 130.144531 C 202.347656 125.644531 201.585938 116.730469 200.476562 115.8125 C 200.433594 115.777344 200.394531 115.761719 200.359375 115.78125 Z M 49.835938 119.375 C 46.863281 119.335938 43.78125 119.695312 40.78125 120.441406 C 36.328125 121.550781 28.785156 125.949219 27.625 128.113281 C 27.054688 129.171875 27.761719 128.90625 31.472656 126.667969 C 38.453125 122.457031 41.671875 121.570312 50.902344 121.292969 C 54.59375 121.183594 57.726562 120.984375 57.863281 120.847656 C 58.292969 120.414062 56.449219 119.945312 52.765625 119.550781 C 51.804688 119.445312 50.824219 119.386719 49.835938 119.375 Z M 57.980469 125.328125 C 54.609375 125.296875 51.21875 125.402344 49.121094 125.667969 C 43.949219 126.320312 39.246094 127.914062 39.246094 129.019531 C 39.246094 129.480469 39.734375 129.503906 43.253906 129.234375 C 50.386719 128.691406 54.972656 128.882812 59.507812 129.925781 C 74.757812 133.429688 86.824219 141.410156 88.878906 149.351562 C 89.851562 153.105469 89.351562 156.222656 87.375 158.710938 C 83.75 163.28125 71.929688 164.28125 68.289062 160.328125 C 67.605469 159.585938 67.503906 159.199219 67.652344 157.882812 C 67.75 157.023438 68.113281 156 68.464844 155.605469 C 69.214844 154.761719 71.53125 153.644531 72.546875 153.632812 C 73.480469 153.621094 74.46875 152.519531 74.191406 151.796875 C 73.886719 151.003906 72.652344 150.777344 69.796875 150.996094 C 62.113281 151.574219 57.253906 158.824219 60.550781 164.789062 C 63.332031 169.824219 69.394531 173.664062 75.683594 174.375 C 84.402344 175.363281 93.464844 170.953125 96.859375 164.074219 C 98.882812 159.972656 99.523438 154.230469 98.433594 150.035156 C 95.351562 138.1875 82.21875 128.167969 66.722656 125.835938 C 64.703125 125.535156 61.351562 125.359375 57.980469 125.328125 Z M 117.648438 126.53125 C 117.367188 126.476562 117.4375 126.839844 117.847656 127.621094 C 118.523438 128.902344 120.480469 130.730469 125.238281 134.53125 C 134.640625 142.042969 142.707031 146.367188 151.683594 148.703125 C 153.371094 149.144531 155.71875 149.511719 156.902344 149.519531 C 159.550781 149.539062 163.59375 148.660156 164.199219 147.929688 C 164.605469 147.4375 164.304688 147.40625 160.933594 147.574219 C 158.890625 147.679688 156.128906 147.617188 154.792969 147.4375 C 149.425781 146.714844 141.058594 143.257812 134.152344 138.914062 C 130.515625 136.628906 122.292969 130.457031 119.53125 127.945312 C 118.554688 127.058594 117.929688 126.585938 117.648438 126.53125 Z M 63.910156 127.828125 C 64.191406 127.800781 64.683594 127.832031 65.394531 127.917969 C 72.035156 128.710938 79.722656 131.707031 84.824219 135.488281 C 91.964844 140.78125 96.152344 147.355469 96.496094 153.796875 C 96.960938 162.640625 92.34375 168.898438 83.554688 171.328125 C 79.785156 172.371094 75.660156 172.269531 72.15625 171.054688 C 65.566406 168.765625 60.941406 163.511719 62.101562 159.644531 C 62.589844 158.007812 63.789062 156.160156 64.824219 155.433594 C 65.554688 154.925781 65.558594 154.933594 65.285156 156.230469 C 64.011719 162.285156 68.726562 165.605469 77.90625 165.117188 C 86.328125 164.667969 91.347656 160.550781 91.71875 153.785156 C 92.011719 148.527344 90.429688 144.828125 85.972656 140.34375 C 81.546875 135.886719 74.800781 131.984375 67.136719 129.441406 C 64.167969 128.457031 63.074219 127.898438 63.910156 127.828125 Z M 57 133.5625 C 54.992188 133.566406 53.578125 133.785156 53.578125 134.152344 C 53.578125 134.296875 55.535156 134.589844 57.925781 134.808594 C 64.574219 135.410156 68.769531 136.785156 73.75 140 C 74.914062 140.75 75.996094 141.363281 76.164062 141.363281 C 76.796875 141.363281 75.714844 140.050781 73.972656 138.710938 C 70.292969 135.875 64.875 134.015625 59.175781 133.636719 C 58.402344 133.585938 57.667969 133.5625 57 133.5625 Z M 106.140625 150.253906 C 105.875 150.214844 105.929688 150.824219 106.308594 152.078125 C 106.945312 154.1875 106.945312 158.367188 106.308594 160.761719 C 105.269531 164.644531 103.863281 166.867188 100.109375 170.554688 C 98.164062 172.464844 96.570312 174.109375 96.570312 174.214844 C 96.570312 175.328125 101.757812 172.050781 103.835938 169.628906 C 106.691406 166.296875 108.5 161.371094 108.511719 156.902344 C 108.515625 154.152344 108.050781 152.371094 106.96875 151.019531 C 106.578125 150.53125 106.300781 150.277344 106.140625 150.253906 Z M 106.140625 150.253906 " fill-opacity="1" fill-rule="nonzero"/></g></svg>