<svg xmlns="http://www.w3.org/2000/svg" xmlns:xlink="http://www.w3.org/1999/xlink" zoomAndPan="magnify" viewBox="0 0 224.87999 225" preserveAspectRatio="xMidYMid meet" version="1.0"><defs><clipPath id="0fb45e7fa1"><path d="M 22.488281 30 L 202.390625 30 L 202.390625 196.828125 L 22.488281 196.828125 Z M 22.488281 30 " clip-rule="nonzero"/></clipPath></defs><g clip-path="url(#0fb45e7fa1)"><path fill="currentColor" d="M 23.445312 65.800781 C 23.539062 65.574219 23.847656 65.082031 24.535156 65.425781 C 24.605469 65.464844 24.683594 65.480469 24.765625 65.480469 C 25.617188 65.464844 30.324219 65.367188 31.433594 65.007812 C 31.5 64.984375 31.570312 64.976562 31.640625 64.96875 C 32.171875 64.917969 34.28125 64.746094 35.226562 64.960938 C 35.277344 64.972656 35.335938 64.976562 35.386719 64.976562 L 38.832031 64.863281 C 38.914062 64.859375 38.992188 64.84375 39.070312 64.820312 C 39.554688 64.664062 41.484375 64.070312 42.238281 64.285156 C 42.3125 64.304688 42.386719 64.308594 42.460938 64.304688 C 44.152344 64.195312 61.839844 63.015625 63.359375 62.761719 C 63.386719 62.757812 63.417969 62.753906 63.453125 62.753906 C 63.894531 62.75 67.023438 62.765625 68.980469 63.886719 C 69.09375 63.953125 69.226562 63.988281 69.355469 64.003906 C 70.710938 64.144531 77.972656 64.933594 79.007812 65.464844 C 79.074219 65.496094 79.148438 65.515625 79.230469 65.519531 C 80.058594 65.566406 84.359375 65.761719 86.703125 65.023438 C 86.734375 65.011719 86.769531 65.003906 86.796875 65 C 87.394531 64.890625 93.40625 63.800781 96.175781 65.070312 C 96.246094 65.101562 96.316406 65.121094 96.394531 65.125 C 97.398438 65.15625 104.699219 65.273438 105.867188 61.71875 C 105.867188 61.71875 106.808594 58.261719 106.710938 56.761719 C 106.695312 56.535156 106.574219 56.332031 106.382812 56.207031 C 104.96875 55.3125 98.441406 50.828125 100.417969 45.382812 L 101.125 41.363281 C 101.175781 41.09375 101.023438 40.828125 100.769531 40.738281 C 99.847656 40.410156 97.9375 39.460938 99.113281 37.476562 C 99.25 37.253906 99.070312 36.972656 98.8125 37.003906 C 97.214844 37.191406 93.589844 37.304688 94.84375 34.246094 C 94.84375 34.246094 99.621094 28.648438 101.78125 30.5625 C 101.921875 30.6875 102.128906 30.722656 102.300781 30.644531 C 103.097656 30.273438 105.257812 29.542969 106.039062 32.101562 C 106.125 32.378906 106.367188 32.578125 106.660156 32.59375 C 107.03125 32.609375 107.523438 32.632812 107.800781 32.644531 C 107.9375 32.652344 108.074219 32.632812 108.203125 32.597656 C 109.769531 32.117188 120.425781 29.117188 121.589844 35.902344 C 121.609375 36.035156 121.65625 36.15625 121.726562 36.265625 C 122.269531 37.097656 124.671875 40.949219 124.359375 43.613281 C 124.359375 43.613281 123.441406 45.558594 124.382812 47.414062 C 124.382812 47.414062 126.386719 49.46875 124.703125 50.664062 C 124.519531 50.796875 124.421875 51.015625 124.460938 51.238281 C 124.582031 51.878906 124.75 53.128906 124.300781 53.492188 C 124.160156 53.613281 124.101562 53.804688 124.160156 53.980469 C 124.316406 54.449219 124.425781 55.214844 123.609375 55.5 C 123.488281 55.539062 123.382812 55.617188 123.316406 55.722656 C 123.164062 55.957031 123.019531 56.390625 123.554688 56.863281 C 123.554688 56.863281 124.390625 58.863281 122.085938 59.382812 C 121.957031 59.414062 121.828125 59.417969 121.699219 59.40625 C 120.824219 59.316406 116.992188 59.023438 117.523438 60.976562 C 117.578125 61.179688 117.605469 61.382812 117.589844 61.589844 C 117.511719 62.65625 117.878906 66.035156 126.117188 64.460938 C 126.117188 64.460938 135.105469 62.832031 140.445312 64.46875 C 140.613281 64.519531 140.789062 64.546875 140.964844 64.535156 C 142.722656 64.445312 152.65625 63.886719 154.746094 62.515625 C 154.746094 62.515625 161.253906 59.304688 164.761719 60.316406 C 164.9375 60.367188 165.121094 60.394531 165.300781 60.398438 L 177.761719 60.648438 C 178.007812 60.652344 178.25 60.609375 178.476562 60.515625 C 179.273438 60.1875 181.425781 59.476562 183.222656 60.527344 C 183.484375 60.679688 183.769531 60.773438 184.074219 60.8125 C 186.589844 61.148438 197.503906 62.523438 200.078125 61.273438 C 200.078125 61.273438 200.777344 60.992188 200.933594 61.675781 C 200.972656 61.863281 201.121094 62.003906 201.304688 62.054688 C 201.695312 62.171875 202.226562 62.433594 201.910156 62.941406 C 201.773438 63.160156 201.546875 63.3125 201.296875 63.378906 C 199.542969 63.847656 190.085938 66.292969 185.050781 65.902344 C 184.90625 65.894531 184.761719 65.863281 184.628906 65.808594 C 184.269531 65.65625 183.398438 65.390625 182.847656 65.945312 C 182.847656 65.945312 181.601562 67.433594 179.472656 66.953125 C 179.175781 66.886719 178.871094 66.882812 178.574219 66.957031 C 176.585938 67.457031 168.6875 69.324219 161.410156 69.226562 C 161.257812 69.222656 161.105469 69.257812 160.964844 69.3125 C 160.734375 69.40625 160.15625 69.507812 158.742188 69.324219 C 158.316406 69.265625 157.886719 69.316406 157.488281 69.476562 C 154.394531 70.691406 140.652344 76.003906 136.898438 75.851562 C 136.898438 75.851562 129.652344 75.410156 128.589844 82.832031 C 128.589844 82.832031 128.058594 91.933594 127.175781 96.882812 C 127.175781 96.882812 124.109375 112.96875 125.683594 117.511719 C 125.804688 117.867188 125.871094 118.238281 125.890625 118.609375 L 126.257812 124.917969 C 126.28125 125.28125 126.519531 125.589844 126.863281 125.699219 C 128.910156 126.351562 135.957031 128.535156 139.367188 128.6875 C 139.628906 128.699219 139.882812 128.75 140.132812 128.835938 C 142.113281 129.519531 150.734375 132.527344 152.886719 134.09375 C 153.269531 134.371094 153.714844 134.550781 154.183594 134.617188 C 156.367188 134.941406 162.027344 136.429688 162.523438 143.191406 C 162.523438 143.191406 166.496094 177.800781 168.40625 181.933594 C 168.492188 182.121094 168.566406 182.316406 168.625 182.507812 C 168.972656 183.667969 170.386719 187.367188 174.539062 188.703125 C 174.539062 188.703125 181.609375 193.742188 184.085938 193.828125 C 184.085938 193.828125 186.292969 194 185.5 195.507812 C 185.5 195.507812 184.628906 196.636719 181.769531 196.222656 C 181.726562 196.214844 181.675781 196.210938 181.632812 196.210938 C 181.0625 196.21875 177.125 196.25 175.972656 195.65625 C 175.886719 195.609375 175.800781 195.578125 175.707031 195.558594 C 174.820312 195.355469 170.429688 194.429688 168.585938 195.316406 C 168.25 195.476562 167.886719 195.574219 167.515625 195.625 C 165.136719 195.957031 158.027344 196.621094 159.429688 192.414062 C 159.429688 192.414062 161.40625 186.746094 159.175781 181.164062 C 159.113281 181.007812 159.058594 180.847656 159.015625 180.683594 C 158.59375 179.0625 156.132812 169.769531 154.433594 167.015625 C 154.269531 166.746094 154.144531 166.460938 154.058594 166.15625 C 153.472656 164.136719 151.515625 156.988281 152.230469 153.292969 C 152.265625 153.128906 152.289062 152.960938 152.292969 152.792969 C 152.316406 151.660156 152.035156 147.710938 146.882812 147.785156 C 146.882812 147.785156 134.246094 149.816406 125.410156 145.222656 C 125.410156 145.222656 108.089844 141.066406 106.058594 138.949219 C 106.058594 138.949219 103.40625 137.269531 101.375 140.007812 C 101.375 140.007812 85.113281 153.085938 82.816406 156 C 82.816406 156 76.894531 163.246094 73.007812 164.925781 C 73.007812 164.925781 67.171875 166.957031 65.316406 170.492188 C 65.316406 170.492188 59.75 176.5 44.730469 185.605469 C 44.730469 185.605469 42.695312 187.105469 42.078125 188.167969 C 42.078125 188.167969 40.222656 190.640625 38.984375 191.082031 C 38.984375 191.082031 40.398438 195.503906 37.925781 195.589844 C 37.925781 195.589844 35.980469 196.207031 35.804688 195.324219 C 35.804688 195.324219 29.707031 196.207031 29.089844 194 L 33.332031 187.371094 C 33.332031 187.371094 34.921875 186.398438 35.097656 185.25 C 35.097656 185.25 36.6875 183.304688 37.925781 183.039062 C 37.925781 183.039062 43.667969 176.410156 50.648438 167.839844 C 50.648438 167.839844 58.074219 159.976562 61.34375 158.828125 C 61.34375 158.828125 70.179688 152.554688 74.6875 144.863281 C 74.6875 144.863281 89.972656 124.1875 93.242188 114.203125 C 93.242188 114.203125 96.667969 106.777344 98.84375 106.957031 C 98.84375 106.957031 101.460938 96.792969 96.511719 82.921875 C 96.511719 82.921875 95.007812 77.085938 88.648438 77.265625 C 88.648438 77.265625 78.046875 75.410156 68.328125 71.523438 C 68.328125 71.523438 66.292969 70.636719 64.527344 71.082031 C 64.527344 71.082031 50.652344 71.785156 45.4375 70.019531 C 45.4375 70.019531 43.140625 68.960938 41.285156 69.84375 C 41.285156 69.84375 39.429688 71.171875 37.042969 70.464844 L 23.535156 67.230469 C 23.441406 67.207031 23.347656 67.160156 23.273438 67.089844 C 23.003906 66.851562 22.46875 66.261719 23.296875 65.921875 C 23.367188 65.910156 23.417969 65.863281 23.445312 65.800781 Z M 23.445312 65.800781 " fill-opacity="1" fill-rule="nonzero"/></g></svg>