<svg xmlns="http://www.w3.org/2000/svg" xmlns:xlink="http://www.w3.org/1999/xlink" zoomAndPan="magnify" viewBox="0 0 224.87999 225" preserveAspectRatio="xMidYMid meet" version="1.0"><defs><clipPath id="6deb982ee6"><path d="M 169 54.480469 L 190 54.480469 L 190 76 L 169 76 Z M 169 54.480469 " clip-rule="nonzero"/></clipPath><clipPath id="066e22b6b8"><path d="M 34 54.480469 L 56 54.480469 L 56 76 L 34 76 Z M 34 54.480469 " clip-rule="nonzero"/></clipPath><clipPath id="1701571516"><path d="M 90 90 L 135 90 L 135 170.667969 L 90 170.667969 Z M 90 90 " clip-rule="nonzero"/></clipPath></defs><g clip-path="url(#6deb982ee6)"><path fill="currentColor" d="M 189.992188 64.8125 C 189.992188 70.5 185.355469 75.140625 179.671875 75.140625 C 173.992188 75.140625 169.355469 70.5 169.355469 64.8125 C 169.355469 59.125 173.992188 54.480469 179.671875 54.480469 C 185.355469 54.480469 189.992188 59.125 189.992188 64.8125 Z M 189.992188 64.8125 " fill-opacity="1" fill-rule="nonzero"/></g><path fill="#000000" d="M 179.671875 76.535156 C 169.703125 76.535156 164.257812 80.015625 161.359375 83.847656 C 167.5 87.328125 171.328125 93.828125 171.328125 100.910156 L 171.328125 122.382812 C 171.328125 124.9375 169.9375 127.375 167.734375 128.765625 L 167.734375 152.445312 C 167.734375 152.445312 167.734375 156.507812 172.71875 156.507812 C 177.703125 156.507812 177.703125 152.445312 177.703125 152.445312 L 177.703125 122.847656 C 177.703125 121.6875 178.628906 120.875 179.789062 120.875 C 180.832031 120.875 181.644531 121.800781 181.761719 122.847656 L 181.761719 152.445312 C 181.761719 152.445312 181.761719 156.507812 186.746094 156.507812 C 191.730469 156.507812 191.730469 152.445312 191.730469 152.445312 L 191.730469 93.828125 C 191.730469 93.25 192.191406 92.785156 192.65625 92.785156 C 193.121094 92.785156 193.699219 93.25 193.699219 93.714844 C 193.699219 93.714844 193.699219 93.714844 193.699219 93.828125 L 193.699219 115.417969 C 193.699219 117.625 195.554688 119.363281 197.757812 119.363281 C 199.960938 119.363281 201.699219 117.625 201.699219 115.417969 L 201.699219 93.828125 C 201.699219 93.828125 202.277344 76.535156 179.671875 76.535156 Z M 179.671875 76.535156 " fill-opacity="1" fill-rule="nonzero"/><path fill="#000000" d="M 156.257812 71.777344 C 156.257812 77.464844 151.621094 82.105469 145.941406 82.105469 C 140.261719 82.105469 135.625 77.464844 135.625 71.777344 C 135.625 66.089844 140.261719 61.445312 145.941406 61.445312 C 151.738281 61.445312 156.257812 66.089844 156.257812 71.777344 Z M 156.257812 71.777344 " fill-opacity="1" fill-rule="nonzero"/><path fill="#000000" d="M 146.058594 83.5 C 135.972656 83.5 130.523438 87.097656 127.625 91.042969 C 129.25 91.972656 130.753906 93.132812 132.144531 94.527344 C 135.625 98.238281 137.59375 103.113281 137.710938 108.222656 L 137.710938 129.695312 C 137.710938 132.25 136.320312 134.6875 134.117188 136.078125 L 134.117188 159.527344 C 134.117188 159.527344 134.117188 163.589844 139.101562 163.589844 C 144.085938 163.589844 144.085938 159.527344 144.085938 159.527344 L 144.085938 129.8125 C 144.085938 128.652344 145.011719 127.839844 146.171875 127.839844 C 147.214844 127.839844 148.144531 128.765625 148.144531 129.8125 L 148.144531 159.410156 C 148.144531 159.410156 148.144531 163.472656 153.128906 163.472656 C 158.113281 163.472656 158.113281 159.410156 158.113281 159.410156 L 158.113281 100.910156 C 158.113281 100.328125 158.574219 99.863281 159.15625 99.863281 C 159.734375 99.863281 160.199219 100.328125 160.199219 100.910156 L 160.199219 122.5 C 160.199219 124.703125 162.054688 126.5625 164.257812 126.5625 C 166.457031 126.5625 168.3125 124.820312 168.3125 122.5 L 168.3125 100.910156 C 168.082031 100.910156 168.546875 83.5 146.058594 83.5 Z M 146.058594 83.5 " fill-opacity="1" fill-rule="nonzero"/><g clip-path="url(#066e22b6b8)"><path fill="#000000" d="M 34.890625 64.8125 C 34.890625 70.5 39.527344 75.140625 45.207031 75.140625 C 50.886719 75.140625 55.523438 70.5 55.523438 64.8125 C 55.40625 59.125 50.769531 54.480469 45.089844 54.480469 C 39.410156 54.480469 34.890625 59.125 34.890625 64.8125 Z M 34.890625 64.8125 " fill-opacity="1" fill-rule="nonzero"/></g><path fill="#000000" d="M 45.089844 76.535156 C 55.058594 76.535156 60.507812 80.015625 63.40625 83.847656 C 57.261719 87.328125 53.4375 93.828125 53.4375 100.910156 L 53.4375 122.382812 C 53.4375 124.9375 54.828125 127.375 57.03125 128.765625 L 57.03125 152.445312 C 57.03125 152.445312 57.03125 156.507812 52.046875 156.507812 C 47.0625 156.507812 47.0625 152.445312 47.0625 152.445312 L 47.0625 122.847656 C 47.0625 121.6875 46.132812 120.875 44.976562 120.875 C 43.929688 120.875 43.121094 121.800781 43.003906 122.847656 L 43.003906 152.445312 C 43.003906 152.445312 43.003906 156.507812 38.019531 156.507812 C 33.035156 156.507812 33.035156 152.445312 33.035156 152.445312 L 33.035156 93.828125 C 33.035156 93.25 32.570312 92.785156 31.992188 92.785156 C 31.410156 92.785156 30.949219 93.25 30.949219 93.828125 L 30.949219 115.417969 C 30.949219 117.625 29.324219 119.363281 27.121094 119.480469 C 27.121094 119.480469 27.007812 119.480469 27.007812 119.480469 C 24.921875 119.480469 23.066406 117.738281 23.066406 115.535156 C 23.066406 115.535156 23.066406 115.417969 23.066406 115.417969 L 23.066406 93.828125 C 23.066406 93.828125 22.601562 76.535156 45.089844 76.535156 Z M 45.089844 76.535156 " fill-opacity="1" fill-rule="nonzero"/><path fill="#000000" d="M 68.507812 71.777344 C 68.507812 77.464844 73.144531 82.105469 78.824219 82.105469 C 84.503906 82.105469 89.140625 77.464844 89.140625 71.777344 C 89.140625 66.089844 84.503906 61.445312 78.824219 61.445312 C 73.027344 61.445312 68.507812 66.089844 68.507812 71.777344 Z M 68.507812 71.777344 " fill-opacity="1" fill-rule="nonzero"/><path fill="#000000" d="M 78.707031 83.5 C 88.792969 83.5 94.242188 87.097656 97.136719 91.042969 C 95.515625 91.972656 94.007812 93.132812 92.617188 94.527344 C 89.140625 98.238281 87.167969 103.113281 87.054688 108.222656 L 87.054688 129.695312 C 87.054688 132.25 88.445312 134.6875 90.648438 136.078125 L 90.648438 159.527344 C 90.648438 159.527344 90.648438 163.589844 85.664062 163.589844 C 80.679688 163.589844 80.679688 159.527344 80.679688 159.527344 L 80.679688 129.8125 C 80.679688 128.652344 79.75 127.839844 78.589844 127.839844 C 77.546875 127.839844 76.621094 128.765625 76.621094 129.8125 L 76.621094 159.410156 C 76.621094 159.410156 76.621094 163.472656 71.636719 163.472656 C 66.652344 163.472656 66.652344 159.410156 66.652344 159.410156 L 66.652344 100.910156 C 66.652344 100.328125 66.1875 99.863281 65.609375 99.980469 C 65.027344 99.980469 64.679688 100.445312 64.679688 100.910156 L 64.679688 122.5 C 64.679688 124.703125 62.941406 126.5625 60.625 126.5625 C 58.304688 126.5625 56.683594 124.589844 56.683594 122.382812 L 56.683594 100.910156 C 56.683594 100.910156 56.21875 83.5 78.707031 83.5 Z M 78.707031 83.5 " fill-opacity="1" fill-rule="nonzero"/><g clip-path="url(#1701571516)"><path fill="#000000" d="M 112.441406 135.035156 C 111.398438 135.035156 110.46875 135.847656 110.46875 136.890625 C 110.46875 136.890625 110.46875 137.007812 110.46875 137.007812 L 110.46875 166.605469 C 110.46875 166.605469 110.46875 170.667969 105.484375 170.667969 C 100.5 170.667969 100.5 166.605469 100.5 166.605469 L 100.5 108.105469 C 100.5 107.527344 100.035156 107.0625 99.574219 107.0625 C 98.992188 107.0625 98.53125 107.527344 98.53125 107.988281 C 98.53125 107.988281 98.53125 107.988281 98.53125 108.105469 L 98.53125 129.695312 C 98.53125 131.902344 96.789062 133.757812 94.589844 133.757812 C 92.386719 133.757812 90.53125 132.015625 90.53125 129.8125 C 90.53125 129.8125 90.53125 129.695312 90.53125 129.695312 L 90.53125 108.105469 C 90.53125 108.105469 90.53125 90.8125 112.554688 90.8125 C 135.160156 90.8125 134.582031 108.105469 134.582031 108.105469 L 134.582031 129.695312 C 134.582031 131.902344 132.84375 133.757812 130.640625 133.757812 C 128.4375 133.757812 126.582031 132.015625 126.582031 129.8125 C 126.582031 129.8125 126.582031 129.695312 126.582031 129.695312 L 126.582031 108.105469 C 126.582031 107.527344 126.117188 107.0625 125.65625 107.0625 C 125.074219 107.0625 124.613281 107.527344 124.613281 107.988281 C 124.613281 107.988281 124.613281 107.988281 124.613281 108.105469 L 124.613281 166.605469 C 124.613281 166.605469 124.613281 170.667969 119.628906 170.667969 C 114.640625 170.667969 114.640625 166.605469 114.640625 166.605469 L 114.640625 137.007812 C 114.410156 135.964844 113.597656 135.035156 112.441406 135.035156 Z M 112.441406 135.035156 " fill-opacity="1" fill-rule="nonzero"/></g><path fill="#000000" d="M 122.640625 78.972656 C 122.640625 84.660156 118.003906 89.300781 112.324219 89.300781 C 106.644531 89.300781 102.007812 84.660156 102.007812 78.972656 C 102.007812 73.285156 106.644531 68.640625 112.324219 68.640625 C 118.121094 68.640625 122.640625 73.285156 122.640625 78.972656 Z M 122.640625 78.972656 " fill-opacity="1" fill-rule="nonzero"/></svg>