<svg xmlns="http://www.w3.org/2000/svg" xmlns:xlink="http://www.w3.org/1999/xlink" zoomAndPan="magnify" viewBox="0 0 224.87999 225" preserveAspectRatio="xMidYMid meet" version="1.0"><defs><clipPath id="9cb7480a85"><path d="M 22.488281 30.082031 L 202 30.082031 L 202 194 L 22.488281 194 Z M 22.488281 30.082031 " clip-rule="nonzero"/></clipPath></defs><g clip-path="url(#9cb7480a85)"><path fill="currentColor" d="M 199.898438 147.214844 C 199.171875 146.371094 193.597656 149.015625 191.828125 149.886719 C 191.605469 150 191.351562 149.8125 191.382812 149.5625 C 191.894531 145.742188 191.164062 142.476562 191.289062 139.867188 C 191.386719 137.847656 190.289062 138.554688 189.707031 139.066406 C 189.511719 139.230469 189.230469 139.230469 189.03125 139.070312 C 188.484375 138.617188 187.335938 138.125 186.21875 140.601562 C 184.902344 143.523438 181.808594 144.972656 180.964844 145.324219 C 180.832031 145.378906 180.691406 145.414062 180.546875 145.433594 C 178.519531 145.738281 176.394531 146.996094 175.421875 147.632812 C 175.054688 147.875 174.601562 147.96875 174.167969 147.878906 C 168.550781 146.746094 161.90625 142.941406 160.335938 142.007812 C 160.121094 141.878906 159.929688 141.714844 159.765625 141.527344 C 157.410156 138.796875 150.9375 134.84375 149.476562 133.964844 C 149.21875 133.808594 148.984375 133.613281 148.804688 133.371094 C 147.257812 131.335938 146.914062 126.445312 146.914062 126.445312 C 146.671875 120.878906 145.550781 113.019531 145.34375 111.585938 C 145.320312 111.433594 145.308594 111.277344 145.3125 111.121094 C 145.410156 105.265625 144.242188 94.863281 144.242188 94.863281 C 143.507812 84.179688 136.035156 83.3125 136.035156 83.3125 C 134.992188 82.453125 126.953125 82.046875 125.613281 81.980469 C 125.484375 81.976562 125.359375 81.953125 125.242188 81.902344 C 121.378906 80.285156 120.148438 75.230469 120.148438 75.230469 C 118.148438 68.820312 120.285156 66.480469 120.285156 66.480469 C 123.019531 63.679688 122.6875 61.742188 122.6875 61.742188 C 122.484375 60.742188 123.285156 60.472656 123.285156 60.472656 C 124.554688 60.40625 124.824219 59.203125 124.824219 59.203125 L 125.691406 53.464844 C 125.816406 51.191406 125.578125 50.484375 125.292969 50.363281 C 125 50.238281 124.871094 49.898438 124.953125 49.589844 C 127.046875 41.625 125.367188 39.765625 124.542969 39.335938 C 124.273438 39.195312 124.078125 38.9375 123.992188 38.644531 C 122.136719 32.386719 120.347656 32.164062 119.621094 32.390625 C 119.371094 32.46875 119.109375 32.4375 118.886719 32.296875 C 115.683594 30.195312 112.9375 30.769531 112.125 31.011719 C 111.960938 31.058594 111.785156 31.066406 111.621094 31.027344 C 108.171875 30.195312 105.488281 31.800781 104.59375 32.445312 C 104.410156 32.574219 104.191406 32.648438 103.96875 32.636719 C 102.042969 32.511719 100.148438 37.171875 99.570312 38.714844 C 99.46875 38.980469 99.257812 39.195312 98.984375 39.296875 C 97.808594 39.730469 97.589844 41.371094 97.589844 41.371094 C 97.121094 45.382812 98.402344 49.3125 98.980469 50.847656 C 98.816406 50.800781 98.550781 50.941406 98.121094 51.519531 C 97.304688 52.625 98.355469 56.605469 99.011719 58.746094 C 99.21875 59.433594 99.714844 59.980469 100.339844 60.332031 C 100.796875 60.589844 100.660156 60.996094 100.660156 60.996094 C 100.527344 63.335938 103.199219 66.207031 103.199219 66.207031 C 104.066406 66.742188 104.398438 68.34375 104.398438 68.34375 C 104.894531 73.058594 102.683594 77.414062 101.878906 78.820312 C 101.738281 79.066406 101.609375 79.316406 101.503906 79.582031 C 100.085938 83.144531 90.453125 82.699219 90.453125 82.699219 C 80.578125 82.632812 79.84375 92.652344 79.84375 92.652344 C 78.507812 96.992188 78.308594 112.414062 78.308594 112.414062 C 78.042969 112.617188 76.972656 123.234375 76.972656 123.234375 C 76.671875 128.804688 75.699219 131.695312 75.050781 133.039062 C 74.777344 133.601562 74.308594 134.039062 73.742188 134.304688 C 70.476562 135.832031 62.425781 142.859375 62.425781 142.859375 C 61.289062 144.128906 48.609375 148.199219 48.609375 148.199219 C 47.542969 146.75 45.207031 146.210938 45.207031 146.210938 C 39.066406 144.679688 36.929688 139.800781 36.929688 139.800781 C 34.527344 136.863281 34.527344 139.800781 34.527344 139.800781 C 34.28125 138.988281 33.542969 138.769531 32.996094 138.722656 C 32.664062 138.691406 32.367188 138.949219 32.335938 139.285156 C 31.847656 144.519531 32.171875 148.042969 32.355469 149.429688 C 32.390625 149.699219 32.109375 149.898438 31.867188 149.777344 C 30.859375 149.277344 28.636719 148.257812 25.785156 147.480469 C 23.144531 146.765625 22.636719 147.636719 22.582031 148.292969 C 22.558594 148.613281 22.796875 148.894531 23.113281 148.945312 C 25.910156 149.386719 26.449219 150.953125 26.449219 150.953125 C 25.046875 151.15625 25.984375 152.222656 25.984375 152.222656 C 29.621094 155.511719 40.210938 155.390625 42.726562 155.316406 C 42.9375 155.308594 43.046875 155.546875 42.917969 155.703125 C 38.40625 161.246094 42.601562 166.78125 42.601562 166.78125 C 45.140625 170.984375 52.144531 176.394531 52.144531 176.394531 C 57.285156 180.535156 70.898438 185.742188 70.898438 185.742188 C 74.554688 187.226562 81.441406 187.101562 83.347656 187.035156 C 83.515625 187.027344 83.597656 187.234375 83.472656 187.347656 L 81.644531 189 C 74.9375 195.203125 89.386719 192.820312 91.6875 192.410156 C 91.882812 192.371094 92.078125 192.316406 92.261719 192.242188 C 97.550781 190.128906 102.609375 188.8125 103.519531 188.582031 C 103.617188 188.558594 103.71875 188.546875 103.816406 188.539062 C 106.609375 188.398438 107.710938 187.898438 108.140625 187.570312 C 108.398438 187.378906 108.714844 187.273438 109.035156 187.269531 L 123.707031 187.144531 C 124.125 187.140625 124.546875 187.234375 124.925781 187.417969 C 132.253906 190.933594 136.503906 190.679688 136.503906 190.679688 C 141.449219 190.78125 140.902344 188.574219 140.402344 187.566406 C 140.300781 187.367188 140.449219 187.132812 140.671875 187.140625 C 142.855469 187.246094 149.382812 186.605469 149.382812 186.605469 C 154.1875 186.40625 166.738281 179.460938 166.738281 179.460938 C 172.945312 176.792969 179.082031 169.179688 179.082031 169.179688 C 185.359375 163.242188 181.976562 157.304688 180.863281 155.707031 C 180.742188 155.53125 180.867188 155.289062 181.085938 155.285156 C 192.734375 155.097656 196.039062 153.15625 196.039062 153.15625 C 198.238281 152.4375 198.019531 151.628906 197.644531 151.175781 C 197.417969 150.902344 197.449219 150.5 197.722656 150.277344 C 198.652344 149.527344 200.375 148.949219 200.375 148.949219 C 202.4375 147.75 199.898438 147.214844 199.898438 147.214844 Z M 91.550781 143.445312 L 86.339844 154.386719 C 84.703125 159.398438 80.921875 157.660156 80.921875 157.660156 C 80.367188 157.011719 61.832031 153.773438 58.300781 153.160156 C 58.160156 153.132812 58.148438 152.9375 58.289062 152.902344 L 69.167969 149.890625 C 72.644531 149.277344 83.167969 143.753906 83.167969 143.753906 C 86.042969 142.027344 86.644531 139.984375 86.6875 138.691406 C 86.71875 137.828125 86.863281 136.972656 87.140625 136.152344 C 88.777344 131.335938 89.753906 116.855469 89.96875 113.335938 C 89.972656 113.25 90.109375 113.246094 90.117188 113.335938 L 92.671875 132.402344 C 93.289062 139.25 91.550781 143.445312 91.550781 143.445312 Z M 144.1875 157.148438 C 144.1875 157.148438 138.050781 160.027344 137.015625 153.609375 C 136.9375 153.121094 136.777344 152.648438 136.558594 152.207031 C 135.417969 149.902344 132.007812 142.917969 131.109375 140.210938 C 131.035156 139.992188 131.003906 139.761719 131.007812 139.53125 C 131.039062 137.351562 131.328125 124.894531 133.554688 113.277344 C 133.554688 113.277344 135.035156 133.585938 136.347656 135.191406 C 136.421875 135.277344 136.492188 135.367188 136.546875 135.46875 C 136.78125 135.898438 137.234375 136.964844 137.050781 138.589844 C 137.042969 138.660156 137.03125 138.734375 137.015625 138.804688 C 136.933594 139.25 136.628906 142.003906 141.21875 144.164062 C 141.21875 144.164062 152.769531 150.808594 165.855469 152.957031 C 165.859375 152.953125 146.03125 156.429688 144.1875 157.148438 Z M 144.1875 157.148438 " fill-opacity="1" fill-rule="nonzero"/></g></svg>