<svg xmlns="http://www.w3.org/2000/svg" xmlns:xlink="http://www.w3.org/1999/xlink" zoomAndPan="magnify" viewBox="0 0 224.87999 225" preserveAspectRatio="xMidYMid meet" version="1.0"><defs><clipPath id="c241692113"><path d="M 110 22.546875 L 115 22.546875 L 115 42 L 110 42 Z M 110 22.546875 " clip-rule="nonzero"/></clipPath><clipPath id="8aebc7d1ac"><path d="M 110 183 L 115 183 L 115 202.453125 L 110 202.453125 Z M 110 183 " clip-rule="nonzero"/></clipPath><clipPath id="5d60979fd2"><path d="M 181 110 L 199.957031 110 L 199.957031 115 L 181 115 Z M 181 110 " clip-rule="nonzero"/></clipPath><clipPath id="9bf9e7cbf7"><path d="M 25.300781 110 L 44 110 L 44 115 L 25.300781 115 Z M 25.300781 110 " clip-rule="nonzero"/></clipPath></defs><path fill="currentColor" d="M 112.628906 52.699219 C 103.546875 52.699219 96.160156 60.070312 96.160156 69.132812 C 96.160156 78.199219 103.546875 85.570312 112.628906 85.570312 C 121.710938 85.570312 129.097656 78.199219 129.097656 69.132812 C 129.097656 60.070312 121.710938 52.699219 112.628906 52.699219 " fill-opacity="1" fill-rule="nonzero"/><path fill="currentColor" d="M 156.0625 105.554688 C 148.675781 102.792969 132.496094 94.671875 129.605469 92.777344 C 123.761719 88.941406 118.363281 87.15625 112.628906 87.15625 C 106.890625 87.15625 101.492188 88.941406 95.648438 92.777344 C 92.757812 94.671875 76.578125 102.792969 69.191406 105.554688 C 66 106.75 64.191406 110.046875 64.902344 113.394531 C 65.316406 115.359375 66.5625 117.039062 68.324219 118.003906 C 69.367188 118.574219 70.519531 118.859375 71.660156 118.859375 C 72.457031 118.859375 73.253906 118.71875 74.007812 118.441406 L 93.78125 111.703125 C 94.46875 111.46875 95.164062 112.023438 95.085938 112.742188 C 93.457031 126.964844 89.617188 160.828125 88.753906 169.628906 C 88.277344 174.421875 91.605469 178.621094 96.320312 179.1875 C 100.742188 179.714844 104.769531 176.640625 105.90625 171.882812 C 106.625 168.867188 110.5625 150.074219 111.839844 144.003906 C 111.929688 143.578125 112.527344 143.578125 112.617188 144.003906 C 113.886719 150.074219 117.828125 168.863281 118.550781 171.882812 C 119.601562 176.285156 123.128906 179.246094 127.152344 179.246094 C 127.476562 179.246094 127.800781 179.226562 128.132812 179.1875 C 132.847656 178.621094 136.171875 174.421875 135.699219 169.628906 C 134.835938 160.765625 130.941406 126.503906 129.335938 112.457031 C 129.253906 111.738281 129.953125 111.183594 130.640625 111.417969 L 151.1875 118.417969 C 151.972656 118.707031 152.789062 118.851562 153.613281 118.851562 C 154.757812 118.851562 155.898438 118.566406 156.929688 118.003906 C 158.691406 117.039062 159.9375 115.359375 160.351562 113.394531 C 161.0625 110.046875 159.253906 106.75 156.0625 105.554688 " fill-opacity="1" fill-rule="nonzero"/><g clip-path="url(#c241692113)"><path fill="currentColor" d="M 112.660156 41.257812 C 111.476562 41.257812 110.511719 40.300781 110.511719 39.117188 L 110.511719 24.964844 C 110.511719 23.78125 111.476562 22.820312 112.660156 22.820312 C 113.847656 22.820312 114.808594 23.78125 114.808594 24.964844 L 114.808594 39.117188 C 114.808594 40.300781 113.847656 41.257812 112.660156 41.257812 " fill-opacity="1" fill-rule="nonzero"/></g><g clip-path="url(#8aebc7d1ac)"><path fill="currentColor" d="M 112.660156 202.214844 C 111.476562 202.214844 110.511719 201.261719 110.511719 200.074219 L 110.511719 185.925781 C 110.511719 184.742188 111.476562 183.785156 112.660156 183.785156 C 113.847656 183.785156 114.808594 184.742188 114.808594 185.925781 L 114.808594 200.074219 C 114.808594 201.261719 113.847656 202.214844 112.660156 202.214844 " fill-opacity="1" fill-rule="nonzero"/></g><path fill="currentColor" d="M 171.417969 55.917969 C 170.871094 55.917969 170.324219 55.710938 169.902344 55.292969 C 169.0625 54.460938 169.0625 53.101562 169.898438 52.261719 L 179.902344 42.234375 C 180.734375 41.398438 182.101562 41.394531 182.9375 42.230469 C 183.777344 43.0625 183.78125 44.421875 182.945312 45.261719 L 172.945312 55.289062 C 172.527344 55.707031 171.972656 55.917969 171.417969 55.917969 " fill-opacity="1" fill-rule="nonzero"/><path fill="currentColor" d="M 181.949219 183.640625 C 181.402344 183.640625 180.851562 183.433594 180.433594 183.015625 L 170.382812 173.03125 C 169.546875 172.199219 169.539062 170.84375 170.378906 170 C 171.210938 169.164062 172.570312 169.164062 173.414062 169.996094 L 183.464844 179.976562 C 184.304688 180.808594 184.304688 182.164062 183.46875 183.007812 C 183.050781 183.425781 182.496094 183.640625 181.949219 183.640625 " fill-opacity="1" fill-rule="nonzero"/><g clip-path="url(#5d60979fd2)"><path fill="currentColor" d="M 183.648438 114.5625 C 182.464844 114.5625 181.5 113.605469 181.5 112.425781 C 181.496094 111.242188 182.457031 110.28125 183.644531 110.277344 L 197.824219 110.242188 C 197.824219 110.242188 197.824219 110.242188 197.832031 110.242188 C 199.011719 110.242188 199.972656 111.203125 199.976562 112.378906 C 199.976562 113.5625 199.023438 114.527344 197.835938 114.527344 L 183.65625 114.5625 C 183.648438 114.5625 183.648438 114.5625 183.648438 114.5625 " fill-opacity="1" fill-rule="nonzero"/></g><path fill="currentColor" d="M 53.835938 55.917969 C 53.28125 55.917969 52.730469 55.707031 52.308594 55.289062 L 42.3125 45.261719 C 41.472656 44.421875 41.476562 43.0625 42.316406 42.230469 C 43.160156 41.394531 44.519531 41.398438 45.359375 42.234375 L 55.355469 52.261719 C 56.195312 53.101562 56.191406 54.460938 55.351562 55.292969 C 54.933594 55.710938 54.382812 55.917969 53.835938 55.917969 " fill-opacity="1" fill-rule="nonzero"/><path fill="currentColor" d="M 43.304688 183.640625 C 42.757812 183.640625 42.203125 183.425781 41.785156 183.007812 C 40.945312 182.164062 40.953125 180.808594 41.789062 179.976562 L 51.839844 169.996094 C 52.683594 169.164062 54.039062 169.164062 54.875 170 C 55.714844 170.84375 55.710938 172.199219 54.871094 173.03125 L 44.820312 183.015625 C 44.402344 183.433594 43.855469 183.640625 43.304688 183.640625 " fill-opacity="1" fill-rule="nonzero"/><g clip-path="url(#9bf9e7cbf7)"><path fill="currentColor" d="M 41.605469 114.5625 C 41.605469 114.5625 41.605469 114.5625 41.601562 114.5625 L 27.417969 114.527344 C 26.238281 114.527344 25.277344 113.5625 25.28125 112.378906 C 25.28125 111.203125 26.242188 110.242188 27.429688 110.242188 L 41.613281 110.277344 C 42.796875 110.28125 43.757812 111.242188 43.753906 112.425781 C 43.753906 113.605469 42.792969 114.5625 41.605469 114.5625 " fill-opacity="1" fill-rule="nonzero"/></g></svg>