<svg xmlns="http://www.w3.org/2000/svg" xmlns:xlink="http://www.w3.org/1999/xlink" width="300" zoomAndPan="magnify" viewBox="0 0 224.87999 225" height="300" preserveAspectRatio="xMidYMid meet" version="1.0"><defs><clipPath id="e57294f26b"><path d="M 32 40 L 202.390625 40 L 202.390625 185 L 32 185 Z M 32 40 " clip-rule="nonzero"/></clipPath></defs><g clip-path="url(#e57294f26b)"><path fill="#ffccdc" d="M 126.246094 184.550781 C 127.660156 184.339844 129.0625 184.097656 130.457031 183.8125 C 144.722656 180.890625 159 175.285156 171.539062 167.820312 C 181.925781 161.636719 193.621094 153.101562 196.863281 140.984375 C 198.703125 134.125 201.597656 128.226562 201.953125 120.945312 C 202.316406 113.605469 201.015625 106.1875 198.214844 99.394531 C 197.085938 96.660156 195.707031 93.992188 193.785156 91.738281 C 189.074219 86.214844 181.777344 83.839844 175.117188 80.96875 C 168.453125 78.09375 161.519531 73.804688 159.542969 66.8125 C 158.308594 62.441406 159.246094 57.675781 158.011719 53.304688 C 156.265625 47.128906 150.386719 42.832031 144.195312 41.171875 C 138.21875 39.566406 132.492188 40.464844 126.445312 40.445312 C 121.339844 40.429688 116.375 40.957031 111.292969 41.878906 C 100.640625 43.8125 90.289062 47.214844 80.71875 52.308594 C 37.011719 75.5625 58.761719 77.65625 51.652344 93.371094 C 44.542969 109.082031 22.585938 108.664062 37.640625 147.839844 C 52.695312 187.015625 112.085938 184.917969 112.085938 184.917969 C 112.085938 184.917969 118.078125 185.195312 126.246094 184.550781 Z M 126.246094 184.550781 " fill-opacity="1" fill-rule="nonzero"/></g><path fill="#b4ab78" d="M 126.25 184.550781 C 127.660156 184.339844 129.066406 184.097656 130.457031 183.8125 C 132.65625 183.363281 134.839844 182.808594 137 182.15625 C 137.683594 177.449219 138.339844 172.878906 138.433594 171.929688 C 138.640625 169.835938 137.179688 167.320312 136.761719 165.644531 C 136.34375 163.96875 137.804688 159.988281 137.804688 157.894531 C 137.804688 155.800781 135.820312 139.355469 135.402344 132.648438 C 134.984375 125.945312 134.355469 120.707031 126.515625 116.414062 C 121.402344 113.613281 111.457031 109.5 111.457031 109.5 C 111.457031 109.5 88.035156 108.871094 83.855469 110.96875 C 79.671875 113.0625 66.707031 115.785156 60.644531 122.070312 C 54.578125 128.355469 57.089844 138.203125 57.089844 138.621094 L 60.25 173.058594 C 82.890625 185.949219 112.085938 184.917969 112.085938 184.917969 C 112.085938 184.917969 118.078125 185.195312 126.25 184.550781 Z M 126.25 184.550781 " fill-opacity="1" fill-rule="nonzero"/><path fill="#988c54" d="M 125.5625 137.183594 C 126.734375 141.65625 128.367188 145.980469 129.585938 150.433594 C 130.832031 154.980469 131.167969 159.707031 130.332031 164.363281 C 129.542969 168.777344 128.070312 173.019531 127.535156 177.488281 C 127.261719 179.777344 127.175781 182.089844 127.265625 184.390625 C 127.957031 184.28125 128.640625 184.160156 129.324219 184.027344 C 129.273438 182.308594 129.316406 180.589844 129.46875 178.875 C 129.878906 174.230469 131.398438 169.855469 132.261719 165.296875 C 133.109375 160.824219 133.054688 156.226562 132.042969 151.78125 C 131.039062 147.363281 129.292969 143.132812 128.042969 138.78125 C 126.589844 133.714844 125.46875 128.570312 124.582031 123.375 C 124.421875 122.433594 122.832031 121.113281 122.957031 122.070312 C 123.558594 126.644531 124.394531 132.71875 125.5625 137.183594 Z M 125.5625 137.183594 " fill-opacity="1" fill-rule="nonzero"/><path fill="#988c54" d="M 130.160156 119.226562 C 129.558594 124.644531 128.148438 129.929688 126.023438 134.945312 C 125.832031 135.398438 126.492188 135.796875 126.691406 135.339844 C 128.925781 130.207031 130.328125 124.789062 130.917969 119.226562 C 130.96875 118.738281 130.210938 118.746094 130.160156 119.226562 Z M 130.160156 119.226562 " fill-opacity="0.5" fill-rule="nonzero"/><path fill="#988c54" d="M 69.214844 128.144531 L 65.988281 118.117188 C 63.953125 119.257812 62.097656 120.5625 60.644531 122.070312 C 54.578125 128.355469 57.089844 138.203125 57.089844 138.621094 L 58.070312 149.324219 L 63.570312 151.609375 Z M 69.214844 128.144531 " fill-opacity="1" fill-rule="nonzero"/><path fill="#e8a76d" d="M 90.203125 43.246094 C 90.203125 43.246094 100.589844 33.371094 103.695312 31.21875 C 106.800781 29.070312 117.496094 32.386719 121.671875 36.769531 C 125.84375 41.15625 127.671875 46.019531 127.789062 47.851562 C 127.90625 49.6875 127.820312 60.085938 127.820312 60.085938 Z M 90.203125 43.246094 " fill-opacity="1" fill-rule="nonzero"/><path fill="#c17a44" d="M 83.941406 85.050781 C 83.941406 85.050781 51.589844 67.019531 63.789062 49.285156 C 69.320312 41.242188 86.914062 39.457031 101.449219 44.421875 C 110.578125 47.542969 119.289062 52.210938 125.316406 56.460938 C 140.941406 67.46875 149.722656 81.300781 140.371094 90.460938 C 131.015625 99.621094 121.472656 97.421875 117.535156 96.703125 C 113.597656 95.980469 83.941406 85.050781 83.941406 85.050781 Z M 83.941406 85.050781 " fill-opacity="1" fill-rule="nonzero"/><path fill="#e8a76d" d="M 140.195312 90.949219 C 140.09375 90.980469 139.996094 90.988281 139.902344 90.9375 C 142.191406 88.042969 143.804688 84.5 143.503906 80.746094 C 142.925781 73.566406 136.15625 64.914062 124.933594 57.003906 C 118.285156 52.320312 109.425781 47.855469 101.234375 45.054688 C 100.144531 44.683594 99.046875 44.351562 97.933594 44.054688 C 92.96875 42.730469 87.789062 42.121094 82.652344 42.34375 C 78.324219 42.53125 73.875 43.28125 69.941406 45.175781 C 68.304688 45.960938 66.941406 47.035156 65.503906 48.117188 C 64.226562 49.085938 63.367188 50.414062 62.652344 51.839844 C 62.375 52.394531 62.121094 52.957031 61.875 53.527344 C 61.671875 53.992188 61.273438 54.535156 61.277344 55.054688 C 61.261719 53.25 61.738281 51.453125 62.609375 49.875 C 64.621094 46.21875 68.609375 44.046875 72.445312 42.792969 C 76.871094 41.34375 81.605469 40.882812 86.246094 41.015625 C 91.480469 41.164062 96.707031 42.097656 101.664062 43.789062 C 109.96875 46.628906 118.953125 51.160156 125.699219 55.914062 C 137.25 64.046875 144.222656 73.058594 144.832031 80.636719 C 145.144531 84.535156 143.691406 88.449219 140.480469 90.789062 C 140.394531 90.855469 140.296875 90.917969 140.195312 90.949219 Z M 140.195312 90.949219 " fill-opacity="1" fill-rule="nonzero"/><path fill="#3a1714" d="M 103.53125 72.433594 C 103.53125 72.433594 115.785156 59.132812 127.574219 71.363281 C 141.753906 86.074219 121.636719 91.5625 121.636719 91.5625 C 121.636719 91.5625 128.195312 97.746094 117.410156 104.832031 C 105.738281 112.5 96.242188 91.472656 96.242188 91.472656 C 96.242188 91.472656 100.554688 81.925781 103.53125 72.433594 Z M 103.53125 72.433594 " fill-opacity="1" fill-rule="nonzero"/><path fill="#b4ab78" d="M 106.980469 98.675781 C 106.980469 98.675781 111.042969 99.234375 112.183594 102.269531 C 113.328125 105.304688 112.253906 108.523438 112.398438 110.300781 C 112.546875 112.074219 116.601562 118 113.3125 121.398438 C 110.023438 124.800781 101.675781 126.382812 95.585938 122.863281 C 89.492188 119.34375 83.882812 116.230469 80.191406 114.746094 C 76.5 113.265625 79.753906 109.417969 79.640625 108.085938 C 79.53125 106.753906 79.3125 104.089844 80.976562 102.613281 C 82.640625 101.132812 90.535156 100.632812 90.535156 100.632812 Z M 106.980469 98.675781 " fill-opacity="1" fill-rule="nonzero"/><path fill="#1a1a1a" d="M 106.644531 100.046875 C 106.644531 100.046875 110.230469 100.195312 110.339844 101.527344 C 110.449219 102.859375 105.074219 103.886719 105.074219 103.886719 Z M 106.644531 100.046875 " fill-opacity="1" fill-rule="nonzero"/><path fill="#a34b22" d="M 107.09375 94.644531 C 107.09375 94.644531 107.164062 100.898438 108.230469 103.042969 C 108.230469 103.042969 103.910156 104.742188 97.632812 104.367188 C 91.351562 103.992188 88.214844 103.804688 88.214844 103.804688 C 88.214844 103.804688 90.027344 98.734375 89.21875 94.332031 C 88.410156 89.929688 107.09375 94.644531 107.09375 94.644531 Z M 107.09375 94.644531 " fill-opacity="1" fill-rule="nonzero"/><path fill="#1a1a1a" d="M 88.71875 95.886719 C 88.71875 95.886719 90.144531 102.941406 96.351562 103.621094 C 102.554688 104.304688 106.496094 100.042969 106.496094 100.042969 Z M 88.71875 95.886719 " fill-opacity="1" fill-rule="nonzero"/><path fill="#3a1714" d="M 82.871094 68.667969 C 82.871094 68.667969 79.125 64.675781 81.363281 57.027344 C 83.753906 48.859375 93.460938 50.183594 93.460938 50.183594 C 93.460938 50.183594 97.164062 48.320312 105.511719 51.027344 C 111.914062 53.101562 119.234375 57.324219 122.648438 63.671875 C 126.699219 71.203125 101.859375 99.144531 101.859375 99.144531 Z M 82.871094 68.667969 " fill-opacity="1" fill-rule="nonzero"/><path fill="#a34b22" d="M 120.128906 73.664062 C 118.664062 71.585938 118.03125 68.765625 118.03125 66.285156 C 117.242188 65.570312 102.574219 63.203125 95.074219 55.785156 C 91.566406 60.664062 87.808594 66.953125 82.976562 68.113281 C 82.550781 75.722656 83.183594 87.808594 85.84375 93.023438 C 88.785156 98.796875 94.429688 103.488281 104.0625 101.214844 C 113.46875 98.996094 119 81.167969 119.535156 77.007812 C 119.664062 76.003906 119.957031 74.8125 120.128906 73.664062 Z M 120.128906 73.664062 " fill-opacity="1" fill-rule="nonzero"/><path fill="#a34b22" d="M 83.234375 68.328125 C 83.234375 68.328125 80.109375 66.71875 78.285156 70.109375 C 76.457031 73.5 79.253906 81.808594 82.8125 82.265625 C 86.285156 82.710938 83.234375 68.328125 83.234375 68.328125 Z M 83.234375 68.328125 " fill-opacity="1" fill-rule="nonzero"/><path fill="#893616" d="M 102.671875 84.339844 C 102.671875 83.839844 102.238281 83.402344 101.734375 83.410156 C 101.234375 83.417969 100.734375 83.425781 100.238281 83.433594 C 99.734375 83.4375 99.304688 83.863281 99.308594 84.371094 C 99.308594 84.875 99.742188 85.3125 100.246094 85.304688 C 100.746094 85.296875 101.246094 85.289062 101.742188 85.28125 C 102.246094 85.273438 102.675781 84.851562 102.671875 84.339844 Z M 102.671875 84.339844 " fill-opacity="1" fill-rule="nonzero"/><path fill="#893616" d="M 82.210938 72.425781 C 81.617188 72.351562 80.792969 74.058594 80.71875 74.652344 C 80.640625 75.246094 82.195312 77.257812 82.195312 77.257812 C 82.195312 77.257812 82.800781 72.503906 82.210938 72.425781 Z M 82.210938 72.425781 " fill-opacity="1" fill-rule="nonzero"/><path fill="#a34b22" d="M 119.640625 73.007812 C 119.640625 73.007812 123.070312 72.238281 123.980469 75.980469 C 124.894531 79.722656 120.339844 86.5 116.78125 86.042969 C 113.308594 85.597656 119.640625 73.007812 119.640625 73.007812 Z M 119.640625 73.007812 " fill-opacity="1" fill-rule="nonzero"/><path fill="#893616" d="M 119.601562 77.230469 C 120.195312 77.308594 120.558594 79.167969 120.484375 79.761719 C 120.40625 80.355469 118.398438 81.910156 118.398438 81.910156 C 118.398438 81.910156 119.007812 77.15625 119.601562 77.230469 Z M 119.601562 77.230469 " fill-opacity="1" fill-rule="nonzero"/><path fill="#3a1714" d="M 108.328125 68.722656 C 108.046875 68.488281 107.894531 68.125 107.960938 67.78125 C 108.058594 67.304688 108.542969 67.046875 109.046875 67.207031 C 109.167969 67.246094 112 68.148438 114.359375 70.269531 C 114.761719 70.632812 114.832031 71.207031 114.515625 71.554688 C 114.199219 71.90625 113.613281 71.910156 113.210938 71.53125 C 111.203125 69.742188 108.730469 68.941406 108.703125 68.933594 C 108.5625 68.886719 108.433594 68.816406 108.328125 68.722656 Z M 108.328125 68.722656 " fill-opacity="1" fill-rule="nonzero"/><path fill="#3a1714" d="M 94.886719 65.289062 C 95.167969 65.058594 95.328125 64.695312 95.261719 64.351562 C 95.171875 63.875 94.691406 63.613281 94.183594 63.765625 C 94.0625 63.804688 91.222656 64.675781 88.839844 66.769531 C 88.429688 67.125 88.355469 67.703125 88.667969 68.054688 C 88.980469 68.40625 89.566406 68.417969 89.972656 68.046875 C 92 66.277344 94.484375 65.503906 94.507812 65.496094 C 94.648438 65.453125 94.777344 65.378906 94.886719 65.289062 Z M 94.886719 65.289062 " fill-opacity="1" fill-rule="nonzero"/><path fill="#1a1a1a" d="M 112.453125 77.640625 C 112.652344 77.472656 112.816406 77.261719 112.929688 77.027344 C 113.300781 76.269531 113.296875 75.390625 112.589844 74.839844 C 112.078125 74.445312 111.125 74.191406 110.527344 74.527344 C 108.859375 75.457031 109.515625 78.183594 111.484375 78.050781 C 111.839844 78.027344 112.179688 77.875 112.453125 77.640625 Z M 112.453125 77.640625 " fill-opacity="1" fill-rule="nonzero"/><path fill="#1a1a1a" d="M 92.246094 75.777344 C 92.441406 75.613281 92.601562 75.40625 92.714844 75.175781 C 93.0625 74.46875 93.082031 73.636719 92.445312 73.089844 C 91.019531 71.867188 89.257812 73.265625 89.535156 74.917969 C 89.675781 75.757812 90.488281 76.234375 91.296875 76.179688 C 91.648438 76.15625 91.976562 76.007812 92.246094 75.777344 Z M 92.246094 75.777344 " fill-opacity="1" fill-rule="nonzero"/><path fill="#ffffff" d="M 97.59375 91.457031 C 97.726562 91.550781 97.859375 91.636719 97.996094 91.71875 C 98.042969 91.738281 98.089844 91.761719 98.136719 91.789062 C 99.429688 92.578125 101.453125 92.46875 102.769531 91.828125 C 104.007812 91.222656 104.992188 90.257812 105.769531 89.140625 C 104.1875 89.128906 102.605469 89.082031 101.023438 88.96875 C 98.9375 88.816406 96.894531 88.375 94.835938 88.0625 C 95.519531 89.363281 96.398438 90.597656 97.59375 91.457031 Z M 97.59375 91.457031 " fill-opacity="1" fill-rule="nonzero"/><path fill="#988c54" d="M 79.160156 113.625 C 82.261719 113.800781 84.9375 115.929688 87.5 117.484375 C 90.390625 119.234375 93.339844 120.910156 96.488281 122.160156 C 100.140625 123.617188 104.054688 124.554688 107.921875 123.363281 C 109.480469 122.878906 111.1875 122.203125 112.335938 121.003906 C 113.960938 119.304688 114.132812 116.773438 113.652344 114.667969 C 113.464844 113.84375 114.160156 113.628906 114.4375 114.476562 C 115.386719 117.382812 115.476562 120.363281 113.015625 122.527344 C 110.355469 124.867188 106.339844 125.789062 102.886719 125.535156 C 98.695312 125.222656 94.648438 123.414062 90.992188 121.445312 C 87.007812 119.300781 83.289062 115.445312 78.824219 114.414062 C 77.820312 114.183594 78.183594 113.570312 79.160156 113.625 Z M 79.160156 113.625 " fill-opacity="1" fill-rule="nonzero"/><path fill="#988c54" d="M 84.207031 102.722656 C 85.414062 102.253906 86.941406 103.113281 88.175781 103.359375 C 89.191406 103.558594 88.9375 104.53125 87.914062 104.359375 C 87.304688 104.253906 86.695312 104.183594 86.074219 104.167969 C 85.484375 104.160156 84.902344 104.214844 84.320312 104.101562 C 83.621094 103.960938 83.546875 102.976562 84.207031 102.722656 Z M 84.207031 102.722656 " fill-opacity="1" fill-rule="nonzero"/><path fill="#ce874d" d="M 126.433594 46.207031 C 126.316406 45.660156 125.457031 45.699219 125.539062 46.289062 C 125.597656 46.683594 125.703125 47.277344 125.511719 47.660156 C 125.523438 48.054688 125.316406 48.152344 124.886719 47.949219 C 124.726562 47.855469 124.566406 47.757812 124.40625 47.660156 C 123.875 47.277344 123.449219 46.765625 123.058594 46.246094 C 122.214844 45.125 121.4375 43.96875 120.550781 42.882812 C 119.648438 41.773438 118.707031 40.695312 117.796875 39.59375 C 117.34375 39.042969 116.898438 38.484375 116.464844 37.914062 C 116.007812 37.308594 114.90625 36.050781 116.277344 35.832031 C 116.757812 35.753906 116.703125 35.019531 116.210938 35.074219 C 115.671875 35.132812 114.917969 35.242188 114.679688 35.804688 C 114.386719 36.507812 115.003906 37.394531 115.375 37.949219 C 116.832031 40.128906 118.738281 42.605469 120.355469 44.660156 C 121.570312 46.207031 122.953125 48.292969 124.742188 49.269531 C 126.589844 50.28125 126.773438 47.769531 126.433594 46.207031 Z M 126.433594 46.207031 " fill-opacity="0.4" fill-rule="nonzero"/><path fill="#b4ab78" d="M 52.457031 140.996094 C 52.457031 140.996094 54.53125 152.59375 54.179688 153.101562 C 53.824219 153.605469 51.921875 159.046875 52.339844 163.847656 C 52.753906 168.652344 54.242188 173.261719 54.28125 173.476562 C 54.320312 173.691406 52.148438 180.769531 57.714844 187.714844 C 64.550781 196.238281 76.804688 188.054688 79.023438 181.894531 C 81.238281 175.730469 78.328125 171.820312 77.628906 170.394531 C 76.929688 168.964844 76.9375 166.527344 76.363281 163.304688 C 75.785156 160.082031 71.367188 150.234375 71.175781 149.160156 C 70.984375 148.085938 68.917969 134.851562 68.917969 134.851562 Z M 52.457031 140.996094 " fill-opacity="1" fill-rule="nonzero"/><path fill="#5b5430" d="M 58.53125 134.140625 C 58.53125 134.140625 51.367188 139.859375 52.457031 140.996094 C 53.542969 142.128906 61.371094 140.273438 61.371094 140.273438 Z M 58.53125 134.140625 " fill-opacity="1" fill-rule="nonzero"/><path fill="#a34b22" d="M 67.894531 109.4375 C 68.066406 109.847656 67.863281 112.675781 67.917969 113.121094 C 68.074219 114.429688 68.398438 115.71875 68.886719 116.945312 C 69.226562 117.792969 68.738281 116.105469 68.976562 116.992188 C 69.746094 119.828125 69.503906 125.292969 69.011719 128.195312 C 68.71875 129.933594 68.664062 131.699219 68.613281 133.460938 C 68.222656 132.261719 67.925781 131.15625 67.363281 130.027344 C 66.867188 129.042969 66.375 128.054688 65.878906 127.066406 C 65.199219 125.707031 64.519531 124.347656 63.839844 122.988281 L 60.015625 117.691406 L 63.304688 111.335938 C 63.988281 111.054688 64.667969 110.773438 65.351562 110.492188 C 65.671875 110.359375 67.628906 109.246094 67.863281 109.394531 C 67.875 109.402344 67.886719 109.414062 67.894531 109.4375 Z M 67.894531 109.4375 " fill-opacity="1" fill-rule="nonzero"/><path fill="#a34b22" d="M 64.214844 117.644531 C 60.464844 117.898438 56.707031 118.0625 52.960938 118.34375 C 54.269531 121.429688 52.871094 119.835938 53.285156 120.941406 C 54.136719 123.226562 53.523438 131.71875 53.578125 133.261719 C 53.632812 134.800781 53.753906 141.339844 53.753906 141.339844 C 53.753906 141.339844 69.4375 140.632812 68.933594 135.375 C 68.527344 131.199219 69.488281 121.183594 69.488281 121.183594 C 69.488281 121.183594 67.507812 121.222656 65.582031 119.128906 C 65.011719 118.507812 64.5625 118.023438 64.214844 117.644531 Z M 64.214844 117.644531 " fill-opacity="1" fill-rule="nonzero"/><path fill="#988c54" d="M 78.820312 170.210938 C 78.277344 169.546875 77.691406 169.0625 77.527344 168.191406 C 77.355469 167.300781 77.445312 166.324219 77.367188 165.421875 C 77.210938 163.59375 76.835938 161.792969 76.394531 160.015625 C 75.960938 158.257812 75.507812 156.496094 74.964844 154.769531 C 74.445312 153.105469 73.707031 151.589844 72.988281 150.011719 C 71.445312 146.628906 71.101562 142.261719 70.191406 138.699219 C 69.953125 137.777344 68.859375 138.527344 69.082031 139.46875 C 69.875 142.855469 69.710938 146.402344 70.789062 149.726562 C 70.851562 149.921875 70.921875 150.113281 70.992188 150.304688 C 70.832031 150.265625 70.65625 150.296875 70.515625 150.453125 C 68.773438 152.359375 66.40625 153.03125 63.914062 153.308594 C 61.023438 153.628906 58.097656 153.425781 55.257812 152.828125 C 54.636719 152.695312 54.386719 153.78125 55.011719 153.925781 C 58.136719 154.644531 61.339844 154.863281 64.53125 154.472656 C 67.066406 154.164062 69.777344 153.390625 71.378906 151.257812 C 71.855469 152.371094 72.398438 153.453125 72.789062 154.605469 C 73.363281 156.289062 73.773438 158.039062 74.207031 159.761719 C 74.632812 161.472656 75.015625 163.199219 75.21875 164.953125 C 75.402344 166.542969 75.09375 168.425781 75.859375 169.894531 C 76.199219 170.542969 76.746094 171.03125 77.203125 171.59375 C 77.742188 172.257812 78.164062 173.007812 78.464844 173.808594 C 79.042969 175.328125 79.050781 176.886719 78.875 178.484375 C 78.757812 179.589844 79.804688 181.703125 80.117188 180.585938 C 80.953125 177.601562 80.765625 172.585938 78.820312 170.210938 Z M 78.820312 170.210938 " fill-opacity="1" fill-rule="nonzero"/><path fill="#006837" d="M 81.597656 85.992188 C 81.597656 85.992188 79.203125 85.890625 78.945312 87.726562 C 78.683594 89.5625 80.5 90.191406 80.5 90.191406 L 79.703125 91.636719 L 85.542969 92.988281 L 87.890625 89.761719 L 86.203125 86 Z M 81.597656 85.992188 " fill-opacity="1" fill-rule="nonzero"/><path fill="#009245" d="M 92.15625 91.328125 C 91.910156 88.363281 89.703125 88.269531 89.703125 88.269531 C 89.703125 88.269531 89.832031 85.136719 87.074219 85.019531 C 87.074219 85.019531 86.136719 80.917969 82.925781 82.816406 C 79.714844 84.710938 81.285156 86.808594 81.285156 86.808594 C 81.285156 86.808594 81.804688 87.570312 83.277344 87.632812 C 83.277344 87.632812 81.730469 89.414062 79.492188 90.058594 C 77.253906 90.703125 76.898438 90.320312 76.339844 90.480469 C 75.78125 90.640625 75.84375 93.597656 76.761719 93.636719 C 77.683594 93.675781 79.476562 93.304688 79.476562 93.304688 L 82.304688 93.3125 C 82.304688 93.3125 82.203125 95.710938 84.03125 96.15625 C 85.855469 96.601562 86.484375 94.78125 86.484375 94.78125 C 86.484375 94.78125 87.746094 95.386719 88.683594 95.058594 C 89.617188 94.726562 89.28125 93.976562 89.28125 93.976562 C 89.28125 93.976562 92.402344 94.289062 92.15625 91.328125 Z M 85.164062 91.035156 L 80.363281 91.203125 C 82.417969 90.550781 83.976562 88.582031 83.976562 88.582031 C 84.304688 89.519531 85.953125 89.773438 85.953125 89.773438 Z M 85.164062 91.035156 " fill-opacity="1" fill-rule="nonzero"/><path fill="#a34b22" d="M 51.519531 122.285156 C 51.359375 122.0625 51.226562 121.816406 51.109375 121.570312 C 50.039062 119.304688 49.964844 116.742188 49.503906 114.3125 C 49.273438 113.101562 48.953125 111.894531 48.355469 110.808594 C 47.765625 109.738281 47.070312 108.855469 47.261719 107.542969 C 47.386719 106.683594 47.917969 105.867188 48.707031 105.503906 C 49.070312 105.339844 49.472656 105.269531 49.867188 105.195312 C 50.808594 105.011719 51.746094 104.785156 52.667969 104.507812 C 53.320312 104.3125 54.257812 104.003906 54.894531 104.425781 C 55.429688 104.78125 55.882812 105.523438 56.054688 106.136719 C 56.027344 106.039062 57.84375 105.164062 58.023438 105.078125 C 58.714844 104.738281 59.425781 104.429688 60.164062 104.210938 C 61.882812 103.703125 64.113281 103.417969 65.113281 105.285156 C 65.335938 105.699219 65.464844 106.160156 65.589844 106.613281 C 65.816406 106.574219 65.980469 106.824219 66.0625 107.039062 C 66.464844 108.078125 66.175781 109.6875 65.773438 110.707031 C 65.464844 111.480469 64.917969 112.140625 64.292969 112.6875 C 62.742188 114.039062 60.648438 114.746094 58.59375 114.613281 C 57.835938 114.566406 57.046875 114.386719 56.476562 113.882812 C 55.910156 113.382812 55.640625 112.628906 55.449219 111.898438 C 55.222656 111.035156 55.074219 110.128906 55.253906 109.253906 C 54.761719 109.429688 54.429688 109.90625 54.261719 110.398438 C 54.089844 110.894531 54.046875 111.421875 53.941406 111.933594 C 53.664062 113.253906 52.949219 114.441406 52.605469 115.742188 C 52.300781 116.910156 52.558594 117.914062 52.453125 119.066406 C 52.390625 119.773438 52.304688 120.460938 52.324219 121.175781 C 52.328125 121.414062 52.324219 123.0625 52.535156 123.144531 C 52.113281 122.984375 51.78125 122.664062 51.519531 122.285156 Z M 51.519531 122.285156 " fill-opacity="1" fill-rule="nonzero"/><path fill="#acbdcf" d="M 84.070312 89.058594 L 81.390625 93.089844 L 78.984375 93.359375 C 78.984375 93.359375 76.816406 96.777344 75.886719 96.921875 C 74.960938 97.070312 72.753906 96.976562 71.25 97.652344 C 69.746094 98.328125 57.949219 106.332031 56.429688 107.378906 C 54.910156 108.421875 51.683594 110.6875 48.339844 111.285156 C 45 111.886719 46.0625 112.851562 46.976562 113.074219 C 47.890625 113.300781 51.386719 113.445312 56.328125 109.773438 C 56.328125 109.773438 65.882812 102.597656 68.917969 100.507812 C 71.953125 98.421875 73.449219 97.929688 74.738281 97.984375 C 76.023438 98.039062 78.410156 98.320312 80.328125 96.554688 C 81.804688 95.195312 83.820312 91.339844 84.761719 89.472656 C 84.523438 89.347656 84.292969 89.214844 84.070312 89.058594 Z M 84.070312 89.058594 " fill-opacity="1" fill-rule="nonzero"/><path fill="#a34b22" d="M 50.074219 115.882812 C 50.226562 115.308594 50.515625 114.746094 50.742188 114.234375 C 51.839844 111.746094 53.039062 109.195312 54.632812 106.984375 C 54.890625 106.625 55.160156 106.269531 55.476562 105.953125 C 57.589844 103.824219 58.367188 102.933594 59.851562 102.628906 C 61.339844 102.320312 62.511719 105.140625 62.511719 105.140625 L 64.875 105.976562 C 64.875 105.976562 65.816406 105.460938 67.089844 105.886719 C 68.363281 106.308594 69.183594 108.742188 69.183594 108.742188 C 69.183594 108.742188 70.277344 108.972656 70.929688 111.03125 C 71.4375 112.640625 71.433594 114.496094 71.476562 116.164062 C 71.519531 117.792969 71.378906 119.652344 70.601562 121.117188 C 70.285156 121.714844 69.875 122.214844 69.410156 122.699219 C 69.058594 123.0625 68.476562 123.269531 68.191406 123.65625 C 67.652344 124.402344 66.457031 124.457031 65.550781 124.300781 C 64.648438 124.144531 63.6875 123.875 62.839844 124.21875 C 62.195312 124.484375 61.722656 125.0625 61.089844 125.351562 C 60.058594 125.820312 58.832031 125.4375 57.738281 125.730469 C 57.195312 125.878906 56.65625 126.191406 56.109375 126.058594 C 55.269531 125.851562 55.015625 124.773438 54.359375 124.203125 C 53.800781 123.714844 53.113281 123.753906 52.460938 123.515625 C 51.792969 123.269531 51.351562 122.730469 51.039062 122.109375 C 50.570312 121.175781 50.335938 120.144531 50.308594 119.097656 C 50.292969 118.300781 50.089844 117.65625 49.988281 116.886719 C 49.945312 116.550781 49.988281 116.214844 50.074219 115.882812 Z M 50.074219 115.882812 " fill-opacity="1" fill-rule="nonzero"/><path fill="#893616" d="M 54.9375 105.777344 C 54.242188 106.714844 53.625 107.746094 53.085938 108.835938 C 52.972656 108.855469 52.863281 108.921875 52.777344 109.042969 C 52.152344 109.949219 51.007812 109.476562 50.789062 108.515625 C 50.695312 108.105469 49.988281 108.140625 50.023438 108.585938 C 50.097656 109.449219 50.566406 110.195312 51.429688 110.449219 C 51.738281 110.539062 52.050781 110.542969 52.34375 110.476562 C 51.269531 113.113281 50.597656 115.980469 50.339844 118.664062 C 50.253906 119.535156 51.152344 119.554688 51.257812 118.703125 C 51.78125 114.488281 53.527344 109.917969 55.953125 106.433594 C 56.402344 105.789062 55.394531 105.160156 54.9375 105.777344 Z M 54.9375 105.777344 " fill-opacity="1" fill-rule="nonzero"/><path fill="#893616" d="M 67.171875 123.582031 C 66.070312 124.433594 64.546875 123.421875 63.3125 123.542969 C 62.722656 123.597656 62.261719 123.839844 61.78125 124.171875 C 61.441406 124.410156 61.160156 124.644531 60.742188 124.722656 C 60.273438 124.808594 59.875 124.613281 59.421875 124.503906 C 58.835938 124.363281 58.320312 124.382812 57.738281 124.546875 C 57.023438 124.75 56.5 124.921875 55.816406 124.488281 C 54.941406 123.925781 54.335938 123.140625 53.230469 123.074219 C 52.613281 123.039062 52.597656 123.9375 53.191406 124.019531 C 54.425781 124.191406 55.050781 125.636719 56.316406 125.851562 C 56.914062 125.953125 57.414062 125.753906 57.980469 125.609375 C 58.894531 125.375 59.554688 125.828125 60.4375 125.871094 C 61.117188 125.90625 61.648438 125.589844 62.191406 125.21875 C 62.953125 124.699219 63.542969 124.550781 64.472656 124.738281 C 65.625 124.976562 66.949219 125.308594 67.878906 124.355469 C 68.359375 123.867188 67.703125 123.171875 67.171875 123.582031 Z M 67.171875 123.582031 " fill-opacity="1" fill-rule="nonzero"/><path fill="#006837" d="M 86.210938 89.484375 C 85.554688 89.382812 84.847656 89.1875 84.363281 88.699219 C 84.160156 88.492188 84.085938 88.214844 83.976562 87.953125 C 83.902344 87.78125 83.761719 87.410156 83.574219 87.351562 C 83.507812 87.332031 83.433594 87.339844 83.363281 87.351562 C 82.910156 87.410156 82.441406 87.414062 82.019531 87.25 C 81.652344 87.105469 81.335938 86.832031 81.140625 86.488281 C 80.941406 86.746094 81.011719 87.140625 81.226562 87.382812 C 81.441406 87.625 81.765625 87.746094 82.078125 87.820312 C 82.386719 87.894531 82.753906 87.917969 83.046875 88.046875 C 83.316406 88.164062 83.335938 88.519531 83.480469 88.75 C 83.929688 89.460938 84.644531 89.84375 85.417969 90.058594 C 84.804688 90.785156 84.707031 91.746094 85.171875 92.632812 C 84.863281 92.980469 84.828125 93.558594 84.863281 94.03125 C 84.894531 94.492188 85.613281 94.53125 85.585938 94.0625 C 85.578125 93.921875 85.53125 93.152344 85.730469 93.085938 C 86.011719 92.996094 86.082031 92.714844 85.917969 92.484375 C 85.347656 91.6875 85.558594 90.699219 86.367188 90.175781 C 86.6875 89.972656 86.574219 89.539062 86.210938 89.484375 Z M 86.210938 89.484375 " fill-opacity="1" fill-rule="nonzero"/><path fill="#006837" d="M 77.28125 93.300781 C 77.136719 92.40625 76.929688 91.539062 76.628906 90.683594 C 76.515625 90.367188 76.042969 90.429688 76.046875 90.726562 C 76.007812 90.773438 75.976562 90.839844 75.972656 90.917969 C 75.90625 91.640625 75.804688 93.773438 76.949219 93.703125 C 77.171875 93.691406 77.320312 93.527344 77.28125 93.300781 Z M 77.28125 93.300781 " fill-opacity="1" fill-rule="nonzero"/><path fill="#4a3333" d="M 160.839844 162.746094 C 160.839844 162.746094 159.34375 154.050781 132.40625 154.050781 C 105.464844 154.050781 106.363281 161.246094 106.363281 161.246094 L 108.460938 168.445312 L 129.710938 176.539062 L 156.949219 172.640625 L 161.4375 163.644531 Z M 160.839844 162.746094 " fill-opacity="1" fill-rule="nonzero"/><path fill="#006935" d="M 124.96875 160.707031 C 126.195312 159.328125 127.539062 158.066406 128.976562 156.933594 C 129.425781 155.828125 130.035156 154.804688 130.820312 153.886719 C 131.195312 153.445312 131.816406 154.082031 131.453125 154.523438 C 131.132812 154.914062 130.839844 155.324219 130.582031 155.746094 C 132.304688 154.554688 134.140625 153.535156 136.058594 152.703125 C 137.058594 151.390625 138.417969 150.316406 140.03125 149.898438 C 140.453125 149.789062 140.769531 150.441406 140.339844 150.632812 C 139.554688 150.984375 138.824219 151.382812 138.167969 151.878906 C 140.703125 150.988281 143.359375 150.414062 146.070312 150.199219 C 147.488281 150.085938 147.070312 151.035156 145.679688 151.175781 C 144.378906 151.304688 143.105469 151.558594 141.863281 151.910156 C 142.144531 151.992188 142.421875 152.082031 142.695312 152.191406 C 143.199219 152.390625 143.003906 153.195312 142.464844 153.023438 C 141.695312 152.773438 140.925781 152.582031 140.132812 152.476562 C 138.214844 153.1875 136.371094 154.132812 134.625 155.253906 C 136.285156 155.019531 138.011719 155.238281 139.671875 155.742188 C 140.230469 155.910156 139.996094 156.777344 139.433594 156.617188 C 136.964844 155.910156 134.390625 155.785156 132.109375 157.035156 C 130.085938 158.601562 128.210938 160.382812 126.511719 162.257812 C 125.566406 163.304688 124.03125 161.753906 124.96875 160.707031 Z M 124.96875 160.707031 " fill-opacity="1" fill-rule="nonzero"/><path fill="#006935" d="M 150.597656 163.675781 C 150.378906 161.621094 151.066406 159.972656 152.226562 158.636719 C 152.824219 157.371094 153.675781 156.277344 154.769531 155.386719 C 155.140625 155.085938 155.53125 155.703125 155.175781 156.003906 C 154.882812 156.25 154.613281 156.511719 154.355469 156.785156 C 155.140625 156.253906 155.984375 155.792969 156.835938 155.386719 C 157.59375 154.457031 158.566406 153.746094 159.660156 153.238281 C 160.09375 153.039062 160.328125 153.742188 159.898438 153.945312 C 159.574219 154.09375 159.269531 154.269531 158.980469 154.460938 C 159.003906 154.449219 159.027344 154.441406 159.046875 154.433594 C 160.171875 153.992188 160.136719 155.050781 159.027344 155.5 C 158.011719 155.914062 156.925781 156.46875 155.933594 157.167969 C 156.214844 157.160156 156.503906 157.175781 156.792969 157.226562 C 157.273438 157.308594 157.128906 158.046875 156.648438 157.96875 C 155.941406 157.859375 155.238281 157.960938 154.605469 158.257812 C 154.066406 158.773438 153.589844 159.347656 153.214844 159.980469 C 153.367188 159.90625 153.523438 159.835938 153.679688 159.769531 C 154.117188 159.585938 154.355469 160.292969 153.917969 160.472656 C 153.488281 160.644531 153.085938 160.855469 152.695312 161.101562 C 152.433594 161.847656 152.3125 162.664062 152.382812 163.546875 C 152.476562 164.707031 150.71875 164.820312 150.597656 163.675781 Z M 150.597656 163.675781 " fill-opacity="1" fill-rule="nonzero"/><path fill="#c31d20" d="M 131.738281 154.488281 C 131.828125 155.367188 131.46875 156.269531 130.835938 156.886719 C 130.199219 157.5 129.316406 157.832031 128.433594 157.839844 C 127.707031 157.847656 126.953125 157.625 126.4375 157.109375 C 125.945312 156.613281 125.722656 155.878906 125.785156 155.179688 C 125.847656 154.476562 126.175781 153.816406 126.644531 153.292969 C 126.980469 152.917969 127.390625 152.605469 127.855469 152.410156 C 129.425781 151.742188 131.550781 152.664062 131.738281 154.488281 Z M 131.738281 154.488281 " fill-opacity="1" fill-rule="nonzero"/><path fill="#298b80" d="M 142.175781 153.558594 C 141.917969 152.824219 141.304688 152.257812 140.632812 151.859375 C 139.789062 151.355469 138.710938 151.074219 137.820312 151.496094 C 137.550781 151.628906 137.308594 151.820312 137.023438 151.921875 C 136.179688 152.238281 135.136719 151.730469 134.367188 152.203125 C 133.511719 152.726562 133.625 154 133.128906 154.867188 C 132.601562 155.785156 131.433594 156.136719 130.378906 156.089844 C 129.683594 156.058594 128.953125 155.863281 128.476562 155.351562 C 128.105469 154.953125 127.933594 154.402344 127.847656 153.859375 C 127.597656 152.3125 127.875 150.558594 126.910156 149.324219 C 126.125 148.324219 124.75 148.007812 123.476562 147.976562 C 122 147.941406 120.328125 148.320312 119.558594 149.589844 C 118.992188 150.527344 119.066406 151.703125 119.195312 152.792969 C 118.402344 152.667969 117.621094 153.21875 117.265625 153.9375 C 116.90625 154.65625 116.902344 155.5 117.003906 156.292969 C 115.578125 156.050781 114.09375 156.871094 113.34375 158.109375 C 112.59375 159.347656 112.515625 160.917969 112.921875 162.308594 C 113.007812 162.597656 113.117188 162.894531 113.332031 163.105469 C 113.542969 163.316406 113.832031 163.421875 114.113281 163.515625 C 117.125 164.507812 120.488281 164.464844 123.238281 166.042969 C 124.089844 166.53125 124.867188 167.167969 125.777344 167.539062 C 126.917969 167.996094 128.183594 168.003906 129.414062 168 C 131.074219 168 132.769531 167.992188 134.351562 167.480469 C 134.597656 167.398438 134.847656 167.304688 135.109375 167.304688 C 135.449219 167.308594 135.765625 167.464844 136.074219 167.609375 C 137.589844 168.316406 139.320312 168.722656 140.945312 168.3125 C 142.566406 167.902344 144.011719 166.519531 144.105469 164.84375 C 144.21875 162.863281 142.734375 161.078125 142.347656 159.179688 C 142.1875 158.390625 142.007812 157.660156 142.066406 156.851562 C 142.144531 155.769531 142.554688 154.628906 142.175781 153.558594 Z M 142.175781 153.558594 " fill-opacity="1" fill-rule="nonzero"/><path fill="#006935" d="M 111.980469 157.066406 C 111.890625 156.933594 111.800781 156.796875 111.792969 156.640625 C 111.769531 156.359375 112.015625 156.117188 112.285156 156.039062 C 112.550781 155.964844 112.839844 156.011719 113.113281 156.058594 C 110.71875 154.941406 108.386719 153.324219 107.3125 150.90625 C 107.226562 150.710938 107.148438 150.5 107.164062 150.285156 C 107.179688 150.074219 107.3125 149.855469 107.523438 149.808594 C 107.703125 149.765625 107.886719 149.859375 108.046875 149.953125 C 109.652344 150.894531 111.019531 152.195312 112.367188 153.480469 C 112.015625 152.90625 111.90625 152.1875 112.066406 151.535156 C 112.140625 151.234375 112.363281 150.894531 112.664062 150.957031 C 112.796875 150.984375 112.898438 151.085938 112.988281 151.1875 C 113.882812 152.195312 114.269531 153.542969 114.632812 154.84375 C 114.628906 154.371094 114.746094 153.875 115.066406 153.523438 C 115.382812 153.175781 115.933594 153.011719 116.351562 153.238281 C 116.691406 153.421875 116.875 153.800781 117.019531 154.160156 C 117.492188 155.3125 117.859375 156.511719 118.113281 157.734375 C 118.359375 157.21875 118.726562 156.765625 119.179688 156.417969 C 119.320312 156.308594 119.480469 156.207031 119.660156 156.195312 C 120.082031 156.164062 120.367188 156.617188 120.5 157.019531 C 121.195312 159.152344 120.367188 161.464844 120.449219 163.707031 C 118.707031 163.992188 117.03125 163.003906 115.585938 161.988281 C 115.042969 161.605469 114.316406 161.117188 114.105469 160.453125 C 114.796875 160.09375 115.542969 160.339844 116.230469 160.164062 C 115.734375 159.804688 115.019531 159.664062 114.464844 159.386719 C 113.425781 158.875 112.632812 158.011719 111.980469 157.066406 Z M 111.980469 157.066406 " fill-opacity="1" fill-rule="nonzero"/><path fill="#ef404c" d="M 136.527344 159.886719 C 136.617188 160.765625 136.257812 161.667969 135.625 162.285156 C 134.988281 162.898438 134.105469 163.230469 133.222656 163.238281 C 132.496094 163.246094 131.742188 163.023438 131.226562 162.507812 C 130.734375 162.011719 130.511719 161.273438 130.574219 160.574219 C 130.636719 159.875 130.964844 159.214844 131.433594 158.691406 C 131.769531 158.316406 132.179688 158.003906 132.644531 157.804688 C 134.214844 157.140625 136.339844 158.0625 136.527344 159.886719 Z M 136.527344 159.886719 " fill-opacity="1" fill-rule="nonzero"/><path fill="#006935" d="M 124.199219 156.410156 C 124.6875 156.65625 125.167969 156.917969 125.640625 157.183594 C 125.753906 156.972656 126.035156 156.820312 126.308594 156.976562 C 127.035156 157.390625 127.625 157.96875 128.050781 158.671875 C 128.851562 159.207031 129.625 159.777344 130.378906 160.375 C 130.226562 159.425781 129.90625 158.515625 129.425781 157.652344 C 129.140625 157.132812 129.980469 156.746094 130.261719 157.265625 C 130.925781 158.484375 131.285156 159.804688 131.355469 161.171875 C 131.945312 161.671875 132.519531 162.1875 133.082031 162.726562 C 134.140625 163.742188 132.378906 165.164062 131.328125 164.171875 C 130.832031 163.703125 130.339844 163.199219 129.847656 162.683594 C 129.382812 162.667969 128.917969 162.652344 128.453125 162.628906 C 127.878906 162.605469 127.957031 161.703125 128.53125 161.738281 C 128.679688 161.746094 128.832031 161.757812 128.980469 161.769531 C 128.78125 161.554688 128.582031 161.34375 128.378906 161.132812 C 127.816406 160.980469 127.25 160.855469 126.683594 160.738281 C 126.128906 160.621094 126.183594 159.746094 126.757812 159.84375 C 126.894531 159.871094 127.035156 159.898438 127.171875 159.925781 C 126.757812 159.53125 126.335938 159.152344 125.898438 158.796875 C 125.351562 158.757812 124.8125 158.773438 124.261719 158.820312 C 123.707031 158.871094 123.539062 158.042969 124.109375 157.953125 C 124.289062 157.925781 124.46875 157.910156 124.652344 157.898438 C 124.386719 157.726562 124.117188 157.566406 123.835938 157.421875 C 122.53125 156.75 122.863281 155.734375 124.199219 156.410156 Z M 124.199219 156.410156 " fill-opacity="1" fill-rule="nonzero"/><path fill="#4a3333" d="M 127.25 160.675781 C 127.757812 160.746094 128.226562 161.113281 128.507812 161.617188 C 128.785156 162.125 128.878906 162.753906 128.789062 163.332031 C 128.714844 163.808594 128.511719 164.269531 128.164062 164.53125 C 127.832031 164.785156 127.394531 164.824219 127.007812 164.679688 C 126.621094 164.535156 126.28125 164.226562 126.039062 163.84375 C 125.863281 163.566406 125.730469 163.253906 125.667969 162.917969 C 125.457031 161.792969 126.203125 160.535156 127.25 160.675781 Z M 127.25 160.675781 " fill-opacity="1" fill-rule="nonzero"/><path fill="#b5ac75" d="M 126.28125 163.511719 C 126.253906 163.199219 126.226562 162.886719 126.199219 162.574219 C 126 162.605469 125.792969 162.582031 125.609375 162.5 C 125.683594 162.070312 125.757812 161.621094 125.648438 161.195312 C 125.535156 160.773438 125.179688 160.378906 124.742188 160.375 C 124.382812 160.371094 124.070312 160.617188 123.839844 160.890625 C 123.832031 160.265625 123.679688 159.644531 123.390625 159.089844 C 123.296875 158.917969 123.1875 158.746094 123.023438 158.636719 C 122.570312 158.34375 121.953125 158.699219 121.65625 159.148438 C 121.359375 159.601562 121.214844 160.15625 120.839844 160.546875 C 120.757812 160.636719 120.644531 160.71875 120.527344 160.6875 C 120.425781 160.660156 120.367188 160.5625 120.316406 160.472656 C 120.140625 160.152344 119.96875 159.835938 119.792969 159.515625 C 119.722656 159.390625 119.632812 159.25 119.492188 159.238281 C 119.316406 159.222656 119.191406 159.414062 119.15625 159.585938 C 119.117188 159.761719 119.117188 159.953125 119.007812 160.089844 C 118.765625 160.386719 118.277344 160.148438 118.054688 159.835938 C 117.832031 159.527344 117.648438 159.121094 117.277344 159.039062 C 116.972656 158.972656 116.664062 159.167969 116.5 159.429688 C 116.332031 159.695312 116.285156 160.011719 116.238281 160.316406 C 115.78125 159.921875 115.324219 159.523438 114.867188 159.128906 C 114.765625 159.042969 114.625 158.949219 114.511719 159.023438 C 114.445312 159.066406 114.421875 159.152344 114.40625 159.230469 C 114.339844 159.53125 114.273438 159.832031 114.207031 160.128906 C 113.839844 159.832031 113.433594 159.515625 112.957031 159.515625 C 112.484375 159.515625 112.003906 160.023438 112.222656 160.445312 C 111.761719 160.273438 111.164062 160.136719 110.851562 160.519531 C 110.691406 160.714844 110.667969 160.984375 110.65625 161.238281 C 110.640625 161.542969 110.621094 161.847656 110.605469 162.152344 C 110.59375 162.414062 110.578125 162.683594 110.664062 162.929688 C 110.757812 163.203125 110.960938 163.425781 111.171875 163.625 C 112.253906 164.648438 113.628906 165.292969 115 165.878906 C 118.714844 167.464844 122.707031 168.734375 126.726562 168.363281 C 126.9375 168.34375 127.152344 168.316406 127.332031 168.214844 C 128.226562 167.707031 127.699219 166.101562 127.757812 165.277344 C 127.792969 164.796875 127.949219 164.210938 127.847656 163.738281 C 127.683594 162.96875 126.890625 163.386719 126.28125 163.511719 Z M 126.28125 163.511719 " fill-opacity="1" fill-rule="nonzero"/><path fill="#ef404c" d="M 119.183594 165.320312 C 119.003906 166.1875 118.386719 166.9375 117.597656 167.332031 C 116.808594 167.722656 115.863281 167.769531 115.019531 167.507812 C 114.324219 167.292969 113.671875 166.855469 113.339844 166.207031 C 113.019531 165.582031 113.03125 164.816406 113.300781 164.167969 C 113.574219 163.519531 114.085938 162.992188 114.691406 162.632812 C 115.125 162.378906 115.613281 162.203125 116.113281 162.15625 C 117.8125 162 119.558594 163.523438 119.183594 165.320312 Z M 119.183594 165.320312 " fill-opacity="1" fill-rule="nonzero"/><path fill="#298b80" d="M 124.320312 164.464844 C 123.066406 164.339844 121.863281 164.945312 120.78125 165.585938 C 120.296875 164.785156 119.410156 164.238281 118.476562 164.171875 C 117.542969 164.101562 116.585938 164.511719 115.988281 165.238281 C 115.488281 164.214844 114.855469 163.246094 114.011719 162.484375 C 113.167969 161.722656 112.101562 161.179688 110.96875 161.101562 C 110.515625 161.066406 110.046875 161.113281 109.636719 161.308594 C 108.9375 161.648438 108.507812 162.402344 108.378906 163.171875 C 108.191406 164.320312 108.601562 165.511719 109.292969 166.453125 C 109.980469 167.390625 110.929688 168.105469 111.910156 168.734375 C 114.34375 170.289062 117.101562 171.375 119.96875 171.722656 C 121.417969 171.894531 122.925781 171.875 124.28125 171.335938 C 125.695312 170.777344 127.132812 169.425781 127.226562 167.820312 C 127.324219 166.203125 125.902344 164.625 124.320312 164.464844 Z M 124.320312 164.464844 " fill-opacity="1" fill-rule="nonzero"/><path fill="#998e4e" d="M 161.699219 162.765625 C 161.871094 162.359375 162.105469 161.976562 162.25 161.554688 C 162.625 160.441406 162.242188 159.113281 161.335938 158.371094 C 160.425781 157.628906 159.050781 157.519531 158.035156 158.109375 C 157.585938 158.371094 157.214844 158.746094 156.78125 159.03125 C 156.34375 159.316406 155.796875 159.503906 155.308594 159.328125 C 154.566406 159.066406 154.230469 158.078125 153.460938 157.917969 C 153.125 157.847656 152.746094 157.957031 152.441406 157.789062 C 152.1875 157.648438 152.0625 157.347656 151.996094 157.066406 C 151.761719 156.101562 151.9375 155.03125 151.472656 154.15625 C 151.21875 153.679688 150.792969 153.3125 150.332031 153.035156 C 149.132812 152.308594 147.585938 152.136719 146.292969 152.6875 C 145.003906 153.234375 144.03125 154.53125 143.96875 155.933594 C 142.683594 155.875 141.425781 156.835938 141.140625 158.089844 C 140.667969 160.171875 142.609375 162.074219 142.6875 164.203125 C 141.964844 163.734375 140.960938 163.902344 140.261719 164.410156 C 139.5625 164.921875 139.117188 165.707031 138.769531 166.496094 C 138.042969 168.15625 137.640625 170.019531 138 171.796875 C 138.023438 171.929688 138.058594 172.066406 138.152344 172.164062 C 138.265625 172.28125 138.4375 172.316406 138.601562 172.339844 C 140.355469 172.597656 142.136719 172.628906 143.910156 172.621094 C 147.28125 172.609375 150.710938 172.46875 153.890625 171.347656 C 155.871094 170.652344 157.742188 169.539062 159.191406 168.007812 C 159.914062 167.246094 160.539062 166.371094 160.984375 165.414062 C 161.378906 164.566406 161.339844 163.625 161.699219 162.765625 Z M 161.699219 162.765625 " fill-opacity="1" fill-rule="nonzero"/><path fill="#006935" d="M 145.890625 161.5625 C 145.980469 161.433594 146.070312 161.292969 146.082031 161.136719 C 146.101562 160.859375 145.859375 160.617188 145.589844 160.539062 C 145.320312 160.460938 145.035156 160.507812 144.757812 160.558594 C 147.152344 159.441406 149.488281 157.824219 150.558594 155.402344 C 150.644531 155.207031 150.722656 155 150.707031 154.785156 C 150.695312 154.570312 150.558594 154.351562 150.351562 154.304688 C 150.167969 154.265625 149.988281 154.355469 149.828125 154.453125 C 148.21875 155.394531 146.855469 156.691406 145.503906 157.980469 C 145.855469 157.402344 145.96875 156.6875 145.804688 156.03125 C 145.734375 155.734375 145.507812 155.394531 145.207031 155.457031 C 145.078125 155.484375 144.972656 155.585938 144.882812 155.6875 C 143.988281 156.695312 143.601562 158.042969 143.242188 159.34375 C 143.242188 158.867188 143.125 158.371094 142.808594 158.023438 C 142.488281 157.671875 141.9375 157.511719 141.519531 157.734375 C 141.179688 157.917969 141 158.296875 140.851562 158.65625 C 140.378906 159.8125 140.015625 161.007812 139.761719 162.230469 C 139.515625 161.71875 139.144531 161.261719 138.695312 160.917969 C 138.550781 160.808594 138.390625 160.707031 138.210938 160.695312 C 137.789062 160.664062 137.503906 161.117188 137.371094 161.519531 C 136.679688 163.652344 137.507812 165.960938 137.421875 168.203125 C 139.164062 168.492188 140.839844 167.503906 142.285156 166.488281 C 142.832031 166.105469 143.554688 165.617188 143.765625 164.953125 C 143.074219 164.59375 142.332031 164.835938 141.640625 164.664062 C 142.136719 164.300781 142.851562 164.160156 143.40625 163.886719 C 144.449219 163.371094 145.238281 162.507812 145.890625 161.5625 Z M 145.890625 161.5625 " fill-opacity="1" fill-rule="nonzero"/><path fill="#ef404c" d="M 152.992188 162.585938 C 153.082031 163.464844 152.71875 164.367188 152.085938 164.984375 C 151.453125 165.597656 150.566406 165.929688 149.683594 165.9375 C 148.957031 165.941406 148.203125 165.722656 147.691406 165.207031 C 147.195312 164.707031 146.972656 163.972656 147.035156 163.273438 C 147.097656 162.574219 147.425781 161.914062 147.894531 161.390625 C 148.230469 161.015625 148.640625 160.703125 149.105469 160.503906 C 150.675781 159.839844 152.800781 160.761719 152.992188 162.585938 Z M 152.992188 162.585938 " fill-opacity="1" fill-rule="nonzero"/><path fill="#4a3333" d="M 142.902344 167.34375 C 142.664062 167.796875 142.15625 168.109375 141.585938 168.199219 C 141.019531 168.289062 140.398438 168.15625 139.886719 167.871094 C 139.464844 167.636719 139.101562 167.285156 138.976562 166.871094 C 138.855469 166.472656 138.972656 166.046875 139.238281 165.730469 C 139.503906 165.414062 139.914062 165.207031 140.359375 165.109375 C 140.675781 165.039062 141.015625 165.023438 141.351562 165.078125 C 142.476562 165.273438 143.398438 166.410156 142.902344 167.34375 Z M 142.902344 167.34375 " fill-opacity="1" fill-rule="nonzero"/><path fill="#4a3333" d="M 121.863281 166.675781 C 122.371094 166.742188 122.839844 167.109375 123.117188 167.617188 C 123.398438 168.121094 123.492188 168.75 123.402344 169.328125 C 123.328125 169.804688 123.121094 170.269531 122.777344 170.527344 C 122.445312 170.78125 122.007812 170.820312 121.621094 170.675781 C 121.230469 170.535156 120.894531 170.222656 120.648438 169.839844 C 120.472656 169.5625 120.339844 169.25 120.277344 168.917969 C 120.070312 167.792969 120.816406 166.53125 121.863281 166.675781 Z M 121.863281 166.675781 " fill-opacity="1" fill-rule="nonzero"/><path fill="#59b7ae" d="M 151.292969 164.832031 C 149.667969 164.195312 147.632812 164.894531 146.738281 166.394531 C 145.71875 165.742188 144.382812 166.230469 143.28125 166.730469 C 142.46875 167.101562 141.65625 167.46875 140.84375 167.839844 C 140.609375 166.699219 139.480469 165.8125 138.320312 165.859375 C 138.425781 164.269531 137.601562 162.652344 136.253906 161.804688 C 135.140625 161.105469 133.757812 160.933594 132.453125 161.09375 C 130.921875 161.28125 129.429688 161.925781 128.332031 163.011719 C 127.234375 164.097656 126.5625 165.636719 126.644531 167.179688 C 125.964844 166.699219 125.03125 166.667969 124.25 166.960938 C 123.46875 167.253906 122.820312 167.832031 122.300781 168.484375 C 121.738281 169.1875 121.285156 170.039062 121.3125 170.941406 C 126.589844 173.9375 132.84375 174.628906 138.902344 174.800781 C 141.371094 174.871094 143.863281 174.863281 146.28125 174.351562 C 147.714844 174.050781 149.128906 173.5625 150.347656 172.75 C 151.507812 171.972656 153.574219 170.335938 153.75 168.84375 C 153.9375 167.246094 152.75 165.402344 151.292969 164.832031 Z M 151.292969 164.832031 " fill-opacity="1" fill-rule="nonzero"/><path fill="#a34b22" d="M 152.25 188.675781 C 151.304688 189.269531 150.085938 189.164062 148.996094 188.921875 C 148.417969 188.792969 147.851562 188.632812 147.292969 188.441406 C 146.890625 188.304688 146.472656 188.132812 146.203125 187.804688 C 145.886719 187.414062 145.828125 186.871094 145.871094 186.371094 C 145.914062 185.875 146.050781 185.367188 146.386719 185 C 146.714844 184.640625 147.195312 184.457031 147.664062 184.328125 C 149.816406 183.730469 153.519531 183.523438 153.414062 186.65625 C 153.382812 187.464844 152.933594 188.242188 152.25 188.675781 Z M 152.25 188.675781 " fill-opacity="1" fill-rule="nonzero"/><path fill="#4a3333" d="M 156.46875 167.125 C 156.503906 167.636719 156.238281 168.171875 155.800781 168.546875 C 155.363281 168.925781 154.769531 169.140625 154.183594 169.171875 C 153.703125 169.195312 153.210938 169.089844 152.886719 168.800781 C 152.570312 168.527344 152.445312 168.105469 152.503906 167.695312 C 152.566406 167.289062 152.804688 166.894531 153.128906 166.574219 C 153.359375 166.347656 153.640625 166.152344 153.953125 166.023438 C 155.011719 165.59375 156.394531 166.070312 156.46875 167.125 Z M 156.46875 167.125 " fill-opacity="1" fill-rule="nonzero"/><path fill="#893616" d="M 128.328125 190.859375 C 128.328125 190.859375 124.695312 192.417969 122.585938 191.875 C 120.472656 191.332031 119.777344 187.753906 119.777344 187.753906 Z M 128.328125 190.859375 " fill-opacity="1" fill-rule="nonzero"/><path fill="#a34b22" d="M 135.398438 190.332031 C 135.398438 190.332031 132.378906 194.445312 130.746094 194.488281 C 129.113281 194.53125 128.277344 191.074219 128.277344 191.074219 Z M 135.398438 190.332031 " fill-opacity="1" fill-rule="nonzero"/><path fill="#efb44b" d="M 161.4375 163.644531 C 161.4375 163.644531 158.445312 171.742188 133.902344 170.542969 C 109.359375 169.34375 106.363281 162.144531 106.363281 161.246094 C 106.363281 161.246094 104.269531 177.738281 117.140625 186.734375 C 130.011719 195.730469 149.765625 190.332031 155.453125 182.238281 C 161.140625 174.140625 162.335938 166.34375 161.4375 163.644531 Z M 161.4375 163.644531 " fill-opacity="1" fill-rule="nonzero"/><path fill="#a34b22" d="M 138.894531 194.488281 C 138.449219 194.222656 138.09375 193.820312 137.828125 193.371094 C 137.269531 192.421875 137.101562 191.296875 137 190.199219 C 136.925781 189.421875 136.886719 188.609375 137.167969 187.882812 C 137.453125 187.15625 138.148438 186.53125 138.929688 186.578125 C 140.539062 186.675781 142.238281 189.703125 142.480469 191.179688 C 142.8125 193.21875 141.175781 195.828125 138.894531 194.488281 Z M 138.894531 194.488281 " fill-opacity="1" fill-rule="nonzero"/><path fill="#a34b22" d="M 127.59375 187.910156 C 126.988281 187.726562 126.253906 187.738281 125.808594 188.1875 C 125.53125 188.476562 125.414062 188.894531 125.425781 189.296875 C 125.460938 190.355469 126.25 191.214844 126.996094 191.96875 C 127.429688 192.410156 127.863281 192.847656 128.296875 193.289062 C 128.804688 193.800781 129.355469 194.339844 130.0625 194.480469 C 130.710938 194.609375 131.382812 194.375 131.917969 193.992188 C 133.230469 193.058594 131.738281 191.675781 131.066406 190.832031 C 130.128906 189.65625 129.09375 188.355469 127.59375 187.910156 Z M 127.59375 187.910156 " fill-opacity="1" fill-rule="nonzero"/><path fill="#ffffff" d="M 116.605469 178.109375 C 116.589844 178.070312 116.574219 178.035156 116.558594 178 C 115.753906 176.257812 114.988281 174.449219 114.796875 172.519531 C 114.675781 171.308594 114.816406 169.5 113.339844 169.09375 C 112.460938 168.851562 111.320312 169.394531 111.132812 170.351562 C 110.8125 171.988281 111.375 173.621094 111.945312 175.148438 C 112.53125 176.71875 113.226562 178.238281 114.195312 179.613281 C 114.6875 180.308594 115.546875 180.609375 116.359375 180.328125 C 117.40625 179.964844 116.96875 178.898438 116.605469 178.109375 Z M 116.605469 178.109375 " fill-opacity="1" fill-rule="nonzero"/><path fill="#ffffff" d="M 117.707031 181.40625 C 116.25 181.40625 116.246094 183.679688 117.707031 183.679688 C 119.167969 183.679688 119.171875 181.40625 117.707031 181.40625 Z M 117.707031 181.40625 " fill-opacity="1" fill-rule="nonzero"/></svg>