<svg xmlns="http://www.w3.org/2000/svg" xmlns:xlink="http://www.w3.org/1999/xlink"  zoomAndPan="magnify" viewBox="0 0 224.87999 225" preserveAspectRatio="xMidYMid meet" version="1.0"><defs><clipPath id="7f15d25964"><path d="M 22.488281 162 L 116 162 L 116 197.65625 L 22.488281 197.65625 Z M 22.488281 162 " clip-rule="nonzero"/></clipPath><clipPath id="1705a7bbd9"><path d="M 83 141 L 202.390625 141 L 202.390625 153 L 83 153 Z M 83 141 " clip-rule="nonzero"/></clipPath><clipPath id="c0fe7b5c31"><path d="M 22.488281 141 L 55 141 L 55 153 L 22.488281 153 Z M 22.488281 141 " clip-rule="nonzero"/></clipPath><clipPath id="42499e8316"><path d="M 57 27.496094 L 119 27.496094 L 119 88 L 57 88 Z M 57 27.496094 " clip-rule="nonzero"/></clipPath></defs><g clip-path="url(#7f15d25964)"><path fill="currentColor" d="M 68.914062 169.8125 C 66.34375 169.8125 64.289062 168.257812 60.207031 165.171875 C 58.976562 164.238281 57.601562 163.207031 55.960938 162.007812 L 34.105469 169.175781 L 34.035156 169.203125 L 32.371094 169.746094 C 26.457031 171.957031 22.488281 177.683594 22.488281 184.007812 L 22.488281 196.546875 C 22.488281 197.144531 22.96875 197.628906 23.566406 197.628906 L 35.449219 197.628906 L 35.449219 189.152344 C 35.449219 187.953125 36.410156 186.992188 37.601562 186.992188 C 38.800781 186.992188 39.761719 187.953125 39.761719 189.152344 L 39.761719 197.628906 L 98.058594 197.628906 L 98.058594 189.152344 C 98.058594 187.953125 99.023438 186.992188 100.21875 186.992188 C 101.410156 186.992188 102.375 187.953125 102.375 189.152344 L 102.375 197.628906 L 114.257812 197.628906 C 114.855469 197.628906 115.339844 197.144531 115.339844 196.546875 L 115.339844 184.007812 C 115.339844 177.683594 111.367188 171.957031 105.460938 169.746094 L 81.871094 162.007812 C 80.226562 163.207031 78.847656 164.242188 77.617188 165.175781 C 73.539062 168.257812 71.488281 169.8125 68.914062 169.8125 Z M 68.914062 169.8125 " fill-opacity="1" fill-rule="evenodd"/></g><path fill="#000000" d="M 189.078125 157.191406 L 83.660156 157.191406 L 83.660156 158.039062 L 106.851562 165.648438 C 106.878906 165.660156 106.898438 165.664062 106.933594 165.675781 C 108.777344 166.359375 110.472656 167.316406 111.988281 168.476562 L 189.082031 168.476562 Z M 189.078125 157.191406 " fill-opacity="1" fill-rule="evenodd"/><g clip-path="url(#1705a7bbd9)"><path fill="#000000" d="M 198.714844 141.585938 Z M 116.027344 141.585938 L 89.148438 141.585938 C 88.160156 145.070312 86.28125 148.273438 83.664062 150.855469 L 83.664062 152.875 L 202.390625 152.875 L 202.390625 141.589844 L 130.84375 141.589844 Z M 116.027344 141.585938 " fill-opacity="1" fill-rule="evenodd"/></g><path fill="#000000" d="M 67.691406 99.617188 Z M 51.4375 107.984375 C 46.550781 115.953125 48.777344 120.863281 50.746094 125.195312 C 51.304688 126.429688 51.824219 127.59375 52.15625 128.761719 C 52.203125 128.953125 52.234375 129.148438 52.234375 129.34375 L 52.234375 135.863281 C 52.234375 140.597656 54.253906 145.128906 57.773438 148.292969 C 60.816406 151.03125 64.738281 152.542969 68.828125 152.570312 L 68.917969 152.570312 C 73.019531 152.570312 76.957031 151.066406 80.019531 148.34375 L 80.089844 148.273438 C 83.601562 145.105469 85.613281 140.589844 85.613281 135.863281 L 85.613281 128.925781 C 85.613281 128.480469 85.75 128.046875 86.003906 127.683594 C 94.820312 115.144531 86.660156 108.765625 86.3125 108.492188 C 85.828125 108.125 85.515625 107.566406 85.457031 106.957031 C 85.402344 106.347656 85.597656 105.742188 86.015625 105.289062 L 89.816406 101.160156 L 79.570312 101.160156 C 79.402344 101.160156 79.238281 101.144531 79.070312 101.097656 C 74.601562 100.039062 70.839844 99.613281 67.675781 99.613281 C 54.238281 99.613281 51.675781 107.386719 51.648438 107.484375 C 51.613281 107.664062 51.535156 107.835938 51.4375 107.984375 Z M 51.4375 107.984375 " fill-opacity="1" fill-rule="evenodd"/><path fill="#000000" d="M 68.914062 165.492188 Z M 68.804688 156.890625 C 65.15625 156.871094 61.609375 155.90625 58.496094 154.117188 L 58.496094 158.503906 C 60.1875 159.738281 61.625 160.824219 62.8125 161.722656 C 65.914062 164.074219 67.789062 165.484375 68.917969 165.484375 C 70.046875 165.484375 71.914062 164.070312 75.019531 161.722656 C 76.214844 160.824219 77.652344 159.738281 79.347656 158.5 L 79.347656 154.125 C 76.195312 155.925781 72.617188 156.886719 68.929688 156.886719 Z M 68.804688 156.890625 " fill-opacity="1" fill-rule="evenodd"/><path fill="#000000" d="M 54.171875 157.191406 L 35.546875 157.191406 L 35.546875 164.15625 L 54.171875 158.042969 Z M 54.171875 157.191406 " fill-opacity="1" fill-rule="evenodd"/><g clip-path="url(#c0fe7b5c31)"><path fill="#000000" d="M 48.714844 141.585938 L 22.488281 141.585938 L 22.488281 152.871094 L 54.175781 152.871094 L 54.175781 150.835938 C 51.570312 148.261719 49.699219 145.0625 48.714844 141.585938 Z M 48.714844 141.585938 " fill-opacity="1" fill-rule="evenodd"/></g><g clip-path="url(#42499e8316)"><path fill="#000000" d="M 109.859375 48.617188 C 109.859375 49.8125 108.894531 50.777344 107.703125 50.777344 L 68.230469 50.777344 C 67.035156 50.777344 66.066406 49.8125 66.066406 48.617188 C 66.066406 47.421875 67.03125 46.457031 68.226562 46.457031 L 107.695312 46.457031 C 108.894531 46.457031 109.859375 47.421875 109.859375 48.617188 Z M 57.386719 28.972656 L 57.386719 68.257812 C 57.386719 69.054688 58.035156 69.707031 58.832031 69.707031 L 91.476562 69.707031 C 93.394531 69.707031 94.804688 70.335938 95.679688 71.574219 L 106.65625 87.195312 C 106.765625 87.359375 107.4375 87.398438 108.058594 87.023438 C 108.636719 86.691406 108.890625 86.078125 108.734375 85.433594 L 108.402344 84.066406 C 108.246094 83.410156 107.769531 80.972656 107.429688 78.632812 C 106.757812 74.027344 106.976562 72.796875 107.664062 71.910156 C 108.78125 70.488281 110.394531 69.703125 112.199219 69.703125 L 117.097656 69.703125 C 117.894531 69.703125 118.539062 69.050781 118.539062 68.257812 L 118.539062 28.976562 C 118.539062 28.179688 117.886719 27.535156 117.089844 27.535156 L 58.835938 27.535156 C 58.039062 27.523438 57.386719 28.175781 57.386719 28.972656 Z M 68.230469 58.390625 L 107.703125 58.390625 C 108.894531 58.390625 109.859375 59.347656 109.859375 60.550781 C 109.859375 61.742188 108.894531 62.710938 107.703125 62.710938 L 68.230469 62.710938 C 67.035156 62.710938 66.066406 61.742188 66.066406 60.550781 C 66.070312 59.347656 67.035156 58.390625 68.230469 58.390625 Z M 107.703125 38.847656 L 68.230469 38.847656 C 67.035156 38.847656 66.066406 37.878906 66.066406 36.6875 C 66.066406 35.492188 67.03125 34.527344 68.226562 34.527344 L 107.695312 34.527344 C 108.890625 34.527344 109.855469 35.492188 109.855469 36.6875 C 109.859375 37.878906 108.894531 38.847656 107.703125 38.847656 Z M 107.703125 38.847656 " fill-opacity="1" fill-rule="evenodd"/></g><path fill="#000000" d="M 142.960938 37.710938 C 137.375 42.527344 135.1875 48.269531 136.441406 54.789062 C 136.484375 55 136.523438 55.207031 136.570312 55.417969 C 136.761719 54.101562 136.941406 53.128906 136.988281 52.851562 C 137.167969 51.894531 137.964844 51.179688 138.929688 51.097656 C 161.632812 49.191406 167.996094 43.039062 168.050781 42.976562 C 168.566406 42.425781 169.335938 42.179688 170.074219 42.34375 C 174.9375 43.382812 177.15625 48.765625 178.148438 53.996094 C 178.082031 49.183594 176.726562 43.925781 175.773438 41.175781 C 171.5 35.296875 166.542969 31.996094 161.03125 31.378906 C 160.375 31.300781 159.71875 31.269531 159.078125 31.269531 C 150.320312 31.269531 143.035156 37.648438 142.960938 37.710938 Z M 142.960938 37.710938 " fill-opacity="1" fill-rule="evenodd"/><path fill="#000000" d="M 140.378906 63.929688 C 141.5625 70.054688 143.941406 75.058594 147.09375 78.457031 L 147.140625 78.511719 C 150.042969 81.617188 153.601562 83.363281 157.472656 83.371094 L 157.507812 83.371094 C 161.253906 83.371094 164.710938 81.746094 167.566406 78.835938 C 167.617188 78.785156 167.664062 78.730469 167.71875 78.679688 C 170.917969 75.347656 173.355469 70.386719 174.589844 64.289062 C 174.773438 59.191406 173.863281 49.046875 170.046875 46.902344 C 167.328125 48.917969 159.3125 53.488281 140.953125 55.257812 C 140.558594 57.800781 140.074219 61.785156 140.367188 63.925781 Z M 140.378906 63.929688 " fill-opacity="1" fill-rule="evenodd"/><path fill="#000000" d="M 147.707031 87.230469 L 157.371094 102.042969 L 167.035156 87.230469 L 167.035156 84.835938 C 164.160156 86.6875 160.945312 87.691406 157.519531 87.691406 L 157.46875 87.691406 C 153.9375 87.679688 150.628906 86.609375 147.707031 84.652344 Z M 147.707031 87.230469 " fill-opacity="1" fill-rule="evenodd"/><path fill="#000000" d="M 179.050781 97.71875 L 178.980469 112.980469 C 178.980469 113.265625 178.925781 113.542969 178.808594 113.800781 L 169.125 137.257812 L 181.734375 137.257812 L 181.734375 113.871094 C 181.734375 112.679688 182.699219 111.710938 183.890625 111.710938 C 185.085938 111.710938 186.050781 112.679688 186.050781 113.871094 L 186.050781 137.257812 L 196.546875 137.257812 L 196.546875 108.765625 C 196.546875 98.597656 186.457031 90.296875 173.933594 90.035156 L 178.613281 96.429688 C 178.902344 96.804688 179.050781 97.257812 179.050781 97.71875 Z M 179.050781 97.71875 " fill-opacity="1" fill-rule="evenodd"/><path fill="#000000" d="M 170.703125 92.917969 L 160.105469 137.261719 L 164.464844 137.261719 L 174.667969 112.546875 L 174.726562 98.414062 Z M 170.703125 92.917969 " fill-opacity="1" fill-rule="evenodd"/><path fill="#000000" d="M 149.761719 98.28125 L 157.371094 130.136719 L 164.980469 98.28125 L 159.175781 107.167969 C 158.78125 107.78125 158.097656 108.144531 157.371094 108.144531 C 156.644531 108.144531 155.960938 107.777344 155.566406 107.167969 Z M 149.761719 98.28125 " fill-opacity="1" fill-rule="evenodd"/><path fill="#000000" d="M 141.34375 111.210938 L 150.375 137.261719 L 154.632812 137.261719 L 144.039062 92.917969 L 140.085938 98.320312 Z M 141.34375 111.210938 " fill-opacity="1" fill-rule="evenodd"/><path fill="#000000" d="M 140.792969 90.042969 C 128.269531 90.300781 118.1875 98.601562 118.1875 108.769531 L 118.1875 137.261719 L 128.675781 137.261719 L 128.675781 113.878906 C 128.675781 112.683594 129.640625 111.71875 130.832031 111.71875 C 132.03125 111.71875 132.992188 112.683594 132.992188 113.878906 L 132.992188 137.261719 L 145.796875 137.261719 L 137.179688 112.378906 C 137.125 112.214844 137.085938 112.054688 137.070312 111.886719 L 135.703125 97.917969 C 135.648438 97.386719 135.796875 96.859375 136.105469 96.429688 Z M 140.792969 90.042969 " fill-opacity="1" fill-rule="evenodd"/></svg>