<svg xmlns="http://www.w3.org/2000/svg" xmlns:xlink="http://www.w3.org/1999/xlink"  zoomAndPan="magnify" viewBox="0 0 224.87999 225"  preserveAspectRatio="xMidYMid meet" version="1.0"><defs><clipPath id="cd88b0e92a"><path d="M 58.019531 22.546875 L 166.710938 22.546875 L 166.710938 202 L 58.019531 202 Z M 58.019531 22.546875 " clip-rule="nonzero"/></clipPath></defs><path fill="currentColor" d="M 107.757812 190.699219 C 106.65625 190.195312 104.476562 189 102.363281 187.445312 C 100.246094 185.890625 98.21875 183.957031 96.242188 181.683594 C 94.265625 179.40625 92.339844 176.78125 90.792969 174.078125 C 89.246094 171.378906 88.121094 168.707031 87.160156 165.914062 C 86.199219 163.117188 85.394531 160.195312 84.792969 157.125 C 84.191406 154.050781 83.808594 150.835938 83.75 149.199219 C 83.6875 147.5625 83.730469 147.421875 83.679688 147.480469 C 83.628906 147.539062 83.375 147.695312 83.132812 147.710938 C 82.894531 147.730469 82.878906 147.726562 83.425781 148.421875 C 83.972656 149.121094 85.320312 150.734375 86.816406 152.359375 C 88.308594 153.984375 89.941406 155.628906 91.671875 157.332031 C 93.402344 159.035156 95.253906 160.777344 96.628906 159.347656 C 98.003906 157.921875 96.9375 155.015625 96.140625 152.332031 C 95.347656 149.648438 94.894531 147.164062 94.757812 144.882812 C 94.617188 142.605469 94.78125 140.527344 95.066406 139.070312 C 95.351562 137.613281 95.542969 136.75 95.75 135.90625 C 95.960938 135.0625 96.199219 134.242188 96.457031 133.441406 C 96.71875 132.640625 97.007812 131.863281 99.855469 125.335938 C 102.707031 118.8125 108.195312 106.527344 108.609375 105.3125 C 109.027344 104.097656 109.46875 102.617188 109.957031 100.832031 C 110.441406 99.042969 110.957031 96.945312 111.46875 94.527344 C 111.984375 92.105469 112.726562 89.4375 112.851562 89.414062 C 112.976562 89.390625 113.019531 89.3125 113.050781 89.265625 C 113.082031 89.214844 113.105469 89.1875 113.121094 89.171875 C 113.136719 89.160156 112.96875 89.246094 112.886719 89.132812 C 112.804688 89.015625 113.199219 89.527344 113.867188 91.210938 C 114.535156 92.890625 115.257812 95.609375 115.988281 99.304688 C 116.714844 103 117.429688 107.644531 117.539062 109.039062 C 117.648438 110.429688 117.738281 111.828125 117.785156 113.191406 C 117.832031 114.554688 117.84375 115.882812 117.835938 117.179688 C 117.828125 118.472656 117.777344 119.746094 117.71875 120.859375 C 117.660156 121.972656 117.535156 123.515625 117.335938 125.484375 C 117.140625 127.453125 116.875 129.847656 116.578125 132.671875 C 116.277344 135.492188 115.875 138.757812 115.871094 139.421875 C 115.867188 140.085938 115.886719 140.621094 115.921875 141.089844 C 115.960938 141.558594 116.039062 141.980469 116.195312 142.386719 C 116.347656 142.792969 116.75 143.296875 118.414062 143.839844 C 120.078125 144.378906 122.023438 143.578125 124.1875 141.792969 C 126.351562 140.007812 128.902344 137.238281 131.878906 133.449219 C 134.851562 129.65625 138.195312 124.898438 138.042969 125.109375 C 137.894531 125.320312 138.015625 125.371094 138.179688 125.523438 C 138.34375 125.675781 138.539062 126.027344 138.722656 126.59375 C 138.90625 127.160156 139.046875 127.914062 139.289062 130.714844 C 139.53125 133.511719 139.539062 136.386719 139.335938 139.34375 C 139.136719 142.300781 138.703125 145.339844 138.0625 148.472656 C 137.421875 151.601562 136.535156 154.828125 135.617188 158 C 134.703125 161.167969 133.613281 164.257812 132.328125 167.265625 C 131.042969 170.277344 129.574219 173.210938 128.507812 175.453125 C 127.441406 177.699219 127.648438 177.820312 128.472656 176.382812 C 128.472656 176.382812 130.445312 173.6875 131.96875 170.734375 C 133.488281 167.785156 134.828125 164.746094 136.003906 161.621094 C 137.179688 158.5 138.171875 155.304688 139.085938 152.082031 C 140 148.859375 140.695312 145.695312 141.140625 142.59375 C 141.585938 139.492188 141.785156 136.453125 141.75 133.484375 C 141.71875 130.511719 141.429688 127.625 141.234375 126.707031 C 141.039062 125.785156 140.746094 125.011719 140.316406 124.359375 C 139.886719 123.707031 139.269531 123.226562 138.515625 123.007812 C 137.765625 122.792969 136.273438 123.316406 132.941406 127.707031 C 129.613281 132.101562 126.832031 135.433594 124.578125 137.714844 C 122.320312 139.996094 120.648438 141.191406 119.832031 141.445312 C 119.015625 141.699219 118.523438 141.210938 118.628906 141.332031 C 118.730469 141.453125 118.699219 141.34375 118.652344 141.09375 C 118.605469 140.84375 118.578125 140.472656 118.550781 139.996094 C 118.527344 139.519531 118.566406 139.058594 118.988281 135.96875 C 119.410156 132.875 119.777344 130.191406 120.035156 127.917969 C 120.296875 125.648438 120.496094 123.792969 120.617188 122.347656 C 120.738281 120.898438 120.789062 119.875 120.835938 118.558594 C 120.886719 117.242188 120.917969 115.882812 120.902344 114.496094 C 120.886719 113.109375 120.835938 111.6875 120.761719 110.234375 C 120.6875 108.78125 120.570312 107.214844 119.839844 102.792969 C 119.105469 98.375 118.363281 94.875 117.589844 92.265625 C 116.816406 89.652344 115.949219 87.859375 114.496094 86.851562 C 113.039062 85.847656 111.617188 86.316406 111.28125 86.558594 C 110.941406 86.796875 110.71875 87.019531 110.535156 87.265625 C 110.347656 87.507812 110.191406 87.773438 110.066406 88.046875 C 109.941406 88.324219 110.007812 88.773438 109.421875 91.378906 C 108.835938 93.984375 108.15625 96.230469 107.621094 98.1875 C 107.085938 100.140625 106.613281 101.78125 106.203125 103.097656 C 105.789062 104.417969 105.453125 105.34375 100.128906 117.6875 C 94.804688 130.03125 94.46875 130.878906 94.167969 131.726562 C 93.863281 132.574219 93.578125 133.4375 93.324219 134.328125 C 93.074219 135.214844 92.84375 136.121094 92.648438 137.042969 C 92.453125 137.964844 92.019531 140.140625 91.921875 142.5625 C 91.828125 144.984375 92.089844 147.570312 92.699219 150.316406 C 93.304688 153.0625 94.238281 155.980469 95.535156 158.488281 C 96.832031 160.996094 97.085938 158.785156 95.300781 157.09375 C 93.515625 155.402344 91.871094 153.738281 90.375 152.09375 C 88.878906 150.445312 87.488281 148.859375 86.191406 147.289062 C 84.894531 145.71875 84.222656 145.230469 83.644531 145.074219 C 83.066406 144.917969 82.359375 145.046875 81.855469 145.472656 C 81.347656 145.902344 81.105469 146.402344 81.03125 147.0625 C 80.960938 147.722656 81.347656 151.132812 81.933594 154.382812 C 82.519531 157.632812 83.28125 160.738281 84.222656 163.699219 C 85.164062 166.664062 86.328125 169.464844 87.710938 172.121094 C 89.09375 174.773438 91.144531 177.648438 93.238281 180.128906 C 95.332031 182.613281 97.484375 184.726562 99.6875 186.464844 C 101.890625 188.203125 104.125 189.597656 105.28125 190.152344 C 107.566406 191.167969 106.625 190.234375 107.757812 190.699219 Z M 107.757812 190.699219 " fill-opacity="1" fill-rule="nonzero"/><g clip-path="url(#cd88b0e92a)"><path fill="#000000" d="M 98.527344 201.882812 C 93.734375 199.519531 85.339844 194.230469 78.867188 187.882812 C 72.394531 181.535156 67.726562 174.1875 64.796875 165.738281 C 61.867188 157.289062 60.816406 147.65625 60.855469 141.894531 C 60.898438 136.136719 61.027344 134.558594 61.273438 132.195312 C 61.515625 129.828125 61.886719 126.691406 62.390625 122.785156 C 62.894531 118.875 63.527344 114.199219 64.09375 111.199219 C 64.660156 108.199219 64.761719 107.488281 64.859375 106.960938 C 64.957031 106.4375 65.039062 106.125 65.015625 106.136719 C 64.988281 106.148438 64.210938 106.6875 64.085938 106.71875 C 63.957031 106.753906 63.710938 106.714844 63.789062 106.765625 C 63.867188 106.820312 64.125 107.023438 64.492188 107.371094 C 64.855469 107.714844 65.300781 108.207031 69.261719 113.464844 C 73.21875 118.722656 80.867188 128.800781 81.667969 126.042969 C 82.464844 123.285156 82.117188 121.273438 82.023438 119.171875 C 81.933594 117.066406 82.066406 114.875 82.476562 112.585938 C 82.890625 110.300781 83.558594 107.902344 83.816406 107.15625 C 84.074219 106.414062 84.363281 105.683594 84.65625 104.980469 C 84.953125 104.28125 85.265625 103.609375 85.597656 102.972656 C 85.933594 102.335938 86.222656 101.816406 90.582031 95.566406 C 94.945312 89.3125 98.523438 84.007812 101.292969 79.640625 C 104.0625 75.273438 106.066406 71.859375 107.320312 69.351562 C 108.570312 66.84375 109.011719 65.359375 109.476562 64.175781 C 109.945312 62.988281 110.402344 61.664062 110.820312 60.257812 C 111.238281 58.855469 111.617188 57.367188 111.960938 55.800781 C 112.308594 54.234375 112.609375 52.617188 112.945312 50.796875 C 113.285156 48.972656 113.605469 46.699219 113.910156 43.984375 C 114.214844 41.273438 114.519531 38.121094 114.835938 34.527344 C 115.148438 30.929688 115.40625 26.914062 115.480469 26.8125 C 115.550781 26.710938 115.613281 26.5625 115.679688 26.441406 C 115.75 26.316406 115.828125 26.214844 115.929688 26.125 C 116.027344 26.03125 115.09375 26.210938 116.59375 26.722656 C 118.089844 27.230469 119.710938 28.71875 121.425781 31.328125 C 123.144531 33.9375 124.875 37.660156 126.585938 42.476562 C 128.296875 47.292969 129.960938 53.128906 130.738281 58.574219 C 131.515625 64.023438 131.980469 69.753906 132.09375 75.738281 C 132.203125 81.722656 131.984375 87.964844 131.394531 94.457031 C 130.808594 100.949219 129.890625 107.855469 131.242188 108.945312 C 132.597656 110.035156 133.636719 109.894531 134.523438 109.402344 C 135.40625 108.914062 136.160156 108.1875 136.855469 107.25 C 137.554688 106.3125 138.191406 105.230469 138.898438 104.035156 C 139.605469 102.839844 140.421875 101.199219 141.335938 99.144531 C 142.25 97.085938 143.273438 94.605469 144.394531 91.691406 C 145.515625 88.777344 146.738281 85.441406 146.90625 85.183594 C 147.070312 84.921875 147.167969 84.742188 147.179688 84.714844 C 147.191406 84.6875 146.996094 84.839844 146.363281 84.90625 C 145.734375 84.96875 144.800781 84.09375 148.460938 92.425781 C 152.125 100.761719 155.035156 107.847656 157.261719 113.644531 C 159.484375 119.441406 160.980469 123.960938 161.75 127.140625 C 162.523438 130.316406 162.601562 132.328125 162.828125 138.199219 C 163.054688 144.074219 161.964844 149.921875 159.480469 155.882812 C 157 161.847656 153.066406 167.90625 149.632812 172.753906 C 146.199219 177.605469 146.367188 177.746094 148.910156 174.707031 C 148.910156 174.707031 154.773438 169.207031 158.636719 163.09375 C 162.5 156.976562 164.914062 150.765625 165.804688 144.46875 C 166.695312 138.171875 166.039062 132.015625 165.714844 129.402344 C 165.390625 126.789062 164.34375 122.929688 162.582031 117.867188 C 160.820312 112.800781 158.347656 106.5 155.128906 98.96875 C 151.914062 91.433594 148.019531 82.628906 146.953125 82.085938 C 145.890625 81.539062 145.136719 81.828125 144.753906 82.191406 C 144.371094 82.558594 144.132812 82.917969 143.925781 83.316406 C 143.71875 83.714844 143.582031 84.25 142.378906 87.425781 C 141.175781 90.597656 140.09375 93.324219 139.132812 95.605469 C 138.171875 97.886719 137.324219 99.714844 136.605469 101.082031 C 135.886719 102.449219 135.261719 103.421875 134.679688 104.339844 C 134.101562 105.257812 133.609375 105.859375 133.242188 106.175781 C 132.875 106.492188 132.699219 106.574219 132.667969 106.574219 C 132.636719 106.578125 133.261719 108.0625 134.109375 101.375 C 134.957031 94.6875 135.457031 88.164062 135.613281 81.878906 C 135.769531 75.59375 135.554688 69.550781 134.996094 63.746094 C 134.441406 57.941406 133.480469 52.320312 131.742188 46.609375 C 130.003906 40.898438 128.195312 36.25 126.292969 32.609375 C 124.390625 28.972656 122.351562 26.328125 120.058594 24.699219 C 117.769531 23.074219 115.324219 22.648438 114.410156 23.074219 C 113.496094 23.503906 113.152344 23.851562 112.871094 24.246094 C 112.585938 24.640625 112.363281 25.074219 112.199219 25.53125 C 112.035156 25.992188 111.980469 26.648438 111.714844 30.527344 C 111.449219 34.410156 111.21875 37.832031 110.933594 40.792969 C 110.648438 43.757812 110.324219 46.261719 110.003906 48.308594 C 109.6875 50.351562 109.347656 51.972656 109.035156 53.539062 C 108.722656 55.109375 108.378906 56.578125 108.007812 57.957031 C 107.636719 59.335938 107.238281 60.628906 106.804688 61.832031 C 106.375 63.039062 105.863281 64.277344 105.242188 65.9375 C 104.621094 67.597656 103.214844 70.25 100.996094 73.902344 C 98.777344 77.554688 95.769531 82.191406 92.015625 87.828125 C 88.257812 93.464844 83.683594 100.078125 83.277344 100.816406 C 82.871094 101.554688 82.515625 102.277344 82.175781 103.027344 C 81.839844 103.777344 81.519531 104.558594 81.226562 105.367188 C 80.933594 106.175781 80.644531 107.050781 80.03125 109.566406 C 79.417969 112.085938 79.058594 114.542969 78.949219 116.933594 C 78.839844 119.324219 79.023438 121.644531 79.453125 123.894531 C 79.882812 126.148438 83.382812 126.652344 75.925781 116.625 C 68.46875 106.59375 67.824219 105.867188 67.300781 105.351562 C 66.78125 104.835938 66.300781 104.414062 65.824219 104.078125 C 65.347656 103.746094 64.796875 103.5 64.292969 103.449219 C 63.789062 103.398438 63.242188 103.445312 62.605469 104.070312 C 61.964844 104.699219 61.796875 105.179688 61.675781 105.730469 C 61.550781 106.285156 61.4375 106.964844 61.425781 107.796875 C 61.414062 108.628906 60.835938 113.839844 60.265625 118.269531 C 59.699219 122.703125 59.246094 126.367188 58.910156 129.269531 C 58.570312 132.167969 58.339844 134.308594 58.226562 135.714844 C 58.117188 137.125 58.007812 147.804688 59.855469 157.402344 C 61.703125 167 65.445312 175.425781 71.15625 182.558594 C 76.867188 189.695312 84.488281 195.46875 88.9375 197.847656 C 98.304688 202.394531 93.613281 199.714844 98.527344 201.882812 Z M 98.527344 201.882812 " fill-opacity="1" fill-rule="nonzero"/></g></svg>