<svg xmlns="http://www.w3.org/2000/svg" xmlns:xlink="http://www.w3.org/1999/xlink" zoomAndPan="magnify" viewBox="0 0 224.87999 225" preserveAspectRatio="xMidYMid meet" version="1.0"><defs><clipPath id="9fd67b5058"><path d="M 22.488281 142 L 201 142 L 201 201.769531 L 22.488281 201.769531 Z M 22.488281 142 " clip-rule="nonzero"/></clipPath><clipPath id="a1c771bb9d"><path d="M 27 23.367188 L 59 23.367188 L 59 139 L 27 139 Z M 27 23.367188 " clip-rule="nonzero"/></clipPath></defs><g clip-path="url(#9fd67b5058)"><path fill="currentColor" d="M 22.597656 142.707031 L 22.597656 150.59375 C 24.550781 163.808594 67.289062 201.769531 77.066406 201.769531 L 145.824219 201.769531 C 155.601562 201.769531 198.34375 163.808594 200.292969 150.589844 L 200.292969 142.707031 Z M 22.597656 142.707031 " fill-opacity="1" fill-rule="nonzero"/></g><path fill="currentColor" d="M 150.003906 100.359375 C 150.320312 100.113281 157.765625 94.277344 158.160156 87.082031 C 158.226562 85.855469 157.289062 84.804688 156.0625 84.734375 C 154.832031 84.667969 153.789062 85.609375 153.71875 86.835938 C 153.4375 91.988281 147.34375 96.789062 147.28125 96.835938 C 147.402344 96.738281 147.535156 96.660156 147.675781 96.59375 L 147.285156 96.832031 C 146.3125 97.585938 146.132812 98.984375 146.882812 99.957031 C 147.632812 100.925781 149.03125 101.105469 150.003906 100.359375 Z M 150.003906 100.359375 " fill-opacity="1" fill-rule="nonzero"/><path fill="currentColor" d="M 153.585938 130.089844 C 150.863281 129.382812 145.203125 129.289062 143.285156 134.007812 C 142.820312 135.148438 143.371094 136.441406 144.507812 136.90625 C 145.648438 137.371094 146.941406 136.820312 147.40625 135.683594 C 148.335938 133.394531 152.425781 134.386719 152.46875 134.398438 C 153.65625 134.707031 154.871094 133.992188 155.179688 132.804688 C 155.488281 131.613281 154.773438 130.402344 153.585938 130.089844 Z M 153.585938 130.089844 " fill-opacity="1" fill-rule="nonzero"/><path fill="currentColor" d="M 196.300781 120.832031 C 188.339844 124.480469 178.769531 134.402344 182.21875 136.21875 C 185.664062 138.03125 190.589844 135.089844 195.855469 130.914062 C 201.121094 126.738281 202.230469 118.113281 196.300781 120.832031 Z M 196.300781 120.832031 " fill-opacity="1" fill-rule="nonzero"/><path fill="currentColor" d="M 132.753906 93.039062 C 129.222656 93.1875 124.292969 93.929688 122.21875 98.667969 C 122.214844 98.671875 121.898438 99.382812 121.898438 99.382812 C 121.136719 101.074219 120.351562 102.824219 121.105469 104.671875 C 121.847656 106.5 123.789062 107.453125 125.398438 108.085938 C 130.707031 110.164062 137.0625 109 139.863281 105.433594 C 141.40625 103.46875 141.492188 100.417969 140.078125 97.65625 C 138.558594 94.679688 135.753906 92.914062 132.753906 93.039062 Z M 136.367188 102.679688 C 134.972656 104.460938 130.785156 105.414062 127.015625 103.9375 C 125.488281 103.339844 125.210938 102.960938 125.199219 102.945312 C 125.222656 102.976562 125.246094 103.050781 125.246094 103.089844 C 125.238281 102.796875 125.652344 101.878906 125.953125 101.207031 L 126.289062 100.453125 C 126.878906 99.101562 128.136719 97.6875 132.933594 97.488281 C 134.804688 97.410156 135.84375 99.148438 136.117188 99.679688 C 136.761719 100.9375 136.75 102.191406 136.367188 102.679688 Z M 136.367188 102.679688 " fill-opacity="1" fill-rule="nonzero"/><path fill="currentColor" d="M 104.21875 95.320312 C 100.484375 94.902344 97.609375 97.433594 94.984375 100.0625 C 93.707031 101.339844 91.773438 103.273438 91.886719 105.792969 C 91.960938 107.46875 92.898438 109.035156 94.742188 110.574219 C 94.742188 110.574219 95.511719 111.222656 95.511719 111.222656 C 98.902344 114.097656 101.253906 115.699219 106.65625 112.546875 C 111.507812 109.714844 111.804688 107.511719 111.691406 104.710938 C 111.679688 104.410156 111.667969 104.097656 111.667969 103.785156 C 111.667969 99.847656 107.023438 95.632812 104.21875 95.320312 Z M 107.21875 103.785156 C 107.21875 104.1875 107.234375 104.558594 107.246094 104.886719 C 107.3125 106.550781 107.332031 107 104.417969 108.699219 C 101.457031 110.429688 101.164062 110.183594 98.390625 107.828125 L 97.589844 107.15625 C 96.679688 106.394531 96.34375 105.839844 96.332031 105.59375 C 96.308594 105.035156 97.632812 103.710938 98.128906 103.210938 C 100.398438 100.941406 102.128906 99.566406 103.730469 99.746094 C 103.707031 99.742188 103.695312 99.738281 103.695312 99.738281 C 104.664062 99.953125 107.21875 102.332031 107.21875 103.785156 Z M 107.21875 103.785156 " fill-opacity="1" fill-rule="nonzero"/><path fill="currentColor" d="M 123.222656 119.421875 C 118.75 117.386719 108.066406 113.246094 105.457031 118.730469 C 104.902344 119.894531 103.777344 121.160156 102.78125 122.277344 C 101.050781 124.21875 99.417969 126.050781 99.964844 128.214844 C 100.28125 129.464844 101.234375 130.394531 102.800781 130.960938 C 108.027344 132.863281 114.5625 134.714844 118.777344 132.136719 C 122.234375 130.023438 123.386719 125.738281 124.003906 123.441406 C 124.113281 123.042969 124.246094 122.554688 124.304688 122.410156 C 124.773438 121.300781 124.320312 119.917969 123.222656 119.421875 Z M 116.457031 128.339844 C 113.671875 130.042969 107.261719 127.84375 104.6875 126.910156 C 105.078125 126.394531 105.65625 125.738281 106.097656 125.238281 C 107.285156 123.90625 108.628906 122.398438 109.457031 120.675781 C 110.289062 119.992188 114.753906 120.773438 119.59375 122.710938 C 119.089844 124.550781 118.257812 127.238281 116.457031 128.339844 Z M 188.542969 106.925781 C 188.339844 102.09375 187.6875 100.980469 185.707031 98.796875 L 185.4375 98.496094 C 183.738281 96.605469 181.453125 95.8125 179 96.261719 C 175.238281 96.953125 172.058594 100.292969 170.972656 103.085938 C 170.683594 103.828125 170.316406 104.550781 169.960938 105.246094 C 168.699219 107.714844 167.128906 110.792969 169.910156 114.425781 C 173.492188 119.113281 177.28125 119.417969 182.582031 115.445312 C 183.8125 114.519531 184.71875 113.984375 185.453125 113.554688 C 188.214844 111.921875 188.707031 110.871094 188.542969 106.925781 Z M 118.488281 76.746094 C 115.394531 76.277344 108.019531 75.613281 106.371094 79.574219 C 105.046875 82.757812 105.460938 88.65625 105.511719 89.320312 C 105.59375 90.355469 106.382812 91.199219 107.414062 91.347656 C 108.410156 91.492188 117.257812 92.683594 121.46875 90.578125 C 124.003906 89.308594 125.226562 86.351562 124.589844 83.039062 C 123.914062 79.523438 121.40625 76.988281 118.488281 76.746094 Z M 118.488281 76.746094 " fill-opacity="1" fill-rule="nonzero"/><g clip-path="url(#a1c771bb9d)"><path fill="currentColor" d="M 45.015625 92.882812 L 45.078125 92.875 C 44.125 86.484375 43.582031 82.710938 42.625 77.25 C 37.257812 46.535156 32.371094 23.304688 28.949219 23.726562 C 28.929688 23.726562 28.914062 23.726562 28.90625 23.734375 C 28.898438 23.734375 28.886719 23.734375 28.878906 23.734375 C 28.871094 23.738281 28.863281 23.738281 28.851562 23.738281 C 28.84375 23.742188 28.828125 23.742188 28.8125 23.746094 C 25.398438 24.21875 28.046875 50.519531 33.0625 80.699219 C 33.972656 86.171875 34.515625 88.253906 35.621094 94.71875 C 35.621094 94.71875 25.78125 102.15625 27.839844 111.621094 C 29.371094 118.667969 37.480469 137.136719 38.332031 138.199219 C 36.367188 127.511719 35.84375 113.753906 38.511719 113.753906 C 40.289062 113.308594 44.628906 127.996094 47.183594 137.011719 C 47.183594 137.011719 46.628906 112.417969 48.742188 112.308594 C 51.441406 112.164062 54.058594 125.179688 54.925781 136.011719 C 55.472656 134.765625 58.527344 114.824219 58.1875 107.621094 C 57.722656 97.945312 45.015625 92.882812 45.015625 92.882812 Z M 45.015625 92.882812 " fill-opacity="1" fill-rule="nonzero"/></g><path fill="currentColor" d="M 170.921875 125.070312 C 170.363281 123.757812 167.929688 120.0625 159.15625 122.035156 C 159.238281 119.335938 158.332031 116.742188 156.476562 114.765625 C 154.101562 112.238281 150.78125 111.285156 147.8125 112.277344 C 146.011719 112.875 143.09375 114.664062 141.734375 119.902344 C 138.761719 118.773438 135.851562 118.785156 133.59375 120.019531 C 131.511719 121.152344 130.253906 123.226562 130.222656 125.5625 C 130.175781 129.074219 132.789062 132.621094 137.390625 135.289062 C 138.457031 135.90625 139.816406 135.546875 140.429688 134.480469 C 141.046875 133.414062 140.6875 132.054688 139.621094 131.441406 C 135.945312 129.304688 134.652344 127.035156 134.667969 125.621094 C 134.683594 124.6875 135.246094 124.183594 135.722656 123.925781 C 136.917969 123.273438 139.25 123.238281 142.210938 125.089844 C 142.855469 125.5 143.667969 125.539062 144.355469 125.207031 C 145.046875 124.875 145.515625 124.207031 145.597656 123.449219 C 146.019531 119.65625 147.339844 117.121094 149.21875 116.496094 C 150.503906 116.070312 152.078125 116.585938 153.234375 117.8125 C 154.8125 119.496094 155.175781 121.929688 154.210938 124.324219 C 153.886719 125.128906 154.058594 126.050781 154.65625 126.683594 C 155.25 127.3125 156.164062 127.542969 156.984375 127.265625 C 163.546875 125.046875 166.496094 126.03125 166.835938 126.820312 C 167.214844 127.703125 165.824219 130.558594 160.902344 133.152344 C 159.8125 133.722656 159.394531 135.070312 159.96875 136.15625 C 160.542969 137.242188 161.886719 137.664062 162.972656 137.089844 C 169.367188 133.726562 172.5625 128.894531 170.921875 125.070312 Z M 87.5 123.6875 C 89.300781 120.675781 89.492188 117.078125 88.699219 114.351562 C 87.800781 111.261719 85.742188 109.183594 83.195312 108.800781 C 81.539062 108.550781 79.199219 108.941406 76.609375 111.589844 C 75.195312 109.367188 73.410156 107.953125 71.453125 107.613281 C 69.578125 107.289062 67.789062 107.976562 66.542969 109.503906 C 64.328125 112.210938 64.253906 117.027344 66.34375 122.386719 C 66.785156 123.53125 68.078125 124.097656 69.222656 123.652344 C 70.367188 123.203125 70.933594 121.914062 70.484375 120.769531 C 68.601562 115.929688 69.285156 113.179688 69.988281 112.320312 C 70.265625 111.980469 70.492188 111.964844 70.695312 112 C 71.394531 112.121094 72.890625 113.199219 74.058594 116.476562 C 74.34375 117.269531 75.050781 117.835938 75.890625 117.9375 C 76.726562 118.035156 77.546875 117.65625 78.011719 116.949219 C 79.96875 113.980469 81.628906 113.066406 82.535156 113.203125 C 83.296875 113.316406 84.042969 114.257812 84.429688 115.597656 C 85.074219 117.816406 84.703125 120.945312 82.414062 122.9375 C 81.816406 123.460938 81.539062 124.265625 81.695312 125.050781 C 81.847656 125.832031 82.40625 126.472656 83.164062 126.726562 C 88.46875 128.519531 89.980469 130.953125 89.703125 132.152344 C 89.414062 133.40625 87.152344 134.484375 83.53125 134.019531 C 82.3125 133.859375 81.199219 134.722656 81.039062 135.9375 C 80.882812 137.15625 81.742188 138.273438 82.960938 138.429688 C 89.574219 139.285156 93.289062 136.394531 94.039062 133.152344 C 94.703125 130.253906 93.222656 126.445312 87.5 123.6875 Z M 87.5 123.6875 " fill-opacity="1" fill-rule="nonzero"/><path fill="currentColor" d="M 80.398438 127.503906 C 80.152344 127.152344 77.90625 124.085938 74.855469 123.710938 C 73.40625 123.535156 72.023438 123.972656 70.859375 124.984375 C 69.929688 125.789062 69.828125 127.195312 70.632812 128.125 C 71.4375 129.054688 72.839844 129.15625 73.769531 128.351562 C 74.058594 128.101562 74.210938 128.117188 74.3125 128.132812 C 75.070312 128.21875 76.226562 129.320312 76.769531 130.078125 L 76.765625 130.070312 C 77.472656 131.074219 78.859375 131.3125 79.863281 130.605469 C 80.863281 129.894531 81.105469 128.503906 80.398438 127.503906 Z M 80.398438 127.503906 " fill-opacity="1" fill-rule="nonzero"/></svg>