<svg xmlns="http://www.w3.org/2000/svg" xmlns:xlink="http://www.w3.org/1999/xlink" zoomAndPan="magnify" viewBox="0 0 224.87999 225" preserveAspectRatio="xMidYMid meet" version="1.0"><defs><clipPath id="a142905ae8"><path d="M 22.519531 75.28125 L 202.351562 75.28125 L 202.351562 149.476562 L 22.519531 149.476562 Z M 22.519531 75.28125 " clip-rule="nonzero"/></clipPath></defs><g clip-path="url(#a142905ae8)"><path fill="currentColor" d="M 194.265625 125.625 C 192.421875 129.800781 189.589844 133.539062 186.132812 136.574219 C 182.671875 139.621094 178.507812 141.867188 174.058594 143.191406 C 171.832031 143.851562 169.527344 144.28125 167.195312 144.445312 C 166.613281 144.46875 166.027344 144.515625 165.445312 144.519531 L 163.691406 144.5 C 163.402344 144.507812 163.109375 144.484375 162.816406 144.457031 L 161.941406 144.382812 L 161.0625 144.3125 C 160.769531 144.28125 160.480469 144.230469 160.1875 144.1875 C 157.847656 143.898438 155.535156 143.308594 153.257812 142.59375 C 150.972656 141.894531 148.75 140.949219 146.5625 139.933594 L 144.933594 139.140625 L 143.332031 138.289062 C 142.792969 138.011719 142.269531 137.707031 141.746094 137.402344 C 141.222656 137.089844 140.6875 136.804688 140.175781 136.476562 C 138.097656 135.214844 136.074219 133.855469 134.082031 132.445312 C 130.121094 129.589844 126.347656 126.453125 122.753906 123.109375 C 119.957031 120.519531 117.253906 117.824219 114.691406 114.992188 L 115.128906 114.445312 L 115.828125 112.382812 C 115.867188 113.011719 115.632812 113.792969 115.238281 114.304688 C 115.046875 114.554688 115.203125 114.351562 115.171875 114.398438 L 115.203125 114.355469 L 115.339844 114.191406 L 115.625 113.851562 L 116.199219 113.175781 L 117.375 111.828125 C 118.167969 110.929688 118.980469 110.042969 119.800781 109.164062 C 121.441406 107.410156 123.132812 105.691406 124.859375 104.019531 C 128.320312 100.683594 131.9375 97.511719 135.730469 94.609375 C 137.617188 93.144531 139.566406 91.785156 141.539062 90.46875 C 143.527344 89.179688 145.550781 87.96875 147.625 86.875 C 151.773438 84.714844 156.121094 83 160.546875 82.179688 C 160.824219 82.125 161.101562 82.058594 161.378906 82.019531 L 162.207031 81.914062 L 163.039062 81.808594 L 163.453125 81.753906 L 163.867188 81.730469 L 165.527344 81.644531 C 166.082031 81.632812 166.644531 81.65625 167.203125 81.65625 C 169.4375 81.734375 171.660156 82.070312 173.820312 82.636719 C 175.980469 83.203125 178.078125 84.015625 180.070312 85.03125 C 182.070312 86.046875 183.953125 87.289062 185.679688 88.726562 C 189.132812 91.597656 191.992188 95.214844 193.921875 99.285156 C 195.878906 103.347656 196.9375 107.839844 197 112.378906 C 197.054688 116.917969 196.132812 121.464844 194.265625 125.625 Z M 109.941406 110.054688 L 109.902344 110.101562 L 109.761719 110.28125 C 109.746094 110.300781 109.734375 110.324219 109.71875 110.34375 L 109.722656 110.324219 L 109.199219 110.984375 L 108.644531 111.671875 C 108.265625 112.128906 107.886719 112.585938 107.5 113.039062 C 106.726562 113.945312 105.9375 114.84375 105.132812 115.734375 C 103.523438 117.511719 101.867188 119.246094 100.167969 120.9375 C 96.761719 124.308594 93.179688 127.496094 89.417969 130.402344 C 87.542969 131.875 85.601562 133.226562 83.632812 134.53125 C 81.65625 135.824219 79.621094 136.996094 77.554688 138.085938 C 73.398438 140.195312 69.046875 141.863281 64.605469 142.632812 L 63.773438 142.785156 L 62.9375 142.878906 C 62.382812 142.933594 61.828125 143.027344 61.269531 143.054688 L 59.601562 143.125 C 59.464844 143.128906 59.324219 143.140625 59.1875 143.140625 L 58.765625 143.128906 L 57.925781 143.113281 C 55.691406 143.027344 53.460938 142.714844 51.296875 142.148438 C 46.96875 141.019531 42.867188 138.980469 39.375 136.148438 C 35.894531 133.316406 33.015625 129.730469 31.027344 125.691406 C 29.039062 121.65625 27.945312 117.175781 27.847656 112.644531 C 27.742188 108.113281 28.628906 103.558594 30.449219 99.378906 C 31.359375 97.289062 32.496094 95.292969 33.835938 93.4375 C 35.1875 91.589844 36.726562 89.871094 38.441406 88.339844 C 40.15625 86.804688 42.035156 85.445312 44.046875 84.316406 C 46.058594 83.191406 48.199219 82.28125 50.417969 81.605469 C 52.632812 80.929688 54.929688 80.496094 57.257812 80.320312 C 59.589844 80.125 61.90625 80.261719 64.238281 80.578125 C 66.570312 80.882812 68.878906 81.484375 71.144531 82.226562 C 72.289062 82.578125 73.398438 83.027344 74.519531 83.457031 C 75.621094 83.9375 76.738281 84.390625 77.816406 84.933594 C 78.910156 85.441406 79.972656 86.019531 81.046875 86.582031 C 82.097656 87.179688 83.164062 87.761719 84.195312 88.40625 C 85.238281 89.023438 86.25 89.699219 87.277344 90.351562 C 88.289062 91.035156 89.304688 91.703125 90.292969 92.417969 C 92.285156 93.828125 94.230469 95.3125 96.128906 96.855469 C 98.03125 98.394531 99.886719 99.988281 101.710938 101.628906 C 104.625 104.246094 107.4375 106.972656 110.125 109.828125 L 110.097656 109.863281 Z M 199.105469 96.890625 C 196.921875 92.019531 193.613281 87.667969 189.5625 84.164062 C 185.515625 80.648438 180.652344 78.058594 175.453125 76.621094 C 172.855469 75.898438 170.175781 75.460938 167.484375 75.324219 C 166.808594 75.3125 166.136719 75.277344 165.460938 75.28125 L 163.425781 75.359375 L 162.914062 75.382812 L 162.414062 75.4375 L 161.40625 75.550781 L 160.402344 75.667969 C 160.066406 75.710938 159.742188 75.785156 159.410156 75.839844 C 154.109375 76.742188 149.183594 78.699219 144.578125 81.035156 C 142.28125 82.222656 140.066406 83.523438 137.90625 84.902344 C 135.765625 86.300781 133.664062 87.742188 131.644531 89.285156 C 127.597656 92.355469 123.792969 95.683594 120.152344 99.167969 C 118.339844 100.917969 116.566406 102.707031 114.839844 104.542969 C 113.976562 105.460938 113.125 106.390625 112.285156 107.332031 C 111.863281 107.804688 111.445312 108.28125 111.03125 108.761719 L 110.410156 109.492188 L 110.265625 109.664062 C 104.679688 102.808594 98.363281 96.519531 91.425781 90.929688 C 90.460938 90.144531 89.464844 89.402344 88.476562 88.648438 C 87.46875 87.917969 86.460938 87.183594 85.421875 86.5 C 84.398438 85.789062 83.328125 85.136719 82.273438 84.46875 C 81.195312 83.835938 80.121094 83.1875 79.007812 82.605469 C 77.914062 81.992188 76.773438 81.457031 75.640625 80.902344 C 74.488281 80.394531 73.335938 79.871094 72.144531 79.433594 C 69.773438 78.535156 67.328125 77.769531 64.789062 77.3125 C 64.472656 77.253906 64.160156 77.171875 63.839844 77.132812 L 62.882812 77 C 62.238281 76.917969 61.601562 76.816406 60.949219 76.792969 C 60.300781 76.757812 59.648438 76.703125 59 76.6875 C 58.355469 76.695312 57.703125 76.675781 57.058594 76.707031 C 54.464844 76.800781 51.875 77.179688 49.351562 77.839844 C 46.828125 78.496094 44.375 79.4375 42.050781 80.636719 C 39.730469 81.835938 37.542969 83.304688 35.53125 84.980469 C 27.421875 91.644531 22.488281 102.085938 22.519531 112.6875 C 22.5 117.976562 23.652344 123.296875 25.890625 128.132812 C 28.128906 132.96875 31.476562 137.28125 35.558594 140.738281 C 39.648438 144.183594 44.503906 146.742188 49.691406 148.15625 C 52.28125 148.871094 54.953125 149.285156 57.636719 149.425781 L 58.644531 149.460938 L 59.148438 149.476562 C 59.3125 149.480469 59.484375 149.472656 59.652344 149.46875 L 61.675781 149.414062 C 62.351562 149.386719 63.015625 149.289062 63.683594 149.230469 L 64.6875 149.125 L 65.671875 148.960938 C 68.324219 148.566406 70.875 147.839844 73.363281 147 L 75.210938 146.324219 C 75.820312 146.089844 76.414062 145.824219 77.015625 145.574219 L 77.917969 145.195312 L 78.796875 144.777344 C 79.382812 144.496094 79.972656 144.222656 80.550781 143.9375 C 82.851562 142.753906 85.089844 141.480469 87.246094 140.097656 C 89.390625 138.703125 91.496094 137.257812 93.507812 135.703125 C 95.53125 134.164062 97.496094 132.558594 99.386719 130.882812 C 101.285156 129.210938 103.140625 127.496094 104.933594 125.722656 C 106.726562 123.949219 108.46875 122.132812 110.164062 120.265625 C 111.015625 119.335938 111.851562 118.386719 112.671875 117.425781 C 113.085938 116.949219 113.492188 116.460938 113.898438 115.972656 L 114.507812 115.226562 L 114.53125 115.195312 C 115.359375 116.253906 116.214844 117.292969 117.082031 118.320312 C 118.679688 120.203125 120.328125 122.042969 122.03125 123.839844 C 125.441406 127.417969 129.078125 130.800781 132.9375 133.9375 C 134.878906 135.492188 136.863281 137.003906 138.9375 138.394531 C 139.449219 138.753906 139.984375 139.078125 140.507812 139.421875 C 141.03125 139.761719 141.558594 140.101562 142.101562 140.414062 L 143.71875 141.378906 L 145.375 142.28125 C 147.601562 143.449219 149.882812 144.550781 152.273438 145.410156 C 154.660156 146.285156 157.113281 147.039062 159.652344 147.480469 C 159.96875 147.539062 160.285156 147.605469 160.601562 147.660156 L 161.5625 147.78125 L 162.527344 147.898438 C 162.847656 147.941406 163.167969 147.976562 163.492188 147.988281 L 165.441406 148.085938 C 166.089844 148.105469 166.734375 148.078125 167.386719 148.078125 C 169.980469 148 172.574219 147.625 175.101562 146.984375 C 180.15625 145.699219 184.953125 143.308594 189.015625 139.988281 C 193.082031 136.675781 196.457031 132.472656 198.746094 127.710938 C 201.046875 122.960938 202.300781 117.679688 202.351562 112.378906 C 202.414062 107.082031 201.300781 101.75 199.105469 96.890625 " fill-opacity="1" fill-rule="nonzero"/></g></svg>