<svg xmlns="http://www.w3.org/2000/svg" xmlns:xlink="http://www.w3.org/1999/xlink" zoomAndPan="magnify" viewBox="0 0 224.87999 225" preserveAspectRatio="xMidYMid meet" version="1.0"><defs><clipPath id="edb2642c53"><path d="M 22.488281 55.882812 L 202.390625 55.882812 L 202.390625 160.824219 L 22.488281 160.824219 Z M 22.488281 55.882812 " clip-rule="nonzero"/></clipPath></defs><g clip-path="url(#edb2642c53)"><path fill="currentColor" d="M 23.148438 124.050781 C 23.28125 123.964844 26.511719 121.941406 31.800781 119.601562 C 36.433594 117.550781 43.527344 114.890625 51.550781 113.570312 C 48.6875 105.980469 47.445312 98.519531 46.910156 93.492188 C 46.300781 87.753906 46.441406 83.949219 46.449219 83.789062 C 46.46875 83.257812 46.898438 82.828125 47.433594 82.808594 C 47.695312 82.796875 53.925781 82.570312 62.472656 83.992188 C 67.492188 84.828125 72.265625 86.0625 76.65625 87.664062 C 81.578125 89.460938 86.035156 91.722656 89.917969 94.40625 C 90.765625 89.765625 92.3125 85.027344 94.519531 80.28125 C 96.488281 76.054688 98.988281 71.8125 101.945312 67.679688 C 106.984375 60.644531 111.550781 56.410156 111.742188 56.234375 C 112.136719 55.871094 112.742188 55.871094 113.132812 56.234375 C 113.324219 56.410156 117.890625 60.644531 122.929688 67.679688 C 125.890625 71.8125 128.386719 76.050781 130.355469 80.28125 C 132.566406 85.027344 134.109375 89.765625 134.957031 94.40625 C 138.84375 91.722656 143.296875 89.460938 148.21875 87.664062 C 152.609375 86.0625 157.382812 84.828125 162.40625 83.992188 C 170.953125 82.570312 177.183594 82.796875 177.441406 82.808594 C 177.976562 82.828125 178.40625 83.257812 178.425781 83.789062 C 178.433594 83.949219 178.574219 87.753906 177.964844 93.492188 C 177.429688 98.519531 176.191406 105.980469 173.328125 113.570312 C 181.347656 114.890625 188.441406 117.550781 193.074219 119.601562 C 198.363281 121.941406 201.59375 123.96875 201.730469 124.050781 C 202.179688 124.335938 202.339844 124.921875 202.089844 125.394531 C 201.941406 125.667969 198.429688 132.28125 191.835938 139.792969 C 187.960938 144.214844 183.824219 148.015625 179.542969 151.097656 C 174.167969 154.964844 168.546875 157.699219 162.835938 159.226562 C 158.859375 160.289062 154.625 160.824219 150.195312 160.824219 C 148.265625 160.824219 146.296875 160.722656 144.296875 160.519531 C 139.046875 159.984375 133.554688 158.753906 127.984375 156.859375 C 119.96875 154.136719 114.191406 150.878906 112.4375 149.832031 C 110.683594 150.875 104.902344 154.136719 96.886719 156.859375 C 91.3125 158.753906 85.828125 159.984375 80.574219 160.519531 C 78.574219 160.722656 76.609375 160.824219 74.675781 160.824219 C 70.246094 160.824219 66.011719 160.289062 62.035156 159.226562 C 56.324219 157.699219 50.703125 154.964844 45.328125 151.097656 C 41.046875 148.015625 36.910156 144.214844 33.035156 139.792969 C 26.445312 132.28125 22.933594 125.671875 22.789062 125.394531 C 22.539062 124.921875 22.695312 124.335938 23.148438 124.050781 Z M 127.695312 130.503906 C 124.359375 136.394531 120.601562 141.191406 118.03125 144.1875 C 116.8125 145.609375 115.746094 146.761719 114.921875 147.617188 C 117.902344 147.554688 123.339844 147.246094 129.679688 145.988281 C 138.480469 144.25 150.875 140.273438 159.945312 131.222656 C 164.234375 126.945312 167.765625 121.566406 170.457031 115.222656 C 163.605469 114.375 157.171875 114.738281 151.3125 116.304688 C 143.066406 118.507812 135.121094 123.289062 127.695312 130.503906 Z M 97.183594 130.503906 C 89.753906 123.285156 81.8125 118.507812 73.566406 116.304688 C 67.707031 114.738281 61.273438 114.375 54.417969 115.222656 C 57.109375 121.566406 60.640625 126.945312 64.929688 131.222656 C 74.003906 140.273438 86.398438 144.25 95.199219 145.988281 C 101.539062 147.242188 106.976562 147.550781 109.960938 147.617188 C 109.117188 146.746094 108.027344 145.5625 106.78125 144.109375 C 104.230469 141.128906 100.5 136.355469 97.183594 130.503906 Z M 62.183594 86.019531 C 55.746094 84.945312 50.554688 84.832031 48.484375 84.839844 C 48.480469 86.3125 48.535156 89.367188 48.957031 93.316406 C 49.492188 98.308594 50.734375 105.75 53.628906 113.261719 C 60.945312 112.296875 67.832031 112.652344 74.097656 114.328125 C 81.179688 116.222656 88.027344 119.917969 94.519531 125.339844 C 90.949219 117.679688 89.144531 110.125 89.144531 102.8125 C 89.144531 100.792969 89.285156 98.726562 89.5625 96.660156 C 80.519531 90.144531 69.71875 87.277344 62.183594 86.019531 Z M 121.289062 68.910156 C 117.5 63.609375 113.90625 59.871094 112.441406 58.414062 C 110.972656 59.867188 107.378906 63.609375 103.589844 68.910156 C 99.074219 75.222656 93.34375 85.105469 91.679688 96.335938 C 91.679688 96.335938 91.679688 96.339844 91.679688 96.34375 C 91.359375 98.511719 91.195312 100.691406 91.195312 102.8125 C 91.195312 111.363281 93.785156 120.300781 98.898438 129.367188 C 98.902344 129.375 98.902344 129.378906 98.90625 129.382812 C 98.90625 129.382812 98.90625 129.382812 98.90625 129.386719 C 102.15625 135.148438 105.832031 139.847656 108.34375 142.78125 C 110.160156 144.902344 111.625 146.410156 112.441406 147.214844 C 113.253906 146.410156 114.71875 144.90625 116.496094 142.828125 C 119.019531 139.886719 122.710938 135.171875 125.972656 129.386719 C 125.976562 129.382812 125.980469 129.375 125.980469 129.371094 C 131.09375 120.304688 133.6875 111.367188 133.6875 102.8125 C 133.6875 100.691406 133.523438 98.515625 133.199219 96.34375 C 133.199219 96.34375 133.199219 96.339844 133.199219 96.339844 C 131.535156 85.109375 125.804688 75.226562 121.289062 68.914062 Z M 176.398438 84.839844 C 174.328125 84.832031 169.132812 84.945312 162.699219 86.019531 C 155.167969 87.277344 144.363281 90.140625 135.320312 96.660156 C 135.597656 98.726562 135.742188 100.792969 135.742188 102.8125 C 135.742188 110.125 133.933594 117.679688 130.363281 125.339844 C 136.855469 119.917969 143.707031 116.222656 150.785156 114.328125 C 157.054688 112.65625 163.9375 112.296875 171.253906 113.261719 C 174.148438 105.75 175.394531 98.308594 175.925781 93.316406 C 176.347656 89.367188 176.402344 86.3125 176.398438 84.839844 Z M 128.699219 154.945312 C 137.191406 157.824219 149.921875 160.566406 162.3125 157.25 C 174.707031 153.9375 184.355469 145.21875 190.265625 138.488281 C 195.371094 132.679688 198.648438 127.304688 199.808594 125.285156 C 198.539062 124.546875 195.875 123.078125 192.25 121.472656 C 187.644531 119.433594 180.546875 116.777344 172.5625 115.519531 C 169.742188 122.324219 165.988281 128.09375 161.398438 132.671875 C 157.21875 136.839844 152.035156 140.328125 145.988281 143.039062 C 141.175781 145.195312 135.804688 146.867188 130.027344 148.007812 C 124.367188 149.125 119.476562 149.507812 116.292969 149.628906 C 119.066406 151.082031 123.414062 153.152344 128.699219 154.945312 Z M 34.582031 138.449219 C 40.5 145.195312 50.15625 153.933594 62.566406 157.25 C 74.960938 160.566406 87.6875 157.824219 96.179688 154.945312 C 101.464844 153.152344 105.816406 151.082031 108.585938 149.628906 C 105.402344 149.507812 100.511719 149.125 94.851562 148.007812 C 89.074219 146.871094 83.703125 145.199219 78.886719 143.039062 C 72.84375 140.328125 67.660156 136.839844 63.476562 132.671875 C 58.890625 128.09375 55.136719 122.324219 52.316406 115.519531 C 44.347656 116.773438 37.265625 119.421875 32.667969 121.457031 C 29.027344 123.066406 26.347656 124.546875 25.070312 125.289062 C 26.226562 127.300781 29.488281 132.648438 34.578125 138.449219 Z M 34.582031 138.449219 " fill-opacity="1" fill-rule="nonzero"/></g></svg>