<svg xmlns="http://www.w3.org/2000/svg" xmlns:xlink="http://www.w3.org/1999/xlink" zoomAndPan="magnify" viewBox="0 0 224.87999 225" preserveAspectRatio="xMidYMid meet" version="1.0"><defs><clipPath id="f5e48af58d"><path d="M 28 22.546875 L 197 22.546875 L 197 202.453125 L 28 202.453125 Z M 28 22.546875 " clip-rule="nonzero"/></clipPath></defs><g clip-path="url(#f5e48af58d)"><path fill="currentColor" d="M 190.148438 113.0625 C 190.636719 112.214844 191.09375 111.351562 191.527344 110.472656 C 191.960938 109.59375 192.363281 108.703125 192.738281 107.796875 C 193.113281 106.894531 193.457031 105.976562 193.769531 105.050781 C 194.085938 104.125 194.371094 103.1875 194.625 102.242188 C 194.878906 101.296875 195.101562 100.34375 195.292969 99.382812 C 195.488281 98.421875 195.648438 97.457031 195.777344 96.488281 C 195.90625 95.515625 196.003906 94.542969 196.070312 93.566406 C 196.136719 92.589844 196.171875 91.613281 196.175781 90.632812 C 196.179688 89.652344 196.152344 88.675781 196.089844 87.699219 C 196.03125 86.71875 195.9375 85.746094 195.8125 84.773438 C 195.691406 83.804688 195.535156 82.835938 195.347656 81.875 C 195.164062 80.914062 194.945312 79.960938 194.695312 79.015625 C 194.449219 78.066406 194.167969 77.128906 193.859375 76.199219 C 193.550781 75.269531 193.210938 74.351562 192.84375 73.445312 C 192.476562 72.539062 192.078125 71.644531 191.648438 70.765625 C 191.222656 69.882812 190.769531 69.015625 190.285156 68.164062 C 189.800781 67.3125 189.292969 66.480469 188.753906 65.660156 C 188.21875 64.84375 187.65625 64.042969 187.066406 63.261719 C 186.476562 62.476562 185.863281 61.714844 185.222656 60.976562 C 184.585938 60.234375 183.921875 59.511719 183.238281 58.8125 C 182.554688 58.113281 181.84375 57.4375 181.117188 56.785156 C 180.386719 56.132812 179.636719 55.503906 178.867188 54.902344 C 178.097656 54.296875 177.308594 53.71875 176.5 53.164062 C 175.695312 52.613281 174.871094 52.085938 174.027344 51.585938 C 173.1875 51.089844 172.328125 50.617188 171.457031 50.171875 C 170.585938 49.730469 169.699219 49.316406 168.800781 48.929688 C 167.902344 48.542969 166.988281 48.1875 166.066406 47.859375 C 165.144531 47.535156 164.214844 47.238281 163.273438 46.972656 C 162.332031 46.707031 161.382812 46.46875 160.425781 46.265625 C 159.46875 46.0625 158.503906 45.886719 157.539062 45.746094 C 156.570312 45.605469 155.597656 45.492188 154.621094 45.414062 C 153.648438 45.335938 152.671875 45.289062 151.691406 45.273438 C 151.203125 44.425781 150.6875 43.59375 150.144531 42.777344 C 149.601562 41.964844 149.035156 41.167969 148.4375 40.390625 C 147.84375 39.613281 147.226562 38.855469 146.582031 38.117188 C 145.9375 37.378906 145.269531 36.664062 144.582031 35.96875 C 143.890625 35.273438 143.179688 34.605469 142.445312 33.957031 C 141.710938 33.308594 140.957031 32.683594 140.179688 32.085938 C 139.40625 31.488281 138.613281 30.914062 137.800781 30.367188 C 136.992188 29.820312 136.160156 29.300781 135.316406 28.808594 C 134.472656 28.316406 133.609375 27.851562 132.734375 27.414062 C 131.859375 26.976562 130.96875 26.566406 130.066406 26.1875 C 129.164062 25.808594 128.25 25.460938 127.328125 25.140625 C 126.402344 24.820312 125.46875 24.53125 124.523438 24.273438 C 123.578125 24.015625 122.628906 23.785156 121.667969 23.589844 C 120.710938 23.394531 119.746094 23.226562 118.777344 23.09375 C 117.808594 22.960938 116.835938 22.855469 115.859375 22.785156 C 114.882812 22.714844 113.90625 22.675781 112.929688 22.667969 C 111.949219 22.664062 110.972656 22.6875 109.996094 22.742188 C 109.019531 22.800781 108.042969 22.890625 107.074219 23.007812 C 106.101562 23.128906 105.136719 23.28125 104.171875 23.464844 C 103.210938 23.644531 102.257812 23.859375 101.308594 24.105469 C 100.363281 24.351562 99.425781 24.625 98.496094 24.933594 C 97.566406 25.238281 96.648438 25.574219 95.738281 25.941406 C 94.832031 26.304688 93.9375 26.703125 93.054688 27.125 C 92.171875 27.550781 91.304688 28.003906 90.453125 28.484375 C 89.601562 28.964844 88.765625 29.472656 87.945312 30.007812 C 87.125 30.542969 86.324219 31.105469 85.542969 31.691406 C 84.757812 32.277344 83.996094 32.890625 83.25 33.527344 C 82.507812 34.164062 81.785156 34.824219 81.085938 35.511719 C 80.386719 36.195312 79.707031 36.898438 79.054688 37.628906 C 78.398438 38.355469 77.769531 39.105469 77.164062 39.875 C 76.558594 40.644531 75.976562 41.433594 75.425781 42.238281 C 74.871094 43.046875 74.339844 43.871094 73.839844 44.710938 C 72.863281 44.710938 71.882812 44.738281 70.90625 44.800781 C 69.929688 44.863281 68.957031 44.957031 67.988281 45.085938 C 67.015625 45.210938 66.050781 45.367188 65.089844 45.554688 C 64.128906 45.742188 63.175781 45.964844 62.230469 46.214844 C 61.285156 46.464844 60.347656 46.746094 59.421875 47.058594 C 58.492188 47.367188 57.578125 47.710938 56.671875 48.082031 C 55.765625 48.453125 54.871094 48.851562 53.992188 49.28125 C 53.113281 49.710938 52.25 50.167969 51.398438 50.65625 C 50.550781 51.140625 49.714844 51.652344 48.898438 52.195312 C 48.082031 52.734375 47.285156 53.300781 46.503906 53.890625 C 45.726562 54.484375 44.964844 55.101562 44.226562 55.742188 C 43.488281 56.382812 42.769531 57.046875 42.074219 57.734375 C 41.375 58.425781 40.703125 59.132812 40.054688 59.867188 C 39.402344 60.597656 38.777344 61.351562 38.175781 62.125 C 37.574219 62.894531 37 63.6875 36.449219 64.496094 C 35.898438 65.308594 35.378906 66.136719 34.882812 66.980469 C 34.386719 67.824219 33.917969 68.683594 33.476562 69.558594 C 33.035156 70.433594 32.625 71.320312 32.242188 72.222656 C 31.859375 73.125 31.507812 74.035156 31.183594 74.960938 C 30.863281 75.886719 30.570312 76.820312 30.308594 77.761719 C 30.042969 78.707031 29.8125 79.65625 29.613281 80.617188 C 29.410156 81.574219 29.242188 82.539062 29.105469 83.507812 C 28.96875 84.480469 28.859375 85.453125 28.785156 86.429688 C 28.710938 87.40625 28.667969 88.382812 28.660156 89.363281 C 28.648438 90.339844 28.667969 91.320312 28.722656 92.296875 C 28.773438 93.277344 28.859375 94.25 28.972656 95.222656 C 29.089844 96.195312 29.238281 97.164062 29.417969 98.128906 C 29.597656 99.089844 29.804688 100.046875 30.046875 100.996094 C 30.289062 101.945312 30.558594 102.886719 30.863281 103.816406 C 31.164062 104.746094 31.496094 105.667969 31.859375 106.578125 C 32.222656 107.488281 32.613281 108.386719 33.03125 109.269531 C 33.453125 110.152344 33.902344 111.023438 34.378906 111.878906 C 32.390625 115.332031 30.878906 118.988281 29.851562 122.839844 C 29.46875 124.269531 29.15625 125.714844 28.914062 127.175781 C 28.675781 128.632812 28.507812 130.101562 28.410156 131.578125 C 28.3125 133.054688 28.289062 134.53125 28.335938 136.011719 C 28.386719 137.492188 28.503906 138.964844 28.699219 140.429688 C 28.890625 141.898438 29.15625 143.351562 29.492188 144.792969 C 29.828125 146.234375 30.230469 147.65625 30.707031 149.054688 C 31.183594 150.457031 31.726562 151.832031 32.335938 153.179688 C 32.945312 154.527344 33.621094 155.839844 34.359375 157.121094 C 35.097656 158.402344 35.898438 159.644531 36.761719 160.847656 C 37.621094 162.050781 38.539062 163.210938 39.515625 164.320312 C 40.488281 165.433594 41.515625 166.496094 42.59375 167.507812 C 43.675781 168.519531 44.800781 169.476562 45.972656 170.375 C 47.144531 171.277344 48.359375 172.117188 49.617188 172.898438 C 50.871094 173.679688 52.164062 174.398438 53.488281 175.050781 C 54.8125 175.707031 56.167969 176.292969 57.554688 176.816406 C 58.9375 177.335938 60.34375 177.789062 61.769531 178.171875 C 65.394531 179.144531 69.082031 179.660156 72.832031 179.71875 C 73.320312 180.566406 73.835938 181.398438 74.378906 182.214844 C 74.917969 183.027344 75.488281 183.824219 76.082031 184.601562 C 76.675781 185.378906 77.296875 186.136719 77.9375 186.875 C 78.582031 187.613281 79.25 188.328125 79.9375 189.023438 C 80.628906 189.71875 81.339844 190.386719 82.074219 191.035156 C 82.808594 191.683594 83.5625 192.308594 84.335938 192.90625 C 85.109375 193.503906 85.902344 194.078125 86.714844 194.625 C 87.523438 195.171875 88.351562 195.691406 89.199219 196.183594 C 90.042969 196.679688 90.902344 197.144531 91.777344 197.582031 C 92.65625 198.015625 93.542969 198.425781 94.445312 198.804688 C 95.347656 199.183594 96.261719 199.535156 97.183594 199.855469 C 98.109375 200.175781 99.042969 200.464844 99.988281 200.722656 C 100.929688 200.980469 101.882812 201.210938 102.839844 201.40625 C 103.796875 201.605469 104.761719 201.769531 105.730469 201.902344 C 106.699219 202.039062 107.671875 202.140625 108.648438 202.210938 C 109.625 202.285156 110.601562 202.324219 111.578125 202.332031 C 112.558594 202.335938 113.535156 202.3125 114.511719 202.257812 C 115.488281 202.199219 116.460938 202.113281 117.433594 201.992188 C 118.402344 201.875 119.371094 201.722656 120.332031 201.539062 C 121.292969 201.359375 122.246094 201.144531 123.195312 200.898438 C 124.140625 200.65625 125.078125 200.378906 126.007812 200.074219 C 126.9375 199.769531 127.855469 199.433594 128.765625 199.066406 C 129.671875 198.703125 130.566406 198.308594 131.449219 197.882812 C 132.332031 197.460938 133.199219 197.007812 134.050781 196.527344 C 134.902344 196.046875 135.738281 195.542969 136.558594 195.007812 C 137.378906 194.472656 138.179688 193.910156 138.964844 193.324219 C 139.746094 192.738281 140.507812 192.125 141.253906 191.488281 C 141.996094 190.851562 142.71875 190.191406 143.417969 189.507812 C 144.121094 188.824219 144.796875 188.121094 145.453125 187.394531 C 146.105469 186.664062 146.738281 185.917969 147.34375 185.148438 C 147.949219 184.378906 148.527344 183.59375 149.082031 182.785156 C 149.636719 181.980469 150.167969 181.15625 150.667969 180.316406 C 154.652344 180.3125 158.570312 179.792969 162.417969 178.757812 C 163.847656 178.375 165.253906 177.921875 166.636719 177.402344 C 168.019531 176.882812 169.375 176.292969 170.699219 175.640625 C 172.027344 174.984375 173.316406 174.265625 174.574219 173.484375 C 175.828125 172.703125 177.042969 171.863281 178.214844 170.960938 C 179.386719 170.0625 180.515625 169.105469 181.59375 168.09375 C 182.671875 167.082031 183.699219 166.019531 184.671875 164.90625 C 185.648438 163.796875 186.566406 162.636719 187.425781 161.433594 C 188.289062 160.234375 189.089844 158.992188 189.828125 157.710938 C 190.566406 156.429688 191.242188 155.113281 191.851562 153.765625 C 192.460938 152.417969 193.003906 151.042969 193.480469 149.640625 C 193.953125 148.242188 194.359375 146.820312 194.695312 145.378906 C 195.03125 143.9375 195.296875 142.484375 195.488281 141.015625 C 195.679688 139.550781 195.800781 138.078125 195.851562 136.597656 C 195.898438 135.121094 195.875 133.640625 195.777344 132.164062 C 195.679688 130.6875 195.511719 129.222656 195.269531 127.761719 C 195.03125 126.300781 194.71875 124.855469 194.335938 123.425781 C 193.367188 119.800781 191.972656 116.34375 190.148438 113.0625 Z M 162.382812 48.222656 C 163.179688 48.4375 163.972656 48.671875 164.753906 48.929688 C 165.539062 49.1875 166.316406 49.46875 167.085938 49.773438 C 167.855469 50.074219 168.613281 50.398438 169.363281 50.746094 C 170.113281 51.089844 170.851562 51.457031 171.582031 51.847656 C 172.3125 52.234375 173.03125 52.640625 173.734375 53.070312 C 174.441406 53.5 175.136719 53.949219 175.816406 54.414062 C 176.496094 54.882812 177.164062 55.371094 177.816406 55.875 C 178.46875 56.382812 179.109375 56.90625 179.734375 57.449219 C 180.355469 57.988281 180.964844 58.550781 181.554688 59.125 C 182.148438 59.703125 182.722656 60.292969 183.28125 60.902344 C 183.839844 61.511719 184.378906 62.136719 184.902344 62.777344 C 185.425781 63.417969 185.929688 64.070312 186.414062 64.738281 C 186.902344 65.410156 187.367188 66.089844 187.816406 66.785156 C 188.261719 67.480469 188.6875 68.1875 189.097656 68.90625 C 189.503906 69.625 189.890625 70.355469 190.253906 71.097656 C 190.621094 71.839844 190.964844 72.589844 191.289062 73.347656 C 191.613281 74.109375 191.914062 74.878906 192.191406 75.65625 C 192.472656 76.433594 192.730469 77.21875 192.964844 78.011719 C 193.199219 78.804688 193.410156 79.601562 193.601562 80.40625 C 193.792969 81.210938 193.957031 82.019531 194.101562 82.835938 C 194.246094 83.648438 194.367188 84.464844 194.464844 85.289062 C 194.5625 86.109375 194.636719 86.929688 194.6875 87.757812 C 194.738281 88.582031 194.765625 89.40625 194.769531 90.234375 C 194.773438 91.058594 194.753906 91.886719 194.710938 92.710938 C 194.667969 93.535156 194.605469 94.359375 194.515625 95.183594 C 194.425781 96.003906 194.3125 96.824219 194.175781 97.636719 C 194.042969 98.453125 193.882812 99.265625 193.699219 100.070312 C 193.519531 100.875 193.316406 101.675781 193.089844 102.472656 C 192.859375 103.265625 192.613281 104.054688 192.339844 104.835938 C 192.070312 105.617188 191.773438 106.386719 191.460938 107.152344 C 191.144531 107.914062 190.808594 108.667969 190.449219 109.414062 C 190.089844 110.160156 189.710938 110.894531 189.3125 111.617188 C 188.332031 110.011719 187.257812 108.476562 186.089844 107.007812 C 184.917969 105.539062 183.664062 104.148438 182.320312 102.832031 C 180.976562 101.519531 179.558594 100.296875 178.0625 99.160156 C 176.570312 98.023438 175.007812 96.984375 173.386719 96.039062 C 171.761719 95.097656 170.085938 94.257812 168.355469 93.523438 C 166.628906 92.792969 164.863281 92.167969 163.054688 91.652344 C 161.25 91.140625 159.417969 90.738281 157.5625 90.453125 C 155.707031 90.167969 153.84375 89.996094 151.964844 89.941406 C 152.886719 88.304688 153.703125 86.613281 154.410156 84.871094 C 155.121094 83.132812 155.71875 81.351562 156.207031 79.535156 C 156.691406 77.722656 157.0625 75.882812 157.320312 74.019531 C 157.578125 72.15625 157.71875 70.285156 157.742188 68.40625 C 157.765625 66.527344 157.671875 64.652344 157.460938 62.785156 C 157.25 60.914062 156.921875 59.066406 156.480469 57.238281 C 156.039062 55.414062 155.488281 53.621094 154.820312 51.863281 C 154.15625 50.105469 153.382812 48.394531 152.503906 46.734375 C 155.851562 46.851562 159.144531 47.347656 162.382812 48.222656 Z M 172.921875 128.339844 C 169.75 130.183594 166.398438 131.597656 162.863281 132.59375 C 159.332031 133.585938 155.734375 134.121094 152.066406 134.203125 C 152.96875 132.578125 153.769531 130.902344 154.464844 129.175781 C 155.160156 127.449219 155.746094 125.6875 156.222656 123.890625 C 156.699219 122.09375 157.066406 120.273438 157.316406 118.429688 C 157.570312 116.585938 157.707031 114.734375 157.730469 112.875 C 157.753906 111.015625 157.664062 109.160156 157.457031 107.3125 C 157.25 105.460938 156.933594 103.632812 156.5 101.824219 C 156.066406 100.015625 155.523438 98.238281 154.875 96.496094 C 154.222656 94.753906 153.464844 93.058594 152.605469 91.410156 C 154.421875 91.488281 156.230469 91.683594 158.027344 91.988281 C 159.824219 92.296875 161.59375 92.710938 163.335938 93.238281 C 165.082031 93.765625 166.785156 94.402344 168.449219 95.140625 C 170.117188 95.882812 171.726562 96.722656 173.289062 97.664062 C 174.847656 98.609375 176.34375 99.644531 177.773438 100.773438 C 179.203125 101.902344 180.558594 103.117188 181.835938 104.414062 C 183.113281 105.714844 184.308594 107.085938 185.414062 108.535156 C 186.523438 109.980469 187.535156 111.492188 188.453125 113.066406 C 186.554688 116.230469 184.289062 119.105469 181.660156 121.691406 C 179.027344 124.28125 176.117188 126.496094 172.921875 128.339844 Z M 149.839844 178.875 C 147.988281 178.835938 146.152344 178.679688 144.324219 178.40625 C 142.496094 178.132812 140.691406 177.746094 138.910156 177.246094 C 137.128906 176.746094 135.390625 176.132812 133.6875 175.410156 C 131.984375 174.6875 130.335938 173.859375 128.738281 172.929688 C 127.140625 171.996094 125.609375 170.96875 124.144531 169.839844 C 122.675781 168.714844 121.285156 167.5 119.972656 166.195312 C 118.660156 164.894531 117.4375 163.511719 116.296875 162.054688 C 115.160156 160.597656 114.121094 159.070312 113.175781 157.480469 C 115.03125 157.457031 116.882812 157.316406 118.722656 157.0625 C 120.5625 156.8125 122.378906 156.445312 124.175781 155.96875 C 125.96875 155.492188 127.730469 154.902344 129.453125 154.210938 C 131.175781 153.515625 132.847656 152.714844 134.472656 151.8125 C 136.097656 150.914062 137.660156 149.914062 139.164062 148.820312 C 140.664062 147.726562 142.09375 146.542969 143.449219 145.269531 C 144.804688 144 146.074219 142.648438 147.265625 141.222656 C 148.453125 139.792969 149.550781 138.296875 150.554688 136.734375 C 151.414062 138.355469 152.164062 140.023438 152.8125 141.738281 C 153.457031 143.457031 153.996094 145.207031 154.421875 146.988281 C 154.847656 148.773438 155.164062 150.578125 155.363281 152.402344 C 155.5625 154.226562 155.644531 156.054688 155.613281 157.886719 C 155.585938 159.722656 155.4375 161.546875 155.179688 163.363281 C 154.917969 165.179688 154.542969 166.972656 154.058594 168.738281 C 153.570312 170.507812 152.976562 172.238281 152.269531 173.933594 C 151.566406 175.628906 150.757812 177.269531 149.847656 178.863281 Z M 68.226562 157.152344 C 68.222656 153.371094 68.703125 149.648438 69.667969 145.992188 C 70.636719 142.335938 72.054688 138.863281 73.925781 135.578125 C 74.886719 137.171875 75.9375 138.699219 77.085938 140.164062 C 78.234375 141.625 79.464844 143.015625 80.785156 144.324219 C 82.101562 145.636719 83.496094 146.863281 84.964844 148 C 86.433594 149.140625 87.96875 150.183594 89.566406 151.132812 C 91.164062 152.082031 92.816406 152.929688 94.519531 153.675781 C 96.222656 154.421875 97.964844 155.058594 99.746094 155.589844 C 101.527344 156.121094 103.332031 156.539062 105.167969 156.847656 C 107 157.15625 108.84375 157.347656 110.699219 157.429688 C 109.730469 159.003906 108.664062 160.515625 107.503906 161.957031 C 106.34375 163.398438 105.09375 164.757812 103.761719 166.042969 C 102.425781 167.324219 101.015625 168.519531 99.53125 169.621094 C 98.042969 170.726562 96.496094 171.730469 94.882812 172.640625 C 93.269531 173.546875 91.605469 174.347656 89.890625 175.042969 C 88.175781 175.738281 86.421875 176.324219 84.632812 176.796875 C 82.84375 177.269531 81.035156 177.628906 79.199219 177.871094 C 77.363281 178.113281 75.523438 178.238281 73.671875 178.25 C 71.886719 175.019531 70.53125 171.621094 69.609375 168.046875 C 68.683594 164.476562 68.226562 160.84375 68.226562 157.152344 Z M 74.675781 46.140625 C 76.503906 46.179688 78.324219 46.332031 80.136719 46.597656 C 81.945312 46.867188 83.734375 47.246094 85.496094 47.738281 C 87.261719 48.230469 88.984375 48.828125 90.671875 49.539062 C 92.359375 50.246094 93.996094 51.058594 95.582031 51.972656 C 97.167969 52.886719 98.691406 53.898438 100.152344 55.003906 C 101.609375 56.109375 102.996094 57.300781 104.304688 58.582031 C 105.613281 59.863281 106.839844 61.21875 107.976562 62.652344 C 109.117188 64.085938 110.160156 65.585938 111.113281 67.152344 C 109.257812 67.214844 107.410156 67.390625 105.578125 67.679688 C 103.742188 67.96875 101.933594 68.371094 100.148438 68.886719 C 98.363281 69.398438 96.617188 70.019531 94.910156 70.75 C 93.203125 71.476562 91.542969 72.308594 89.9375 73.242188 C 88.332031 74.175781 86.792969 75.207031 85.3125 76.328125 C 83.832031 77.453125 82.429688 78.664062 81.101562 79.960938 C 79.769531 81.257812 78.527344 82.632812 77.367188 84.085938 C 76.207031 85.535156 75.136719 87.050781 74.164062 88.636719 C 73.285156 87.007812 72.511719 85.328125 71.84375 83.601562 C 71.175781 81.875 70.617188 80.113281 70.175781 78.316406 C 69.730469 76.515625 69.402344 74.699219 69.191406 72.859375 C 68.976562 71.019531 68.882812 69.171875 68.90625 67.320312 C 68.925781 65.46875 69.066406 63.628906 69.324219 61.792969 C 69.578125 59.960938 69.953125 58.148438 70.4375 56.363281 C 70.925781 54.574219 71.523438 52.828125 72.230469 51.117188 C 72.941406 49.40625 73.753906 47.746094 74.675781 46.140625 Z M 156.296875 67.84375 C 156.300781 71.476562 155.859375 75.050781 154.96875 78.570312 C 154.078125 82.089844 152.765625 85.445312 151.035156 88.636719 C 150.0625 87.050781 148.996094 85.535156 147.835938 84.082031 C 146.675781 82.632812 145.429688 81.257812 144.097656 79.960938 C 142.769531 78.664062 141.363281 77.453125 139.886719 76.328125 C 138.40625 75.203125 136.863281 74.175781 135.257812 73.242188 C 133.652344 72.308594 131.996094 71.476562 130.285156 70.746094 C 128.578125 70.019531 126.832031 69.398438 125.046875 68.882812 C 123.261719 68.371094 121.449219 67.96875 119.617188 67.679688 C 117.78125 67.390625 115.9375 67.214844 114.078125 67.152344 C 115.058594 65.601562 116.128906 64.121094 117.289062 62.707031 C 118.453125 61.292969 119.699219 59.957031 121.03125 58.699219 C 122.359375 57.441406 123.765625 56.273438 125.242188 55.191406 C 126.71875 54.109375 128.257812 53.121094 129.855469 52.234375 C 131.457031 51.34375 133.105469 50.558594 134.804688 49.875 C 136.5 49.191406 138.234375 48.621094 140.003906 48.152344 C 141.777344 47.6875 143.566406 47.335938 145.382812 47.09375 C 147.195312 46.855469 149.019531 46.726562 150.847656 46.714844 C 152.640625 49.949219 153.996094 53.351562 154.917969 56.933594 C 155.839844 60.511719 156.300781 64.148438 156.296875 67.84375 Z M 139.050781 91.492188 C 134.460938 92.707031 130.175781 94.605469 126.191406 97.183594 C 122.203125 99.765625 118.714844 102.898438 115.726562 106.585938 C 116.933594 103.53125 117.800781 100.382812 118.324219 97.136719 C 118.847656 93.894531 119.015625 90.632812 118.828125 87.351562 C 118.640625 84.070312 118.105469 80.847656 117.214844 77.683594 C 116.328125 74.519531 115.109375 71.488281 113.5625 68.589844 C 115.40625 68.632812 117.238281 68.792969 119.058594 69.066406 C 120.882812 69.339844 122.679688 69.730469 124.453125 70.230469 C 126.226562 70.734375 127.960938 71.34375 129.65625 72.066406 C 131.355469 72.789062 132.996094 73.613281 134.589844 74.542969 C 136.179688 75.472656 137.707031 76.5 139.167969 77.625 C 140.632812 78.746094 142.015625 79.957031 143.328125 81.257812 C 144.636719 82.554688 145.855469 83.929688 146.992188 85.382812 C 148.128906 86.835938 149.167969 88.355469 150.109375 89.941406 C 146.359375 90 142.671875 90.519531 139.050781 91.492188 Z M 149.40625 91.402344 C 148.453125 92.894531 147.414062 94.328125 146.285156 95.695312 C 145.15625 97.058594 143.953125 98.355469 142.667969 99.574219 C 141.382812 100.792969 140.027344 101.933594 138.605469 102.988281 C 137.183594 104.042969 135.699219 105.007812 134.160156 105.882812 C 132.621094 106.757812 131.03125 107.535156 129.398438 108.21875 C 127.761719 108.902344 126.09375 109.480469 124.386719 109.960938 C 122.683594 110.4375 120.957031 110.8125 119.203125 111.082031 C 117.453125 111.351562 115.695312 111.511719 113.921875 111.566406 C 115.375 109.28125 117.023438 107.152344 118.871094 105.179688 C 120.71875 103.203125 122.730469 101.417969 124.914062 99.820312 C 127.09375 98.222656 129.40625 96.839844 131.84375 95.675781 C 134.285156 94.507812 136.8125 93.582031 139.425781 92.886719 C 142.695312 92.003906 146.023438 91.507812 149.40625 91.394531 Z M 112.277344 110.589844 C 111.027344 108.191406 110.007812 105.695312 109.222656 103.109375 C 108.4375 100.519531 107.898438 97.878906 107.609375 95.191406 C 107.316406 92.5 107.277344 89.808594 107.488281 87.109375 C 107.699219 84.414062 108.15625 81.757812 108.863281 79.148438 C 109.738281 75.875 110.976562 72.746094 112.570312 69.761719 C 113.386719 71.335938 114.101562 72.953125 114.722656 74.613281 C 115.339844 76.273438 115.855469 77.964844 116.269531 79.6875 C 116.683594 81.410156 116.988281 83.152344 117.191406 84.914062 C 117.394531 86.675781 117.488281 88.441406 117.476562 90.210938 C 117.460938 91.984375 117.34375 93.75 117.113281 95.507812 C 116.886719 97.265625 116.554688 99 116.117188 100.71875 C 115.679688 102.433594 115.140625 104.121094 114.496094 105.769531 C 113.855469 107.421875 113.113281 109.027344 112.277344 110.589844 Z M 107.46875 78.773438 C 106.226562 83.355469 105.726562 88.011719 105.96875 92.753906 C 106.207031 97.492188 107.171875 102.078125 108.867188 106.507812 C 107.375 104.609375 105.738281 102.84375 103.960938 101.210938 C 102.183594 99.578125 100.285156 98.097656 98.269531 96.769531 C 96.253906 95.445312 94.144531 94.289062 91.941406 93.300781 C 89.738281 92.316406 87.46875 91.515625 85.136719 90.894531 C 81.945312 90.039062 78.699219 89.535156 75.398438 89.382812 C 76.347656 87.835938 77.390625 86.355469 78.527344 84.941406 C 79.660156 83.523438 80.878906 82.183594 82.183594 80.917969 C 83.484375 79.65625 84.859375 78.476562 86.308594 77.382812 C 87.757812 76.289062 89.265625 75.292969 90.839844 74.386719 C 92.414062 73.480469 94.035156 72.679688 95.707031 71.976562 C 97.382812 71.273438 99.089844 70.675781 100.839844 70.1875 C 102.585938 69.699219 104.355469 69.320312 106.148438 69.050781 C 107.945312 68.78125 109.75 68.625 111.5625 68.582031 C 109.785156 71.8125 108.421875 75.210938 107.46875 78.773438 Z M 110.613281 111.53125 C 108.84375 111.449219 107.085938 111.261719 105.339844 110.964844 C 103.59375 110.667969 101.871094 110.269531 100.175781 109.765625 C 98.476562 109.261719 96.816406 108.65625 95.191406 107.949219 C 93.570312 107.242188 91.992188 106.4375 90.46875 105.539062 C 88.941406 104.640625 87.472656 103.65625 86.066406 102.578125 C 84.660156 101.5 83.324219 100.34375 82.058594 99.105469 C 80.792969 97.867188 79.605469 96.554688 78.5 95.171875 C 77.394531 93.789062 76.375 92.34375 75.441406 90.835938 C 78.597656 90.984375 81.707031 91.464844 84.757812 92.277344 C 87.425781 92.988281 90.003906 93.941406 92.488281 95.140625 C 94.976562 96.339844 97.324219 97.765625 99.539062 99.414062 C 101.753906 101.0625 103.792969 102.90625 105.652344 104.941406 C 107.515625 106.980469 109.171875 109.175781 110.613281 111.53125 Z M 74.164062 91.507812 C 75.867188 94.273438 77.84375 96.824219 80.09375 99.164062 C 82.34375 101.503906 84.816406 103.574219 87.515625 105.382812 C 90.210938 107.1875 93.070312 108.6875 96.089844 109.878906 C 99.105469 111.066406 102.21875 111.925781 105.421875 112.445312 C 102.230469 112.914062 99.125 113.71875 96.105469 114.851562 C 93.082031 115.988281 90.21875 117.429688 87.507812 119.179688 C 84.792969 120.925781 82.296875 122.941406 80.019531 125.226562 C 77.738281 127.511719 75.722656 130.007812 73.976562 132.722656 C 73.140625 131.140625 72.402344 129.511719 71.765625 127.839844 C 71.128906 126.167969 70.597656 124.460938 70.171875 122.722656 C 69.742188 120.980469 69.425781 119.222656 69.214844 117.445312 C 69.003906 115.667969 68.902344 113.882812 68.910156 112.089844 C 68.917969 110.300781 69.035156 108.519531 69.265625 106.742188 C 69.492188 104.964844 69.828125 103.210938 70.269531 101.476562 C 70.714844 99.738281 71.261719 98.039062 71.914062 96.371094 C 72.566406 94.703125 73.320312 93.082031 74.171875 91.507812 Z M 110.601562 113.441406 C 109.148438 115.726562 107.5 117.855469 105.652344 119.832031 C 103.804688 121.804688 101.789062 123.589844 99.609375 125.1875 C 97.429688 126.789062 95.117188 128.167969 92.675781 129.335938 C 90.238281 130.5 87.710938 131.429688 85.097656 132.121094 C 81.828125 133 78.5 133.492188 75.117188 133.605469 C 76.070312 132.109375 77.113281 130.679688 78.238281 129.3125 C 79.367188 127.945312 80.574219 126.652344 81.859375 125.433594 C 83.144531 124.214844 84.496094 123.074219 85.921875 122.019531 C 87.34375 120.964844 88.824219 120 90.363281 119.125 C 91.90625 118.25 93.492188 117.472656 95.128906 116.789062 C 96.761719 116.109375 98.433594 115.527344 100.136719 115.046875 C 101.84375 114.570312 103.570312 114.195312 105.320312 113.925781 C 107.070312 113.660156 108.832031 113.496094 110.601562 113.441406 Z M 108.796875 118.394531 C 107.601562 121.414062 106.738281 124.527344 106.210938 127.730469 C 105.683594 130.933594 105.503906 134.160156 105.667969 137.402344 C 105.835938 140.644531 106.34375 143.832031 107.195312 146.96875 C 108.046875 150.101562 109.222656 153.109375 110.71875 155.988281 C 108.933594 155.910156 107.160156 155.722656 105.394531 155.425781 C 103.632812 155.128906 101.890625 154.726562 100.179688 154.21875 C 98.464844 153.707031 96.789062 153.09375 95.148438 152.378906 C 93.507812 151.664062 91.917969 150.851562 90.378906 149.941406 C 88.839844 149.027344 87.363281 148.027344 85.945312 146.933594 C 84.53125 145.84375 83.183594 144.667969 81.914062 143.410156 C 80.640625 142.152344 79.449219 140.820312 78.339844 139.417969 C 77.230469 138.015625 76.210938 136.546875 75.28125 135.019531 C 78.503906 134.910156 81.679688 134.460938 84.808594 133.671875 C 87.9375 132.882812 90.945312 131.769531 93.835938 130.335938 C 96.726562 128.902344 99.433594 127.179688 101.957031 125.167969 C 104.476562 123.152344 106.757812 120.898438 108.800781 118.394531 Z M 112.246094 114.410156 C 113.496094 116.808594 114.515625 119.300781 115.300781 121.890625 C 116.085938 124.480469 116.621094 127.121094 116.914062 129.808594 C 117.207031 132.5 117.246094 135.191406 117.035156 137.890625 C 116.824219 140.585938 116.367188 143.242188 115.660156 145.851562 C 114.78125 149.125 113.546875 152.253906 111.953125 155.238281 C 111.136719 153.664062 110.417969 152.046875 109.800781 150.386719 C 109.183594 148.726562 108.667969 147.035156 108.253906 145.3125 C 107.839844 143.589844 107.535156 141.847656 107.332031 140.085938 C 107.128906 138.324219 107.035156 136.558594 107.046875 134.789062 C 107.0625 133.015625 107.179688 131.25 107.410156 129.492188 C 107.636719 127.734375 107.96875 126 108.40625 124.28125 C 108.84375 122.566406 109.382812 120.878906 110.027344 119.230469 C 110.667969 117.578125 111.410156 115.972656 112.246094 114.410156 Z M 117.054688 146.226562 C 118.292969 141.640625 118.796875 136.976562 118.554688 132.234375 C 118.316406 127.492188 117.347656 122.902344 115.648438 118.464844 C 117.683594 121.039062 119.972656 123.363281 122.515625 125.4375 C 125.054688 127.511719 127.789062 129.289062 130.714844 130.769531 C 133.644531 132.25 136.695312 133.398438 139.871094 134.210938 C 143.046875 135.027344 146.273438 135.492188 149.550781 135.605469 C 148.585938 137.140625 147.527344 138.609375 146.375 140.015625 C 145.226562 141.417969 143.996094 142.746094 142.679688 143.996094 C 141.363281 145.25 139.976562 146.414062 138.515625 147.488281 C 137.054688 148.566406 135.535156 149.550781 133.953125 150.4375 C 132.371094 151.328125 130.738281 152.113281 129.058594 152.796875 C 127.378906 153.484375 125.664062 154.0625 123.910156 154.53125 C 122.160156 155.003906 120.382812 155.363281 118.585938 155.613281 C 116.789062 155.863281 114.984375 156 113.171875 156.023438 C 114.84375 152.910156 116.140625 149.644531 117.054688 146.226562 Z M 113.910156 113.46875 C 115.675781 113.550781 117.433594 113.738281 119.179688 114.03125 C 120.925781 114.328125 122.648438 114.726562 124.347656 115.234375 C 126.042969 115.738281 127.703125 116.34375 129.328125 117.050781 C 130.953125 117.757812 132.527344 118.558594 134.054688 119.457031 C 135.582031 120.355469 137.046875 121.34375 138.453125 122.417969 C 139.859375 123.496094 141.199219 124.652344 142.464844 125.894531 C 143.730469 127.132812 144.917969 128.441406 146.023438 129.828125 C 147.128906 131.210938 148.148438 132.65625 149.082031 134.164062 C 145.921875 134.011719 142.816406 133.527344 139.761719 132.707031 C 137.09375 132 134.519531 131.046875 132.035156 129.847656 C 129.546875 128.648438 127.199219 127.226562 124.984375 125.578125 C 122.769531 123.929688 120.734375 122.085938 118.871094 120.050781 C 117.007812 118.015625 115.351562 115.820312 113.910156 113.46875 Z M 150.597656 133.875 C 148.902344 131.0625 146.925781 128.460938 144.664062 126.078125 C 142.40625 123.695312 139.914062 121.582031 137.195312 119.742188 C 134.476562 117.898438 131.589844 116.375 128.539062 115.160156 C 125.488281 113.949219 122.339844 113.078125 119.101562 112.550781 C 122.367188 112.070312 125.542969 111.242188 128.628906 110.066406 C 131.714844 108.886719 134.636719 107.390625 137.394531 105.574219 C 140.15625 103.753906 142.683594 101.660156 144.984375 99.289062 C 147.28125 96.917969 149.300781 94.324219 151.03125 91.507812 C 151.910156 93.132812 152.679688 94.804688 153.347656 96.523438 C 154.011719 98.246094 154.566406 100.003906 155.011719 101.792969 C 155.453125 103.585938 155.785156 105.398438 155.996094 107.230469 C 156.210938 109.0625 156.308594 110.902344 156.289062 112.75 C 156.269531 114.59375 156.136719 116.433594 155.882812 118.261719 C 155.632812 120.089844 155.265625 121.894531 154.785156 123.675781 C 154.304688 125.457031 153.714844 127.203125 153.011719 128.910156 C 152.3125 130.617188 151.503906 132.273438 150.59375 133.875 Z M 67.460938 112.300781 C 67.457031 116.019531 67.90625 119.683594 68.8125 123.292969 C 69.71875 126.898438 71.050781 130.34375 72.8125 133.617188 C 70.953125 133.574219 69.101562 133.414062 67.261719 133.132812 C 65.421875 132.855469 63.605469 132.460938 61.816406 131.949219 C 60.027344 131.4375 58.277344 130.8125 56.566406 130.078125 C 54.859375 129.34375 53.203125 128.5 51.597656 127.554688 C 49.996094 126.605469 48.460938 125.5625 46.992188 124.417969 C 45.523438 123.277344 44.132812 122.042969 42.820312 120.722656 C 41.507812 119.402344 40.285156 118.003906 39.152344 116.527344 C 38.015625 115.046875 36.980469 113.503906 36.046875 111.894531 C 37.003906 110.3125 38.0625 108.796875 39.210938 107.347656 C 40.363281 105.898438 41.601562 104.527344 42.925781 103.234375 C 44.25 101.945312 45.652344 100.742188 47.128906 99.625 C 48.605469 98.511719 50.148438 97.496094 51.753906 96.574219 C 53.359375 95.65625 55.015625 94.839844 56.726562 94.132812 C 58.433594 93.421875 60.179688 92.824219 61.964844 92.335938 C 63.75 91.847656 65.558594 91.476562 67.390625 91.214844 C 69.222656 90.957031 71.0625 90.816406 72.914062 90.789062 C 71.117188 94.089844 69.761719 97.5625 68.835938 101.203125 C 67.914062 104.84375 67.453125 108.542969 67.460938 112.300781 Z M 112.601562 24.113281 C 114.476562 24.113281 116.34375 24.234375 118.203125 24.476562 C 120.0625 24.71875 121.898438 25.078125 123.710938 25.554688 C 125.523438 26.035156 127.300781 26.625 129.039062 27.332031 C 130.773438 28.039062 132.460938 28.855469 134.089844 29.777344 C 135.722656 30.703125 137.289062 31.726562 138.789062 32.851562 C 140.292969 33.976562 141.714844 35.195312 143.058594 36.503906 C 144.402344 37.8125 145.65625 39.203125 146.820312 40.671875 C 147.988281 42.140625 149.054688 43.679688 150.019531 45.289062 C 148.144531 45.335938 146.277344 45.496094 144.421875 45.777344 C 142.5625 46.054688 140.730469 46.449219 138.925781 46.957031 C 137.117188 47.460938 135.347656 48.078125 133.617188 48.804688 C 131.882812 49.535156 130.203125 50.367188 128.578125 51.300781 C 126.949219 52.238281 125.386719 53.273438 123.886719 54.402344 C 122.386719 55.535156 120.964844 56.753906 119.617188 58.0625 C 118.269531 59.371094 117.007812 60.757812 115.832031 62.222656 C 114.65625 63.6875 113.574219 65.21875 112.589844 66.820312 C 111.632812 65.203125 110.582031 63.652344 109.429688 62.167969 C 108.28125 60.683594 107.042969 59.277344 105.714844 57.949219 C 104.390625 56.617188 102.984375 55.378906 101.503906 54.222656 C 100.023438 53.070312 98.476562 52.011719 96.863281 51.050781 C 95.25 50.089844 93.582031 49.234375 91.863281 48.484375 C 90.144531 47.730469 88.382812 47.089844 86.582031 46.558594 C 84.78125 46.027344 82.957031 45.609375 81.105469 45.304688 C 79.25 45 77.386719 44.816406 75.511719 44.746094 C 76.488281 43.175781 77.5625 41.671875 78.726562 40.238281 C 79.894531 38.800781 81.148438 37.445312 82.488281 36.171875 C 83.824219 34.894531 85.238281 33.710938 86.730469 32.613281 C 88.21875 31.519531 89.769531 30.519531 91.386719 29.621094 C 93.003906 28.722656 94.667969 27.929688 96.386719 27.242188 C 98.101562 26.554688 99.855469 25.980469 101.644531 25.515625 C 103.433594 25.050781 105.242188 24.699219 107.078125 24.464844 C 108.910156 24.230469 110.753906 24.113281 112.601562 24.113281 Z M 35.949219 68.011719 C 37.378906 65.519531 39.035156 63.195312 40.925781 61.03125 C 42.816406 58.867188 44.898438 56.914062 47.175781 55.164062 C 49.453125 53.414062 51.878906 51.90625 54.457031 50.640625 C 57.03125 49.375 59.707031 48.371094 62.480469 47.636719 C 65.933594 46.710938 69.445312 46.210938 73.015625 46.140625 C 72.113281 47.789062 71.316406 49.484375 70.625 51.234375 C 69.929688 52.980469 69.351562 54.765625 68.882812 56.582031 C 68.414062 58.402344 68.058594 60.246094 67.820312 62.109375 C 67.582031 63.972656 67.460938 65.847656 67.453125 67.726562 C 67.449219 69.605469 67.5625 71.476562 67.789062 73.34375 C 68.019531 75.207031 68.363281 77.054688 68.824219 78.875 C 69.28125 80.699219 69.851562 82.484375 70.535156 84.234375 C 71.21875 85.988281 72.007812 87.6875 72.902344 89.339844 C 71.023438 89.367188 69.15625 89.507812 67.296875 89.769531 C 65.4375 90.027344 63.601562 90.398438 61.789062 90.886719 C 59.976562 91.371094 58.203125 91.96875 56.464844 92.675781 C 54.722656 93.386719 53.035156 94.199219 51.398438 95.117188 C 49.761719 96.035156 48.1875 97.050781 46.675781 98.164062 C 45.164062 99.277344 43.726562 100.480469 42.363281 101.773438 C 41.003906 103.0625 39.726562 104.4375 38.535156 105.886719 C 37.34375 107.339844 36.246094 108.855469 35.242188 110.445312 C 34.375 108.8125 33.609375 107.132812 32.953125 105.40625 C 32.296875 103.679688 31.753906 101.914062 31.320312 100.117188 C 30.886719 98.320312 30.570312 96.503906 30.367188 94.667969 C 30.164062 92.828125 30.078125 90.984375 30.109375 89.136719 C 30.140625 87.289062 30.285156 85.449219 30.550781 83.621094 C 30.816406 81.789062 31.191406 79.984375 31.683594 78.203125 C 32.179688 76.421875 32.78125 74.675781 33.496094 72.972656 C 34.207031 71.265625 35.027344 69.613281 35.949219 68.011719 Z M 35.609375 156.398438 C 34.167969 153.917969 32.984375 151.316406 32.058594 148.597656 C 31.132812 145.878906 30.480469 143.09375 30.105469 140.246094 C 29.730469 137.398438 29.640625 134.539062 29.832031 131.675781 C 30.023438 128.808594 30.492188 125.988281 31.242188 123.214844 C 32.167969 119.757812 33.492188 116.460938 35.21875 113.328125 C 36.191406 114.9375 37.261719 116.476562 38.429688 117.953125 C 39.597656 119.425781 40.851562 120.824219 42.195312 122.140625 C 43.535156 123.457031 44.953125 124.6875 46.449219 125.828125 C 47.945312 126.964844 49.503906 128.007812 51.132812 128.953125 C 52.757812 129.894531 54.433594 130.734375 56.164062 131.46875 C 57.898438 132.203125 59.667969 132.828125 61.476562 133.339844 C 63.285156 133.851562 65.117188 134.25 66.976562 134.53125 C 68.832031 134.816406 70.703125 134.980469 72.582031 135.027344 C 71.660156 136.667969 70.84375 138.355469 70.132812 140.097656 C 69.421875 141.835938 68.824219 143.613281 68.332031 145.429688 C 67.84375 147.246094 67.472656 149.082031 67.214844 150.945312 C 66.953125 152.804688 66.8125 154.675781 66.789062 156.558594 C 66.761719 158.4375 66.855469 160.3125 67.0625 162.179688 C 67.273438 164.046875 67.597656 165.894531 68.039062 167.722656 C 68.480469 169.550781 69.03125 171.34375 69.695312 173.101562 C 70.359375 174.859375 71.128906 176.570312 72.007812 178.230469 C 70.160156 178.171875 68.324219 177.992188 66.5 177.699219 C 64.675781 177.402344 62.875 176.996094 61.101562 176.472656 C 59.328125 175.949219 57.597656 175.316406 55.902344 174.574219 C 54.210938 173.832031 52.570312 172.984375 50.984375 172.03125 C 49.398438 171.082031 47.878906 170.035156 46.425781 168.890625 C 44.972656 167.746094 43.597656 166.515625 42.300781 165.195312 C 41.003906 163.878906 39.796875 162.484375 38.675781 161.011719 C 37.558594 159.539062 36.535156 158.003906 35.609375 156.398438 Z M 111.925781 200.886719 C 110.050781 200.886719 108.183594 200.765625 106.324219 200.523438 C 104.464844 200.28125 102.625 199.921875 100.8125 199.445312 C 99 198.964844 97.222656 198.375 95.488281 197.667969 C 93.75 196.960938 92.066406 196.144531 90.433594 195.222656 C 88.800781 194.296875 87.234375 193.273438 85.734375 192.148438 C 84.234375 191.023438 82.808594 189.804688 81.464844 188.496094 C 80.121094 187.1875 78.867188 185.796875 77.703125 184.328125 C 76.535156 182.859375 75.46875 181.320312 74.503906 179.710938 C 76.378906 179.664062 78.246094 179.503906 80.101562 179.222656 C 81.960938 178.945312 83.792969 178.550781 85.601562 178.046875 C 87.40625 177.539062 89.175781 176.921875 90.910156 176.195312 C 92.640625 175.46875 94.320312 174.636719 95.945312 173.699219 C 97.574219 172.765625 99.140625 171.730469 100.636719 170.597656 C 102.136719 169.46875 103.5625 168.25 104.910156 166.941406 C 106.257812 165.632812 107.519531 164.246094 108.695312 162.78125 C 109.871094 161.316406 110.949219 159.78125 111.933594 158.183594 C 112.890625 159.796875 113.945312 161.347656 115.097656 162.832031 C 116.246094 164.316406 117.484375 165.722656 118.808594 167.050781 C 120.136719 168.382812 121.539062 169.625 123.019531 170.777344 C 124.5 171.933594 126.046875 172.988281 127.65625 173.953125 C 129.269531 174.914062 130.933594 175.769531 132.652344 176.523438 C 134.375 177.277344 136.132812 177.921875 137.929688 178.457031 C 139.730469 178.992188 141.554688 179.410156 143.40625 179.71875 C 145.257812 180.023438 147.121094 180.214844 148.996094 180.289062 C 148.019531 181.859375 146.949219 183.359375 145.78125 184.789062 C 144.613281 186.222656 143.359375 187.578125 142.019531 188.851562 C 140.683594 190.125 139.269531 191.308594 137.78125 192.402344 C 136.289062 193.496094 134.738281 194.492188 133.125 195.390625 C 131.507812 196.285156 129.84375 197.078125 128.128906 197.765625 C 126.414062 198.449219 124.664062 199.023438 122.875 199.488281 C 121.085938 199.953125 119.277344 200.300781 117.445312 200.535156 C 115.613281 200.769531 113.773438 200.886719 111.925781 200.886719 Z M 188.578125 156.988281 C 187.148438 159.480469 185.488281 161.804688 183.601562 163.96875 C 181.710938 166.132812 179.625 168.085938 177.347656 169.835938 C 175.074219 171.585938 172.644531 173.09375 170.070312 174.359375 C 167.492188 175.625 164.816406 176.628906 162.042969 177.363281 C 158.589844 178.292969 155.074219 178.792969 151.5 178.863281 C 152.40625 177.210938 153.203125 175.515625 153.894531 173.765625 C 154.585938 172.015625 155.167969 170.230469 155.636719 168.410156 C 156.105469 166.585938 156.460938 164.742188 156.699219 162.878906 C 156.9375 161.011719 157.058594 159.136719 157.0625 157.257812 C 157.066406 155.375 156.957031 153.5 156.726562 151.632812 C 156.496094 149.765625 156.148438 147.921875 155.691406 146.097656 C 155.230469 144.273438 154.65625 142.484375 153.972656 140.734375 C 153.289062 138.980469 152.496094 137.277344 151.601562 135.625 C 153.480469 135.605469 155.347656 135.46875 157.210938 135.214844 C 159.070312 134.960938 160.90625 134.59375 162.722656 134.109375 C 164.535156 133.625 166.316406 133.027344 168.054688 132.324219 C 169.796875 131.617188 171.484375 130.804688 173.125 129.886719 C 174.761719 128.96875 176.335938 127.949219 177.847656 126.835938 C 179.359375 125.71875 180.796875 124.515625 182.160156 123.21875 C 183.519531 121.925781 184.796875 120.550781 185.984375 119.09375 C 187.171875 117.640625 188.269531 116.117188 189.265625 114.527344 C 190.136719 116.15625 190.902344 117.839844 191.558594 119.566406 C 192.21875 121.296875 192.761719 123.058594 193.199219 124.859375 C 193.632812 126.65625 193.949219 128.476562 194.152344 130.3125 C 194.359375 132.152344 194.445312 133.996094 194.414062 135.847656 C 194.382812 137.695312 194.238281 139.535156 193.972656 141.367188 C 193.710938 143.199219 193.332031 145.003906 192.839844 146.789062 C 192.347656 148.570312 191.746094 150.316406 191.03125 152.023438 C 190.316406 153.730469 189.5 155.386719 188.578125 156.988281 Z M 188.578125 156.988281 " fill-opacity="1" fill-rule="nonzero"/></g></svg>