<svg xmlns="http://www.w3.org/2000/svg" xmlns:xlink="http://www.w3.org/1999/xlink" zoomAndPan="magnify" viewBox="0 0 224.87999 225" preserveAspectRatio="xMidYMid meet" version="1.0"><defs><clipPath id="cd6a1f2d7b"><path d="M 93.414062 93.496094 L 131.464844 93.496094 L 131.464844 131.492188 L 93.414062 131.492188 Z M 93.414062 93.496094 " clip-rule="nonzero"/></clipPath><clipPath id="143b082760"><path d="M 141.40625 93.496094 L 168.761719 93.496094 L 168.761719 131.492188 L 141.40625 131.492188 Z M 141.40625 93.496094 " clip-rule="nonzero"/></clipPath><clipPath id="b0fd5457cb"><path d="M 178.792969 93.496094 L 202.363281 93.496094 L 202.363281 131.492188 L 178.792969 131.492188 Z M 178.792969 93.496094 " clip-rule="nonzero"/></clipPath><clipPath id="98e8dd9a0d"><path d="M 56.117188 93.496094 L 83.476562 93.496094 L 83.476562 131.492188 L 56.117188 131.492188 Z M 56.117188 93.496094 " clip-rule="nonzero"/></clipPath><clipPath id="d50296c910"><path d="M 22.515625 93.496094 L 46.085938 93.496094 L 46.085938 131.492188 L 22.515625 131.492188 Z M 22.515625 93.496094 " clip-rule="nonzero"/></clipPath></defs><g clip-path="url(#cd6a1f2d7b)"><path fill="currentColor" d="M 131.4375 112.492188 C 131.4375 102.003906 122.929688 93.5 112.441406 93.5 C 101.949219 93.5 93.445312 102.003906 93.445312 112.492188 C 93.445312 122.984375 101.949219 131.492188 112.441406 131.492188 C 122.929688 131.492188 131.4375 122.984375 131.4375 112.492188 " fill-opacity="1" fill-rule="nonzero"/></g><g clip-path="url(#143b082760)"><path fill="#000000" d="M 168.753906 129.601562 C 166.253906 130.8125 163.449219 131.492188 160.484375 131.492188 C 149.996094 131.492188 141.488281 122.984375 141.488281 112.492188 C 141.488281 102.003906 149.996094 93.496094 160.484375 93.496094 C 163.449219 93.496094 166.253906 94.175781 168.753906 95.386719 C 162.402344 98.460938 158.023438 104.964844 158.023438 112.492188 C 158.023438 120.023438 162.402344 126.527344 168.753906 129.601562 " fill-opacity="1" fill-rule="nonzero"/></g><g clip-path="url(#b0fd5457cb)"><path fill="#000000" d="M 202.363281 130.9375 C 200.902344 131.300781 199.375 131.492188 197.804688 131.492188 C 187.3125 131.492188 178.808594 122.984375 178.808594 112.492188 C 178.808594 102.003906 187.3125 93.496094 197.804688 93.496094 C 199.375 93.496094 200.902344 93.6875 202.363281 94.050781 C 194.074219 96.089844 187.929688 103.574219 187.929688 112.492188 C 187.929688 121.410156 194.074219 128.894531 202.363281 130.9375 " fill-opacity="1" fill-rule="nonzero"/></g><g clip-path="url(#98e8dd9a0d)"><path fill="#000000" d="M 56.125 129.601562 C 58.625 130.8125 61.433594 131.492188 64.394531 131.492188 C 74.882812 131.492188 83.390625 122.984375 83.390625 112.492188 C 83.390625 102.003906 74.882812 93.496094 64.394531 93.496094 C 61.433594 93.496094 58.625 94.175781 56.125 95.386719 C 62.476562 98.460938 66.855469 104.964844 66.855469 112.492188 C 66.855469 120.023438 62.476562 126.527344 56.125 129.601562 " fill-opacity="1" fill-rule="nonzero"/></g><g clip-path="url(#d50296c910)"><path fill="#000000" d="M 22.515625 130.9375 C 23.976562 131.300781 25.503906 131.492188 27.078125 131.492188 C 37.570312 131.492188 46.074219 122.984375 46.074219 112.492188 C 46.074219 102.003906 37.570312 93.496094 27.078125 93.496094 C 25.503906 93.496094 23.976562 93.6875 22.515625 94.050781 C 30.804688 96.089844 36.953125 103.574219 36.953125 112.492188 C 36.953125 121.410156 30.804688 128.894531 22.515625 130.9375 " fill-opacity="1" fill-rule="nonzero"/></g></svg>