<svg xmlns="http://www.w3.org/2000/svg" xmlns:xlink="http://www.w3.org/1999/xlink" zoomAndPan="magnify" viewBox="0 0 224.87999 225"  preserveAspectRatio="xMidYMid meet" version="1.0"><defs><clipPath id="1901095d14"><path d="M 32.136719 22.546875 L 192.550781 22.546875 L 192.550781 202.453125 L 32.136719 202.453125 Z M 32.136719 22.546875 " clip-rule="nonzero"/></clipPath></defs><g clip-path="url(#1901095d14)"><path fill="currentColor" d="M 191.628906 64.914062 C 180.515625 64.707031 169.953125 67.75 160.980469 74.523438 C 156.492188 77.910156 152.832031 82.261719 148.207031 85.441406 C 144.410156 88.066406 139.507812 88.621094 135.917969 91.386719 C 132.882812 93.734375 131.5 97.675781 130.328125 101.199219 C 127.910156 108.59375 126.53125 113.984375 121.628906 120.273438 C 120.800781 121.382812 120.109375 122.417969 119.488281 123.453125 C 123.148438 114.191406 126.601562 103.550781 126.1875 93.527344 C 126.117188 91.179688 125.496094 89.3125 125.21875 86.960938 C 124.320312 80.8125 124.875 76.59375 125.566406 70.652344 C 125.980469 66.710938 126.324219 63.050781 125.355469 59.109375 C 123.21875 50.675781 117.003906 45.769531 109.824219 41.625 C 104.371094 38.511719 99.402344 35.542969 94.777344 31.1875 C 91.394531 28.007812 88.425781 24.96875 84.351562 22.546875 C 83.800781 22.273438 83.109375 22.753906 83.316406 23.378906 C 86.007812 32.429688 86.144531 40.585938 83.59375 49.640625 C 82.210938 54.546875 80.003906 59.386719 79.65625 64.570312 C 78.96875 74.589844 85.59375 80.464844 90.359375 88.484375 C 93.601562 94.011719 92.773438 99.816406 92.566406 105.484375 C 90.980469 103.6875 89.667969 103.550781 87.042969 102.859375 C 82.902344 103.550781 78.898438 102.71875 75.101562 100.230469 C 74.273438 99.402344 73.445312 98.574219 72.683594 97.675781 C 70.613281 95.808594 69.234375 93.25 66.957031 91.523438 C 63.847656 89.105469 60.605469 88.34375 56.738281 87.929688 C 48.730469 87.03125 41.066406 86.753906 33.265625 84.542969 C 32.507812 84.335938 32.09375 85.371094 32.714844 85.855469 C 37.269531 88.898438 41.550781 91.9375 43.554688 97.535156 C 44.726562 100.921875 44.519531 104.65625 45.140625 108.179688 C 45.625 110.945312 46.246094 113.710938 47.832031 116.058594 C 52.527344 122.832031 61.640625 122.902344 68.40625 126.082031 C 74.066406 128.777344 74.6875 131.679688 77.101562 137.140625 C 77.378906 137.832031 77.308594 139.144531 77.863281 139.695312 C 79.382812 141.5625 80.417969 141.699219 82.488281 142.460938 C 86.835938 144.1875 92.152344 143.566406 96.707031 145.085938 C 103.820312 147.367188 109.894531 151.308594 115.277344 156.421875 C 111.480469 156.421875 107.753906 156.351562 103.957031 156.351562 C 103.058594 156.351562 103.058594 157.734375 103.957031 157.734375 C 109.617188 157.804688 115.277344 157.804688 120.871094 157.875 C 125.289062 157.875 134.402344 156.078125 136.746094 160.636719 C 138.199219 163.472656 135.367188 173.90625 135.023438 177.363281 C 134.261719 184.480469 135.023438 195.679688 126.875 199.273438 C 121.421875 201.691406 111.136719 200.449219 105.542969 199.550781 C 96.914062 198.167969 94.636719 192.914062 93.808594 184.550781 C 93.257812 179.089844 93.050781 173.632812 93.050781 168.171875 C 93.050781 160.636719 93.53125 155.867188 102.164062 155.867188 C 103.058594 155.867188 103.058594 154.488281 102.164062 154.488281 C 99.816406 154.488281 94.429688 153.3125 92.566406 155.179688 C 89.875 157.875 91.601562 169.554688 91.667969 173.148438 C 91.875 182.339844 89.875 196.992188 100.503906 200.03125 C 108.238281 202.246094 127.496094 205.078125 133.15625 197.40625 C 135.644531 194.019531 135.296875 187.9375 135.644531 184.136719 C 136.609375 175.222656 137.507812 166.304688 138.472656 157.390625 C 138.542969 156.976562 138.128906 156.699219 137.785156 156.699219 C 130.742188 156.628906 123.699219 156.628906 116.660156 156.558594 C 116.796875 156.351562 116.726562 156.078125 116.519531 155.800781 C 111.621094 151.167969 106.167969 147.367188 99.816406 144.878906 C 96.15625 143.429688 92.566406 142.945312 88.769531 141.976562 C 83.9375 140.734375 80.832031 137.621094 77.929688 133.613281 C 75.171875 129.8125 73.789062 127.046875 69.027344 124.835938 C 58.050781 119.792969 48.246094 120.484375 46.175781 105.554688 C 45.417969 100.230469 44.933594 95.257812 41.273438 91.039062 C 40.101562 89.726562 36.648438 86.410156 35.820312 86.894531 C 36.925781 86.269531 43.554688 88.484375 45.070312 88.691406 C 50.25 89.382812 55.289062 89.105469 60.398438 90.488281 C 66.265625 92.078125 68.40625 95.671875 72.410156 99.75 C 73.996094 101.339844 75.722656 103.136719 77.863281 103.964844 C 82.003906 105.554688 88.839844 103.136719 91.808594 106.9375 C 91.945312 107.144531 92.222656 107.210938 92.429688 107.210938 C 92.359375 111.289062 92.84375 115.300781 95.671875 119.101562 C 99.261719 123.871094 104.09375 127.808594 107.753906 132.578125 C 110.929688 136.65625 113.691406 140.941406 116.175781 145.433594 C 116.382812 148.199219 116.589844 150.894531 116.796875 153.65625 C 116.867188 154.554688 118.246094 154.554688 118.179688 153.65625 C 118.039062 151.929688 117.972656 150.203125 117.832031 148.472656 L 119.074219 150.960938 C 119.28125 151.375 119.695312 151.375 119.972656 151.238281 C 119.765625 151.792969 119.558594 152.273438 119.421875 152.828125 C 119.074219 153.65625 120.457031 154.070312 120.800781 153.171875 C 125.148438 141.492188 129.914062 129.882812 136.679688 119.308594 C 137.714844 117.648438 138.820312 116.058594 139.992188 114.46875 C 140.269531 114.675781 140.613281 114.746094 140.890625 114.46875 C 145.652344 110.183594 149.589844 105.625 153.039062 100.230469 C 153.523438 99.542969 152.488281 98.851562 151.933594 99.402344 C 136.402344 113.019531 127.496094 131.332031 120.316406 150.339844 L 120.316406 150.269531 C 119.421875 148.472656 118.523438 146.746094 117.554688 145.019531 C 116.453125 131.058594 114.726562 117.164062 112.242188 103.410156 C 109.6875 89.242188 106.234375 75.558594 97.605469 63.738281 C 97.328125 63.324219 96.777344 63.394531 96.5 63.601562 C 96.292969 63.1875 96.085938 62.773438 95.8125 62.359375 C 96.292969 63.117188 97.535156 62.425781 97.054688 61.667969 C 96.984375 61.597656 96.914062 61.527344 96.914062 61.390625 C 96.707031 61.113281 96.433594 60.976562 96.085938 61.042969 C 95.949219 61.042969 95.878906 61.113281 95.742188 61.113281 C 95.398438 61.183594 95.257812 61.527344 95.257812 61.804688 C 94.707031 66.019531 97.398438 71.757812 98.988281 75.628906 C 101.195312 81.019531 104.164062 85.925781 107.683594 90.554688 C 107.824219 90.761719 108.03125 90.832031 108.167969 90.832031 C 109.273438 95.046875 110.101562 99.402344 110.929688 103.6875 C 113.207031 116.40625 114.796875 129.191406 115.96875 142.046875 C 112.792969 136.65625 109.132812 131.472656 104.992188 126.773438 C 103.335938 124.835938 101.472656 123.109375 99.746094 121.242188 C 94.777344 115.851562 94.292969 111.566406 94.429688 104.171875 C 94.5 100.921875 95.398438 98.019531 94.636719 94.773438 C 92.910156 86.960938 85.9375 81.984375 82.972656 74.867188 C 77.929688 62.773438 85.9375 52.058594 86.835938 40.035156 C 86.976562 38.03125 84.835938 27.179688 85.664062 26.210938 C 87.320312 24.34375 93.324219 31.808594 95.742188 34.019531 C 102.921875 40.449219 112.863281 43.214844 119.28125 50.539062 C 128.464844 61.042969 122.042969 73.414062 123.632812 85.578125 C 125.425781 99.332031 122.941406 111.429688 117.765625 124.285156 C 117.488281 124.976562 118.246094 125.320312 118.800781 125.042969 C 115.761719 131.679688 116.933594 138.105469 119.558594 146.054688 C 119.835938 146.882812 121.214844 146.539062 120.9375 145.710938 C 117.972656 136.722656 116.933594 129.46875 122.804688 121.242188 C 125.011719 118.132812 127.359375 115.714844 128.808594 111.980469 C 130.121094 108.59375 130.742188 105 131.847656 101.546875 C 134.332031 93.941406 137.644531 92.492188 144.203125 89.519531 C 152.003906 85.996094 157.25 78.738281 164.292969 74.039062 C 169.125 70.789062 174.648438 68.441406 180.308594 67.265625 C 181.621094 66.988281 188.523438 65.46875 189.074219 66.710938 C 189.421875 67.472656 185.417969 70.789062 185.070312 71.136719 C 179.066406 77.355469 176.441406 83.367188 174.578125 91.730469 C 172.992188 98.78125 170.160156 104.308594 163.671875 107.972656 C 160.148438 109.976562 155.730469 110.324219 152.554688 112.8125 C 147.035156 117.164062 149.519531 124.628906 147.515625 130.640625 C 143.789062 142.046875 130.328125 144.601562 122.183594 152.136719 C 121.492188 152.757812 122.527344 153.726562 123.148438 153.105469 C 130.050781 146.746094 140.199219 144.257812 146.136719 136.863281 C 148.207031 134.304688 149.3125 131.75 149.796875 128.5 C 150.140625 126.21875 149.519531 123.730469 150.070312 121.519531 C 152.347656 111.707031 156.078125 112.949219 161.945312 110.324219 C 167.46875 107.835938 172.230469 103.617188 174.507812 97.882812 C 176.71875 92.351562 176.304688 86.339844 179.203125 80.949219 C 182.378906 75.074219 187.488281 70.445312 192.390625 66.019531 C 192.597656 65.746094 192.183594 64.984375 191.628906 64.914062 Z M 148.550781 104.449219 C 149.519531 103.410156 150.277344 102.582031 150.554688 102.304688 C 150.210938 102.71875 148.96875 104.101562 146.480469 107.003906 C 145.378906 108.25 144.273438 109.492188 143.03125 110.667969 C 144.824219 108.527344 146.6875 106.453125 148.550781 104.449219 Z M 101.332031 77.769531 C 99.746094 74.316406 98.988281 69.960938 97.605469 66.226562 C 102.164062 72.933594 105.128906 80.257812 107.269531 87.859375 C 105.0625 84.679688 103.058594 81.363281 101.332031 77.769531 Z M 87.941406 125.320312 C 83.453125 121.382812 78.828125 117.371094 73.71875 114.261719 C 74.339844 114.816406 73.652344 115.992188 72.960938 115.4375 C 70.542969 113.640625 68.058594 111.84375 65.644531 110.117188 C 64.882812 109.5625 65.503906 108.527344 66.332031 108.871094 C 76.964844 113.570312 85.316406 121.105469 93.878906 128.777344 C 101.402344 135.550781 112.378906 142.390625 116.246094 152.136719 C 116.589844 152.964844 115.210938 153.3125 114.863281 152.484375 C 110.722656 141.976562 96.226562 132.578125 87.941406 125.320312 Z M 87.941406 125.320312 " fill-opacity="1" fill-rule="nonzero"/></g></svg>