<svg xmlns="http://www.w3.org/2000/svg" xmlns:xlink="http://www.w3.org/1999/xlink" zoomAndPan="magnify" viewBox="0 0 224.87999 225" preserveAspectRatio="xMidYMid meet" version="1.0"><defs><clipPath id="b976eb938f"><path d="M 22.488281 25 L 203 25 L 203 202 L 22.488281 202 Z M 22.488281 25 " clip-rule="nonzero"/></clipPath></defs><g clip-path="url(#b976eb938f)"><path fill="currentColor" d="M 168.886719 53.421875 C 155.21875 41.878906 139.460938 35.148438 121.621094 33.230469 C 111.402344 32.128906 100.765625 32.976562 90.675781 35.652344 C 65.023438 42.460938 43.890625 60.457031 34.292969 85.308594 C 24.183594 111.496094 29.007812 140.699219 46.515625 162.535156 C 60.300781 179.726562 80.511719 190.464844 101.980469 194.261719 C 116.222656 196.785156 130.769531 196.425781 144.988281 193.933594 C 161.714844 190.996094 177.871094 186.136719 193.308594 179.054688 C 196.367188 177.65625 199.414062 176.226562 202.449219 174.777344 C 202.519531 174.742188 202.523438 174.746094 202.457031 174.792969 C 187.902344 185.011719 170.515625 193.410156 153.40625 197.886719 C 147.777344 199.359375 141.433594 200.433594 134.375 201.109375 C 126.066406 201.902344 118.121094 201.964844 110.53125 201.296875 C 83.964844 198.945312 58.601562 187.246094 41.722656 166.292969 C 30.511719 152.375 24.226562 136.519531 22.867188 118.734375 C 22.605469 115.355469 22.582031 111.429688 22.8125 107.917969 C 25.859375 62.183594 63.691406 28.144531 108.785156 26.042969 C 138.824219 24.640625 168.632812 38.027344 186.582031 62.070312 C 199.027344 78.746094 204.546875 99.789062 199.675781 120.429688 C 197.507812 129.628906 193.640625 137.996094 188.078125 145.535156 C 168.484375 172.085938 132.40625 183.902344 101.40625 171.621094 C 76.46875 161.742188 57.191406 136.328125 61.726562 108.484375 C 65.328125 86.390625 84.949219 67.601562 107.035156 64.515625 C 125.789062 61.894531 143.1875 71.160156 152.058594 87.703125 C 155.675781 94.441406 157.613281 102.28125 157.046875 109.921875 C 155.6875 128.339844 141.726562 141.976562 123.546875 144.15625 C 107.289062 146.109375 88.742188 137.023438 86.0625 119.460938 C 84.691406 110.445312 88.46875 101.574219 95.101562 95.746094 C 99.5 91.886719 105.605469 89.742188 111.503906 90.492188 C 117.375 91.234375 122.492188 94.878906 125.605469 99.863281 C 125.910156 100.347656 126.117188 100.984375 125.429688 101.226562 C 125.152344 101.324219 124.917969 101.261719 124.726562 101.039062 C 122.722656 98.671875 120.269531 96.738281 117.40625 95.558594 C 102.929688 89.59375 90.351562 105.6875 93.421875 119.039062 C 96.039062 130.402344 107.214844 136.835938 118.324219 136.964844 C 135.890625 137.171875 150.667969 123.808594 149.554688 105.679688 C 148.988281 96.375 144.644531 87.71875 137.859375 81.351562 C 131.894531 75.753906 124.816406 72.53125 116.625 71.675781 C 115.796875 71.589844 114.375 71.570312 112.363281 71.617188 C 98.9375 71.921875 86.199219 79.574219 78.03125 89.9375 C 70.5625 99.410156 67.199219 111.242188 69.066406 123.253906 C 71.203125 137.03125 79.789062 149.386719 90.992188 157.445312 C 114.441406 174.308594 145.394531 172.1875 168.136719 155.335938 C 183.109375 144.242188 193.113281 127.226562 194.191406 108.597656 C 195.417969 87.441406 184.964844 66.996094 168.886719 53.421875 Z M 168.886719 53.421875 " fill-opacity="1" fill-rule="nonzero"/></g></svg>