<svg xmlns="http://www.w3.org/2000/svg" xmlns:xlink="http://www.w3.org/1999/xlink" zoomAndPan="magnify" viewBox="0 0 224.87999 225" preserveAspectRatio="xMidYMid meet" version="1.0"><defs><clipPath id="1809f64dc3"><path d="M 86 31.074219 L 199 31.074219 L 199 187.742188 L 86 187.742188 Z M 86 31.074219 " clip-rule="nonzero"/></clipPath></defs><g clip-path="url(#1809f64dc3)"><path fill="currentColor" d="M 90.371094 187.628906 C 89.0625 187.628906 87.921875 186.652344 87.757812 185.316406 C 84.496094 159.472656 90.96875 140.085938 107.554688 126.042969 C 108.222656 125.480469 109.132812 125.285156 109.972656 125.519531 C 139.210938 133.761719 164.292969 124.625 182.519531 99.09375 C 193.492188 83.722656 193.433594 47.273438 193.171875 36.695312 C 181.78125 38.542969 139.578125 46.535156 119.144531 66.164062 C 99.613281 84.925781 111.238281 105.675781 115.230469 111.5625 C 132.722656 103.957031 141.984375 95.054688 151.769531 85.644531 C 153.960938 83.539062 156.167969 81.417969 158.484375 79.292969 C 159.558594 78.308594 161.234375 78.378906 162.21875 79.453125 C 163.203125 80.53125 163.128906 82.203125 162.054688 83.1875 C 159.765625 85.289062 157.589844 87.382812 155.433594 89.457031 C 144.925781 99.558594 135.003906 109.097656 115.34375 117.253906 C 114.257812 117.703125 113.003906 117.382812 112.269531 116.464844 C 112.039062 116.179688 89.496094 87.3125 115.488281 62.347656 C 140.375 38.4375 193.128906 31.304688 195.367188 31.011719 C 196.105469 30.921875 196.835938 31.132812 197.398438 31.605469 C 197.964844 32.078125 198.308594 32.765625 198.347656 33.5 C 198.453125 35.5 200.734375 82.679688 186.824219 102.167969 C 167.75 128.882812 140.476562 139.078125 109.925781 130.984375 C 95.585938 143.714844 90.050781 161.285156 93 184.65625 C 93.1875 186.101562 92.160156 187.425781 90.714844 187.609375 C 90.597656 187.621094 90.480469 187.628906 90.371094 187.628906 Z M 90.371094 187.628906 " fill-opacity="1" fill-rule="nonzero"/></g><path fill="#000000" d="M 82.09375 150.054688 C 82.066406 150.054688 82.046875 150.054688 82.023438 150.054688 C 58.097656 149.390625 39.941406 136.078125 30.898438 112.570312 C 24.050781 94.773438 35.140625 59.042969 35.617188 57.535156 C 35.835938 56.832031 36.34375 56.25 37.007812 55.9375 C 37.667969 55.621094 38.4375 55.601562 39.121094 55.875 C 40.773438 56.542969 79.789062 72.457031 94.160156 95.765625 C 109.34375 120.367188 86.058594 138.25 85.824219 138.429688 C 84.878906 139.132812 83.585938 139.132812 82.648438 138.425781 C 69.183594 128.273438 63.203125 118.574219 57.421875 109.191406 C 56.175781 107.171875 54.921875 105.136719 53.582031 103.074219 C 52.785156 101.847656 53.132812 100.210938 54.359375 99.414062 C 55.578125 98.617188 57.21875 98.964844 58.011719 100.191406 C 59.378906 102.289062 60.652344 104.359375 61.917969 106.414062 C 67.4375 115.367188 72.664062 123.851562 84.160156 132.917969 C 88.578125 128.878906 100.3125 115.796875 89.667969 98.542969 C 78.273438 80.070312 48.875 65.949219 39.832031 61.933594 C 37.390625 70.625 30.671875 97.265625 35.828125 110.667969 C 44.175781 132.371094 60.199219 144.164062 82.167969 144.769531 C 83.625 144.8125 84.777344 146.027344 84.734375 147.488281 C 84.695312 148.917969 83.519531 150.054688 82.09375 150.054688 Z M 82.09375 150.054688 " fill-opacity="1" fill-rule="nonzero"/></svg>