<svg xmlns="http://www.w3.org/2000/svg" xmlns:xlink="http://www.w3.org/1999/xlink" zoomAndPan="magnify" viewBox="0 0 224.87999 225" preserveAspectRatio="xMidYMid meet" version="1.0"><path fill="currentColor" d="M 71.75 173.277344 C 71.972656 172.917969 72.015625 172.460938 71.71875 171.988281 C 63.265625 158.546875 64.9375 144.714844 66.421875 129.585938 C 68.039062 113.082031 70.179688 96.683594 72.484375 80.261719 C 73.976562 69.636719 74.714844 57.25 65.871094 49.375 C 59.089844 43.339844 49.632812 43.859375 42.3125 48.605469 C 22.492188 61.453125 24.710938 96.660156 30.492188 116.09375 C 34.21875 128.636719 41.019531 140.027344 47.648438 151.21875 C 54.066406 162.050781 61.460938 173.496094 72.136719 180.535156 C 74.363281 182.003906 76.253906 178.890625 74.789062 177.085938 C 73.777344 175.832031 72.765625 174.550781 71.753906 173.28125 Z M 63.582031 119.535156 C 62.542969 130.925781 59.0625 148.132812 62.566406 161.308594 C 52.8125 148.046875 43.953125 133.796875 38.535156 118.523438 C 34.464844 107.042969 32.921875 94.710938 34.046875 82.578125 C 35.082031 71.367188 38.457031 54.921875 51.429688 52.097656 C 69.125 48.246094 68.667969 71.824219 67.445312 82.765625 C 66.078125 95.015625 64.707031 107.261719 63.582031 119.535156 Z M 63.582031 119.535156 " fill-opacity="1" fill-rule="nonzero"/><path fill="#231f20" d="M 103.832031 130.476562 C 112.863281 123.042969 122.097656 115.925781 131.429688 108.882812 C 137.464844 104.324219 144 98.507812 143.503906 90.144531 C 143.125 83.738281 138.140625 79.261719 132.125 77.964844 C 115.828125 74.457031 99.402344 93.152344 92.609375 105.75 C 88.222656 113.882812 85.945312 122.972656 83.683594 131.878906 C 81.492188 140.503906 79.488281 149.921875 81.3125 158.78125 C 81.691406 160.632812 84.1875 160.023438 84.359375 158.390625 C 84.472656 157.257812 84.609375 156.109375 84.734375 154.96875 C 85.023438 154.898438 85.277344 154.695312 85.363281 154.308594 C 87.832031 143.363281 95.558594 137.292969 103.832031 130.480469 Z M 86.113281 144.386719 C 87.847656 132.882812 90.519531 121.328125 95.417969 110.988281 C 99.101562 103.21875 104.472656 96.289062 111.078125 90.789062 C 117.179688 85.710938 127.054688 79.1875 134.9375 84.273438 C 145.691406 91.210938 133.722656 102.753906 127.664062 107.609375 C 120.882812 113.039062 114.097656 118.472656 107.421875 124.035156 C 101.230469 129.203125 90.921875 136.054688 86.113281 144.386719 Z M 86.113281 144.386719 " fill-opacity="1" fill-rule="nonzero"/><path fill="#231f20" d="M 192.941406 120.246094 C 177.332031 105.550781 149.070312 113.246094 133.46875 123.691406 C 122.980469 130.714844 113.8125 140.238281 105.738281 149.882812 C 98.765625 158.210938 91.628906 168.300781 90.390625 179.363281 C 90.203125 181.050781 92.582031 181.375 93.359375 180.167969 C 93.8125 179.46875 94.246094 178.769531 94.6875 178.074219 C 94.875 178.015625 95.058594 177.929688 95.214844 177.753906 C 104.695312 167.035156 122.015625 163.652344 135.542969 161.554688 C 149.410156 159.402344 163.355469 159.277344 177.324219 158.527344 C 185.601562 158.085938 194.886719 156.351562 198.519531 147.878906 C 202.367188 138.902344 199.992188 126.878906 192.941406 120.242188 Z M 184.035156 153.261719 C 179.101562 154.644531 173.351562 154.632812 168.265625 155.015625 C 158.175781 155.773438 148.078125 156.1875 138.042969 157.554688 C 126.277344 159.152344 110.734375 161.527344 100.253906 169.128906 C 103.363281 164.171875 106.589844 159.328125 110.558594 154.722656 C 117.53125 146.636719 125.140625 138.597656 133.640625 132.117188 C 147.785156 121.34375 185.84375 108.285156 193.324219 133.851562 C 195.8125 142.359375 192.757812 150.816406 184.035156 153.257812 Z M 184.035156 153.261719 " fill-opacity="1" fill-rule="nonzero"/></svg>