<svg xmlns="http://www.w3.org/2000/svg" xmlns:xlink="http://www.w3.org/1999/xlink"  zoomAndPan="magnify" viewBox="0 0 75 74.999997" preserveAspectRatio="xMidYMid meet" version="1.0"><defs><clipPath id="81608163d9"><path d="M 7.5 7.5 L 67.5 7.5 L 67.5 67.5 L 7.5 67.5 Z M 7.5 7.5 " clip-rule="nonzero"/></clipPath></defs><g clip-path="url(#81608163d9)"><path fill="currentColor" d="M 39.621094 37.550781 L 66.894531 10.378906 C 67.5 9.773438 67.5 8.863281 66.894531 8.257812 C 66.289062 7.652344 65.378906 7.652344 64.773438 8.257812 L 37.5 35.429688 L 10.328125 8.15625 C 9.722656 7.550781 8.8125 7.550781 8.207031 8.15625 C 7.601562 8.761719 7.601562 9.671875 8.207031 10.277344 L 35.378906 37.550781 L 8.105469 64.722656 C 7.5 65.328125 7.5 66.238281 8.105469 66.84375 C 8.710938 67.449219 9.722656 67.449219 10.226562 66.84375 L 37.5 39.671875 L 64.671875 66.84375 C 64.976562 67.144531 65.378906 67.246094 65.78125 67.246094 C 66.1875 67.246094 66.589844 67.046875 66.894531 66.84375 C 67.5 66.238281 67.5 65.328125 66.894531 64.722656 Z M 39.621094 37.550781 " fill-opacity="1" fill-rule="nonzero"/></g></svg>