<svg xmlns="http://www.w3.org/2000/svg" xmlns:xlink="http://www.w3.org/1999/xlink" zoomAndPan="magnify" viewBox="0 0 75 74.999997" preserveAspectRatio="xMidYMid meet" version="1.0"><defs><clipPath id="1d07524144"><path d="M 7.5 7.5 L 66 7.5 L 66 67.5 L 7.5 67.5 Z M 7.5 7.5 " clip-rule="nonzero"/></clipPath></defs><g clip-path="url(#1d07524144)"><path fill="currentColor" d="M 30.683594 7.5 C 17.898438 7.5 7.503906 17.917969 7.503906 30.734375 C 7.503906 43.550781 17.898438 53.96875 30.683594 53.96875 C 35.746094 53.96875 40.417969 52.316406 44.230469 49.546875 L 62.160156 67.519531 L 66.015625 63.652344 L 48.253906 45.847656 C 51.738281 41.78125 53.863281 36.507812 53.863281 30.734375 C 53.863281 17.917969 43.46875 7.5 30.683594 7.5 Z M 30.683594 10.234375 C 41.992188 10.234375 51.132812 19.394531 51.132812 30.734375 C 51.132812 42.074219 41.992188 51.234375 30.683594 51.234375 C 19.371094 51.234375 10.230469 42.074219 10.230469 30.734375 C 10.230469 19.394531 19.371094 10.234375 30.683594 10.234375 Z M 30.683594 10.234375 " fill-opacity="1" fill-rule="nonzero"/></g></svg>