<svg xmlns="http://www.w3.org/2000/svg" xmlns:xlink="http://www.w3.org/1999/xlink" zoomAndPan="magnify" viewBox="0 0 75 74.999997" preserveAspectRatio="xMidYMid meet" version="1.0"><defs><clipPath id="9ec9310e40"><path d="M 7.5 17.773438 L 67.5 17.773438 L 67.5 23 L 7.5 23 Z M 7.5 17.773438 " clip-rule="nonzero"/></clipPath><clipPath id="8850465a65"><path d="M 7.5 35 L 67.5 35 L 67.5 41 L 7.5 41 Z M 7.5 35 " clip-rule="nonzero"/></clipPath><clipPath id="fc0022f65d"><path d="M 7.5 52 L 67.5 52 L 67.5 57.523438 L 7.5 57.523438 Z M 7.5 52 " clip-rule="nonzero"/></clipPath></defs><g clip-path="url(#9ec9310e40)"><path fill="currentColor" d="M 67.5 20.375 C 67.5 21.804688 66.347656 22.964844 64.925781 22.964844 L 10.074219 22.964844 C 8.652344 22.964844 7.5 21.804688 7.5 20.375 C 7.5 18.945312 8.652344 17.785156 10.074219 17.785156 L 64.925781 17.785156 C 66.347656 17.785156 67.5 18.945312 67.5 20.375 Z M 67.5 20.375 " fill-opacity="1" fill-rule="evenodd"/></g><g clip-path="url(#8850465a65)"><path fill="#000000" d="M 67.5 37.648438 C 67.5 39.082031 66.347656 40.242188 64.925781 40.242188 L 10.074219 40.242188 C 8.652344 40.242188 7.5 39.082031 7.5 37.648438 C 7.5 36.21875 8.652344 35.058594 10.074219 35.058594 L 64.925781 35.058594 C 66.347656 35.058594 67.5 36.21875 67.5 37.648438 Z M 67.5 37.648438 " fill-opacity="1" fill-rule="evenodd"/></g><g clip-path="url(#fc0022f65d)"><path fill="#000000" d="M 67.5 54.925781 C 67.5 56.355469 66.347656 57.515625 64.925781 57.515625 L 10.074219 57.515625 C 8.652344 57.515625 7.5 56.355469 7.5 54.925781 C 7.5 53.492188 8.652344 52.332031 10.074219 52.332031 L 64.925781 52.332031 C 66.347656 52.332031 67.5 53.492188 67.5 54.925781 Z M 67.5 54.925781 " fill-opacity="1" fill-rule="evenodd"/></g></svg>