<svg xmlns="http://www.w3.org/2000/svg" xmlns:xlink="http://www.w3.org/1999/xlink" zoomAndPan="magnify" viewBox="0 0 224.87999 225" preserveAspectRatio="xMidYMid meet" version="1.0"><defs><clipPath id="31e3a31e5c"><path d="M 37 41 L 188 41 L 188 202.453125 L 37 202.453125 Z M 37 41 " clip-rule="nonzero"/></clipPath><clipPath id="e6811eee3c"><path d="M 189 100 L 201.269531 100 L 201.269531 111 L 189 111 Z M 189 100 " clip-rule="nonzero"/></clipPath><clipPath id="4203f9bf88"><path d="M 23.613281 100 L 35 100 L 35 112 L 23.613281 112 Z M 23.613281 100 " clip-rule="nonzero"/></clipPath><clipPath id="c23c8018ab"><path d="M 113 22.546875 L 119 22.546875 L 119 35 L 113 35 Z M 113 22.546875 " clip-rule="nonzero"/></clipPath></defs><g clip-path="url(#31e3a31e5c)"><path fill="currentColor" d="M 187.515625 110.386719 C 186.535156 113.550781 184.320312 115.675781 181.53125 117.230469 C 175.75 120.449219 169.480469 120.988281 163.023438 120.488281 C 155.445312 119.898438 148.023438 120.492188 140.933594 123.535156 C 137.195312 125.140625 133.402344 128.21875 131.71875 131.222656 C 133.304688 130.949219 134.757812 130.71875 136.203125 130.457031 C 139.777344 129.804688 143.054688 130.765625 146.1875 132.351562 C 148.289062 133.414062 150.359375 134.554688 152.382812 135.757812 C 158.257812 139.246094 164.402344 140.40625 171.136719 138.609375 C 174.914062 137.601562 178.925781 137.738281 182.75 136.6875 C 181.722656 137.886719 180.410156 138.644531 179 138.925781 C 174.226562 139.886719 169.472656 140.933594 164.554688 141.089844 C 158.859375 141.269531 153.605469 139.84375 148.5 137.53125 C 147.355469 137.015625 146.199219 136.511719 145.023438 136.066406 C 137.480469 133.203125 128.203125 136.269531 123.808594 143.0625 C 120.375 148.367188 119.277344 154.113281 120.355469 160.34375 C 121.648438 167.796875 122.808594 175.273438 123.222656 182.839844 C 123.273438 183.769531 123.695312 184.515625 124.203125 185.230469 C 126.578125 188.578125 129.746094 190.96875 133.371094 192.800781 C 138.566406 195.429688 144.191406 196.601562 149.84375 197.675781 C 151.28125 197.949219 152.71875 198.207031 154.140625 198.550781 C 144.460938 198.851562 134.992188 197.972656 126.148438 193.5625 C 124.75 192.863281 123.3125 192.519531 121.703125 192.921875 C 120.4375 193.238281 120.445312 193.667969 121.230469 194.511719 C 123.636719 197.117188 126.457031 199.179688 129.511719 200.953125 C 130.121094 201.308594 130.738281 201.652344 131.441406 202.050781 C 130.84375 202.445312 130.367188 202.207031 129.882812 202.085938 C 124.945312 200.847656 120.429688 198.742188 117.003906 194.914062 C 114.078125 191.648438 110.136719 192.242188 107.550781 194.9375 C 103.566406 199.085938 98.46875 201.265625 92.863281 202.382812 C 96.902344 199.871094 100.949219 197.382812 104.109375 193.554688 C 102.886719 192.785156 101.664062 192.496094 100.351562 192.914062 C 99.257812 193.257812 98.160156 193.632812 97.132812 194.136719 C 88.6875 198.253906 79.632812 198.664062 70.492188 198.59375 C 75.34375 197.695312 80.207031 196.863281 84.921875 195.363281 C 88.0625 194.363281 91.085938 193.082031 93.890625 191.324219 C 98.582031 188.382812 101.808594 184.664062 101.820312 178.644531 C 101.835938 172.820312 103.25 167.121094 104.320312 161.417969 C 105.78125 153.667969 104.433594 146.617188 99.222656 140.660156 C 94.445312 135.199219 85.640625 133.59375 79.046875 136.546875 C 75.351562 138.203125 71.703125 140.027344 67.648438 140.652344 C 61.835938 141.550781 56.0625 141.144531 50.332031 139.878906 C 47.363281 139.222656 44.257812 139.003906 41.734375 136.703125 C 42.417969 136.445312 42.96875 136.722656 43.488281 136.855469 C 48.4375 138.113281 53.539062 138.460938 58.550781 139.335938 C 63.292969 140.164062 67.625 138.539062 71.730469 136.289062 C 74.230469 134.921875 76.683594 133.472656 79.21875 132.175781 C 83.183594 130.148438 87.324219 129.617188 91.640625 130.964844 C 92.242188 131.152344 92.84375 131.460938 93.65625 131.3125 C 90.898438 126.804688 86.828125 124.238281 82.039062 122.574219 C 75.648438 120.355469 69.066406 120.027344 62.402344 120.519531 C 55.847656 121.003906 49.488281 120.441406 43.554688 117.296875 C 40.570312 115.710938 38.214844 113.566406 37.148438 110.210938 C 37.929688 110.933594 38.699219 111.675781 39.503906 112.375 C 43.511719 115.847656 48.296875 117.101562 53.472656 117.308594 C 57.332031 117.464844 61.109375 116.851562 64.925781 116.398438 C 72.542969 115.488281 80.140625 115.691406 87.609375 117.660156 C 88.855469 117.988281 89.1875 117.796875 88.859375 116.519531 C 85.332031 102.855469 77.25 93.535156 63.34375 89.789062 C 59.820312 88.839844 56.160156 89.027344 52.570312 88.621094 C 48.625 88.171875 44.796875 87.300781 41.46875 84.960938 C 40.808594 84.5 40.082031 84.070312 39.695312 83.164062 C 40.648438 83.277344 41.371094 83.777344 42.125 84.164062 C 45.800781 86.054688 49.691406 86.988281 53.824219 87.039062 C 58.429688 87.101562 63.042969 87.15625 67.535156 88.371094 C 73.28125 89.917969 78.160156 92.980469 82.449219 97.042969 C 87.632812 101.953125 91.292969 107.90625 94.21875 114.347656 C 97.113281 120.722656 100.429688 126.816406 105.597656 131.695312 C 105.917969 132 106.21875 132.320312 106.539062 132.621094 C 106.605469 132.683594 106.734375 132.675781 106.964844 132.730469 C 107.371094 129.9375 106.875 127.179688 106.664062 124.449219 C 106.046875 116.382812 104.359375 108.554688 101.300781 101.011719 C 97.847656 92.484375 92.09375 85.945312 84.710938 80.636719 C 77.910156 75.746094 70.320312 72.3125 62.921875 68.503906 C 61.820312 67.9375 60.78125 67.242188 59.777344 66.429688 C 61.320312 66.195312 62.699219 66.804688 64.105469 67.179688 C 65.582031 67.574219 67.046875 68.027344 68.503906 68.5 C 69.960938 68.972656 71.410156 69.476562 72.847656 70.003906 C 74.273438 70.527344 75.683594 71.097656 77.382812 71.753906 C 75.082031 64.929688 73.582031 58.3125 76.121094 51.5 C 76.566406 54.125 76.4375 56.792969 77 59.414062 C 78.667969 67.214844 82.464844 73.875 88.738281 78.65625 C 97.308594 85.191406 104.03125 93.0625 108.738281 102.714844 C 108.804688 102.855469 108.929688 102.964844 109.253906 103.371094 C 109.390625 100.777344 109.59375 98.464844 109.617188 96.152344 C 109.695312 88.109375 108.457031 80.324219 104.839844 73.046875 C 102.6875 68.722656 100.652344 64.359375 99.695312 59.582031 C 98.660156 54.394531 96.828125 49.484375 94.605469 44.703125 C 94.152344 43.734375 93.6875 42.769531 93.148438 41.636719 C 94.261719 41.878906 94.75 42.558594 95.292969 43.128906 C 98.847656 46.84375 100.851562 51.410156 102.0625 56.292969 C 103.308594 61.328125 105.855469 65.589844 109.023438 69.574219 C 110.21875 71.074219 111.496094 72.515625 112.625 74.066406 C 113.273438 74.957031 113.527344 74.734375 114.113281 74.003906 C 118.773438 68.199219 122.277344 61.890625 123.601562 54.425781 C 124.296875 50.511719 126.132812 46.976562 128.753906 43.910156 C 129.496094 43.042969 130.277344 42.238281 131.378906 41.488281 C 131.207031 42.675781 130.625 43.484375 130.21875 44.351562 C 128.03125 49.042969 126.429688 53.914062 125.554688 59.019531 C 124.820312 63.332031 123.242188 67.3125 121.050781 71.113281 C 117.140625 77.894531 115.144531 85.226562 115.210938 93.09375 C 115.238281 96.472656 115.214844 99.855469 115.59375 103.324219 C 115.957031 102.695312 116.332031 102.070312 116.675781 101.429688 C 121.328125 92.746094 127.519531 85.417969 135.363281 79.394531 C 142.304688 74.070312 146.71875 66.988281 148.394531 58.347656 C 148.839844 56.058594 148.832031 53.683594 149.039062 51.292969 C 150.292969 53.074219 150.53125 55.03125 150.222656 61.3125 C 150.050781 64.800781 148.808594 68.023438 147.527344 71.476562 C 153.402344 69.578125 158.902344 67.144531 165.179688 66.078125 C 164.273438 67.355469 163.195312 67.742188 162.207031 68.222656 C 156.203125 71.148438 150.089844 73.890625 144.5 77.585938 C 136.929688 82.585938 129.992188 88.273438 125.65625 96.5 C 122.03125 103.367188 120.113281 110.78125 118.960938 118.398438 C 118.257812 123.046875 117.710938 127.726562 117.96875 132.78125 C 120.484375 130.332031 122.707031 127.976562 124.539062 125.269531 C 126.757812 121.988281 128.476562 118.433594 130.109375 114.839844 C 133.273438 107.882812 137.257812 101.5 142.972656 96.335938 C 149.171875 90.742188 156.40625 87.605469 164.816406 87.25 C 168.699219 87.085938 172.605469 87.265625 176.445312 86.375 C 179.238281 85.722656 181.773438 84.457031 184.464844 83.472656 C 183.675781 84.648438 182.53125 85.375 181.3125 86 C 177.265625 88.066406 172.898438 88.707031 168.429688 88.898438 C 153.089844 89.566406 140.5 99.554688 136.332031 114.382812 C 135.289062 118.082031 135.292969 118.09375 138.941406 117.300781 C 147.027344 115.546875 155.117188 115.515625 163.273438 116.898438 C 167.945312 117.691406 172.679688 117.589844 177.328125 116.511719 C 181.351562 115.574219 184.621094 113.320312 187.515625 110.386719 Z M 187.515625 110.386719 " fill-opacity="1" fill-rule="nonzero"/></g><path fill="currentColor" d="M 156.980469 122.726562 C 159.15625 122.773438 161.242188 123.179688 163.238281 123.992188 C 163.910156 124.265625 164.460938 124.664062 163.59375 125.375 C 158.636719 129.441406 153.125 131.167969 146.78125 129.375 C 146.464844 129.289062 146.171875 129.132812 145.867188 129.011719 C 145.03125 128.683594 144.972656 128.300781 145.605469 127.613281 C 148.679688 124.277344 152.496094 122.722656 156.980469 122.726562 Z M 156.980469 122.726562 " fill-opacity="1" fill-rule="nonzero"/><path fill="currentColor" d="M 67.914062 122.773438 C 72.042969 122.765625 75.65625 124.042969 78.539062 127.101562 C 79.707031 128.347656 79.671875 128.519531 78.007812 129.121094 C 72.9375 130.953125 68.207031 130.117188 63.746094 127.265625 C 63.195312 126.902344 62.667969 126.507812 62.167969 126.082031 C 61.757812 125.742188 61.050781 125.480469 61.140625 124.910156 C 61.25 124.21875 61.992188 123.980469 62.609375 123.753906 C 64.320312 123.121094 66.070312 122.707031 67.914062 122.773438 Z M 67.914062 122.773438 " fill-opacity="1" fill-rule="nonzero"/><path fill="currentColor" d="M 93.265625 62.789062 C 96.433594 65.828125 98.070312 69.382812 98.472656 73.476562 C 98.683594 75.648438 98.714844 77.835938 97.996094 79.984375 C 97.605469 81.148438 97.152344 81.199219 96.3125 80.492188 C 92.964844 77.679688 91.578125 73.980469 91.695312 69.726562 C 91.757812 67.453125 92.085938 65.164062 93.265625 62.789062 Z M 93.265625 62.789062 " fill-opacity="1" fill-rule="nonzero"/><path fill="currentColor" d="M 161.414062 105.078125 C 161.6875 105.078125 161.96875 105.039062 162.234375 105.085938 C 163.019531 105.21875 164.160156 104.722656 164.515625 105.507812 C 164.945312 106.449219 163.90625 107.15625 163.34375 107.847656 C 159.796875 112.191406 155.292969 113.902344 149.765625 112.632812 C 148.09375 112.25 147.992188 111.996094 149.054688 110.644531 C 152.203125 106.65625 156.414062 104.976562 161.414062 105.078125 Z M 161.414062 105.078125 " fill-opacity="1" fill-rule="nonzero"/><path fill="currentColor" d="M 107.097656 46.785156 C 110.695312 49.394531 112.289062 52.96875 112.953125 57.019531 C 113.246094 58.800781 113.167969 60.636719 112.957031 62.441406 C 112.785156 63.902344 112.417969 64.082031 111.191406 63.230469 C 107.878906 60.929688 106.4375 57.589844 106.136719 53.699219 C 105.960938 51.402344 106.21875 49.128906 107.097656 46.785156 Z M 107.097656 46.785156 " fill-opacity="1" fill-rule="nonzero"/><path fill="currentColor" d="M 63.648438 105.121094 C 68.753906 105.0625 72.878906 106.941406 75.851562 111.207031 C 76.53125 112.183594 76.269531 112.453125 75.253906 112.699219 C 69.722656 114.03125 63.695312 111.433594 60.898438 106.511719 C 60.332031 105.515625 60.546875 105.105469 61.679688 105.121094 C 62.335938 105.132812 62.992188 105.121094 63.648438 105.121094 Z M 63.648438 105.121094 " fill-opacity="1" fill-rule="nonzero"/><path fill="currentColor" d="M 126.175781 75.359375 C 126.03125 71.398438 127.410156 68.296875 129.960938 65.660156 C 130.773438 64.820312 131.324219 64.550781 131.894531 65.972656 C 133.867188 70.914062 132.796875 76.390625 129.136719 79.515625 C 127.613281 80.820312 127.183594 80.710938 126.628906 78.828125 C 126.273438 77.617188 126.113281 76.375 126.175781 75.359375 Z M 126.175781 75.359375 " fill-opacity="1" fill-rule="nonzero"/><path fill="currentColor" d="M 129.539062 55.242188 C 130.117188 52.347656 131.789062 50.160156 134.03125 48.433594 C 136.53125 46.511719 139.503906 45.773438 142.601562 45.519531 C 143.242188 45.464844 143.796875 45.417969 143.4375 46.453125 C 141.613281 51.742188 135.113281 55.914062 129.539062 55.242188 Z M 129.539062 55.242188 " fill-opacity="1" fill-rule="nonzero"/><g clip-path="url(#e6811eee3c)"><path fill="currentColor" d="M 191.816406 110.757812 C 189.628906 110.789062 189.582031 110.773438 190.136719 108.664062 C 191.550781 103.320312 196.027344 100.945312 200.542969 100.226562 C 201.027344 100.148438 201.269531 100.359375 201.21875 100.863281 C 200.707031 105.847656 196.777344 110.859375 191.816406 110.757812 Z M 191.816406 110.757812 " fill-opacity="1" fill-rule="nonzero"/></g><path fill="currentColor" d="M 87.832031 42.484375 C 83.949219 42.46875 79.265625 39.28125 77.851562 35.816406 C 77.523438 35.015625 77.648438 34.714844 78.570312 34.523438 C 83.058594 33.585938 88.636719 35.996094 90.875 39.929688 C 91.707031 41.390625 91.601562 41.671875 89.964844 42.167969 C 89.230469 42.390625 88.480469 42.550781 87.832031 42.484375 Z M 87.832031 42.484375 " fill-opacity="1" fill-rule="nonzero"/><path fill="currentColor" d="M 181.304688 97.003906 C 178.050781 101.804688 171.628906 103.554688 166.710938 100.976562 C 165.109375 100.140625 165.144531 99.96875 166.484375 98.734375 C 170.378906 95.148438 177.332031 95.25 181.304688 97.003906 Z M 181.304688 97.003906 " fill-opacity="1" fill-rule="nonzero"/><path fill="currentColor" d="M 82.410156 45.601562 C 88.160156 45.863281 92.820312 48.960938 94.5 53.640625 C 95.160156 55.480469 94.992188 55.679688 93.007812 55.390625 C 87.632812 54.601562 83.980469 51.5625 81.746094 46.710938 C 81.261719 45.652344 81.351562 45.550781 82.410156 45.601562 Z M 82.410156 45.601562 " fill-opacity="1" fill-rule="nonzero"/><path fill="currentColor" d="M 162.582031 52.90625 C 164.089844 58.464844 160.648438 64.363281 155.121094 65.769531 C 154.226562 66 153.972656 65.765625 153.902344 64.886719 C 153.503906 59.957031 157.644531 54.210938 162.582031 52.90625 Z M 162.582031 52.90625 " fill-opacity="1" fill-rule="nonzero"/><path fill="currentColor" d="M 53.15625 102.140625 C 49.648438 102.011719 46.710938 100.761719 44.398438 98.167969 C 43.996094 97.71875 43.253906 97.042969 44.445312 96.722656 C 49.371094 95.402344 54.164062 95.128906 58.410156 98.730469 C 59.382812 99.554688 59.476562 100.160156 58.265625 100.730469 C 56.628906 101.507812 54.941406 102.117188 53.15625 102.140625 Z M 53.15625 102.140625 " fill-opacity="1" fill-rule="nonzero"/><g clip-path="url(#4203f9bf88)"><path fill="currentColor" d="M 33.28125 110.988281 C 27.875 110.785156 24.046875 106.035156 23.667969 101.128906 C 23.613281 100.449219 23.8125 100.1875 24.609375 100.300781 C 29.597656 101.007812 33.535156 104.769531 34.398438 109.558594 C 34.628906 110.832031 34.269531 111.167969 33.28125 110.988281 Z M 33.28125 110.988281 " fill-opacity="1" fill-rule="nonzero"/></g><path fill="currentColor" d="M 143.726562 34.496094 C 144.601562 34.542969 145.96875 34.105469 146.410156 34.917969 C 146.894531 35.804688 145.925781 36.828125 145.347656 37.6875 C 142.894531 41.324219 138.890625 42.949219 134.636719 42.128906 C 133.351562 41.882812 133.160156 41.300781 133.667969 40.207031 C 135.277344 36.707031 138.242188 35.210938 141.832031 34.632812 C 142.421875 34.539062 143.03125 34.542969 143.726562 34.496094 Z M 143.726562 34.496094 " fill-opacity="1" fill-rule="nonzero"/><path fill="currentColor" d="M 68.730469 84.960938 C 68.800781 85.882812 68.167969 85.5625 67.652344 85.441406 C 64.777344 84.777344 62.382812 83.332031 60.683594 80.898438 C 59.324219 78.949219 58.441406 76.789062 58.210938 74.386719 C 58.144531 73.667969 58.238281 73.355469 59.0625 73.535156 C 63.664062 74.5625 68.457031 80.101562 68.699219 84.710938 C 68.703125 84.769531 68.710938 84.820312 68.730469 84.960938 Z M 68.730469 84.960938 " fill-opacity="1" fill-rule="nonzero"/><path fill="currentColor" d="M 161.433594 77.304688 C 161.207031 82.292969 157.703125 86.035156 152.945312 86.550781 C 152.164062 86.632812 151.90625 86.429688 151.878906 85.609375 C 151.746094 81.371094 155.722656 76.546875 159.921875 75.851562 C 161.328125 75.617188 161.714844 76.175781 161.433594 77.304688 Z M 161.433594 77.304688 " fill-opacity="1" fill-rule="nonzero"/><path fill="currentColor" d="M 70.292969 63.71875 C 70.386719 65.789062 70.125 65.980469 67.972656 65.121094 C 63.742188 63.429688 61.46875 59.414062 62.113281 54.894531 C 62.296875 53.59375 62.792969 53.390625 63.9375 53.945312 C 67.914062 55.878906 70.21875 58.894531 70.292969 63.71875 Z M 70.292969 63.71875 " fill-opacity="1" fill-rule="nonzero"/><path fill="currentColor" d="M 87.664062 64.171875 C 87.695312 65.742188 87.246094 67.1875 86.597656 68.59375 C 86.195312 69.457031 85.71875 69.539062 84.953125 69.003906 C 82.078125 66.992188 81.503906 64.089844 81.789062 60.882812 C 81.90625 59.523438 82.386719 58.226562 82.828125 56.929688 C 83.140625 56.007812 83.550781 56.035156 84.214844 56.550781 C 86.71875 58.488281 87.625 61.132812 87.664062 64.171875 Z M 87.664062 64.171875 " fill-opacity="1" fill-rule="nonzero"/><path fill="currentColor" d="M 190.71875 87.007812 C 191.144531 87.007812 191.199219 87.003906 191.253906 87.007812 C 192.457031 87.109375 194.226562 86.648438 194.5625 87.972656 C 194.828125 89.03125 193.207031 89.792969 192.191406 90.382812 C 188.765625 92.367188 185.085938 92.734375 181.273438 91.828125 C 180.609375 91.667969 179.648438 91.5 179.542969 90.800781 C 179.445312 90.171875 180.382812 89.921875 180.910156 89.5625 C 183.988281 87.472656 187.523438 87.179688 190.71875 87.007812 Z M 190.71875 87.007812 " fill-opacity="1" fill-rule="nonzero"/><path fill="currentColor" d="M 152.390625 101.152344 C 153.605469 101.140625 154.78125 101.34375 155.917969 101.769531 C 156.878906 102.128906 157.125 102.523438 156.25 103.335938 C 154.726562 104.742188 152.960938 105.757812 150.996094 106.222656 C 148.398438 106.839844 145.746094 107.179688 143.039062 106.78125 C 141.933594 106.617188 142.027344 106.300781 142.605469 105.609375 C 145.160156 102.5625 148.46875 101.1875 152.390625 101.152344 Z M 152.390625 101.152344 " fill-opacity="1" fill-rule="nonzero"/><path fill="currentColor" d="M 168.445312 60.558594 C 168.453125 56.570312 169.738281 53.582031 172.738281 51.433594 C 173.226562 51.085938 173.738281 50.585938 174.097656 51.570312 C 175.542969 55.527344 174.769531 60.78125 170.542969 63.058594 C 169.007812 63.886719 168.871094 63.835938 168.613281 62.144531 C 168.515625 61.496094 168.472656 60.84375 168.445312 60.558594 Z M 168.445312 60.558594 " fill-opacity="1" fill-rule="nonzero"/><path fill="currentColor" d="M 137.332031 64.550781 C 137.332031 61.585938 138.4375 59.140625 140.6875 57.1875 C 141.480469 56.5 141.972656 56.28125 142.359375 57.5625 C 143.457031 61.214844 143.859375 64.769531 141.183594 67.972656 C 140.589844 68.683594 139.871094 69.617188 138.953125 69.441406 C 138.09375 69.277344 138.015625 68.097656 137.699219 67.296875 C 137.351562 66.402344 137.359375 65.480469 137.332031 64.550781 Z M 137.332031 64.550781 " fill-opacity="1" fill-rule="nonzero"/><path fill="currentColor" d="M 175.082031 70.652344 C 175.707031 75.375 175.136719 79.726562 171.378906 83.097656 C 170.636719 83.761719 169.664062 84.566406 168.808594 84.167969 C 168.0625 83.820312 168.445312 82.574219 168.492188 81.726562 C 168.75 76.921875 171.695312 73.683594 175.082031 70.652344 Z M 175.082031 70.652344 " fill-opacity="1" fill-rule="nonzero"/><path fill="currentColor" d="M 49.734375 55.222656 C 49.773438 54.746094 49.730469 54.066406 49.902344 53.445312 C 50.132812 52.636719 49.992188 51.417969 50.882812 51.175781 C 51.597656 50.984375 52.308594 51.871094 52.882812 52.425781 C 55.824219 55.28125 56.523438 58.757812 55.625 62.667969 C 55.398438 63.664062 54.871094 63.507812 54.234375 63.171875 C 51.113281 61.519531 49.707031 58.878906 49.734375 55.222656 Z M 49.734375 55.222656 " fill-opacity="1" fill-rule="nonzero"/><path fill="currentColor" d="M 78.597656 106.890625 C 74.941406 106.78125 71.578125 105.878906 68.664062 103.558594 C 67.894531 102.945312 67.636719 102.539062 68.75 101.984375 C 72.75 99.976562 79.632812 101.835938 82.046875 105.582031 C 82.542969 106.355469 82.171875 106.578125 81.542969 106.65625 C 80.566406 106.78125 79.578125 106.816406 78.597656 106.890625 Z M 78.597656 106.890625 " fill-opacity="1" fill-rule="nonzero"/><path fill="currentColor" d="M 45.164062 90.703125 C 40.984375 93.40625 33.46875 92.324219 30.425781 88.753906 C 29.667969 87.867188 30.113281 87.550781 30.957031 87.285156 C 32.917969 86.667969 34.867188 87.195312 36.820312 87.332031 C 39.917969 87.550781 42.605469 88.765625 45.164062 90.703125 Z M 45.164062 90.703125 " fill-opacity="1" fill-rule="nonzero"/><path fill="currentColor" d="M 46.335938 105.601562 C 51.472656 106.949219 56.421875 107.859375 59.207031 112.847656 C 59.882812 114.054688 59.246094 114.144531 58.417969 114.160156 C 55.070312 114.21875 52.285156 112.78125 49.800781 110.703125 C 48.28125 109.429688 47.125 107.859375 46.335938 105.601562 Z M 46.335938 105.601562 " fill-opacity="1" fill-rule="nonzero"/><path fill="currentColor" d="M 178.082031 105.734375 C 176.792969 110.570312 170.527344 114.722656 165.933594 114.019531 C 165.117188 113.894531 165.050781 113.664062 165.417969 112.992188 C 166.550781 110.910156 168.0625 109.234375 170.238281 108.210938 C 172.675781 107.066406 175.238281 106.34375 178.082031 105.734375 Z M 178.082031 105.734375 " fill-opacity="1" fill-rule="nonzero"/><path fill="currentColor" d="M 36.085938 122.703125 C 32.679688 122.664062 29.894531 120.8125 27.886719 117.648438 C 27.296875 116.71875 27.484375 116.261719 28.679688 116.105469 C 33.125 115.515625 36.871094 117.304688 38.960938 120.953125 C 39.628906 122.117188 39.367188 122.476562 38.167969 122.546875 C 37.621094 122.578125 37.078125 122.628906 36.085938 122.703125 Z M 36.085938 122.703125 " fill-opacity="1" fill-rule="nonzero"/><path fill="currentColor" d="M 178.078125 67.855469 C 175.558594 67.847656 173.546875 67.289062 171.800781 65.886719 C 171.394531 65.5625 170.9375 65.351562 171.652344 64.839844 C 175.390625 62.148438 180.101562 61.773438 183.777344 64.328125 C 184.6875 64.964844 184.4375 65.328125 183.714844 65.871094 C 181.941406 67.199219 179.984375 67.910156 178.078125 67.855469 Z M 178.078125 67.855469 " fill-opacity="1" fill-rule="nonzero"/><path fill="currentColor" d="M 53.425781 65.332031 C 49.738281 68.449219 44.644531 68.671875 41.113281 66.03125 C 39.644531 64.9375 39.644531 64.765625 41.195312 63.890625 C 44.175781 62.210938 47.226562 62.136719 50.300781 63.589844 C 51.332031 64.078125 52.296875 64.699219 53.425781 65.332031 Z M 53.425781 65.332031 " fill-opacity="1" fill-rule="nonzero"/><path fill="currentColor" d="M 187.871094 122.671875 C 186.972656 122.507812 185.714844 122.917969 185.375 122.136719 C 185.003906 121.269531 185.875 120.332031 186.460938 119.566406 C 188.488281 116.929688 193.039062 115.480469 196.277344 116.285156 C 197.410156 116.570312 196.863281 117.117188 196.605469 117.574219 C 194.675781 120.972656 191.710938 122.617188 187.871094 122.671875 Z M 187.871094 122.671875 " fill-opacity="1" fill-rule="nonzero"/><path fill="currentColor" d="M 68.226562 49.0625 C 64.386719 49.003906 60.421875 45.378906 60.027344 41.570312 C 59.972656 41.082031 59.835938 40.511719 60.675781 40.632812 C 64.742188 41.214844 68.53125 43.242188 69.632812 47.25 C 70.113281 49 70.070312 49.09375 68.226562 49.0625 Z M 68.226562 49.0625 " fill-opacity="1" fill-rule="nonzero"/><path fill="currentColor" d="M 41.546875 105.84375 C 41.550781 105.898438 41.550781 105.953125 41.546875 106.007812 C 41.4375 106.890625 41.929688 108.21875 41.121094 108.554688 C 40.15625 108.953125 39.253906 107.910156 38.511719 107.203125 C 35.683594 104.503906 35.027344 101.152344 35.675781 97.429688 C 35.894531 96.179688 36.578125 96.460938 37.296875 96.945312 C 40.449219 99.078125 41.585938 102.179688 41.546875 105.84375 Z M 41.546875 105.84375 " fill-opacity="1" fill-rule="nonzero"/><path fill="currentColor" d="M 75.796875 42.398438 C 75.789062 43.222656 75.726562 44.027344 75.5 44.832031 C 74.855469 47.113281 74.402344 47.269531 72.632812 45.757812 C 70.082031 43.574219 69.386719 38.210938 71.238281 35.449219 C 71.804688 34.609375 72.242188 35.058594 72.675781 35.449219 C 74.71875 37.308594 75.796875 39.613281 75.796875 42.398438 Z M 75.796875 42.398438 " fill-opacity="1" fill-rule="nonzero"/><path fill="currentColor" d="M 154.601562 39.300781 C 154.648438 42.449219 153.699219 44.703125 151.441406 46.359375 C 150.703125 46.902344 150.257812 46.886719 149.78125 46.023438 C 148 42.824219 149.328125 37.316406 152.382812 35.238281 C 153.054688 34.78125 153.449219 34.832031 153.75 35.574219 C 154.285156 36.902344 154.648438 38.265625 154.601562 39.300781 Z M 154.601562 39.300781 " fill-opacity="1" fill-rule="nonzero"/><path fill="currentColor" d="M 183.484375 105.128906 C 183.421875 101.765625 184.75 99.085938 187.464844 97.09375 C 188.246094 96.519531 188.703125 96.5 188.992188 97.628906 C 189.9375 101.269531 188.671875 105.71875 185.988281 107.8125 C 185.425781 108.25 184.761719 108.875 184.117188 108.640625 C 183.421875 108.390625 183.542969 107.453125 183.492188 106.769531 C 183.453125 106.226562 183.484375 105.675781 183.484375 105.128906 Z M 183.484375 105.128906 " fill-opacity="1" fill-rule="nonzero"/><path fill="currentColor" d="M 156.320312 49.054688 C 155.117188 49.273438 154.941406 48.558594 155.214844 47.507812 C 156.226562 43.660156 159.140625 41.925781 162.667969 40.957031 C 163.234375 40.800781 164.003906 40.246094 164.488281 40.839844 C 164.90625 41.355469 164.488281 42.117188 164.308594 42.71875 C 163.242188 46.382812 159.9375 49.019531 156.320312 49.054688 Z M 156.320312 49.054688 " fill-opacity="1" fill-rule="nonzero"/><path fill="currentColor" d="M 124.871094 110.902344 C 124.765625 106.773438 126.957031 104.15625 129.507812 101.738281 C 130.042969 101.226562 130.394531 101.367188 130.382812 102.132812 C 130.316406 106.511719 129.835938 110.765625 126.855469 114.304688 C 126.238281 115.042969 125.871094 115.226562 125.453125 114.117188 C 125.015625 112.957031 124.839844 111.796875 124.871094 110.902344 Z M 124.871094 110.902344 " fill-opacity="1" fill-rule="nonzero"/><path fill="currentColor" d="M 94.890625 101.242188 C 99.058594 103.949219 100.8125 109.246094 99.292969 113.707031 C 98.902344 114.855469 98.480469 115.019531 97.675781 114.082031 C 96.546875 112.773438 95.796875 111.269531 95.425781 109.578125 C 94.804688 106.828125 94.625 104.050781 94.890625 101.242188 Z M 94.890625 101.242188 " fill-opacity="1" fill-rule="nonzero"/><path fill="currentColor" d="M 58.925781 130.625 C 61.9375 130.785156 64.734375 131.527344 66.640625 134.175781 C 67.65625 135.582031 67.550781 135.847656 65.898438 136.152344 C 62.695312 136.742188 59.933594 135.851562 57.648438 133.535156 C 57 132.875 56.050781 132.109375 56.46875 131.191406 C 56.84375 130.367188 58.035156 130.761719 58.925781 130.625 Z M 58.925781 130.625 " fill-opacity="1" fill-rule="nonzero"/><path fill="currentColor" d="M 116.6875 55.398438 C 116.617188 52.992188 117.421875 50.898438 118.976562 49.089844 C 119.394531 48.601562 120.117188 47.972656 120.398438 49.109375 C 121.332031 52.871094 121.890625 56.625 119.355469 60.09375 C 118.644531 61.066406 118.277344 61.070312 117.738281 59.980469 C 117.019531 58.523438 116.714844 57 116.6875 55.398438 Z M 116.6875 55.398438 " fill-opacity="1" fill-rule="nonzero"/><path fill="currentColor" d="M 113.324219 44.011719 C 113.609375 39.925781 115.515625 36.984375 118.863281 34.941406 C 119.414062 34.605469 119.953125 34.292969 120.179688 35.292969 C 120.902344 38.519531 117.96875 43.777344 114.863281 44.824219 C 113.9375 45.136719 113.066406 45.449219 113.324219 44.011719 Z M 113.324219 44.011719 " fill-opacity="1" fill-rule="nonzero"/><path fill="currentColor" d="M 172.636719 122.980469 C 177.511719 121.730469 182.0625 121.605469 186.144531 124.976562 C 182.953125 127.683594 175.542969 126.59375 172.636719 122.980469 Z M 172.636719 122.980469 " fill-opacity="1" fill-rule="nonzero"/><path fill="currentColor" d="M 45.484375 70.683594 C 48.882812 73.957031 51.367188 77.160156 50.816406 81.898438 C 50.660156 83.269531 50.167969 83.125 49.277344 82.652344 C 47.679688 81.808594 46.742188 80.433594 46.136719 78.796875 C 45.207031 76.273438 45.335938 73.679688 45.484375 70.683594 Z M 45.484375 70.683594 " fill-opacity="1" fill-rule="nonzero"/><path fill="currentColor" d="M 140.042969 89.75 C 140.117188 92.894531 139.414062 95.820312 137.546875 98.414062 C 136.953125 99.238281 136.609375 99.269531 136.125 98.296875 C 134.40625 94.839844 135.53125 89.832031 138.636719 87.433594 C 138.96875 87.175781 139.324219 86.714844 139.753906 86.914062 C 140.207031 87.121094 139.996094 87.695312 140.03125 88.105469 C 140.078125 88.648438 140.042969 89.199219 140.042969 89.75 Z M 140.042969 89.75 " fill-opacity="1" fill-rule="nonzero"/><path fill="currentColor" d="M 51.972656 122.949219 C 48.59375 126.535156 42.171875 127.492188 38.5 125.015625 C 42.546875 121.507812 47.109375 121.855469 51.972656 122.949219 Z M 51.972656 122.949219 " fill-opacity="1" fill-rule="nonzero"/><path fill="currentColor" d="M 186.441406 144.605469 C 184.226562 144.546875 182.390625 144.171875 180.804688 142.933594 C 179.964844 142.28125 179.910156 141.789062 180.929688 141.269531 C 184.316406 139.539062 187.609375 139.535156 190.859375 141.628906 C 191.875 142.28125 191.792969 142.738281 190.847656 143.363281 C 189.417969 144.308594 187.824219 144.535156 186.441406 144.605469 Z M 186.441406 144.605469 " fill-opacity="1" fill-rule="nonzero"/><path fill="currentColor" d="M 160.003906 136.207031 C 159.121094 136.070312 157.667969 136.441406 157.351562 135.589844 C 156.96875 134.5625 158.128906 133.636719 158.945312 132.957031 C 161.351562 130.957031 164.226562 130.480469 167.25 130.75 C 168.703125 130.878906 168.078125 131.746094 167.644531 132.335938 C 165.777344 134.875 163.246094 136.175781 160.003906 136.207031 Z M 160.003906 136.207031 " fill-opacity="1" fill-rule="nonzero"/><g clip-path="url(#c23c8018ab)"><path fill="currentColor" d="M 118.90625 22.554688 C 119.042969 26.988281 118.769531 30.980469 115.246094 33.960938 C 114.34375 34.722656 113.863281 34.847656 113.628906 33.394531 C 112.972656 29.324219 114.695312 25.53125 118.90625 22.554688 Z M 118.90625 22.554688 " fill-opacity="1" fill-rule="nonzero"/></g><path fill="currentColor" d="M 89.308594 94.535156 C 89.347656 95.6875 89.113281 96.972656 88.566406 98.191406 C 88.148438 99.121094 87.65625 99.148438 87.03125 98.335938 C 85.496094 96.339844 85.019531 93.988281 84.769531 91.578125 C 84.648438 90.441406 84.730469 89.28125 84.714844 88.128906 C 84.703125 86.886719 85.207031 86.871094 86.105469 87.480469 C 88.007812 88.769531 89.316406 91.519531 89.308594 94.535156 Z M 89.308594 94.535156 " fill-opacity="1" fill-rule="nonzero"/><path fill="currentColor" d="M 38.335938 144.585938 C 36.347656 144.539062 34.699219 144.277344 33.261719 143.226562 C 32.566406 142.714844 32.527344 142.300781 33.246094 141.710938 C 35.804688 139.617188 40.960938 139.476562 43.605469 141.421875 C 44.398438 142 44.070312 142.382812 43.558594 142.808594 C 41.964844 144.125 40.085938 144.578125 38.335938 144.585938 Z M 38.335938 144.585938 " fill-opacity="1" fill-rule="nonzero"/><path fill="currentColor" d="M 174.398438 136.101562 C 173.726562 135.894531 172.78125 136.386719 172.453125 135.71875 C 172.144531 135.09375 172.824219 134.414062 173.222656 133.84375 C 174.335938 132.238281 175.972656 131.386719 177.796875 130.882812 C 179.160156 130.507812 180.554688 130.238281 181.941406 129.957031 C 182.335938 129.875 182.863281 129.582031 183.125 130.042969 C 183.34375 130.429688 183.03125 130.886719 182.800781 131.257812 C 180.863281 134.378906 178.011719 135.898438 174.398438 136.101562 Z M 174.398438 136.101562 " fill-opacity="1" fill-rule="nonzero"/><path fill="currentColor" d="M 57.792969 90.675781 C 60.335938 90.804688 62.777344 91.394531 64.847656 93.128906 C 65.59375 93.753906 65.625 94.148438 64.757812 94.691406 C 62.023438 96.402344 55.6875 94.757812 54.179688 91.914062 C 53.894531 91.378906 53.820312 91 54.621094 90.953125 C 55.65625 90.886719 56.691406 90.773438 57.792969 90.675781 Z M 57.792969 90.675781 " fill-opacity="1" fill-rule="nonzero"/><path fill="currentColor" d="M 52.160156 135.621094 C 47.636719 136.757812 42.84375 134.246094 41.328125 129.945312 C 47.253906 130.304688 51.175781 131.90625 52.160156 135.621094 Z M 52.160156 135.621094 " fill-opacity="1" fill-rule="nonzero"/><path fill="currentColor" d="M 163.21875 95.28125 C 162.058594 95.234375 159.9375 95.398438 159.695312 94.125 C 159.429688 92.746094 161.433594 92.023438 162.773438 91.488281 C 165.179688 90.519531 167.710938 90.75 170.214844 90.976562 C 171.511719 91.09375 170.84375 91.808594 170.484375 92.316406 C 169.246094 94.035156 166.511719 95.175781 163.21875 95.28125 Z M 163.21875 95.28125 " fill-opacity="1" fill-rule="nonzero"/><path fill="currentColor" d="M 181.128906 80.371094 C 181.34375 76.5625 183.328125 74.085938 186.503906 72.421875 C 187.007812 72.15625 187.355469 71.984375 187.566406 72.757812 C 188.382812 75.75 185.585938 80.5625 182.546875 81.4375 C 181.371094 81.773438 180.839844 81.570312 181.128906 80.371094 Z M 181.128906 80.371094 " fill-opacity="1" fill-rule="nonzero"/><path fill="currentColor" d="M 56.984375 144.949219 C 57.128906 144.949219 57.460938 144.90625 57.78125 144.957031 C 58.347656 145.050781 59.179688 144.660156 59.429688 145.21875 C 59.695312 145.824219 59.074219 146.425781 58.617188 146.875 C 56.0625 149.386719 53.03125 150.335938 49.5 149.554688 C 48.429688 149.316406 48.359375 148.847656 49.066406 148.03125 C 51.121094 145.660156 53.753906 144.800781 56.984375 144.949219 Z M 56.984375 144.949219 " fill-opacity="1" fill-rule="nonzero"/><path fill="currentColor" d="M 123.214844 38.066406 C 123.15625 36.132812 123.554688 34.464844 124.578125 32.972656 C 125.085938 32.230469 125.554688 32.03125 126.171875 32.9375 C 128.191406 35.894531 127.949219 40.230469 125.601562 42.808594 C 125.023438 43.441406 124.699219 43.574219 124.273438 42.648438 C 123.578125 41.136719 123.09375 39.605469 123.214844 38.066406 Z M 123.214844 38.066406 " fill-opacity="1" fill-rule="nonzero"/><path fill="currentColor" d="M 43.144531 79.921875 C 43.171875 81.773438 42.886719 81.949219 41.179688 81.144531 C 38.484375 79.875 36.320312 75.863281 36.738281 72.964844 C 36.839844 72.265625 37.058594 72.023438 37.804688 72.292969 C 40.671875 73.320312 43.09375 76.742188 43.144531 79.921875 Z M 43.144531 79.921875 " fill-opacity="1" fill-rule="nonzero"/><path fill="currentColor" d="M 105.972656 34.332031 C 102.453125 32.679688 100.378906 27.933594 101.601562 24.371094 C 101.855469 23.628906 102.238281 23.605469 102.820312 23.972656 C 105.867188 25.898438 107.425781 31.023438 105.972656 34.332031 Z M 105.972656 34.332031 " fill-opacity="1" fill-rule="nonzero"/><path fill="currentColor" d="M 110.621094 43.09375 C 108.875 41.65625 107.921875 39.972656 107.78125 37.90625 C 107.648438 35.9375 107.527344 33.957031 107.976562 32.007812 C 108.070312 31.59375 108.085938 31.039062 108.582031 30.941406 C 108.996094 30.855469 109.222656 31.3125 109.433594 31.621094 C 111.878906 35.160156 112.585938 38.890625 110.621094 43.09375 Z M 110.621094 43.09375 " fill-opacity="1" fill-rule="nonzero"/><path fill="currentColor" d="M 167.960938 144.964844 C 171.015625 144.785156 173.332031 145.816406 175.285156 147.789062 C 176.277344 148.789062 175.984375 149.253906 174.722656 149.601562 C 171.78125 150.414062 167.519531 148.964844 165.933594 146.503906 C 165.6875 146.117188 165.164062 145.710938 165.507812 145.199219 C 165.765625 144.808594 166.3125 145.003906 166.730469 144.972656 C 167.222656 144.9375 167.714844 144.964844 167.960938 144.964844 Z M 167.960938 144.964844 " fill-opacity="1" fill-rule="nonzero"/><path fill="currentColor" d="M 102.832031 48.121094 C 99.882812 44.929688 99.84375 40.175781 102.550781 37.105469 C 103.296875 36.257812 103.648438 36.527344 104.035156 37.363281 C 105.25 39.992188 104.640625 42.609375 103.949219 45.203125 C 103.699219 46.136719 103.261719 47.023438 102.832031 48.121094 Z M 102.832031 48.121094 " fill-opacity="1" fill-rule="nonzero"/><path fill="currentColor" d="M 31.480469 124.972656 C 34.242188 125.574219 36.679688 126.289062 38.5625 128.140625 C 39.59375 129.152344 40.738281 130.910156 40.070312 131.820312 C 39.371094 132.757812 37.417969 132.082031 36.152344 131.402344 C 33.636719 130.0625 32.011719 128.039062 31.480469 124.972656 Z M 31.480469 124.972656 " fill-opacity="1" fill-rule="nonzero"/><path fill="currentColor" d="M 79.320312 141.324219 C 78.011719 145.601562 73.902344 147.496094 69.855469 146.839844 C 69.046875 146.710938 68.867188 146.320312 69.308594 145.609375 C 70.214844 144.144531 71.574219 143.253906 73.128906 142.65625 C 74.039062 142.304688 74.996094 142.058594 75.953125 141.855469 C 77.011719 141.632812 78.089844 141.515625 79.320312 141.324219 Z M 79.320312 141.324219 " fill-opacity="1" fill-rule="nonzero"/><path fill="currentColor" d="M 192.542969 124.898438 C 193.050781 128.667969 188.757812 132.78125 185.195312 132.121094 C 184.460938 131.984375 184.449219 131.609375 184.578125 131.097656 C 184.984375 129.449219 185.839844 128.105469 187.300781 127.167969 C 188.925781 126.128906 190.789062 125.683594 192.542969 124.898438 Z M 192.542969 124.898438 " fill-opacity="1" fill-rule="nonzero"/><path fill="currentColor" d="M 79.683594 85.105469 C 79.625 86.683594 79.40625 88.128906 78.761719 89.5 C 78.277344 90.535156 77.808594 90.484375 77.105469 89.679688 C 75.324219 87.636719 75.257812 85.328125 75.953125 82.878906 C 76.164062 82.144531 76.375 81.40625 76.632812 80.6875 C 76.765625 80.3125 76.632812 79.695312 77.246094 79.664062 C 77.71875 79.636719 78.019531 80.050781 78.289062 80.390625 C 79.421875 81.796875 79.609375 83.480469 79.683594 85.105469 Z M 79.683594 85.105469 " fill-opacity="1" fill-rule="nonzero"/><path fill="currentColor" d="M 153.214844 146.9375 C 150.058594 146.816406 147.628906 145.386719 145.992188 142.625 C 145.804688 142.308594 145.488281 141.933594 145.691406 141.5625 C 145.914062 141.148438 146.386719 141.375 146.726562 141.433594 C 149.097656 141.824219 151.480469 142.207031 153.527344 143.617188 C 153.800781 143.800781 154.058594 144.003906 154.300781 144.226562 C 154.9375 144.824219 155.894531 145.570312 155.625 146.328125 C 155.332031 147.15625 154.117188 146.867188 153.214844 146.9375 Z M 153.214844 146.9375 " fill-opacity="1" fill-rule="nonzero"/><path fill="currentColor" d="M 144.964844 85.667969 C 144.949219 83.511719 145.292969 81.660156 146.566406 80.089844 C 146.808594 79.789062 147.101562 79.4375 147.496094 79.492188 C 147.996094 79.566406 147.863281 80.085938 147.9375 80.433594 C 148.433594 82.65625 149.335938 84.839844 148.613281 87.1875 C 148.226562 88.449219 147.769531 90.183594 146.492188 90.15625 C 145.503906 90.132812 145.277344 88.289062 145.074219 87.109375 C 144.980469 86.574219 144.988281 86.019531 144.964844 85.667969 Z M 144.964844 85.667969 " fill-opacity="1" fill-rule="nonzero"/><path fill="currentColor" d="M 133.753906 29.800781 C 133.746094 32.203125 133.355469 34.464844 131.375 36.144531 C 130.800781 36.632812 130.527344 36.625 130.203125 35.90625 C 129.078125 33.425781 129.570312 29.640625 131.339844 27.734375 C 131.820312 27.21875 132.359375 26.542969 133.117188 26.789062 C 133.835938 27.023438 133.691406 27.867188 133.746094 28.492188 C 133.78125 28.925781 133.753906 29.367188 133.753906 29.800781 Z M 133.753906 29.800781 " fill-opacity="1" fill-rule="nonzero"/><path fill="currentColor" d="M 94.871094 33.074219 C 94.824219 33.382812 94.761719 33.980469 94.636719 34.566406 C 94.507812 35.171875 94.664062 36.101562 93.96875 36.242188 C 93.359375 36.371094 92.902344 35.582031 92.46875 35.113281 C 90.316406 32.777344 90.539062 29.890625 90.738281 27.058594 C 90.804688 26.160156 91.507812 26.503906 91.953125 26.835938 C 93.9375 28.308594 94.78125 30.363281 94.871094 33.074219 Z M 94.871094 33.074219 " fill-opacity="1" fill-rule="nonzero"/><path fill="currentColor" d="M 99.519531 35.886719 C 99.59375 37.359375 99.183594 38.640625 98.371094 39.789062 C 97.929688 40.417969 97.515625 40.660156 96.925781 39.820312 C 95.398438 37.632812 95.527344 34.027344 97.199219 31.976562 C 97.769531 31.277344 98.082031 31.5625 98.402344 32.078125 C 99.128906 33.257812 99.652344 34.507812 99.519531 35.886719 Z M 99.519531 35.886719 " fill-opacity="1" fill-rule="nonzero"/><path fill="currentColor" d="M 31.25 74.902344 C 32.496094 74.960938 33.011719 75.714844 33.15625 76.785156 C 33.242188 77.402344 32.792969 77.53125 32.320312 77.445312 C 31.253906 77.25 30.5625 76.59375 30.394531 75.523438 C 30.292969 74.878906 30.890625 74.964844 31.25 74.902344 Z M 31.25 74.902344 " fill-opacity="1" fill-rule="nonzero"/><path fill="currentColor" d="M 192.332031 77.347656 C 191.363281 77.476562 191.035156 77.386719 191.058594 76.753906 C 191.105469 75.597656 191.6875 74.964844 192.816406 74.820312 C 193.363281 74.75 193.84375 74.910156 193.777344 75.570312 C 193.671875 76.699219 192.925781 77.238281 192.332031 77.347656 Z M 192.332031 77.347656 " fill-opacity="1" fill-rule="nonzero"/></svg>