<svg xmlns="http://www.w3.org/2000/svg" xmlns:xlink="http://www.w3.org/1999/xlink" width="300" zoomAndPan="magnify" viewBox="0 0 224.87999 225" height="300" preserveAspectRatio="xMidYMid meet" version="1.0"><defs><clipPath id="d8222098eb"><path d="M 75 190 L 150 190 L 150 200.914062 L 75 200.914062 Z M 75 190 " clip-rule="nonzero"/></clipPath></defs><path fill="#000000" d="M 112.386719 181.417969 C 110.789062 181.417969 109.191406 181.363281 107.597656 181.25 C 106.003906 181.136719 104.414062 180.964844 102.832031 180.738281 C 101.25 180.511719 99.675781 180.230469 98.113281 179.894531 C 96.550781 179.558594 95 179.164062 93.46875 178.71875 C 91.933594 178.269531 90.414062 177.769531 88.914062 177.214844 C 87.417969 176.660156 85.9375 176.054688 84.480469 175.394531 C 83.023438 174.734375 81.59375 174.027344 80.1875 173.265625 C 78.78125 172.503906 77.40625 171.695312 76.054688 170.835938 C 74.707031 169.980469 73.390625 169.074219 72.105469 168.125 C 70.820312 167.171875 69.570312 166.175781 68.359375 165.136719 C 67.144531 164.097656 65.96875 163.015625 64.832031 161.890625 C 63.691406 160.769531 62.597656 159.605469 61.542969 158.40625 C 60.488281 157.207031 59.476562 155.96875 58.507812 154.695312 C 57.542969 153.425781 56.621094 152.121094 55.746094 150.78125 C 54.871094 149.445312 54.042969 148.078125 53.265625 146.679688 C 52.488281 145.285156 51.761719 143.863281 51.082031 142.414062 C 50.40625 140.96875 49.78125 139.5 49.207031 138.007812 C 48.632812 136.515625 48.113281 135.003906 47.648438 133.476562 C 47.183594 131.945312 46.773438 130.402344 46.414062 128.84375 C 46.058594 127.289062 45.757812 125.71875 45.511719 124.140625 C 45.265625 122.5625 45.078125 120.976562 44.945312 119.382812 C 44.8125 117.789062 44.734375 116.195312 44.714844 114.597656 C 44.695312 113 44.730469 111.402344 44.824219 109.804688 C 44.917969 108.210938 45.066406 106.621094 45.273438 105.035156 C 45.480469 103.453125 45.742188 101.875 46.058594 100.308594 C 46.378906 98.742188 46.75 97.191406 47.175781 95.652344 C 47.605469 94.109375 48.085938 92.589844 48.621094 91.082031 C 49.160156 89.578125 49.746094 88.089844 50.386719 86.628906 C 51.027344 85.164062 51.71875 83.722656 52.464844 82.308594 C 53.207031 80.894531 54 79.507812 54.839844 78.148438 C 55.679688 76.789062 56.570312 75.460938 57.503906 74.164062 C 58.441406 72.871094 59.417969 71.609375 60.445312 70.382812 C 60.574219 70.226562 60.730469 70.101562 60.914062 70.003906 C 61.09375 69.910156 61.285156 69.855469 61.488281 69.835938 C 61.691406 69.820312 61.890625 69.839844 62.085938 69.902344 C 62.28125 69.964844 62.457031 70.058594 62.613281 70.191406 C 62.769531 70.320312 62.894531 70.476562 62.988281 70.660156 C 63.082031 70.839844 63.140625 71.03125 63.15625 71.234375 C 63.175781 71.4375 63.152344 71.636719 63.09375 71.832031 C 63.03125 72.027344 62.933594 72.203125 62.804688 72.359375 C 61.945312 73.386719 61.121094 74.441406 60.328125 75.519531 C 59.535156 76.601562 58.777344 77.703125 58.054688 78.828125 C 57.328125 79.957031 56.640625 81.105469 55.988281 82.273438 C 55.335938 83.445312 54.722656 84.632812 54.144531 85.839844 C 53.566406 87.046875 53.027344 88.273438 52.523438 89.515625 C 52.023438 90.757812 51.558594 92.011719 51.136719 93.28125 C 50.710938 94.554688 50.328125 95.835938 49.984375 97.128906 C 49.640625 98.425781 49.335938 99.726562 49.074219 101.039062 C 48.8125 102.355469 48.589844 103.671875 48.410156 105 C 48.230469 106.328125 48.09375 107.660156 47.996094 108.996094 C 47.898438 110.328125 47.84375 111.667969 47.828125 113.007812 C 47.8125 114.34375 47.84375 115.683594 47.910156 117.019531 C 47.980469 118.359375 48.089844 119.691406 48.246094 121.023438 C 48.398438 122.351562 48.589844 123.675781 48.824219 124.996094 C 49.0625 126.3125 49.335938 127.621094 49.652344 128.921875 C 49.96875 130.226562 50.328125 131.515625 50.722656 132.792969 C 51.121094 134.074219 51.558594 135.335938 52.03125 136.589844 C 52.507812 137.839844 53.023438 139.078125 53.574219 140.296875 C 54.128906 141.515625 54.71875 142.71875 55.347656 143.902344 C 55.972656 145.082031 56.636719 146.246094 57.335938 147.386719 C 58.039062 148.53125 58.773438 149.648438 59.542969 150.742188 C 60.3125 151.839844 61.117188 152.910156 61.953125 153.957031 C 62.789062 155.003906 63.65625 156.019531 64.558594 157.011719 C 65.457031 158.003906 66.386719 158.96875 67.347656 159.902344 C 68.304688 160.835938 69.292969 161.738281 70.3125 162.613281 C 71.328125 163.484375 72.371094 164.324219 73.4375 165.132812 C 74.507812 165.9375 75.597656 166.710938 76.714844 167.453125 C 77.832031 168.191406 78.972656 168.894531 80.132812 169.5625 C 81.292969 170.234375 82.472656 170.863281 83.671875 171.460938 C 84.875 172.054688 86.089844 172.613281 87.324219 173.132812 C 88.558594 173.652344 89.808594 174.132812 91.074219 174.574219 C 92.339844 175.015625 93.617188 175.417969 94.90625 175.777344 C 96.195312 176.140625 97.496094 176.460938 98.804688 176.742188 C 100.113281 177.023438 101.433594 177.265625 102.757812 177.464844 C 104.082031 177.664062 105.410156 177.820312 106.746094 177.9375 C 108.078125 178.054688 109.417969 178.128906 110.757812 178.160156 C 112.09375 178.195312 113.433594 178.183594 114.773438 178.136719 C 116.109375 178.085938 117.445312 177.992188 118.78125 177.859375 C 120.113281 177.726562 121.441406 177.550781 122.761719 177.335938 C 124.085938 177.121094 125.398438 176.863281 126.703125 176.566406 C 128.011719 176.265625 129.304688 175.929688 130.589844 175.550781 C 131.875 175.171875 133.148438 174.753906 134.40625 174.296875 C 135.664062 173.839844 136.910156 173.34375 138.136719 172.808594 C 139.363281 172.273438 140.574219 171.699219 141.769531 171.089844 C 142.960938 170.480469 144.132812 169.832031 145.285156 169.148438 C 146.4375 168.464844 147.566406 167.746094 148.671875 166.992188 C 149.78125 166.238281 150.863281 165.453125 151.921875 164.628906 C 152.980469 163.808594 154.011719 162.957031 155.015625 162.070312 C 156.019531 161.1875 156.996094 160.269531 157.945312 159.324219 C 158.894531 158.378906 159.8125 157.402344 160.699219 156.398438 C 161.585938 155.398438 162.441406 154.367188 163.261719 153.308594 C 164.085938 152.253906 164.875 151.171875 165.632812 150.066406 C 166.386719 148.960938 167.109375 147.832031 167.792969 146.683594 C 168.480469 145.53125 169.128906 144.363281 169.742188 143.171875 C 170.351562 141.980469 170.925781 140.769531 171.464844 139.542969 C 172.003906 138.316406 172.5 137.074219 172.960938 135.816406 C 173.421875 134.558594 173.839844 133.289062 174.222656 132.003906 C 174.601562 130.722656 174.941406 129.425781 175.242188 128.121094 C 175.542969 126.816406 175.800781 125.503906 176.019531 124.183594 C 176.238281 122.863281 176.414062 121.535156 176.550781 120.203125 C 176.683594 118.871094 176.777344 117.535156 176.832031 116.199219 C 176.882812 114.859375 176.894531 113.519531 176.863281 112.183594 C 176.832031 110.84375 176.757812 109.507812 176.644531 108.171875 C 176.53125 106.839844 176.375 105.511719 176.179688 104.183594 C 175.980469 102.859375 175.742188 101.542969 175.464844 100.234375 C 175.183594 98.925781 174.863281 97.625 174.503906 96.335938 C 174.144531 95.046875 173.742188 93.769531 173.304688 92.503906 C 172.863281 91.238281 172.386719 89.988281 171.867188 88.753906 C 171.351562 87.519531 170.796875 86.300781 170.203125 85.101562 C 169.609375 83.898438 168.976562 82.71875 168.3125 81.558594 C 167.644531 80.398438 166.941406 79.257812 166.203125 78.140625 C 165.464844 77.023438 164.691406 75.929688 163.886719 74.859375 C 163.082031 73.789062 162.242188 72.746094 161.371094 71.730469 C 160.5 70.710938 159.597656 69.722656 158.664062 68.761719 C 157.730469 67.800781 156.769531 66.871094 155.777344 65.96875 C 154.789062 65.066406 153.769531 64.199219 152.726562 63.359375 C 151.679688 62.523438 150.609375 61.71875 149.515625 60.945312 C 148.421875 60.175781 147.300781 59.441406 146.160156 58.738281 C 145.019531 58.035156 143.859375 57.371094 142.675781 56.742188 C 141.492188 56.113281 140.292969 55.519531 139.074219 54.964844 C 137.855469 54.410156 136.617188 53.894531 135.367188 53.417969 C 134.117188 52.941406 132.851562 52.503906 131.570312 52.101562 C 130.292969 51.703125 129.003906 51.347656 127.703125 51.027344 C 126.398438 50.707031 125.089844 50.429688 123.773438 50.195312 C 122.453125 49.957031 121.128906 49.761719 119.796875 49.605469 C 118.46875 49.453125 117.132812 49.339844 115.796875 49.269531 C 114.457031 49.195312 113.121094 49.167969 111.78125 49.179688 C 110.441406 49.191406 109.101562 49.242188 107.765625 49.339844 C 106.429688 49.433594 105.097656 49.570312 103.769531 49.75 C 102.441406 49.925781 101.121094 50.144531 99.808594 50.40625 C 98.496094 50.667969 97.191406 50.96875 95.894531 51.308594 C 94.597656 51.652344 93.316406 52.03125 92.042969 52.453125 C 90.773438 52.875 89.515625 53.335938 88.273438 53.835938 C 87.03125 54.335938 85.804688 54.875 84.59375 55.449219 C 83.386719 56.023438 82.195312 56.636719 81.023438 57.289062 C 79.851562 57.9375 78.703125 58.625 77.574219 59.347656 C 77.402344 59.460938 77.214844 59.535156 77.011719 59.574219 C 76.8125 59.613281 76.609375 59.613281 76.40625 59.570312 C 76.207031 59.527344 76.019531 59.449219 75.851562 59.332031 C 75.679688 59.214844 75.539062 59.066406 75.429688 58.894531 C 75.316406 58.71875 75.246094 58.53125 75.207031 58.328125 C 75.171875 58.125 75.179688 57.925781 75.226562 57.722656 C 75.269531 57.523438 75.355469 57.339844 75.472656 57.171875 C 75.59375 57.003906 75.742188 56.863281 75.917969 56.757812 C 77.019531 56.050781 78.140625 55.378906 79.28125 54.742188 C 80.425781 54.101562 81.582031 53.496094 82.757812 52.921875 C 83.9375 52.351562 85.128906 51.8125 86.335938 51.308594 C 87.542969 50.808594 88.765625 50.339844 90 49.90625 C 91.234375 49.476562 92.480469 49.078125 93.738281 48.71875 C 94.996094 48.359375 96.261719 48.035156 97.539062 47.75 C 98.816406 47.460938 100.101562 47.210938 101.390625 47 C 102.683594 46.789062 103.976562 46.613281 105.277344 46.476562 C 106.582031 46.339844 107.882812 46.238281 109.191406 46.175781 C 110.496094 46.117188 111.804688 46.09375 113.113281 46.105469 C 114.421875 46.121094 115.730469 46.171875 117.035156 46.261719 C 118.339844 46.351562 119.640625 46.480469 120.9375 46.644531 C 122.238281 46.8125 123.527344 47.015625 124.816406 47.253906 C 126.101562 47.496094 127.378906 47.773438 128.648438 48.085938 C 129.917969 48.402344 131.179688 48.75 132.429688 49.140625 C 133.675781 49.527344 134.914062 49.949219 136.140625 50.410156 C 137.363281 50.867188 138.574219 51.363281 139.773438 51.890625 C 140.96875 52.421875 142.148438 52.984375 143.3125 53.582031 C 144.476562 54.179688 145.621094 54.8125 146.75 55.476562 C 147.875 56.140625 148.984375 56.835938 150.070312 57.5625 C 151.15625 58.292969 152.21875 59.050781 153.261719 59.839844 C 154.304688 60.632812 155.324219 61.449219 156.320312 62.300781 C 157.316406 63.148438 158.285156 64.027344 159.230469 64.929688 C 160.171875 65.835938 161.089844 66.769531 161.980469 67.726562 C 162.871094 68.683594 163.730469 69.667969 164.566406 70.675781 C 165.398438 71.6875 166.203125 72.71875 166.976562 73.773438 C 167.75 74.828125 168.492188 75.902344 169.203125 77 C 169.914062 78.101562 170.589844 79.21875 171.238281 80.355469 C 171.882812 81.492188 172.496094 82.648438 173.074219 83.820312 C 173.652344 84.992188 174.199219 86.179688 174.707031 87.386719 C 175.21875 88.589844 175.691406 89.808594 176.132812 91.039062 C 176.570312 92.273438 176.972656 93.515625 177.339844 94.769531 C 177.707031 96.027344 178.039062 97.289062 178.332031 98.566406 C 178.625 99.839844 178.882812 101.121094 179.101562 102.410156 C 179.324219 103.699219 179.503906 104.996094 179.648438 106.292969 C 179.792969 107.59375 179.898438 108.898438 179.96875 110.203125 C 180.039062 111.507812 180.070312 112.816406 180.0625 114.125 C 180.054688 115.429688 180.007812 116.738281 179.925781 118.042969 C 179.84375 119.347656 179.722656 120.648438 179.566406 121.949219 C 179.40625 123.246094 179.210938 124.539062 178.976562 125.824219 C 178.742188 127.113281 178.472656 128.390625 178.167969 129.664062 C 177.859375 130.933594 177.515625 132.195312 177.132812 133.445312 C 176.753906 134.699219 176.335938 135.9375 175.882812 137.164062 C 175.429688 138.390625 174.945312 139.605469 174.421875 140.804688 C 173.898438 142 173.339844 143.183594 172.75 144.351562 C 172.15625 145.515625 171.53125 146.664062 170.875 147.796875 C 170.214844 148.925781 169.527344 150.035156 168.804688 151.128906 C 168.082031 152.21875 167.328125 153.285156 166.542969 154.332031 C 165.757812 155.378906 164.945312 156.402344 164.101562 157.402344 C 163.257812 158.402344 162.382812 159.375 161.484375 160.324219 C 160.582031 161.273438 159.65625 162.195312 158.703125 163.089844 C 157.75 163.984375 156.769531 164.851562 155.765625 165.691406 C 154.761719 166.527344 153.734375 167.335938 152.683594 168.117188 C 151.632812 168.894531 150.558594 169.640625 149.464844 170.359375 C 148.371094 171.074219 147.253906 171.757812 146.121094 172.410156 C 144.988281 173.0625 143.835938 173.683594 142.664062 174.265625 C 141.496094 174.851562 140.308594 175.402344 139.105469 175.917969 C 137.90625 176.4375 136.6875 176.917969 135.457031 177.363281 C 134.230469 177.808594 132.988281 178.21875 131.734375 178.59375 C 130.480469 178.96875 129.214844 179.304688 127.941406 179.605469 C 126.667969 179.90625 125.386719 180.171875 124.101562 180.398438 C 122.8125 180.625 121.515625 180.8125 120.21875 180.964844 C 118.917969 181.113281 117.617188 181.230469 116.308594 181.304688 C 115.003906 181.378906 113.695312 181.417969 112.386719 181.417969 Z M 112.386719 181.417969 " fill-opacity="1" fill-rule="nonzero"/><path fill="#000000" d="M 112.386719 92.90625 C 111.585938 92.90625 110.789062 92.828125 110.003906 92.671875 C 109.214844 92.515625 108.453125 92.285156 107.710938 91.976562 C 106.96875 91.667969 106.265625 91.292969 105.597656 90.847656 C 104.929688 90.402344 104.3125 89.894531 103.746094 89.328125 C 103.179688 88.761719 102.671875 88.144531 102.226562 87.476562 C 101.78125 86.808594 101.40625 86.105469 101.097656 85.363281 C 100.792969 84.625 100.558594 83.859375 100.402344 83.074219 C 100.246094 82.285156 100.167969 81.492188 100.167969 80.691406 C 100.167969 79.886719 100.246094 79.09375 100.402344 78.308594 C 100.5625 77.519531 100.792969 76.757812 101.101562 76.015625 C 101.40625 75.273438 101.785156 74.570312 102.230469 73.902344 C 102.675781 73.238281 103.183594 72.621094 103.75 72.054688 C 104.316406 71.488281 104.933594 70.980469 105.601562 70.535156 C 106.269531 70.089844 106.972656 69.714844 107.714844 69.40625 C 108.457031 69.101562 109.222656 68.867188 110.007812 68.710938 C 110.796875 68.554688 111.589844 68.476562 112.394531 68.480469 C 113.195312 68.480469 113.988281 68.558594 114.777344 68.714844 C 115.5625 68.871094 116.328125 69.101562 117.070312 69.410156 C 117.808594 69.71875 118.515625 70.09375 119.179688 70.539062 C 119.847656 70.984375 120.464844 71.492188 121.03125 72.058594 C 121.597656 72.628906 122.105469 73.246094 122.550781 73.914062 C 122.996094 74.578125 123.371094 75.285156 123.679688 76.023438 C 123.984375 76.765625 124.21875 77.53125 124.375 78.316406 C 124.53125 79.105469 124.605469 79.898438 124.605469 80.699219 C 124.605469 81.5 124.527344 82.296875 124.371094 83.082031 C 124.210938 83.867188 123.980469 84.628906 123.671875 85.371094 C 123.363281 86.109375 122.988281 86.8125 122.542969 87.480469 C 122.097656 88.148438 121.589844 88.761719 121.023438 89.328125 C 120.457031 89.894531 119.839844 90.402344 119.171875 90.847656 C 118.503906 91.292969 117.800781 91.667969 117.0625 91.976562 C 116.320312 92.28125 115.554688 92.515625 114.769531 92.671875 C 113.984375 92.828125 113.191406 92.90625 112.386719 92.90625 Z M 112.386719 71.566406 C 111.789062 71.566406 111.191406 71.625 110.605469 71.742188 C 110.015625 71.855469 109.445312 72.027344 108.890625 72.257812 C 108.335938 72.484375 107.808594 72.765625 107.308594 73.097656 C 106.808594 73.433594 106.347656 73.808594 105.921875 74.234375 C 105.496094 74.65625 105.117188 75.117188 104.78125 75.617188 C 104.449219 76.113281 104.167969 76.640625 103.9375 77.195312 C 103.707031 77.75 103.53125 78.320312 103.414062 78.90625 C 103.296875 79.496094 103.238281 80.089844 103.238281 80.691406 C 103.234375 81.289062 103.292969 81.882812 103.410156 82.472656 C 103.527344 83.0625 103.699219 83.632812 103.929688 84.1875 C 104.15625 84.742188 104.4375 85.269531 104.773438 85.765625 C 105.105469 86.265625 105.484375 86.726562 105.90625 87.152344 C 106.332031 87.578125 106.792969 87.957031 107.292969 88.289062 C 107.789062 88.625 108.316406 88.90625 108.871094 89.136719 C 109.425781 89.363281 109.996094 89.539062 110.585938 89.65625 C 111.171875 89.773438 111.769531 89.832031 112.367188 89.832031 C 112.96875 89.832031 113.5625 89.773438 114.152344 89.65625 C 114.738281 89.542969 115.3125 89.367188 115.867188 89.140625 C 116.421875 88.910156 116.945312 88.628906 117.445312 88.296875 C 117.945312 87.960938 118.40625 87.582031 118.832031 87.160156 C 119.253906 86.734375 119.632812 86.273438 119.96875 85.777344 C 120.300781 85.277344 120.582031 84.75 120.8125 84.195312 C 121.042969 83.640625 121.214844 83.070312 121.332031 82.480469 C 121.449219 81.894531 121.507812 81.300781 121.507812 80.699219 C 121.507812 80.101562 121.449219 79.507812 121.332031 78.921875 C 121.214844 78.332031 121.042969 77.761719 120.8125 77.210938 C 120.582031 76.65625 120.300781 76.128906 119.96875 75.632812 C 119.636719 75.132812 119.257812 74.671875 118.835938 74.25 C 118.414062 73.824219 117.953125 73.449219 117.453125 73.113281 C 116.957031 72.78125 116.429688 72.5 115.878906 72.269531 C 115.324219 72.039062 114.753906 71.863281 114.167969 71.746094 C 113.582031 71.628906 112.988281 71.570312 112.386719 71.566406 Z M 112.386719 71.566406 " fill-opacity="1" fill-rule="nonzero"/><path fill="#000000" d="M 112.386719 159.027344 C 111.585938 159.027344 110.789062 158.949219 110.003906 158.792969 C 109.214844 158.636719 108.453125 158.40625 107.710938 158.097656 C 106.96875 157.792969 106.265625 157.414062 105.597656 156.96875 C 104.929688 156.523438 104.3125 156.015625 103.746094 155.449219 C 103.179688 154.882812 102.671875 154.265625 102.226562 153.597656 C 101.78125 152.929688 101.40625 152.226562 101.097656 151.488281 C 100.792969 150.746094 100.558594 149.980469 100.402344 149.195312 C 100.246094 148.40625 100.167969 147.613281 100.167969 146.8125 C 100.167969 146.007812 100.246094 145.214844 100.402344 144.429688 C 100.5625 143.640625 100.792969 142.878906 101.101562 142.136719 C 101.40625 141.394531 101.785156 140.691406 102.230469 140.027344 C 102.675781 139.359375 103.183594 138.742188 103.75 138.175781 C 104.316406 137.609375 104.933594 137.101562 105.601562 136.65625 C 106.269531 136.210938 106.972656 135.835938 107.714844 135.527344 C 108.457031 135.222656 109.222656 134.988281 110.007812 134.832031 C 110.796875 134.675781 111.589844 134.601562 112.394531 134.601562 C 113.195312 134.601562 113.988281 134.679688 114.777344 134.835938 C 115.5625 134.992188 116.328125 135.222656 117.070312 135.53125 C 117.808594 135.839844 118.515625 136.214844 119.179688 136.660156 C 119.847656 137.109375 120.464844 137.613281 121.03125 138.183594 C 121.597656 138.75 122.105469 139.367188 122.550781 140.035156 C 122.996094 140.699219 123.371094 141.40625 123.679688 142.144531 C 123.984375 142.886719 124.21875 143.652344 124.375 144.4375 C 124.53125 145.226562 124.605469 146.019531 124.605469 146.820312 C 124.605469 147.621094 124.527344 148.417969 124.371094 149.203125 C 124.210938 149.988281 123.980469 150.75 123.671875 151.492188 C 123.363281 152.230469 122.988281 152.9375 122.542969 153.601562 C 122.097656 154.269531 121.589844 154.882812 121.023438 155.449219 C 120.457031 156.019531 119.839844 156.523438 119.171875 156.96875 C 118.503906 157.414062 117.800781 157.789062 117.0625 158.097656 C 116.320312 158.402344 115.554688 158.636719 114.769531 158.792969 C 113.984375 158.949219 113.191406 159.027344 112.386719 159.027344 Z M 112.386719 137.6875 C 111.789062 137.6875 111.191406 137.746094 110.605469 137.863281 C 110.015625 137.976562 109.445312 138.148438 108.890625 138.378906 C 108.335938 138.609375 107.808594 138.886719 107.308594 139.222656 C 106.808594 139.554688 106.347656 139.929688 105.921875 140.355469 C 105.496094 140.777344 105.117188 141.238281 104.78125 141.738281 C 104.449219 142.234375 104.167969 142.761719 103.9375 143.316406 C 103.707031 143.871094 103.53125 144.441406 103.414062 145.03125 C 103.296875 145.617188 103.238281 146.210938 103.238281 146.8125 C 103.234375 147.410156 103.292969 148.003906 103.410156 148.59375 C 103.527344 149.183594 103.699219 149.753906 103.929688 150.308594 C 104.15625 150.863281 104.4375 151.390625 104.773438 151.886719 C 105.105469 152.386719 105.484375 152.847656 105.90625 153.273438 C 106.332031 153.699219 106.792969 154.078125 107.292969 154.410156 C 107.789062 154.746094 108.316406 155.027344 108.871094 155.257812 C 109.425781 155.488281 109.996094 155.660156 110.585938 155.777344 C 111.171875 155.894531 111.769531 155.953125 112.367188 155.953125 C 112.96875 155.953125 113.5625 155.894531 114.152344 155.78125 C 114.738281 155.664062 115.3125 155.488281 115.867188 155.261719 C 116.421875 155.03125 116.945312 154.75 117.445312 154.417969 C 117.945312 154.082031 118.40625 153.703125 118.832031 153.28125 C 119.253906 152.855469 119.632812 152.394531 119.96875 151.898438 C 120.300781 151.398438 120.582031 150.871094 120.8125 150.316406 C 121.042969 149.761719 121.214844 149.191406 121.332031 148.605469 C 121.449219 148.015625 121.507812 147.421875 121.507812 146.820312 C 121.507812 146.222656 121.449219 145.628906 121.332031 145.042969 C 121.214844 144.453125 121.042969 143.882812 120.8125 143.332031 C 120.582031 142.777344 120.300781 142.253906 119.96875 141.753906 C 119.636719 141.257812 119.257812 140.796875 118.835938 140.371094 C 118.414062 139.949219 117.953125 139.570312 117.453125 139.234375 C 116.957031 138.902344 116.429688 138.621094 115.878906 138.390625 C 115.324219 138.160156 114.753906 137.984375 114.167969 137.867188 C 113.582031 137.75 112.988281 137.691406 112.386719 137.6875 Z M 112.386719 137.6875 " fill-opacity="1" fill-rule="nonzero"/><path fill="#000000" d="M 112.386719 181.417969 C 112.191406 181.40625 112.007812 181.355469 111.832031 181.273438 C 111.652344 181.1875 111.5 181.074219 111.363281 180.933594 C 111.230469 180.789062 111.128906 180.625 111.058594 180.445312 C 110.984375 180.261719 110.949219 180.074219 110.949219 179.878906 C 110.949219 179.683594 110.984375 179.496094 111.058594 179.3125 C 111.128906 179.128906 111.230469 178.96875 111.363281 178.824219 C 111.5 178.683594 111.652344 178.570312 111.832031 178.484375 C 112.007812 178.398438 112.191406 178.351562 112.386719 178.335938 C 114.488281 178.316406 116.585938 178.191406 118.671875 177.964844 C 120.761719 177.738281 122.835938 177.410156 124.894531 176.980469 C 126.949219 176.550781 128.980469 176.023438 130.988281 175.394531 C 132.992188 174.765625 134.964844 174.042969 136.898438 173.222656 C 138.835938 172.40625 140.722656 171.492188 142.570312 170.488281 C 144.417969 169.484375 146.210938 168.394531 147.949219 167.214844 C 149.6875 166.035156 151.367188 164.777344 152.984375 163.433594 C 154.597656 162.089844 156.148438 160.671875 157.625 159.179688 C 159.101562 157.6875 160.503906 156.125 161.828125 154.492188 C 163.15625 152.863281 164.398438 151.171875 165.558594 149.421875 C 166.71875 147.671875 167.792969 145.867188 168.777344 144.011719 C 169.761719 142.15625 170.652344 140.253906 171.453125 138.3125 C 172.25 136.367188 172.953125 134.390625 173.558594 132.378906 C 174.164062 130.367188 174.671875 128.332031 175.078125 126.273438 C 175.488281 124.210938 175.792969 122.136719 175.996094 120.042969 C 176.203125 117.953125 176.304688 115.859375 176.304688 113.757812 C 176.304688 111.65625 176.203125 109.5625 175.996094 107.46875 C 175.792969 105.378906 175.488281 103.304688 175.078125 101.242188 C 174.671875 99.179688 174.164062 97.144531 173.558594 95.132812 C 172.953125 93.121094 172.25 91.144531 171.453125 89.203125 C 170.652344 87.257812 169.761719 85.359375 168.777344 83.503906 C 167.792969 81.648438 166.71875 79.84375 165.558594 78.09375 C 164.398438 76.339844 163.15625 74.648438 161.828125 73.019531 C 160.503906 71.390625 159.101562 69.828125 157.625 68.335938 C 156.148438 66.839844 154.597656 65.421875 152.984375 64.082031 C 151.367188 62.738281 149.6875 61.476562 147.949219 60.300781 C 146.210938 59.121094 144.417969 58.027344 142.570312 57.023438 C 140.722656 56.019531 138.835938 55.109375 136.898438 54.289062 C 134.964844 53.46875 132.992188 52.746094 130.988281 52.121094 C 128.980469 51.492188 126.949219 50.964844 124.894531 50.535156 C 122.835938 50.105469 120.761719 49.777344 118.671875 49.550781 C 116.585938 49.324219 114.488281 49.199219 112.386719 49.175781 C 112.183594 49.175781 111.988281 49.136719 111.800781 49.058594 C 111.609375 48.980469 111.445312 48.871094 111.300781 48.726562 C 111.15625 48.582031 111.046875 48.414062 110.96875 48.226562 C 110.890625 48.039062 110.851562 47.84375 110.851562 47.640625 C 110.851562 47.4375 110.890625 47.238281 110.96875 47.050781 C 111.046875 46.863281 111.15625 46.695312 111.300781 46.550781 C 111.445312 46.410156 111.609375 46.296875 111.800781 46.21875 C 111.988281 46.140625 112.183594 46.101562 112.386719 46.101562 C 113.496094 46.101562 114.601562 46.128906 115.707031 46.183594 C 116.816406 46.238281 117.917969 46.320312 119.023438 46.429688 C 120.125 46.535156 121.222656 46.671875 122.320312 46.835938 C 123.414062 46.996094 124.507812 47.1875 125.59375 47.402344 C 126.679688 47.617188 127.757812 47.859375 128.832031 48.128906 C 129.910156 48.398438 130.976562 48.695312 132.035156 49.015625 C 133.097656 49.335938 134.148438 49.683594 135.191406 50.058594 C 136.234375 50.429688 137.265625 50.828125 138.289062 51.253906 C 139.3125 51.675781 140.324219 52.125 141.328125 52.597656 C 142.328125 53.070312 143.316406 53.570312 144.292969 54.089844 C 145.269531 54.613281 146.234375 55.160156 147.183594 55.726562 C 148.136719 56.296875 149.070312 56.890625 149.992188 57.503906 C 150.914062 58.121094 151.816406 58.757812 152.707031 59.417969 C 153.597656 60.078125 154.46875 60.757812 155.328125 61.460938 C 156.183594 62.164062 157.023438 62.886719 157.84375 63.628906 C 158.664062 64.371094 159.464844 65.136719 160.25 65.917969 C 161.03125 66.703125 161.796875 67.503906 162.539062 68.324219 C 163.28125 69.144531 164.007812 69.984375 164.710938 70.839844 C 165.410156 71.695312 166.09375 72.566406 166.753906 73.457031 C 167.414062 74.347656 168.050781 75.25 168.664062 76.171875 C 169.28125 77.09375 169.875 78.027344 170.441406 78.976562 C 171.011719 79.925781 171.558594 80.890625 172.082031 81.867188 C 172.601562 82.84375 173.101562 83.832031 173.574219 84.832031 C 174.046875 85.835938 174.496094 86.847656 174.921875 87.867188 C 175.34375 88.890625 175.742188 89.925781 176.117188 90.96875 C 176.488281 92.011719 176.835938 93.0625 177.160156 94.121094 C 177.480469 95.179688 177.773438 96.246094 178.042969 97.320312 C 178.3125 98.394531 178.554688 99.476562 178.773438 100.5625 C 178.988281 101.648438 179.179688 102.738281 179.339844 103.832031 C 179.503906 104.929688 179.636719 106.027344 179.746094 107.128906 C 179.855469 108.230469 179.9375 109.335938 179.992188 110.441406 C 180.046875 111.546875 180.074219 112.652344 180.074219 113.761719 C 180.074219 114.867188 180.046875 115.976562 179.992188 117.082031 C 179.9375 118.1875 179.855469 119.289062 179.746094 120.390625 C 179.636719 121.496094 179.503906 122.59375 179.339844 123.6875 C 179.179688 124.785156 178.988281 125.875 178.773438 126.960938 C 178.554688 128.046875 178.3125 129.125 178.042969 130.199219 C 177.773438 131.273438 177.480469 132.339844 177.160156 133.402344 C 176.835938 134.460938 176.488281 135.511719 176.117188 136.554688 C 175.742188 137.597656 175.34375 138.628906 174.921875 139.652344 C 174.496094 140.675781 174.046875 141.6875 173.574219 142.6875 C 173.101562 143.6875 172.601562 144.679688 172.082031 145.65625 C 171.558594 146.632812 171.011719 147.59375 170.441406 148.542969 C 169.875 149.492188 169.28125 150.429688 168.664062 151.351562 C 168.050781 152.269531 167.414062 153.175781 166.753906 154.066406 C 166.09375 154.953125 165.410156 155.828125 164.710938 156.683594 C 164.007812 157.539062 163.28125 158.375 162.539062 159.199219 C 161.796875 160.019531 161.03125 160.820312 160.25 161.601562 C 159.464844 162.386719 158.664062 163.148438 157.84375 163.890625 C 157.023438 164.636719 156.183594 165.359375 155.328125 166.0625 C 154.46875 166.765625 153.597656 167.445312 152.707031 168.105469 C 151.816406 168.765625 150.914062 169.402344 149.992188 170.015625 C 149.070312 170.632812 148.136719 171.222656 147.183594 171.792969 C 146.234375 172.363281 145.269531 172.90625 144.292969 173.429688 C 143.316406 173.953125 142.328125 174.449219 141.328125 174.921875 C 140.324219 175.398438 139.3125 175.84375 138.289062 176.269531 C 137.265625 176.691406 136.234375 177.089844 135.191406 177.464844 C 134.148438 177.835938 133.097656 178.183594 132.035156 178.503906 C 130.976562 178.828125 129.910156 179.121094 128.832031 179.390625 C 127.757812 179.660156 126.679688 179.902344 125.59375 180.117188 C 124.507812 180.335938 123.414062 180.523438 122.320312 180.6875 C 121.222656 180.847656 120.125 180.984375 119.023438 181.09375 C 117.917969 181.203125 116.816406 181.285156 115.707031 181.335938 C 114.601562 181.390625 113.496094 181.417969 112.386719 181.417969 Z M 112.386719 181.417969 " fill-opacity="1" fill-rule="nonzero"/><path fill="#000000" d="M 112.386719 115.296875 C 112.191406 115.285156 112.007812 115.234375 111.832031 115.152344 C 111.652344 115.066406 111.5 114.953125 111.363281 114.808594 C 111.230469 114.667969 111.128906 114.503906 111.058594 114.324219 C 110.984375 114.140625 110.949219 113.953125 110.949219 113.757812 C 110.949219 113.5625 110.984375 113.371094 111.058594 113.191406 C 111.128906 113.007812 111.230469 112.847656 111.363281 112.703125 C 111.5 112.5625 111.652344 112.445312 111.832031 112.363281 C 112.007812 112.277344 112.191406 112.230469 112.386719 112.214844 C 113.429688 112.230469 114.472656 112.195312 115.511719 112.109375 C 116.550781 112.023438 117.582031 111.882812 118.609375 111.695312 C 119.632812 111.503906 120.648438 111.265625 121.648438 110.976562 C 122.652344 110.683594 123.636719 110.34375 124.605469 109.957031 C 125.574219 109.570312 126.519531 109.136719 127.445312 108.652344 C 128.367188 108.171875 129.269531 107.644531 130.140625 107.074219 C 131.011719 106.503906 131.855469 105.890625 132.667969 105.238281 C 133.480469 104.582031 134.257812 103.890625 135 103.15625 C 135.742188 102.425781 136.449219 101.660156 137.117188 100.859375 C 137.78125 100.058594 138.410156 99.222656 138.992188 98.359375 C 139.578125 97.496094 140.117188 96.605469 140.613281 95.691406 C 141.109375 94.773438 141.558594 93.832031 141.960938 92.871094 C 142.363281 91.910156 142.71875 90.929688 143.023438 89.933594 C 143.332031 88.9375 143.585938 87.929688 143.792969 86.90625 C 143.996094 85.882812 144.152344 84.855469 144.253906 83.816406 C 144.359375 82.777344 144.410156 81.738281 144.410156 80.695312 C 144.410156 79.652344 144.359375 78.613281 144.253906 77.578125 C 144.152344 76.539062 143.996094 75.507812 143.792969 74.488281 C 143.585938 73.464844 143.332031 72.457031 143.023438 71.457031 C 142.71875 70.460938 142.363281 69.484375 141.960938 68.519531 C 141.558594 67.558594 141.109375 66.621094 140.613281 65.703125 C 140.117188 64.785156 139.578125 63.894531 138.992188 63.03125 C 138.410156 62.167969 137.78125 61.335938 137.117188 60.535156 C 136.449219 59.734375 135.742188 58.964844 135 58.234375 C 134.257812 57.503906 133.480469 56.808594 132.667969 56.15625 C 131.855469 55.5 131.011719 54.890625 130.140625 54.316406 C 129.269531 53.746094 128.367188 53.222656 127.445312 52.738281 C 126.519531 52.257812 125.574219 51.824219 124.605469 51.433594 C 123.636719 51.046875 122.652344 50.707031 121.648438 50.417969 C 120.648438 50.128906 119.632812 49.886719 118.609375 49.699219 C 117.582031 49.507812 116.550781 49.371094 115.511719 49.28125 C 114.472656 49.195312 113.429688 49.160156 112.386719 49.175781 C 112.183594 49.175781 111.988281 49.136719 111.800781 49.058594 C 111.609375 48.980469 111.445312 48.871094 111.300781 48.726562 C 111.15625 48.582031 111.046875 48.414062 110.96875 48.226562 C 110.890625 48.039062 110.851562 47.84375 110.851562 47.640625 C 110.851562 47.4375 110.890625 47.238281 110.96875 47.050781 C 111.046875 46.863281 111.15625 46.695312 111.300781 46.550781 C 111.445312 46.410156 111.609375 46.296875 111.800781 46.21875 C 111.988281 46.140625 112.183594 46.101562 112.386719 46.101562 C 113.519531 46.101562 114.652344 46.15625 115.78125 46.269531 C 116.910156 46.378906 118.027344 46.546875 119.140625 46.765625 C 120.25 46.988281 121.351562 47.261719 122.433594 47.59375 C 123.519531 47.921875 124.585938 48.300781 125.632812 48.734375 C 126.679688 49.167969 127.703125 49.652344 128.703125 50.1875 C 129.703125 50.722656 130.675781 51.304688 131.617188 51.933594 C 132.558594 52.5625 133.46875 53.238281 134.34375 53.957031 C 135.222656 54.675781 136.058594 55.433594 136.863281 56.234375 C 137.664062 57.035156 138.421875 57.875 139.144531 58.75 C 139.863281 59.628906 140.535156 60.535156 141.167969 61.480469 C 141.796875 62.421875 142.378906 63.390625 142.914062 64.390625 C 143.445312 65.390625 143.929688 66.414062 144.363281 67.460938 C 144.796875 68.507812 145.179688 69.574219 145.507812 70.65625 C 145.839844 71.742188 146.113281 72.839844 146.335938 73.949219 C 146.554688 75.0625 146.722656 76.179688 146.832031 77.308594 C 146.945312 78.4375 147 79.566406 147 80.699219 C 147 81.832031 146.945312 82.964844 146.832031 84.089844 C 146.722656 85.21875 146.554688 86.339844 146.335938 87.449219 C 146.113281 88.5625 145.839844 89.660156 145.507812 90.742188 C 145.179688 91.828125 144.796875 92.894531 144.363281 93.941406 C 143.929688 94.988281 143.445312 96.011719 142.914062 97.007812 C 142.378906 98.007812 141.796875 98.980469 141.167969 99.921875 C 140.535156 100.863281 139.863281 101.773438 139.144531 102.648438 C 138.421875 103.523438 137.664062 104.363281 136.863281 105.164062 C 136.058594 105.964844 135.222656 106.726562 134.34375 107.445312 C 133.46875 108.164062 132.558594 108.835938 131.617188 109.46875 C 130.675781 110.097656 129.703125 110.679688 128.703125 111.210938 C 127.703125 111.746094 126.679688 112.230469 125.632812 112.664062 C 124.585938 113.097656 123.519531 113.480469 122.433594 113.808594 C 121.351562 114.136719 120.25 114.410156 119.140625 114.632812 C 118.027344 114.855469 116.910156 115.019531 115.78125 115.132812 C 114.652344 115.242188 113.519531 115.296875 112.386719 115.296875 Z M 112.386719 115.296875 " fill-opacity="1" fill-rule="nonzero"/><path fill="#000000" d="M 112.386719 181.417969 C 111.265625 181.402344 110.144531 181.332031 109.027344 181.207031 C 107.914062 181.082031 106.804688 180.902344 105.707031 180.667969 C 104.609375 180.433594 103.523438 180.148438 102.453125 179.8125 C 101.382812 179.472656 100.328125 179.082031 99.296875 178.640625 C 98.265625 178.199219 97.253906 177.710938 96.269531 177.171875 C 95.285156 176.632812 94.328125 176.046875 93.398438 175.414062 C 92.472656 174.78125 91.578125 174.105469 90.714844 173.386719 C 89.851562 172.667969 89.027344 171.90625 88.238281 171.105469 C 87.449219 170.308594 86.703125 169.472656 85.996094 168.597656 C 85.289062 167.726562 84.625 166.820312 84.007812 165.882812 C 83.386719 164.949219 82.816406 163.984375 82.289062 162.988281 C 81.765625 161.996094 81.289062 160.980469 80.863281 159.941406 C 80.4375 158.902344 80.0625 157.847656 79.742188 156.773438 C 79.417969 155.695312 79.148438 154.609375 78.929688 153.507812 C 78.714844 152.40625 78.550781 151.296875 78.441406 150.179688 C 78.332031 149.0625 78.277344 147.941406 78.277344 146.816406 C 78.277344 145.695312 78.332031 144.574219 78.441406 143.457031 C 78.550781 142.339844 78.714844 141.230469 78.929688 140.128906 C 79.148438 139.027344 79.417969 137.9375 79.742188 136.863281 C 80.0625 135.789062 80.4375 134.730469 80.863281 133.691406 C 81.289062 132.652344 81.765625 131.636719 82.289062 130.644531 C 82.816406 129.652344 83.386719 128.6875 84.007812 127.75 C 84.625 126.8125 85.289062 125.910156 85.996094 125.035156 C 86.703125 124.164062 87.449219 123.328125 88.238281 122.527344 C 89.027344 121.730469 89.851562 120.96875 90.714844 120.25 C 91.578125 119.53125 92.472656 118.855469 93.398438 118.222656 C 94.328125 117.589844 95.285156 117.003906 96.269531 116.464844 C 97.253906 115.925781 98.265625 115.4375 99.296875 114.996094 C 100.328125 114.554688 101.382812 114.164062 102.453125 113.824219 C 103.523438 113.484375 104.609375 113.199219 105.707031 112.96875 C 106.804688 112.734375 107.914062 112.554688 109.027344 112.429688 C 110.144531 112.304688 111.265625 112.234375 112.386719 112.214844 C 112.601562 112.203125 112.808594 112.230469 113.011719 112.300781 C 113.214844 112.371094 113.390625 112.480469 113.550781 112.628906 C 113.707031 112.773438 113.828125 112.945312 113.910156 113.140625 C 113.996094 113.335938 114.039062 113.542969 114.039062 113.757812 C 114.039062 113.972656 113.996094 114.175781 113.910156 114.371094 C 113.828125 114.570312 113.707031 114.742188 113.550781 114.886719 C 113.390625 115.03125 113.214844 115.140625 113.011719 115.210938 C 112.808594 115.285156 112.601562 115.3125 112.386719 115.296875 C 111.363281 115.3125 110.347656 115.378906 109.328125 115.492188 C 108.3125 115.609375 107.304688 115.773438 106.304688 115.984375 C 105.304688 116.199219 104.316406 116.460938 103.34375 116.769531 C 102.367188 117.078125 101.410156 117.433594 100.46875 117.835938 C 99.527344 118.238281 98.609375 118.683594 97.714844 119.175781 C 96.816406 119.667969 95.945312 120.199219 95.101562 120.777344 C 94.257812 121.351562 93.441406 121.96875 92.65625 122.625 C 91.871094 123.277344 91.121094 123.972656 90.402344 124.699219 C 89.683594 125.429688 89.003906 126.1875 88.359375 126.984375 C 87.71875 127.777344 87.113281 128.601562 86.550781 129.457031 C 85.988281 130.308594 85.46875 131.1875 84.988281 132.089844 C 84.511719 132.996094 84.078125 133.921875 83.691406 134.867188 C 83.304688 135.8125 82.960938 136.773438 82.667969 137.753906 C 82.375 138.734375 82.128906 139.722656 81.929688 140.726562 C 81.734375 141.730469 81.585938 142.742188 81.484375 143.757812 C 81.386719 144.777344 81.335938 145.796875 81.335938 146.816406 C 81.335938 147.839844 81.386719 148.859375 81.484375 149.878906 C 81.585938 150.894531 81.734375 151.90625 81.929688 152.90625 C 82.128906 153.910156 82.375 154.902344 82.667969 155.882812 C 82.960938 156.859375 83.304688 157.824219 83.691406 158.769531 C 84.078125 159.714844 84.511719 160.640625 84.988281 161.542969 C 85.46875 162.449219 85.988281 163.328125 86.550781 164.179688 C 87.113281 165.03125 87.71875 165.855469 88.359375 166.652344 C 89.003906 167.445312 89.683594 168.207031 90.402344 168.9375 C 91.121094 169.664062 91.871094 170.355469 92.65625 171.011719 C 93.441406 171.667969 94.257812 172.28125 95.101562 172.859375 C 95.945312 173.433594 96.816406 173.96875 97.714844 174.460938 C 98.609375 174.953125 99.527344 175.398438 100.46875 175.800781 C 101.410156 176.203125 102.367188 176.558594 103.34375 176.867188 C 104.316406 177.175781 105.304688 177.4375 106.304688 177.648438 C 107.304688 177.863281 108.3125 178.027344 109.328125 178.140625 C 110.347656 178.257812 111.363281 178.320312 112.386719 178.335938 C 112.601562 178.324219 112.808594 178.351562 113.011719 178.421875 C 113.214844 178.496094 113.390625 178.601562 113.550781 178.75 C 113.707031 178.894531 113.828125 179.066406 113.910156 179.261719 C 113.996094 179.460938 114.039062 179.664062 114.039062 179.878906 C 114.039062 180.09375 113.996094 180.296875 113.910156 180.496094 C 113.828125 180.691406 113.707031 180.863281 113.550781 181.007812 C 113.390625 181.152344 113.214844 181.261719 113.011719 181.335938 C 112.808594 181.40625 112.601562 181.433594 112.386719 181.417969 Z M 112.386719 181.417969 " fill-opacity="1" fill-rule="nonzero"/><path fill="#000000" d="M 190.246094 150.925781 C 190.023438 150.925781 189.808594 150.878906 189.605469 150.785156 C 189.421875 150.699219 189.257812 150.578125 189.121094 150.429688 C 188.984375 150.28125 188.878906 150.109375 188.8125 149.917969 C 188.742188 149.726562 188.710938 149.53125 188.71875 149.328125 C 188.726562 149.125 188.773438 148.929688 188.859375 148.746094 C 190.113281 146.007812 191.214844 143.214844 192.167969 140.355469 C 193.121094 137.5 193.917969 134.601562 194.558594 131.664062 C 195.199219 128.722656 195.679688 125.753906 196.003906 122.761719 C 196.324219 119.769531 196.488281 116.765625 196.488281 113.757812 C 196.488281 110.746094 196.324219 107.746094 196.003906 104.753906 C 195.679688 101.761719 195.199219 98.792969 194.558594 95.851562 C 193.917969 92.910156 193.121094 90.011719 192.167969 87.15625 C 191.214844 84.300781 190.113281 81.503906 188.859375 78.769531 C 188.773438 78.582031 188.726562 78.386719 188.71875 78.179688 C 188.710938 77.976562 188.746094 77.777344 188.816406 77.585938 C 188.886719 77.394531 188.992188 77.222656 189.132812 77.070312 C 189.273438 76.921875 189.4375 76.804688 189.625 76.71875 C 189.808594 76.632812 190.003906 76.589844 190.210938 76.582031 C 190.414062 76.574219 190.613281 76.605469 190.804688 76.679688 C 191 76.75 191.167969 76.855469 191.320312 76.996094 C 191.46875 77.132812 191.585938 77.296875 191.671875 77.484375 C 192.972656 80.320312 194.117188 83.21875 195.105469 86.179688 C 196.097656 89.140625 196.921875 92.144531 197.589844 95.195312 C 198.253906 98.242188 198.753906 101.320312 199.089844 104.421875 C 199.425781 107.523438 199.59375 110.636719 199.59375 113.757812 C 199.59375 116.878906 199.425781 119.988281 199.089844 123.09375 C 198.753906 126.195312 198.253906 129.269531 197.589844 132.320312 C 196.921875 135.371094 196.097656 138.375 195.105469 141.335938 C 194.117188 144.292969 192.972656 147.191406 191.671875 150.03125 C 191.550781 150.3125 191.359375 150.535156 191.097656 150.699219 C 190.835938 150.859375 190.554688 150.9375 190.246094 150.925781 Z M 190.246094 150.925781 " fill-opacity="1" fill-rule="nonzero"/><g clip-path="url(#d8222098eb)"><path fill="#000000" d="M 112.386719 200.894531 C 106.125 200.90625 99.9375 200.246094 93.816406 198.917969 C 87.699219 197.589844 81.792969 195.617188 76.105469 193.007812 C 75.917969 192.921875 75.757812 192.804688 75.617188 192.65625 C 75.480469 192.503906 75.375 192.335938 75.300781 192.144531 C 75.230469 191.953125 75.199219 191.753906 75.207031 191.550781 C 75.214844 191.347656 75.261719 191.152344 75.347656 190.964844 C 75.433594 190.78125 75.550781 190.617188 75.699219 190.480469 C 75.847656 190.339844 76.019531 190.234375 76.210938 190.164062 C 76.402344 190.09375 76.601562 190.0625 76.804688 190.070312 C 77.007812 190.078125 77.203125 190.125 77.386719 190.207031 C 80.125 191.460938 82.925781 192.5625 85.78125 193.515625 C 88.636719 194.46875 91.535156 195.265625 94.480469 195.90625 C 97.421875 196.546875 100.390625 197.027344 103.382812 197.351562 C 106.378906 197.671875 109.378906 197.832031 112.390625 197.832031 C 115.402344 197.832031 118.40625 197.671875 121.398438 197.351562 C 124.394531 197.027344 127.363281 196.546875 130.304688 195.90625 C 133.246094 195.265625 136.144531 194.46875 139.003906 193.515625 C 141.859375 192.5625 144.65625 191.460938 147.394531 190.207031 C 147.582031 190.125 147.773438 190.078125 147.980469 190.070312 C 148.183594 190.0625 148.382812 190.09375 148.574219 190.164062 C 148.765625 190.234375 148.933594 190.339844 149.085938 190.480469 C 149.234375 190.617188 149.351562 190.78125 149.4375 190.964844 C 149.519531 191.152344 149.566406 191.347656 149.574219 191.550781 C 149.582031 191.753906 149.550781 191.953125 149.480469 192.144531 C 149.410156 192.335938 149.304688 192.503906 149.164062 192.65625 C 149.027344 192.804688 148.863281 192.921875 148.679688 193.007812 C 142.988281 195.617188 137.082031 197.589844 130.960938 198.917969 C 124.839844 200.25 118.652344 200.90625 112.386719 200.894531 Z M 112.386719 200.894531 " fill-opacity="1" fill-rule="nonzero"/></g><path fill="#000000" d="M 148.035156 37.46875 C 147.8125 37.472656 147.597656 37.421875 147.394531 37.328125 C 144.65625 36.074219 141.859375 34.972656 139.003906 34.019531 C 136.144531 33.070312 133.246094 32.273438 130.304688 31.632812 C 127.363281 30.988281 124.394531 30.507812 121.398438 30.1875 C 118.40625 29.863281 115.402344 29.703125 112.390625 29.703125 C 109.378906 29.703125 106.378906 29.863281 103.382812 30.1875 C 100.390625 30.507812 97.421875 30.988281 94.480469 31.632812 C 91.535156 32.273438 88.636719 33.070312 85.78125 34.019531 C 82.925781 34.972656 80.125 36.074219 77.386719 37.328125 C 77.203125 37.414062 77.007812 37.460938 76.804688 37.46875 C 76.601562 37.476562 76.402344 37.441406 76.210938 37.371094 C 76.019531 37.300781 75.847656 37.195312 75.699219 37.058594 C 75.550781 36.917969 75.433594 36.757812 75.347656 36.570312 C 75.261719 36.386719 75.214844 36.191406 75.207031 35.988281 C 75.199219 35.78125 75.230469 35.585938 75.300781 35.394531 C 75.375 35.203125 75.480469 35.03125 75.617188 34.882812 C 75.757812 34.734375 75.917969 34.613281 76.105469 34.53125 C 78.941406 33.230469 81.84375 32.085938 84.804688 31.101562 C 87.765625 30.113281 90.769531 29.285156 93.820312 28.621094 C 96.871094 27.957031 99.949219 27.457031 103.054688 27.121094 C 106.15625 26.789062 109.269531 26.621094 112.390625 26.621094 C 115.511719 26.621094 118.625 26.789062 121.730469 27.121094 C 124.835938 27.457031 127.910156 27.957031 130.960938 28.621094 C 134.011719 29.285156 137.015625 30.113281 139.980469 31.101562 C 142.941406 32.085938 145.839844 33.230469 148.679688 34.53125 C 149.011719 34.679688 149.257812 34.914062 149.421875 35.242188 C 149.585938 35.566406 149.628906 35.90625 149.550781 36.261719 C 149.476562 36.617188 149.292969 36.90625 149.007812 37.132812 C 148.726562 37.359375 148.402344 37.472656 148.035156 37.46875 Z M 148.035156 37.46875 " fill-opacity="1" fill-rule="nonzero"/><path fill="#000000" d="M 34.535156 150.925781 C 34.234375 150.925781 33.957031 150.847656 33.703125 150.683594 C 33.449219 150.523438 33.257812 150.304688 33.132812 150.03125 C 31.832031 147.191406 30.691406 144.292969 29.703125 141.332031 C 28.714844 138.375 27.886719 135.367188 27.222656 132.320312 C 26.558594 129.269531 26.058594 126.195312 25.722656 123.09375 C 25.386719 119.988281 25.222656 116.878906 25.222656 113.757812 C 25.222656 110.636719 25.386719 107.523438 25.722656 104.421875 C 26.058594 101.320312 26.558594 98.242188 27.222656 95.195312 C 27.886719 92.144531 28.714844 89.140625 29.703125 86.179688 C 30.691406 83.21875 31.832031 80.320312 33.132812 77.484375 C 33.21875 77.300781 33.339844 77.140625 33.488281 77.003906 C 33.640625 76.867188 33.8125 76.761719 34.003906 76.691406 C 34.195312 76.625 34.390625 76.59375 34.59375 76.601562 C 34.796875 76.609375 34.992188 76.652344 35.179688 76.738281 C 35.363281 76.824219 35.523438 76.941406 35.660156 77.089844 C 35.796875 77.242188 35.902344 77.410156 35.972656 77.601562 C 36.042969 77.792969 36.074219 77.992188 36.066406 78.195312 C 36.054688 78.398438 36.011719 78.589844 35.925781 78.773438 C 34.671875 81.511719 33.570312 84.308594 32.617188 87.164062 C 31.664062 90.019531 30.867188 92.917969 30.226562 95.859375 C 29.585938 98.800781 29.101562 101.765625 28.78125 104.761719 C 28.457031 107.753906 28.296875 110.753906 28.296875 113.765625 C 28.296875 116.773438 28.457031 119.777344 28.78125 122.769531 C 29.101562 125.761719 29.585938 128.730469 30.226562 131.667969 C 30.867188 134.609375 31.664062 137.507812 32.617188 140.363281 C 33.570312 143.21875 34.671875 146.015625 35.925781 148.753906 C 36.011719 148.9375 36.054688 149.132812 36.066406 149.335938 C 36.074219 149.539062 36.042969 149.734375 35.972656 149.925781 C 35.902344 150.117188 35.796875 150.289062 35.660156 150.4375 C 35.523438 150.585938 35.363281 150.703125 35.179688 150.789062 C 34.972656 150.882812 34.761719 150.929688 34.535156 150.925781 Z M 34.535156 150.925781 " fill-opacity="1" fill-rule="nonzero"/></svg>