<svg xmlns="http://www.w3.org/2000/svg" xmlns:xlink="http://www.w3.org/1999/xlink"  zoomAndPan="magnify" viewBox="0 0 224.87999 225" preserveAspectRatio="xMidYMid meet" version="1.0"><defs><clipPath id="189b634e00"><path d="M 22.488281 22.546875 L 202.390625 22.546875 L 202.390625 202.453125 L 22.488281 202.453125 Z M 22.488281 22.546875 " clip-rule="nonzero"/></clipPath></defs><path fill="currentColor" d="M 112.441406 165.230469 C 112.027344 165.230469 111.632812 165.308594 111.253906 165.464844 C 110.871094 165.625 110.539062 165.847656 110.246094 166.140625 C 109.957031 166.429688 109.730469 166.765625 109.574219 167.144531 C 109.417969 167.523438 109.339844 167.921875 109.339844 168.332031 L 109.339844 173.265625 C 109.421875 173.597656 109.558594 173.910156 109.746094 174.203125 C 109.9375 174.492188 110.167969 174.742188 110.4375 174.957031 C 110.710938 175.167969 111.011719 175.332031 111.339844 175.441406 C 111.664062 175.554688 112 175.613281 112.347656 175.613281 C 112.691406 175.613281 113.027344 175.554688 113.355469 175.441406 C 113.683594 175.332031 113.984375 175.167969 114.253906 174.957031 C 114.527344 174.742188 114.757812 174.492188 114.945312 174.203125 C 115.136719 173.910156 115.273438 173.597656 115.355469 173.265625 L 115.355469 168.332031 C 115.355469 167.9375 115.285156 167.554688 115.136719 167.1875 C 114.992188 166.820312 114.785156 166.492188 114.515625 166.203125 C 114.242188 165.914062 113.929688 165.6875 113.570312 165.519531 C 113.210938 165.351562 112.835938 165.253906 112.441406 165.230469 Z M 112.441406 165.230469 " fill-opacity="1" fill-rule="nonzero"/><g clip-path="url(#189b634e00)"><path fill="currentColor" d="M 112.441406 22.546875 C 110.96875 22.546875 109.496094 22.585938 108.027344 22.65625 C 106.554688 22.730469 105.089844 22.835938 103.625 22.980469 C 102.15625 23.125 100.699219 23.304688 99.242188 23.523438 C 97.785156 23.738281 96.335938 23.988281 94.890625 24.277344 C 93.449219 24.5625 92.011719 24.886719 90.582031 25.242188 C 89.15625 25.601562 87.738281 25.992188 86.328125 26.421875 C 84.917969 26.847656 83.523438 27.308594 82.136719 27.804688 C 80.75 28.300781 79.375 28.832031 78.015625 29.394531 C 76.65625 29.957031 75.3125 30.554688 73.980469 31.183594 C 72.648438 31.8125 71.335938 32.476562 70.035156 33.167969 C 68.738281 33.863281 67.457031 34.589844 66.195312 35.34375 C 64.933594 36.101562 63.6875 36.890625 62.464844 37.707031 C 61.242188 38.527344 60.039062 39.371094 58.855469 40.25 C 57.671875 41.125 56.511719 42.03125 55.375 42.964844 C 54.238281 43.898438 53.121094 44.863281 52.03125 45.851562 C 50.941406 46.839844 49.875 47.851562 48.835938 48.894531 C 47.792969 49.933594 46.777344 51 45.789062 52.09375 C 44.800781 53.183594 43.839844 54.296875 42.90625 55.433594 C 41.972656 56.574219 41.066406 57.734375 40.191406 58.914062 C 39.3125 60.097656 38.464844 61.300781 37.648438 62.523438 C 36.828125 63.75 36.042969 64.992188 35.285156 66.253906 C 34.527344 67.519531 33.804688 68.796875 33.109375 70.097656 C 32.414062 71.394531 31.753906 72.710938 31.125 74.039062 C 30.496094 75.371094 29.898438 76.714844 29.335938 78.078125 C 28.773438 79.4375 28.242188 80.808594 27.746094 82.195312 C 27.25 83.582031 26.789062 84.980469 26.359375 86.386719 C 25.933594 87.796875 25.542969 89.214844 25.183594 90.644531 C 24.824219 92.070312 24.503906 93.507812 24.214844 94.953125 C 23.929688 96.394531 23.675781 97.84375 23.460938 99.300781 C 23.246094 100.757812 23.066406 102.21875 22.921875 103.683594 C 22.777344 105.148438 22.667969 106.617188 22.597656 108.085938 C 22.523438 109.554688 22.488281 111.027344 22.488281 112.5 C 22.488281 113.972656 22.523438 115.445312 22.597656 116.914062 C 22.667969 118.382812 22.777344 119.851562 22.921875 121.316406 C 23.066406 122.78125 23.246094 124.242188 23.460938 125.699219 C 23.675781 127.15625 23.929688 128.605469 24.214844 130.046875 C 24.503906 131.492188 24.824219 132.929688 25.183594 134.355469 C 25.542969 135.785156 25.933594 137.203125 26.359375 138.613281 C 26.789062 140.019531 27.25 141.417969 27.746094 142.804688 C 28.242188 144.191406 28.773438 145.5625 29.335938 146.921875 C 29.898438 148.28125 30.496094 149.628906 31.125 150.960938 C 31.753906 152.289062 32.414062 153.605469 33.109375 154.902344 C 33.804688 156.203125 34.527344 157.480469 35.285156 158.746094 C 36.042969 160.007812 36.828125 161.25 37.648438 162.476562 C 38.464844 163.699219 39.3125 164.902344 40.191406 166.085938 C 41.066406 167.265625 41.972656 168.425781 42.90625 169.566406 C 43.839844 170.703125 44.800781 171.816406 45.789062 172.90625 C 46.777344 174 47.792969 175.066406 48.835938 176.105469 C 49.875 177.148438 50.941406 178.160156 52.03125 179.148438 C 53.121094 180.136719 54.238281 181.101562 55.375 182.035156 C 56.511719 182.96875 57.671875 183.875 58.855469 184.75 C 60.039062 185.628906 61.242188 186.472656 62.464844 187.292969 C 63.6875 188.109375 64.933594 188.898438 66.195312 189.65625 C 67.457031 190.410156 68.738281 191.136719 70.035156 191.832031 C 71.335938 192.523438 72.648438 193.1875 73.980469 193.816406 C 75.3125 194.445312 76.65625 195.042969 78.015625 195.605469 C 79.375 196.167969 80.75 196.699219 82.136719 197.195312 C 83.523438 197.691406 84.917969 198.152344 86.328125 198.578125 C 87.738281 199.007812 89.15625 199.398438 90.582031 199.757812 C 92.011719 200.113281 93.449219 200.4375 94.890625 200.722656 C 96.335938 201.011719 97.785156 201.261719 99.242188 201.476562 C 100.699219 201.695312 102.15625 201.875 103.625 202.019531 C 105.089844 202.164062 106.554688 202.269531 108.027344 202.34375 C 109.496094 202.414062 110.96875 202.453125 112.441406 202.453125 C 113.914062 202.453125 115.382812 202.414062 116.855469 202.34375 C 118.324219 202.269531 119.792969 202.164062 121.257812 202.019531 C 122.722656 201.875 124.183594 201.695312 125.640625 201.476562 C 127.09375 201.261719 128.542969 201.011719 129.988281 200.722656 C 131.433594 200.4375 132.867188 200.113281 134.296875 199.757812 C 135.722656 199.398438 137.144531 199.007812 138.550781 198.578125 C 139.960938 198.152344 141.359375 197.691406 142.742188 197.195312 C 144.128906 196.699219 145.503906 196.167969 146.863281 195.605469 C 148.222656 195.042969 149.570312 194.445312 150.898438 193.816406 C 152.230469 193.1875 153.542969 192.523438 154.84375 191.832031 C 156.140625 191.136719 157.421875 190.410156 158.683594 189.65625 C 159.945312 188.898438 161.191406 188.109375 162.414062 187.292969 C 163.636719 186.472656 164.84375 185.628906 166.023438 184.75 C 167.207031 183.875 168.367188 182.96875 169.503906 182.035156 C 170.644531 181.101562 171.757812 180.136719 172.847656 179.148438 C 173.9375 178.160156 175.003906 177.148438 176.046875 176.105469 C 177.085938 175.066406 178.101562 174 179.089844 172.90625 C 180.078125 171.816406 181.039062 170.703125 181.972656 169.566406 C 182.90625 168.425781 183.8125 167.265625 184.691406 166.085938 C 185.566406 164.902344 186.414062 163.699219 187.230469 162.476562 C 188.050781 161.25 188.835938 160.007812 189.59375 158.746094 C 190.351562 157.480469 191.078125 156.203125 191.769531 154.902344 C 192.464844 153.605469 193.125 152.289062 193.753906 150.960938 C 194.386719 149.628906 194.980469 148.28125 195.542969 146.921875 C 196.109375 145.5625 196.636719 144.191406 197.132812 142.804688 C 197.628906 141.417969 198.089844 140.019531 198.519531 138.613281 C 198.945312 137.203125 199.339844 135.785156 199.695312 134.355469 C 200.054688 132.929688 200.375 131.492188 200.664062 130.046875 C 200.949219 128.605469 201.203125 127.15625 201.417969 125.699219 C 201.632812 124.242188 201.816406 122.78125 201.957031 121.316406 C 202.101562 119.851562 202.210938 118.382812 202.285156 116.914062 C 202.355469 115.445312 202.390625 113.972656 202.390625 112.5 C 202.390625 111.027344 202.355469 109.554688 202.285156 108.085938 C 202.210938 106.617188 202.101562 105.148438 201.957031 103.683594 C 201.816406 102.21875 201.632812 100.757812 201.417969 99.300781 C 201.203125 97.84375 200.949219 96.394531 200.664062 94.953125 C 200.375 93.507812 200.054688 92.070312 199.695312 90.644531 C 199.339844 89.214844 198.945312 87.796875 198.519531 86.386719 C 198.089844 84.980469 197.628906 83.582031 197.132812 82.195312 C 196.636719 80.808594 196.109375 79.4375 195.542969 78.078125 C 194.980469 76.714844 194.386719 75.371094 193.753906 74.039062 C 193.125 72.710938 192.464844 71.394531 191.769531 70.097656 C 191.078125 68.796875 190.351562 67.519531 189.59375 66.253906 C 188.835938 64.992188 188.050781 63.75 187.230469 62.523438 C 186.414062 61.300781 185.566406 60.097656 184.691406 58.914062 C 183.8125 57.734375 182.90625 56.574219 181.972656 55.433594 C 181.039062 54.296875 180.078125 53.183594 179.089844 52.09375 C 178.101562 51 177.085938 49.933594 176.046875 48.894531 C 175.003906 47.851562 173.9375 46.839844 172.847656 45.851562 C 171.757812 44.863281 170.644531 43.898438 169.503906 42.964844 C 168.367188 42.03125 167.207031 41.125 166.023438 40.25 C 164.84375 39.371094 163.636719 38.527344 162.414062 37.707031 C 161.191406 36.890625 159.945312 36.101562 158.683594 35.34375 C 157.421875 34.589844 156.140625 33.863281 154.84375 33.167969 C 153.542969 32.476562 152.230469 31.8125 150.898438 31.183594 C 149.570312 30.554688 148.222656 29.957031 146.863281 29.394531 C 145.503906 28.832031 144.128906 28.300781 142.742188 27.804688 C 141.359375 27.308594 139.960938 26.847656 138.550781 26.421875 C 137.144531 25.992188 135.722656 25.601562 134.296875 25.242188 C 132.867188 24.886719 131.433594 24.5625 129.988281 24.277344 C 128.542969 23.988281 127.09375 23.738281 125.640625 23.523438 C 124.183594 23.304688 122.722656 23.125 121.257812 22.980469 C 119.792969 22.835938 118.324219 22.730469 116.855469 22.65625 C 115.382812 22.585938 113.914062 22.546875 112.441406 22.546875 Z M 112.441406 196.464844 C 111.066406 196.464844 109.691406 196.433594 108.320312 196.363281 C 106.949219 196.296875 105.578125 196.195312 104.210938 196.0625 C 102.84375 195.925781 101.480469 195.757812 100.121094 195.558594 C 98.761719 195.355469 97.40625 195.121094 96.058594 194.851562 C 94.710938 194.585938 93.371094 194.28125 92.039062 193.949219 C 90.703125 193.617188 89.382812 193.25 88.066406 192.851562 C 86.75 192.449219 85.445312 192.019531 84.152344 191.558594 C 82.859375 191.09375 81.578125 190.601562 80.308594 190.074219 C 79.039062 189.546875 77.78125 188.992188 76.539062 188.402344 C 75.296875 187.816406 74.070312 187.199219 72.859375 186.550781 C 71.648438 185.902344 70.453125 185.226562 69.273438 184.519531 C 68.09375 183.8125 66.933594 183.078125 65.792969 182.316406 C 64.648438 181.550781 63.527344 180.761719 62.421875 179.941406 C 61.316406 179.125 60.234375 178.277344 59.171875 177.40625 C 58.109375 176.535156 57.070312 175.636719 56.050781 174.714844 C 55.035156 173.792969 54.039062 172.84375 53.066406 171.871094 C 52.097656 170.902344 51.148438 169.90625 50.226562 168.886719 C 49.304688 167.871094 48.40625 166.828125 47.535156 165.765625 C 46.660156 164.703125 45.816406 163.621094 45 162.519531 C 44.179688 161.414062 43.386719 160.292969 42.625 159.148438 C 41.863281 158.007812 41.125 156.84375 40.421875 155.667969 C 39.714844 154.488281 39.035156 153.292969 38.390625 152.082031 C 37.742188 150.871094 37.125 149.640625 36.535156 148.398438 C 35.949219 147.15625 35.390625 145.902344 34.867188 144.632812 C 34.339844 143.363281 33.84375 142.082031 33.382812 140.789062 C 32.917969 139.492188 32.488281 138.1875 32.089844 136.875 C 31.691406 135.558594 31.324219 134.234375 30.992188 132.902344 C 30.65625 131.570312 30.355469 130.230469 30.085938 128.882812 C 29.820312 127.53125 29.585938 126.179688 29.382812 124.820312 C 29.179688 123.460938 29.011719 122.097656 28.878906 120.730469 C 28.742188 119.363281 28.644531 117.992188 28.574219 116.621094 C 28.507812 115.246094 28.472656 113.875 28.472656 112.5 C 28.472656 111.125 28.507812 109.753906 28.574219 108.378906 C 28.644531 107.007812 28.742188 105.636719 28.878906 104.269531 C 29.011719 102.902344 29.179688 101.539062 29.382812 100.179688 C 29.585938 98.820312 29.820312 97.46875 30.085938 96.117188 C 30.355469 94.769531 30.65625 93.429688 30.992188 92.097656 C 31.324219 90.765625 31.691406 89.441406 32.089844 88.125 C 32.488281 86.8125 32.917969 85.507812 33.382812 84.210938 C 33.84375 82.917969 34.339844 81.636719 34.867188 80.367188 C 35.390625 79.097656 35.949219 77.84375 36.535156 76.601562 C 37.125 75.359375 37.742188 74.128906 38.390625 72.917969 C 39.035156 71.707031 39.714844 70.511719 40.421875 69.332031 C 41.125 68.15625 41.863281 66.992188 42.625 65.851562 C 43.386719 64.707031 44.179688 63.585938 45 62.480469 C 45.816406 61.378906 46.660156 60.296875 47.535156 59.234375 C 48.40625 58.171875 49.304688 57.128906 50.226562 56.113281 C 51.148438 55.09375 52.097656 54.097656 53.066406 53.128906 C 54.039062 52.15625 55.035156 51.207031 56.050781 50.285156 C 57.070312 49.363281 58.109375 48.464844 59.171875 47.59375 C 60.234375 46.722656 61.316406 45.875 62.421875 45.058594 C 63.527344 44.238281 64.648438 43.449219 65.792969 42.683594 C 66.933594 41.921875 68.09375 41.1875 69.273438 40.480469 C 70.453125 39.773438 71.648438 39.097656 72.859375 38.449219 C 74.070312 37.800781 75.296875 37.183594 76.539062 36.597656 C 77.78125 36.007812 79.039062 35.453125 80.308594 34.925781 C 81.578125 34.398438 82.859375 33.90625 84.152344 33.441406 C 85.445312 32.980469 86.75 32.550781 88.066406 32.148438 C 89.382812 31.75 90.703125 31.382812 92.039062 31.050781 C 93.371094 30.71875 94.710938 30.414062 96.058594 30.148438 C 97.40625 29.878906 98.761719 29.644531 100.121094 29.441406 C 101.480469 29.242188 102.84375 29.074219 104.210938 28.9375 C 105.578125 28.804688 106.949219 28.703125 108.320312 28.636719 C 109.691406 28.566406 111.066406 28.535156 112.441406 28.535156 C 113.8125 28.535156 115.1875 28.566406 116.558594 28.636719 C 117.933594 28.703125 119.300781 28.804688 120.671875 28.9375 C 122.039062 29.074219 123.402344 29.242188 124.761719 29.441406 C 126.121094 29.644531 127.472656 29.878906 128.820312 30.148438 C 130.167969 30.414062 131.507812 30.71875 132.84375 31.050781 C 134.175781 31.382812 135.5 31.75 136.8125 32.148438 C 138.128906 32.550781 139.433594 32.980469 140.726562 33.441406 C 142.019531 33.90625 143.300781 34.398438 144.570312 34.925781 C 145.839844 35.453125 147.097656 36.007812 148.339844 36.597656 C 149.582031 37.183594 150.808594 37.800781 152.019531 38.449219 C 153.234375 39.097656 154.429688 39.773438 155.605469 40.480469 C 156.785156 41.1875 157.945312 41.921875 159.089844 42.683594 C 160.230469 43.449219 161.355469 44.238281 162.457031 45.058594 C 163.5625 45.875 164.644531 46.722656 165.707031 47.59375 C 166.769531 48.464844 167.808594 49.363281 168.828125 50.285156 C 169.847656 51.207031 170.839844 52.15625 171.8125 53.128906 C 172.785156 54.097656 173.730469 55.09375 174.65625 56.113281 C 175.578125 57.128906 176.472656 58.171875 177.347656 59.234375 C 178.21875 60.296875 179.0625 61.378906 179.882812 62.480469 C 180.699219 63.585938 181.492188 64.707031 182.253906 65.851562 C 183.019531 66.992188 183.753906 68.15625 184.460938 69.332031 C 185.167969 70.511719 185.84375 71.707031 186.492188 72.917969 C 187.140625 74.128906 187.757812 75.359375 188.34375 76.601562 C 188.929688 77.84375 189.488281 79.097656 190.015625 80.367188 C 190.539062 81.636719 191.035156 82.917969 191.496094 84.210938 C 191.960938 85.507812 192.390625 86.8125 192.789062 88.125 C 193.1875 89.441406 193.554688 90.765625 193.890625 92.097656 C 194.222656 93.429688 194.523438 94.769531 194.792969 96.117188 C 195.058594 97.46875 195.296875 98.820312 195.496094 100.179688 C 195.699219 101.539062 195.867188 102.902344 196 104.269531 C 196.136719 105.636719 196.238281 107.007812 196.304688 108.378906 C 196.371094 109.753906 196.40625 111.125 196.40625 112.5 C 196.402344 113.875 196.367188 115.246094 196.296875 116.617188 C 196.230469 117.988281 196.125 119.359375 195.988281 120.726562 C 195.855469 122.09375 195.683594 123.457031 195.480469 124.8125 C 195.277344 126.171875 195.042969 127.523438 194.773438 128.871094 C 194.503906 130.21875 194.199219 131.558594 193.863281 132.890625 C 193.53125 134.222656 193.164062 135.546875 192.761719 136.859375 C 192.363281 138.175781 191.929688 139.476562 191.464844 140.769531 C 191.003906 142.0625 190.507812 143.34375 189.980469 144.613281 C 189.453125 145.882812 188.898438 147.136719 188.308594 148.378906 C 187.722656 149.621094 187.101562 150.84375 186.453125 152.054688 C 185.804688 153.269531 185.128906 154.460938 184.421875 155.640625 C 183.714844 156.816406 182.980469 157.976562 182.214844 159.121094 C 181.453125 160.261719 180.664062 161.382812 179.84375 162.488281 C 179.023438 163.589844 178.179688 164.671875 177.308594 165.734375 C 176.4375 166.796875 175.539062 167.835938 174.617188 168.851562 C 173.695312 169.871094 172.746094 170.863281 171.777344 171.835938 C 170.804688 172.808594 169.8125 173.753906 168.792969 174.675781 C 167.773438 175.601562 166.734375 176.496094 165.675781 177.367188 C 164.613281 178.238281 163.53125 179.085938 162.425781 179.902344 C 161.324219 180.722656 160.203125 181.511719 159.058594 182.277344 C 157.917969 183.039062 156.757812 183.777344 155.578125 184.480469 C 154.402344 185.1875 153.207031 185.867188 151.996094 186.515625 C 150.785156 187.164062 149.558594 187.78125 148.316406 188.367188 C 147.078125 188.957031 145.820312 189.515625 144.554688 190.039062 C 143.285156 190.566406 142.003906 191.0625 140.710938 191.527344 C 139.417969 191.992188 138.113281 192.421875 136.800781 192.820312 C 135.484375 193.222656 134.164062 193.589844 132.832031 193.925781 C 131.5 194.261719 130.160156 194.5625 128.8125 194.832031 C 127.464844 195.101562 126.113281 195.335938 124.753906 195.539062 C 123.394531 195.742188 122.03125 195.914062 120.667969 196.050781 C 119.300781 196.1875 117.929688 196.289062 116.558594 196.359375 C 115.1875 196.429688 113.8125 196.464844 112.441406 196.464844 Z M 112.441406 196.464844 " fill-opacity="1" fill-rule="nonzero"/></g><path fill="currentColor" d="M 112.441406 37.839844 C 111.21875 37.839844 109.996094 37.871094 108.777344 37.929688 C 107.554688 37.988281 106.339844 38.078125 105.121094 38.199219 C 103.90625 38.320312 102.695312 38.46875 101.484375 38.648438 C 100.277344 38.828125 99.074219 39.035156 97.875 39.273438 C 96.675781 39.511719 95.484375 39.78125 94.300781 40.078125 C 93.113281 40.375 91.9375 40.699219 90.765625 41.054688 C 89.597656 41.410156 88.4375 41.792969 87.289062 42.203125 C 86.136719 42.617188 84.996094 43.054688 83.867188 43.523438 C 82.738281 43.992188 81.625 44.484375 80.519531 45.007812 C 79.414062 45.53125 78.324219 46.078125 77.246094 46.65625 C 76.167969 47.230469 75.105469 47.832031 74.058594 48.460938 C 73.007812 49.089844 71.976562 49.742188 70.960938 50.421875 C 69.945312 51.101562 68.945312 51.804688 67.964844 52.53125 C 66.984375 53.261719 66.019531 54.011719 65.074219 54.785156 C 64.132812 55.5625 63.207031 56.359375 62.300781 57.179688 C 61.394531 58 60.511719 58.84375 59.648438 59.707031 C 58.785156 60.570312 57.941406 61.457031 57.121094 62.359375 C 56.300781 63.265625 55.503906 64.191406 54.726562 65.136719 C 53.953125 66.082031 53.199219 67.042969 52.472656 68.023438 C 51.746094 69.007812 51.042969 70.003906 50.363281 71.019531 C 49.683594 72.035156 49.03125 73.070312 48.402344 74.117188 C 47.773438 75.164062 47.171875 76.226562 46.59375 77.304688 C 46.019531 78.382812 45.46875 79.472656 44.949219 80.578125 C 44.425781 81.683594 43.929688 82.800781 43.464844 83.929688 C 42.996094 85.058594 42.554688 86.199219 42.144531 87.347656 C 41.734375 88.5 41.347656 89.65625 40.996094 90.828125 C 40.640625 91.996094 40.3125 93.171875 40.015625 94.359375 C 39.71875 95.542969 39.453125 96.734375 39.214844 97.933594 C 38.976562 99.132812 38.765625 100.335938 38.589844 101.546875 C 38.410156 102.753906 38.257812 103.964844 38.140625 105.183594 C 38.019531 106.398438 37.929688 107.617188 37.871094 108.835938 C 37.808594 110.058594 37.78125 111.277344 37.78125 112.5 C 37.78125 113.722656 37.808594 114.941406 37.871094 116.164062 C 37.929688 117.382812 38.019531 118.601562 38.140625 119.816406 C 38.257812 121.035156 38.410156 122.246094 38.589844 123.453125 C 38.765625 124.664062 38.976562 125.867188 39.214844 127.066406 C 39.453125 128.265625 39.71875 129.457031 40.015625 130.640625 C 40.3125 131.828125 40.640625 133.003906 40.996094 134.171875 C 41.347656 135.34375 41.734375 136.5 42.144531 137.652344 C 42.554688 138.800781 42.996094 139.941406 43.464844 141.070312 C 43.929688 142.199219 44.425781 143.316406 44.949219 144.421875 C 45.46875 145.527344 46.019531 146.617188 46.59375 147.695312 C 47.171875 148.773438 47.773438 149.835938 48.402344 150.882812 C 49.03125 151.929688 49.683594 152.964844 50.363281 153.980469 C 51.042969 154.996094 51.746094 155.992188 52.472656 156.976562 C 53.199219 157.957031 53.953125 158.917969 54.726562 159.863281 C 55.503906 160.808594 56.300781 161.734375 57.121094 162.640625 C 57.941406 163.542969 58.785156 164.429688 59.648438 165.292969 C 60.511719 166.15625 61.394531 167 62.300781 167.820312 C 63.207031 168.640625 64.132812 169.4375 65.074219 170.214844 C 66.019531 170.988281 66.984375 171.738281 67.964844 172.46875 C 68.945312 173.195312 69.945312 173.898438 70.960938 174.578125 C 71.976562 175.257812 73.007812 175.910156 74.058594 176.539062 C 75.105469 177.167969 76.167969 177.769531 77.246094 178.34375 C 78.324219 178.921875 79.414062 179.46875 80.519531 179.992188 C 81.625 180.515625 82.738281 181.007812 83.867188 181.476562 C 84.996094 181.945312 86.136719 182.382812 87.289062 182.796875 C 88.4375 183.207031 89.597656 183.589844 90.765625 183.945312 C 91.9375 184.300781 93.113281 184.625 94.300781 184.921875 C 95.484375 185.21875 96.675781 185.488281 97.875 185.726562 C 99.074219 185.964844 100.277344 186.171875 101.484375 186.351562 C 102.695312 186.53125 103.90625 186.679688 105.121094 186.800781 C 106.339844 186.921875 107.554688 187.011719 108.777344 187.070312 C 109.996094 187.128906 111.21875 187.160156 112.441406 187.160156 C 113.660156 187.160156 114.882812 187.128906 116.101562 187.070312 C 117.324219 187.011719 118.542969 186.921875 119.757812 186.800781 C 120.972656 186.679688 122.1875 186.53125 123.394531 186.351562 C 124.605469 186.171875 125.808594 185.964844 127.003906 185.726562 C 128.203125 185.488281 129.394531 185.21875 130.582031 184.921875 C 131.765625 184.625 132.945312 184.300781 134.113281 183.945312 C 135.28125 183.589844 136.441406 183.207031 137.59375 182.796875 C 138.742188 182.382812 139.882812 181.945312 141.011719 181.476562 C 142.140625 181.007812 143.257812 180.515625 144.359375 179.992188 C 145.464844 179.46875 146.558594 178.921875 147.632812 178.34375 C 148.710938 177.769531 149.773438 177.167969 150.824219 176.539062 C 151.871094 175.910156 152.902344 175.257812 153.917969 174.578125 C 154.933594 173.898438 155.933594 173.195312 156.914062 172.46875 C 157.894531 171.738281 158.859375 170.988281 159.804688 170.214844 C 160.75 169.4375 161.671875 168.640625 162.578125 167.820312 C 163.484375 167 164.367188 166.15625 165.234375 165.292969 C 166.097656 164.429688 166.9375 163.542969 167.757812 162.640625 C 168.578125 161.734375 169.378906 160.808594 170.152344 159.863281 C 170.929688 158.917969 171.679688 157.957031 172.40625 156.976562 C 173.136719 155.992188 173.839844 154.996094 174.519531 153.980469 C 175.195312 152.964844 175.851562 151.929688 176.476562 150.882812 C 177.105469 149.835938 177.707031 148.773438 178.285156 147.695312 C 178.859375 146.617188 179.410156 145.527344 179.933594 144.421875 C 180.453125 143.316406 180.949219 142.199219 181.417969 141.070312 C 181.882812 139.941406 182.324219 138.800781 182.734375 137.652344 C 183.148438 136.5 183.53125 135.34375 183.886719 134.171875 C 184.238281 133.003906 184.566406 131.828125 184.863281 130.640625 C 185.160156 129.457031 185.425781 128.265625 185.664062 127.066406 C 185.902344 125.867188 186.113281 124.664062 186.292969 123.453125 C 186.472656 122.246094 186.621094 121.035156 186.742188 119.816406 C 186.859375 118.601562 186.949219 117.382812 187.011719 116.164062 C 187.070312 114.941406 187.101562 113.722656 187.101562 112.5 C 187.097656 111.277344 187.066406 110.058594 187.003906 108.839844 C 186.945312 107.617188 186.851562 106.398438 186.730469 105.183594 C 186.609375 103.96875 186.460938 102.757812 186.28125 101.550781 C 186.097656 100.339844 185.890625 99.140625 185.648438 97.941406 C 185.410156 96.742188 185.140625 95.550781 184.84375 94.367188 C 184.546875 93.183594 184.21875 92.007812 183.863281 90.835938 C 183.507812 89.667969 183.125 88.511719 182.710938 87.359375 C 182.300781 86.210938 181.859375 85.070312 181.390625 83.941406 C 180.925781 82.816406 180.429688 81.699219 179.90625 80.59375 C 179.382812 79.492188 178.832031 78.402344 178.257812 77.324219 C 177.679688 76.246094 177.078125 75.183594 176.449219 74.136719 C 175.820312 73.089844 175.167969 72.058594 174.488281 71.042969 C 173.808594 70.027344 173.105469 69.03125 172.378906 68.046875 C 171.652344 67.066406 170.898438 66.105469 170.125 65.160156 C 169.347656 64.21875 168.550781 63.292969 167.730469 62.386719 C 166.910156 61.484375 166.070312 60.597656 165.207031 59.734375 C 164.339844 58.871094 163.457031 58.027344 162.550781 57.207031 C 161.648438 56.386719 160.722656 55.589844 159.777344 54.816406 C 158.835938 54.039062 157.871094 53.289062 156.890625 52.5625 C 155.910156 51.832031 154.914062 51.128906 153.898438 50.449219 C 152.882812 49.773438 151.851562 49.117188 150.800781 48.488281 C 149.753906 47.863281 148.691406 47.257812 147.617188 46.683594 C 146.539062 46.105469 145.449219 45.558594 144.34375 45.035156 C 143.242188 44.511719 142.125 44.015625 140.996094 43.546875 C 139.867188 43.078125 138.730469 42.640625 137.578125 42.226562 C 136.429688 41.816406 135.269531 41.429688 134.101562 41.074219 C 132.933594 40.71875 131.757812 40.394531 130.574219 40.09375 C 129.386719 39.796875 128.195312 39.527344 127 39.289062 C 125.800781 39.050781 124.597656 38.839844 123.390625 38.660156 C 122.183594 38.480469 120.96875 38.328125 119.753906 38.207031 C 118.539062 38.085938 117.320312 37.996094 116.101562 37.933594 C 114.882812 37.871094 113.660156 37.839844 112.441406 37.839844 Z M 112.441406 181.171875 C 111.316406 181.171875 110.191406 181.144531 109.070312 181.089844 C 107.949219 181.035156 106.828125 180.953125 105.707031 180.84375 C 104.589844 180.734375 103.476562 180.59375 102.363281 180.429688 C 101.25 180.265625 100.144531 180.074219 99.042969 179.855469 C 97.941406 179.636719 96.84375 179.390625 95.753906 179.117188 C 94.664062 178.84375 93.582031 178.542969 92.503906 178.214844 C 91.429688 177.890625 90.363281 177.539062 89.304688 177.160156 C 88.246094 176.78125 87.199219 176.375 86.160156 175.945312 C 85.121094 175.515625 84.09375 175.0625 83.078125 174.582031 C 82.0625 174.101562 81.058594 173.59375 80.066406 173.066406 C 79.078125 172.535156 78.097656 171.980469 77.132812 171.402344 C 76.171875 170.824219 75.222656 170.222656 74.285156 169.601562 C 73.351562 168.976562 72.433594 168.328125 71.53125 167.660156 C 70.628906 166.988281 69.742188 166.296875 68.875 165.585938 C 68.003906 164.871094 67.15625 164.136719 66.320312 163.382812 C 65.488281 162.628906 64.675781 161.855469 63.878906 161.058594 C 63.085938 160.265625 62.3125 159.453125 61.554688 158.617188 C 60.800781 157.785156 60.066406 156.933594 59.355469 156.066406 C 58.640625 155.199219 57.949219 154.3125 57.28125 153.410156 C 56.609375 152.507812 55.964844 151.585938 55.339844 150.652344 C 54.714844 149.71875 54.113281 148.769531 53.535156 147.804688 C 52.957031 146.839844 52.40625 145.863281 51.875 144.871094 C 51.34375 143.882812 50.839844 142.878906 50.359375 141.863281 C 49.878906 140.847656 49.425781 139.820312 48.992188 138.78125 C 48.5625 137.742188 48.160156 136.695312 47.78125 135.636719 C 47.402344 134.578125 47.050781 133.511719 46.722656 132.433594 C 46.398438 131.359375 46.097656 130.277344 45.824219 129.1875 C 45.550781 128.097656 45.304688 127 45.085938 125.898438 C 44.867188 124.796875 44.675781 123.6875 44.507812 122.578125 C 44.34375 121.464844 44.207031 120.351562 44.097656 119.230469 C 43.988281 118.113281 43.902344 116.992188 43.847656 115.871094 C 43.792969 114.746094 43.765625 113.625 43.765625 112.5 C 43.765625 111.375 43.792969 110.253906 43.847656 109.128906 C 43.902344 108.007812 43.988281 106.886719 44.097656 105.769531 C 44.207031 104.648438 44.34375 103.535156 44.507812 102.421875 C 44.675781 101.3125 44.867188 100.203125 45.085938 99.101562 C 45.304688 98 45.550781 96.902344 45.824219 95.8125 C 46.097656 94.722656 46.398438 93.640625 46.722656 92.566406 C 47.050781 91.488281 47.402344 90.421875 47.78125 89.363281 C 48.160156 88.304688 48.5625 87.257812 48.992188 86.21875 C 49.425781 85.179688 49.878906 84.152344 50.359375 83.136719 C 50.839844 82.121094 51.34375 81.117188 51.875 80.128906 C 52.40625 79.136719 52.957031 78.160156 53.535156 77.195312 C 54.113281 76.230469 54.714844 75.28125 55.339844 74.347656 C 55.964844 73.414062 56.609375 72.492188 57.28125 71.589844 C 57.949219 70.6875 58.640625 69.800781 59.355469 68.933594 C 60.066406 68.066406 60.800781 67.214844 61.554688 66.382812 C 62.3125 65.546875 63.085938 64.734375 63.878906 63.941406 C 64.675781 63.144531 65.488281 62.371094 66.320312 61.617188 C 67.15625 60.863281 68.003906 60.128906 68.875 59.414062 C 69.742188 58.703125 70.628906 58.011719 71.53125 57.339844 C 72.433594 56.671875 73.351562 56.023438 74.285156 55.398438 C 75.222656 54.777344 76.171875 54.175781 77.132812 53.597656 C 78.097656 53.019531 79.078125 52.464844 80.066406 51.933594 C 81.058594 51.40625 82.0625 50.898438 83.078125 50.417969 C 84.09375 49.9375 85.121094 49.484375 86.160156 49.054688 C 87.199219 48.625 88.246094 48.21875 89.304688 47.839844 C 90.363281 47.460938 91.429688 47.109375 92.503906 46.785156 C 93.582031 46.457031 94.664062 46.15625 95.753906 45.882812 C 96.84375 45.609375 97.941406 45.363281 99.042969 45.144531 C 100.144531 44.925781 101.25 44.734375 102.363281 44.570312 C 103.476562 44.40625 104.589844 44.265625 105.707031 44.15625 C 106.828125 44.046875 107.949219 43.964844 109.070312 43.910156 C 110.191406 43.855469 111.316406 43.828125 112.441406 43.828125 C 113.5625 43.828125 114.6875 43.855469 115.808594 43.910156 C 116.933594 43.964844 118.050781 44.046875 119.171875 44.15625 C 120.289062 44.265625 121.40625 44.40625 122.515625 44.570312 C 123.628906 44.734375 124.734375 44.925781 125.835938 45.144531 C 126.941406 45.363281 128.035156 45.609375 129.125 45.882812 C 130.214844 46.15625 131.300781 46.457031 132.375 46.785156 C 133.449219 47.109375 134.515625 47.460938 135.574219 47.839844 C 136.632812 48.21875 137.683594 48.625 138.71875 49.054688 C 139.757812 49.484375 140.785156 49.9375 141.800781 50.417969 C 142.816406 50.898438 143.820312 51.40625 144.8125 51.933594 C 145.804688 52.464844 146.78125 53.019531 147.746094 53.597656 C 148.710938 54.175781 149.660156 54.777344 150.59375 55.398438 C 151.527344 56.023438 152.445312 56.671875 153.347656 57.339844 C 154.25 58.011719 155.136719 58.703125 156.007812 59.414062 C 156.875 60.128906 157.726562 60.863281 158.558594 61.617188 C 159.390625 62.371094 160.203125 63.144531 161 63.941406 C 161.792969 64.734375 162.570312 65.546875 163.324219 66.382812 C 164.078125 67.214844 164.8125 68.066406 165.527344 68.933594 C 166.238281 69.800781 166.929688 70.6875 167.597656 71.589844 C 168.269531 72.492188 168.914062 73.414062 169.539062 74.347656 C 170.164062 75.28125 170.765625 76.230469 171.34375 77.195312 C 171.921875 78.160156 172.476562 79.136719 173.003906 80.128906 C 173.535156 81.117188 174.039062 82.121094 174.519531 83.136719 C 175 84.152344 175.457031 85.179688 175.886719 86.21875 C 176.316406 87.257812 176.71875 88.304688 177.097656 89.363281 C 177.476562 90.421875 177.832031 91.488281 178.15625 92.566406 C 178.484375 93.640625 178.78125 94.722656 179.054688 95.8125 C 179.328125 96.902344 179.574219 98 179.792969 99.101562 C 180.011719 100.203125 180.207031 101.3125 180.371094 102.421875 C 180.535156 103.535156 180.671875 104.648438 180.78125 105.769531 C 180.894531 106.886719 180.976562 108.007812 181.03125 109.128906 C 181.085938 110.253906 181.113281 111.375 181.113281 112.5 C 181.113281 113.625 181.085938 114.746094 181.027344 115.867188 C 180.972656 116.992188 180.886719 118.109375 180.777344 119.230469 C 180.667969 120.347656 180.527344 121.460938 180.363281 122.574219 C 180.195312 123.683594 180.003906 124.792969 179.785156 125.894531 C 179.5625 126.996094 179.316406 128.089844 179.042969 129.179688 C 178.769531 130.269531 178.46875 131.351562 178.144531 132.429688 C 177.816406 133.503906 177.464844 134.570312 177.082031 135.628906 C 176.703125 136.683594 176.300781 137.734375 175.871094 138.769531 C 175.4375 139.808594 174.984375 140.835938 174.503906 141.851562 C 174.023438 142.867188 173.515625 143.871094 172.988281 144.859375 C 172.457031 145.851562 171.902344 146.828125 171.324219 147.792969 C 170.746094 148.753906 170.144531 149.703125 169.519531 150.636719 C 168.898438 151.574219 168.25 152.492188 167.582031 153.394531 C 166.910156 154.296875 166.21875 155.179688 165.507812 156.050781 C 164.792969 156.917969 164.058594 157.769531 163.304688 158.601562 C 162.550781 159.433594 161.777344 160.246094 160.980469 161.042969 C 160.1875 161.835938 159.375 162.609375 158.539062 163.363281 C 157.707031 164.121094 156.859375 164.855469 155.988281 165.566406 C 155.121094 166.28125 154.234375 166.96875 153.332031 167.640625 C 152.429688 168.308594 151.511719 168.957031 150.578125 169.582031 C 149.644531 170.207031 148.695312 170.808594 147.730469 171.382812 C 146.769531 171.960938 145.792969 172.515625 144.800781 173.046875 C 143.808594 173.578125 142.804688 174.082031 141.789062 174.5625 C 140.773438 175.042969 139.75 175.5 138.710938 175.929688 C 137.671875 176.359375 136.625 176.765625 135.566406 177.144531 C 134.507812 177.523438 133.441406 177.875 132.367188 178.203125 C 131.292969 178.53125 130.210938 178.828125 129.121094 179.101562 C 128.03125 179.378906 126.933594 179.625 125.832031 179.84375 C 124.730469 180.0625 123.625 180.257812 122.511719 180.421875 C 121.402344 180.589844 120.289062 180.726562 119.167969 180.835938 C 118.050781 180.949219 116.929688 181.03125 115.808594 181.089844 C 114.6875 181.144531 113.5625 181.171875 112.441406 181.171875 Z M 112.441406 181.171875 " fill-opacity="1" fill-rule="nonzero"/><path fill="currentColor" d="M 112.441406 59.769531 C 112.851562 59.769531 113.246094 59.691406 113.628906 59.535156 C 114.007812 59.375 114.34375 59.152344 114.632812 58.859375 C 114.925781 58.570312 115.148438 58.234375 115.304688 57.855469 C 115.464844 57.476562 115.542969 57.078125 115.542969 56.667969 L 115.542969 51.890625 C 115.457031 51.554688 115.320312 51.242188 115.132812 50.953125 C 114.945312 50.664062 114.714844 50.414062 114.441406 50.199219 C 114.167969 49.988281 113.867188 49.824219 113.542969 49.710938 C 113.214844 49.597656 112.878906 49.542969 112.53125 49.542969 C 112.1875 49.542969 111.851562 49.597656 111.523438 49.710938 C 111.195312 49.824219 110.898438 49.988281 110.625 50.199219 C 110.351562 50.414062 110.121094 50.664062 109.933594 50.953125 C 109.746094 51.242188 109.609375 51.554688 109.523438 51.890625 L 109.523438 56.824219 C 109.542969 57.203125 109.628906 57.570312 109.78125 57.921875 C 109.9375 58.273438 110.148438 58.582031 110.417969 58.855469 C 110.6875 59.125 110.996094 59.339844 111.34375 59.5 C 111.691406 59.65625 112.058594 59.746094 112.441406 59.769531 Z M 112.441406 59.769531 " fill-opacity="1" fill-rule="nonzero"/><path fill="currentColor" d="M 168.273438 115.601562 L 173.203125 115.601562 C 173.539062 115.519531 173.851562 115.382812 174.140625 115.191406 C 174.429688 115.003906 174.683594 114.773438 174.894531 114.5 C 175.109375 114.230469 175.269531 113.929688 175.382812 113.601562 C 175.496094 113.273438 175.550781 112.9375 175.550781 112.59375 C 175.550781 112.246094 175.496094 111.910156 175.382812 111.585938 C 175.269531 111.257812 175.109375 110.957031 174.894531 110.683594 C 174.683594 110.414062 174.429688 110.183594 174.140625 109.992188 C 173.851562 109.804688 173.539062 109.667969 173.203125 109.585938 L 168.273438 109.585938 C 168.042969 109.527344 167.8125 109.496094 167.574219 109.492188 C 167.339844 109.488281 167.105469 109.507812 166.875 109.558594 C 166.644531 109.605469 166.421875 109.679688 166.210938 109.78125 C 165.996094 109.878906 165.796875 110.003906 165.609375 110.148438 C 165.425781 110.292969 165.257812 110.457031 165.109375 110.640625 C 164.960938 110.824219 164.835938 111.019531 164.730469 111.234375 C 164.628906 111.445312 164.550781 111.664062 164.496094 111.894531 C 164.441406 112.125 164.417969 112.355469 164.417969 112.59375 C 164.417969 112.828125 164.441406 113.0625 164.496094 113.292969 C 164.550781 113.519531 164.628906 113.742188 164.730469 113.953125 C 164.835938 114.164062 164.960938 114.363281 165.109375 114.546875 C 165.257812 114.730469 165.425781 114.894531 165.609375 115.039062 C 165.796875 115.183594 165.996094 115.304688 166.210938 115.40625 C 166.421875 115.503906 166.644531 115.578125 166.875 115.628906 C 167.105469 115.675781 167.339844 115.699219 167.574219 115.695312 C 167.8125 115.691406 168.042969 115.660156 168.273438 115.601562 Z M 168.273438 115.601562 " fill-opacity="1" fill-rule="nonzero"/><path fill="currentColor" d="M 56.761719 109.398438 L 51.832031 109.398438 C 51.496094 109.480469 51.183594 109.617188 50.894531 109.808594 C 50.605469 109.996094 50.351562 110.226562 50.140625 110.5 C 49.925781 110.769531 49.765625 111.070312 49.652344 111.398438 C 49.539062 111.726562 49.484375 112.0625 49.484375 112.40625 C 49.484375 112.753906 49.539062 113.089844 49.652344 113.414062 C 49.765625 113.742188 49.925781 114.042969 50.140625 114.316406 C 50.351562 114.585938 50.605469 114.816406 50.894531 115.007812 C 51.183594 115.195312 51.496094 115.332031 51.832031 115.414062 L 56.761719 115.414062 C 57.097656 115.332031 57.410156 115.195312 57.699219 115.007812 C 57.992188 114.816406 58.242188 114.585938 58.453125 114.316406 C 58.667969 114.042969 58.828125 113.742188 58.941406 113.414062 C 59.054688 113.089844 59.109375 112.753906 59.109375 112.40625 C 59.109375 112.0625 59.054688 111.726562 58.941406 111.398438 C 58.828125 111.070312 58.667969 110.769531 58.453125 110.5 C 58.242188 110.226562 57.992188 109.996094 57.699219 109.808594 C 57.410156 109.617188 57.097656 109.480469 56.761719 109.398438 Z M 56.761719 109.398438 " fill-opacity="1" fill-rule="nonzero"/><path fill="currentColor" d="M 139.613281 75.992188 L 111.042969 109.398438 L 77.761719 109.398438 C 77.425781 109.480469 77.113281 109.617188 76.824219 109.808594 C 76.535156 109.996094 76.285156 110.226562 76.070312 110.5 C 75.859375 110.769531 75.695312 111.070312 75.582031 111.398438 C 75.46875 111.726562 75.414062 112.0625 75.414062 112.40625 C 75.414062 112.753906 75.46875 113.089844 75.582031 113.414062 C 75.695312 113.742188 75.859375 114.042969 76.070312 114.316406 C 76.285156 114.585938 76.535156 114.816406 76.824219 115.007812 C 77.113281 115.195312 77.425781 115.332031 77.761719 115.414062 L 112.441406 115.414062 C 113.363281 115.40625 114.125 115.054688 114.734375 114.359375 L 144.171875 79.777344 C 144.367188 79.640625 144.546875 79.484375 144.707031 79.308594 C 144.867188 79.132812 145.007812 78.941406 145.125 78.734375 C 145.242188 78.527344 145.332031 78.308594 145.398438 78.078125 C 145.464844 77.851562 145.503906 77.617188 145.515625 77.378906 C 145.53125 77.140625 145.515625 76.902344 145.472656 76.667969 C 145.429688 76.433594 145.363281 76.207031 145.269531 75.988281 C 145.175781 75.769531 145.054688 75.5625 144.914062 75.371094 C 144.773438 75.179688 144.609375 75.007812 144.429688 74.851562 C 144.246094 74.699219 144.050781 74.566406 143.839844 74.457031 C 143.625 74.347656 143.40625 74.265625 143.171875 74.207031 C 142.941406 74.148438 142.707031 74.117188 142.46875 74.113281 C 142.230469 74.109375 141.996094 74.132812 141.761719 74.183594 C 141.527344 74.234375 141.304688 74.3125 141.089844 74.414062 C 140.875 74.515625 140.671875 74.640625 140.488281 74.789062 C 140.300781 74.9375 140.132812 75.105469 139.984375 75.292969 C 139.835938 75.480469 139.714844 75.683594 139.613281 75.898438 Z M 139.613281 75.992188 " fill-opacity="1" fill-rule="nonzero"/></svg>