<svg xmlns="http://www.w3.org/2000/svg" xmlns:xlink="http://www.w3.org/1999/xlink" zoomAndPan="magnify" viewBox="0 0 224.87999 225" preserveAspectRatio="xMidYMid meet" version="1.0"><defs><clipPath id="4ffdb5e46a"><path d="M 22.488281 45.375 L 202.390625 45.375 L 202.390625 179.550781 L 22.488281 179.550781 Z M 22.488281 45.375 " clip-rule="nonzero"/></clipPath></defs><g clip-path="url(#4ffdb5e46a)"><path fill="currentColor" d="M 112.324219 45.398438 C 98.519531 45.453125 90.230469 54.191406 90.230469 68.730469 C 90.230469 77.679688 93.019531 83.585938 100.011719 89.429688 C 104.867188 93.488281 104.929688 93.628906 103.335938 96.714844 C 101.0625 101.109375 97.585938 103.085938 89.652344 104.480469 C 80.917969 106.019531 76.441406 109.085938 73.082031 115.832031 C 69.535156 122.960938 63.929688 145.40625 63.621094 153.726562 C 63.386719 160.007812 63.554688 160.476562 66.828125 162.714844 C 68.726562 164.011719 76.738281 167.253906 84.628906 169.917969 C 92.519531 172.582031 101.226562 175.863281 103.980469 177.214844 C 107.132812 178.761719 109.785156 179.527344 112.324219 179.578125 L 112.324219 179.597656 C 112.359375 179.597656 112.398438 179.589844 112.4375 179.589844 C 112.472656 179.589844 112.511719 179.597656 112.550781 179.597656 L 112.550781 179.578125 C 115.085938 179.527344 117.738281 178.761719 120.890625 177.214844 C 123.644531 175.863281 132.355469 172.582031 140.246094 169.917969 C 148.136719 167.253906 156.144531 164.011719 158.042969 162.714844 C 161.316406 160.476562 161.484375 160.007812 161.25 153.726562 C 160.945312 145.40625 155.339844 122.960938 151.789062 115.832031 C 148.429688 109.085938 143.953125 106.019531 135.21875 104.480469 C 127.289062 103.085938 123.808594 101.109375 121.535156 96.714844 C 119.941406 93.628906 120.007812 93.488281 124.859375 89.429688 C 131.851562 83.585938 134.644531 77.679688 134.644531 68.730469 C 134.644531 54.191406 126.355469 45.453125 112.550781 45.398438 C 112.484375 45.394531 112.355469 45.398438 112.324219 45.398438 Z M 62.097656 76.015625 C 61.617188 76.023438 61.265625 76.554688 60.679688 78.007812 C 59.789062 80.210938 59.175781 83.382812 59.039062 86.484375 C 58.832031 91.167969 59.503906 94.441406 61.335938 97.695312 C 62.089844 99.027344 63.519531 100.324219 65.65625 101.609375 C 67.800781 102.898438 71.214844 104.460938 72.257812 104.625 C 72.917969 104.734375 72.917969 104.734375 73.1875 102.902344 C 73.542969 100.484375 73.574219 95.308594 73.253906 92.96875 C 72.960938 90.839844 72.140625 88.457031 70.96875 86.308594 C 69.9375 84.421875 63.242188 76.382812 62.453125 76.085938 C 62.324219 76.039062 62.207031 76.011719 62.097656 76.015625 Z M 162.777344 76.015625 C 162.664062 76.011719 162.546875 76.039062 162.417969 76.085938 C 161.628906 76.382812 154.933594 84.421875 153.902344 86.308594 C 152.730469 88.457031 151.914062 90.839844 151.621094 92.96875 C 151.296875 95.308594 151.332031 100.484375 151.683594 102.902344 C 151.953125 104.734375 151.953125 104.734375 152.617188 104.625 C 153.65625 104.460938 157.070312 102.898438 159.21875 101.609375 C 161.351562 100.324219 162.785156 99.027344 163.535156 97.695312 C 165.371094 94.441406 166.042969 91.167969 165.835938 86.484375 C 165.699219 83.382812 165.082031 80.210938 164.191406 78.007812 C 163.605469 76.554688 163.257812 76.023438 162.777344 76.015625 Z M 38.640625 99.667969 C 38.429688 99.667969 38.253906 99.707031 38.113281 99.792969 C 37.972656 99.882812 37.859375 100.023438 37.777344 100.234375 C 37.734375 100.339844 37.695312 100.460938 37.664062 100.601562 C 37.632812 100.746094 37.609375 100.90625 37.585938 101.089844 C 37.566406 101.273438 37.550781 101.476562 37.535156 101.703125 C 37.523438 101.933594 37.511719 102.183594 37.507812 102.460938 C 37.441406 105.203125 38.066406 108.878906 39.175781 112.28125 C 40.855469 117.417969 42.910156 120.679688 46.210938 123.445312 C 47.566406 124.578125 49.636719 125.398438 52.464844 125.914062 C 55.304688 126.4375 59.625 126.734375 60.8125 126.492188 C 61.574219 126.339844 61.574219 126.339844 61.117188 124.253906 C 60.519531 121.5 58.453125 115.898438 57.15625 113.507812 C 55.972656 111.328125 54.125 109.089844 51.984375 107.246094 C 50.105469 105.625 39.613281 99.667969 38.640625 99.667969 Z M 186.230469 99.667969 C 185.261719 99.667969 174.765625 105.625 172.890625 107.246094 C 170.75 109.089844 168.898438 111.328125 167.71875 113.507812 C 166.417969 115.898438 164.351562 121.5 163.753906 124.253906 C 163.300781 126.339844 163.300781 126.339844 164.058594 126.492188 C 165.25 126.734375 169.570312 126.4375 172.410156 125.914062 C 175.234375 125.398438 177.308594 124.578125 178.660156 123.445312 C 181.960938 120.679688 184.015625 117.417969 185.695312 112.28125 C 186.804688 108.878906 187.429688 105.203125 187.367188 102.460938 C 187.359375 102.183594 187.347656 101.933594 187.335938 101.703125 C 187.324219 101.476562 187.304688 101.273438 187.285156 101.089844 C 187.265625 100.90625 187.238281 100.746094 187.207031 100.601562 C 187.175781 100.460938 187.140625 100.339844 187.097656 100.234375 C 187.011719 100.023438 186.902344 99.882812 186.757812 99.792969 C 186.617188 99.707031 186.445312 99.667969 186.230469 99.667969 Z M 97.683594 117.933594 C 104.136719 117.523438 108.277344 121.808594 112.4375 125.929688 C 116.902344 120.933594 122.039062 117.269531 129.113281 118.140625 C 133.035156 118.875 137.445312 122.929688 140.109375 128.25 C 142.078125 132.171875 148.894531 151.265625 148.449219 151.613281 C 143.683594 155.367188 125.414062 165.582031 112.4375 175.925781 C 99.417969 165.550781 81.230469 155.402344 76.421875 151.613281 C 75.980469 151.265625 82.792969 132.171875 84.761719 128.25 C 87.425781 122.929688 91.839844 118.875 95.757812 118.140625 C 96.386719 118.023438 97.035156 117.953125 97.683594 117.933594 Z M 98.910156 124.425781 C 92.203125 124.402344 86.179688 130.183594 86.179688 137.230469 C 86.179688 141.445312 88.242188 144.984375 96.101562 150.898438 C 102.082031 155.398438 108.027344 162.167969 110.085938 166.390625 C 112.171875 170.667969 112.699219 170.667969 114.785156 166.390625 C 116.84375 162.167969 122.789062 155.398438 128.769531 150.898438 C 136.632812 144.984375 138.691406 141.445312 138.691406 137.230469 C 138.691406 130.183594 132.667969 124.402344 125.960938 124.425781 C 125.269531 124.429688 124.566406 124.492188 123.863281 124.625 C 117.109375 125.734375 115.246094 132.394531 112.4375 137.65625 C 109.617188 132.136719 107.691406 126.203125 101.007812 124.625 C 100.304688 124.492188 99.605469 124.429688 98.910156 124.425781 Z M 23.71875 132.933594 C 23.566406 132.933594 23.457031 132.945312 23.390625 132.96875 C 22.511719 133.285156 22.480469 133.96875 23.253906 136.296875 C 24.207031 139.175781 26.226562 142.765625 28.648438 145.890625 C 32.308594 150.613281 35.664062 153.242188 40.125 154.890625 C 41.957031 155.566406 44.417969 155.648438 47.550781 155.132812 C 50.699219 154.617188 55.308594 153.320312 56.457031 152.625 C 57.1875 152.179688 57.1875 152.179688 55.941406 150.179688 C 54.289062 147.539062 50.054688 142.480469 47.8125 140.472656 C 45.769531 138.648438 43.011719 137.003906 40.097656 135.882812 C 37.699219 134.960938 26.003906 132.886719 23.71875 132.933594 Z M 201.152344 132.933594 C 198.867188 132.886719 187.171875 134.960938 184.773438 135.882812 C 181.859375 137.003906 179.101562 138.648438 177.0625 140.472656 C 174.816406 142.480469 170.582031 147.539062 168.933594 150.179688 C 167.683594 152.179688 167.683594 152.179688 168.417969 152.625 C 169.5625 153.320312 174.171875 154.617188 177.320312 155.132812 C 180.457031 155.648438 182.917969 155.566406 184.746094 154.890625 C 189.210938 153.242188 192.566406 150.613281 196.222656 145.890625 C 198.648438 142.765625 200.664062 139.175781 201.621094 136.296875 C 202.390625 133.96875 202.363281 133.285156 201.480469 132.96875 C 201.417969 132.945312 201.304688 132.933594 201.152344 132.933594 Z M 201.152344 132.933594 " fill-opacity="1" fill-rule="nonzero"/></g></svg>