<svg xmlns="http://www.w3.org/2000/svg" xmlns:xlink="http://www.w3.org/1999/xlink" zoomAndPan="magnify" viewBox="0 0 224.87999 225" preserveAspectRatio="xMidYMid meet" version="1.0"><defs><clipPath id="156c557770"><path d="M 41 111 L 142 111 L 142 202.453125 L 41 202.453125 Z M 41 111 " clip-rule="nonzero"/></clipPath><clipPath id="728d0ea338"><path d="M 109.273438 112.5 L 185.339844 112.5 L 185.339844 200.636719 L 109.273438 200.636719 Z M 109.273438 112.5 " clip-rule="nonzero"/></clipPath><clipPath id="4027b0b847"><path d="M 112 22.546875 L 120 22.546875 L 120 30 L 112 30 Z M 112 22.546875 " clip-rule="nonzero"/></clipPath></defs><path fill="currentColor" d="M 115.605469 38.730469 C 104.003906 38.730469 102.132812 44.199219 102.132812 57.277344 C 102.132812 68.03125 110.179688 75.820312 115.605469 75.820312 C 120.15625 75.820312 129.078125 67.425781 129.078125 57.277344 C 129.078125 44.753906 128.503906 38.730469 115.605469 38.730469 Z M 115.605469 80.578125 C 107.167969 80.578125 97.363281 70.398438 97.363281 57.277344 C 97.363281 47.996094 97.363281 33.976562 115.605469 33.976562 C 133.847656 33.976562 133.847656 45.820312 133.847656 57.277344 C 133.847656 70.136719 122.808594 80.578125 115.605469 80.578125 " fill-opacity="1" fill-rule="nonzero"/><g clip-path="url(#156c557770)"><path fill="currentColor" d="M 62.121094 202.433594 C 55.933594 202.433594 50.632812 201.152344 46.914062 198.496094 C 43.582031 196.117188 39.933594 191.558594 41.46875 183.34375 C 43.035156 174.9375 53.691406 170.003906 64.972656 164.785156 C 74.464844 160.390625 84.28125 155.84375 89.484375 149.183594 C 100.539062 135.042969 97.542969 114.710938 97.511719 114.507812 C 97.308594 113.210938 98.199219 111.996094 99.503906 111.792969 C 100.800781 111.589844 102.023438 112.476562 102.222656 113.777344 C 102.367188 114.6875 105.589844 136.316406 93.246094 152.109375 C 87.335938 159.675781 76.984375 164.46875 66.980469 169.097656 C 56.847656 173.789062 47.277344 178.222656 46.15625 184.214844 C 45.296875 188.835938 46.484375 192.335938 49.6875 194.625 C 58.074219 200.613281 77.617188 197.714844 95.148438 187.886719 C 98.402344 186.058594 101.996094 183.554688 105.800781 180.898438 C 111.828125 176.691406 118.058594 172.34375 123.917969 170.035156 C 131.226562 167.160156 136.945312 168.03125 140.917969 172.617188 C 141.777344 173.613281 141.667969 175.113281 140.671875 175.972656 C 139.671875 176.832031 138.167969 176.722656 137.308594 175.726562 C 131.792969 169.355469 121.902344 175.46875 108.535156 184.796875 C 104.632812 187.519531 100.945312 190.09375 97.488281 192.03125 C 85.367188 198.828125 72.496094 202.433594 62.121094 202.433594 " fill-opacity="1" fill-rule="nonzero"/></g><g clip-path="url(#728d0ea338)"><path fill="currentColor" d="M 155.242188 200.449219 C 140.238281 200.449219 122.742188 196.550781 110.742188 189.40625 C 109.609375 188.730469 109.242188 187.269531 109.917969 186.140625 C 110.59375 185.015625 112.058594 184.644531 113.1875 185.320312 C 121.964844 190.546875 134.953125 194.308594 147.929688 195.382812 C 160.628906 196.433594 171.46875 194.820312 176.929688 191.074219 C 179.835938 189.074219 180.988281 186.628906 180.453125 183.589844 C 179.429688 177.738281 170.652344 173.421875 161.359375 168.851562 C 152.132812 164.3125 142.589844 159.621094 137.132812 152.199219 C 125.78125 136.769531 128.742188 115.660156 128.875 114.769531 C 129.066406 113.472656 130.273438 112.570312 131.582031 112.761719 C 132.882812 112.957031 133.785156 114.164062 133.59375 115.460938 C 133.566406 115.660156 130.804688 135.554688 140.976562 149.386719 C 145.746094 155.871094 154.753906 160.300781 163.46875 164.585938 C 173.875 169.703125 183.710938 174.539062 185.15625 182.765625 C 186.019531 187.691406 184.109375 191.917969 179.632812 194.992188 C 174.242188 198.695312 165.300781 200.449219 155.242188 200.449219 " fill-opacity="1" fill-rule="nonzero"/></g><path fill="currentColor" d="M 58.839844 157.019531 C 58.347656 157.019531 57.851562 157 57.347656 156.957031 C 51.949219 156.492188 48.636719 153.597656 48.5 153.476562 C 47.515625 152.601562 47.429688 151.097656 48.304688 150.117188 C 49.179688 149.136719 50.6875 149.050781 51.671875 149.921875 C 52.046875 150.246094 61.378906 157.964844 74.488281 143.394531 C 83.496094 133.378906 81.675781 122.925781 79.914062 112.816406 C 78.9375 107.230469 78.019531 101.957031 79.253906 97.347656 C 80.523438 92.609375 84.113281 89.132812 89.640625 87.300781 C 93.550781 86.003906 97.109375 85.988281 97.296875 85.988281 C 98.613281 85.988281 99.679688 87.054688 99.679688 88.367188 C 99.679688 89.679688 98.613281 90.742188 97.296875 90.742188 C 97.183594 90.746094 85.925781 90.871094 83.863281 98.574219 C 82.898438 102.175781 83.730469 106.945312 84.613281 112 C 86.386719 122.175781 88.59375 134.835938 78.039062 146.570312 C 73.671875 151.425781 66.890625 157.019531 58.839844 157.019531 " fill-opacity="1" fill-rule="nonzero"/><path fill="currentColor" d="M 169.917969 157.019531 C 161.867188 157.019531 155.085938 151.425781 150.71875 146.570312 C 140.164062 134.835938 142.371094 122.175781 144.144531 112 C 145.027344 106.945312 145.859375 102.175781 144.894531 98.574219 C 142.820312 90.828125 131.59375 90.742188 131.464844 90.742188 C 131.464844 90.742188 131.460938 90.742188 131.460938 90.742188 C 130.144531 90.742188 129.078125 89.683594 129.078125 88.367188 C 129.078125 87.054688 130.144531 85.988281 131.460938 85.988281 C 131.617188 85.996094 135.183594 86 139.117188 87.300781 C 144.644531 89.132812 148.234375 92.609375 149.503906 97.347656 C 150.738281 101.957031 149.820312 107.230469 148.84375 112.816406 C 147.082031 122.925781 145.261719 133.378906 154.269531 143.394531 C 167.378906 157.964844 176.710938 150.246094 177.101562 149.910156 C 178.09375 149.054688 179.597656 149.15625 180.460938 150.136719 C 181.324219 151.121094 181.238281 152.605469 180.257812 153.476562 C 180.121094 153.597656 176.804688 156.492188 171.410156 156.957031 C 170.90625 157 170.410156 157.019531 169.917969 157.019531 " fill-opacity="1" fill-rule="nonzero"/><path fill="currentColor" d="M 118.820312 164.523438 C 118.820312 166.410156 117.285156 167.941406 115.394531 167.941406 C 113.5 167.941406 111.964844 166.410156 111.964844 164.523438 C 111.964844 162.636719 113.5 161.105469 115.394531 161.105469 C 117.285156 161.105469 118.820312 162.636719 118.820312 164.523438 " fill-opacity="1" fill-rule="nonzero"/><path fill="currentColor" d="M 118.820312 145.589844 C 118.820312 147.476562 117.285156 149.007812 115.394531 149.007812 C 113.5 149.007812 111.964844 147.476562 111.964844 145.589844 C 111.964844 143.699219 113.5 142.171875 115.394531 142.171875 C 117.285156 142.171875 118.820312 143.699219 118.820312 145.589844 " fill-opacity="1" fill-rule="nonzero"/><path fill="#3f3f3e" d="M 118.820312 126.652344 C 118.820312 128.539062 117.285156 130.074219 115.394531 130.074219 C 113.5 130.074219 111.964844 128.539062 111.964844 126.652344 C 111.964844 124.765625 113.5 123.234375 115.394531 123.234375 C 117.285156 123.234375 118.820312 124.765625 118.820312 126.652344 " fill-opacity="1" fill-rule="nonzero"/><path fill="#3f3f3e" d="M 118.820312 107.71875 C 118.820312 109.605469 117.285156 111.136719 115.394531 111.136719 C 113.5 111.136719 111.964844 109.605469 111.964844 107.71875 C 111.964844 105.832031 113.5 104.300781 115.394531 104.300781 C 117.285156 104.300781 118.820312 105.832031 118.820312 107.71875 " fill-opacity="1" fill-rule="nonzero"/><path fill="#3f3f3e" d="M 118.820312 88.78125 C 118.820312 90.671875 117.285156 92.203125 115.394531 92.203125 C 113.5 92.203125 111.964844 90.671875 111.964844 88.78125 C 111.964844 86.894531 113.5 85.363281 115.394531 85.363281 C 117.285156 85.363281 118.820312 86.894531 118.820312 88.78125 " fill-opacity="1" fill-rule="nonzero"/><path fill="#3f3f3e" d="M 119.03125 50.070312 C 119.03125 51.960938 117.5 53.488281 115.605469 53.488281 C 113.710938 53.488281 112.179688 51.960938 112.179688 50.070312 C 112.179688 48.183594 113.710938 46.652344 115.605469 46.652344 C 117.5 46.652344 119.03125 48.183594 119.03125 50.070312 " fill-opacity="1" fill-rule="nonzero"/><g clip-path="url(#4027b0b847)"><path fill="#3f3f3e" d="M 119.03125 25.984375 C 119.03125 27.871094 117.5 29.402344 115.605469 29.402344 C 113.710938 29.402344 112.179688 27.871094 112.179688 25.984375 C 112.179688 24.09375 113.710938 22.566406 115.605469 22.566406 C 117.5 22.566406 119.03125 24.09375 119.03125 25.984375 " fill-opacity="1" fill-rule="nonzero"/></g></svg>