<svg xmlns="http://www.w3.org/2000/svg" xmlns:xlink="http://www.w3.org/1999/xlink" zoomAndPan="magnify" viewBox="0 0 224.87999 225"  preserveAspectRatio="xMidYMid meet" version="1.0"><defs><clipPath id="74ed4af732"><path d="M 22.488281 38.964844 L 202.390625 38.964844 L 202.390625 185.886719 L 22.488281 185.886719 Z M 22.488281 38.964844 " clip-rule="nonzero"/></clipPath></defs><path fill="currentColor" d="M 104.964844 125.957031 C 94.859375 125.957031 86.632812 117.746094 86.632812 107.644531 C 86.632812 97.539062 94.859375 89.339844 104.964844 89.339844 C 115.066406 89.339844 123.292969 97.550781 123.292969 107.652344 C 123.292969 117.753906 115.066406 125.957031 104.964844 125.957031 Z M 104.964844 95.765625 C 98.402344 95.765625 93.066406 101.097656 93.066406 107.652344 C 93.066406 114.207031 98.402344 119.539062 104.964844 119.539062 C 111.523438 119.539062 116.859375 114.207031 116.859375 107.652344 C 116.859375 101.097656 111.523438 95.765625 104.964844 95.765625 Z M 104.964844 95.765625 " fill-opacity="1" fill-rule="nonzero"/><path fill="currentColor" d="M 133.121094 157.359375 L 76.804688 157.359375 C 75.027344 157.359375 73.59375 155.925781 73.59375 154.152344 L 73.59375 147.378906 C 73.59375 137.769531 81.417969 129.953125 91.035156 129.953125 L 118.902344 129.953125 C 128.519531 129.953125 136.34375 137.769531 136.34375 147.378906 L 136.34375 154.152344 C 136.34375 155.925781 134.898438 157.359375 133.121094 157.359375 Z M 80.015625 150.933594 L 129.910156 150.933594 L 129.910156 147.367188 C 129.910156 141.296875 124.96875 136.359375 118.890625 136.359375 L 91.035156 136.359375 C 84.957031 136.359375 80.015625 141.296875 80.015625 147.367188 Z M 80.015625 150.933594 " fill-opacity="1" fill-rule="nonzero"/><g clip-path="url(#74ed4af732)"><path fill="currentColor" d="M 202.359375 67.78125 C 202.359375 51.890625 185.21875 38.964844 164.152344 38.964844 C 143.085938 38.964844 125.957031 51.890625 125.957031 67.78125 C 125.957031 70.890625 126.644531 73.933594 127.898438 76.832031 L 39.246094 76.832031 C 35.257812 76.832031 32 80.308594 32 84.585938 L 32 161.375 L 29.5 161.375 C 25.65625 161.375 22.527344 164.335938 22.527344 167.984375 C 22.527344 177.867188 31.285156 185.921875 42.039062 185.921875 L 167.414062 185.921875 C 178.175781 185.921875 186.921875 177.875 186.921875 167.984375 C 186.921875 164.347656 183.792969 161.375 179.941406 161.375 L 177.449219 161.375 L 177.449219 94.769531 C 191.972656 90.683594 202.359375 80.140625 202.359375 67.78125 Z M 164.152344 45.390625 C 181.667969 45.390625 195.925781 55.4375 195.925781 67.789062 C 195.925781 80.140625 181.679688 90.191406 164.152344 90.191406 C 160.421875 90.191406 156.761719 89.734375 153.273438 88.828125 C 151.671875 88.40625 150.527344 89.175781 149.199219 90.070312 C 147.378906 91.304688 144.039062 93.5625 138.246094 95.089844 C 140.835938 90.042969 142.109375 84.164062 139.417969 81.804688 C 134.816406 77.773438 132.378906 72.929688 132.378906 67.800781 C 132.390625 55.4375 146.636719 45.390625 164.152344 45.390625 Z M 179.949219 167.800781 C 180.289062 167.800781 180.472656 167.964844 180.5 167.984375 C 180.5 174.328125 174.632812 179.496094 167.414062 179.496094 L 42.039062 179.496094 C 34.828125 179.496094 28.953125 174.328125 28.941406 168.03125 C 28.96875 167.976562 29.164062 167.8125 29.5 167.8125 L 79.421875 167.785156 C 81.628906 169.171875 84.902344 170.828125 88.023438 170.828125 L 121.4375 170.828125 C 125.050781 170.828125 128.363281 169.710938 130.320312 167.902344 Z M 171.027344 161.394531 L 130.339844 161.464844 C 128.773438 161.476562 127.320312 162.015625 126.238281 162.984375 C 125.515625 163.632812 123.824219 164.390625 121.445312 164.390625 L 88.023438 164.390625 C 86.84375 164.390625 84.859375 163.605469 82.863281 162.34375 C 81.867188 161.710938 80.710938 161.375 79.539062 161.375 L 38.433594 161.375 L 38.433594 84.585938 C 38.433594 83.773438 38.917969 83.261719 39.246094 83.261719 L 131.921875 83.261719 C 132.726562 84.21875 133.578125 85.152344 134.539062 86.039062 C 134.441406 87.75 133.066406 92.503906 129.902344 96.179688 C 128.839844 97.402344 128.65625 99.113281 129.414062 100.53125 C 130.101562 101.820312 131.417969 102.585938 132.867188 102.585938 C 133.039062 102.585938 133.214844 102.578125 133.386719 102.558594 C 144.3125 101.144531 150.28125 97.109375 152.824219 95.390625 C 152.84375 95.375 152.871094 95.363281 152.890625 95.347656 C 156.53125 96.1875 160.320312 96.617188 164.164062 96.617188 C 166.515625 96.617188 168.804688 96.433594 171.035156 96.125 L 171.035156 161.394531 Z M 171.027344 161.394531 " fill-opacity="1" fill-rule="nonzero"/></g><path fill="currentColor" d="M 162.011719 64.664062 L 145.871094 64.664062 C 144.09375 64.664062 142.65625 63.230469 142.65625 61.453125 C 142.65625 59.679688 144.09375 58.246094 145.871094 58.246094 L 162.011719 58.246094 C 163.789062 58.246094 165.226562 59.679688 165.226562 61.453125 C 165.226562 63.230469 163.789062 64.664062 162.011719 64.664062 Z M 162.011719 64.664062 " fill-opacity="1" fill-rule="nonzero"/><path fill="currentColor" d="M 181.386719 76.742188 L 145.871094 76.742188 C 144.09375 76.742188 142.65625 75.304688 142.65625 73.53125 C 142.65625 71.757812 144.09375 70.324219 145.871094 70.324219 L 181.386719 70.324219 C 183.160156 70.324219 184.597656 71.757812 184.597656 73.53125 C 184.609375 75.304688 183.160156 76.742188 181.386719 76.742188 Z M 181.386719 76.742188 " fill-opacity="1" fill-rule="nonzero"/></svg>