<svg xmlns="http://www.w3.org/2000/svg" xmlns:xlink="http://www.w3.org/1999/xlink" zoomAndPan="magnify" viewBox="0 0 224.87999 225" preserveAspectRatio="xMidYMid meet" version="1.0"><defs><clipPath id="060f8a8bc8"><path d="M 22.488281 30 L 202.390625 30 L 202.390625 195 L 22.488281 195 Z M 22.488281 30 " clip-rule="nonzero"/></clipPath></defs><g clip-path="url(#060f8a8bc8)"><path fill="currentColor" d="M 170.8125 151.050781 C 170.433594 150.929688 161.558594 147.972656 158.421875 140.152344 C 157.753906 138.492188 157.570312 137.171875 157.394531 135.894531 C 157.128906 134.011719 156.878906 132.230469 155.238281 129.699219 C 153.355469 126.792969 151.089844 125.128906 149.902344 124.394531 C 148.664062 123.625 147.34375 123.027344 145.957031 122.605469 L 202.542969 113.59375 L 144.699219 104.382812 C 144.621094 104.070312 144.542969 103.757812 144.457031 103.453125 C 144.742188 101.699219 145.625 98.59375 148.347656 96.601562 C 150.964844 94.6875 154.042969 94.707031 155.324219 94.710938 C 156.667969 94.71875 157.4375 94.921875 158.332031 95.15625 C 159.253906 95.398438 160.296875 95.675781 162.105469 95.753906 C 163.117188 95.796875 165.796875 95.910156 168.457031 95.074219 C 172.777344 93.71875 175.195312 90.476562 176.800781 88.332031 C 180.816406 82.964844 181.90625 77.027344 182.113281 72.992188 L 182.324219 68.957031 L 180.984375 72.769531 C 179.761719 76.257812 177.722656 79.3125 175.085938 81.601562 C 174.789062 81.863281 167.675781 87.941406 159.363281 86.609375 C 157.601562 86.324219 156.375 85.804688 155.1875 85.300781 C 153.433594 84.558594 151.769531 83.851562 148.761719 83.953125 C 145.3125 84.070312 142.710938 85.15625 141.46875 85.796875 C 139.882812 86.613281 138.453125 87.660156 137.203125 88.933594 L 157.574219 35.683594 L 121.238281 80.410156 C 120.785156 80.285156 120.324219 80.167969 119.863281 80.066406 C 118.542969 79.203125 115.628906 76.910156 115.007812 73.167969 C 114.472656 69.96875 115.863281 67.25 116.453125 66.089844 C 117.0625 64.894531 117.59375 64.296875 118.203125 63.605469 C 118.835938 62.890625 119.550781 62.082031 120.433594 60.503906 C 120.925781 59.621094 122.234375 57.28125 122.683594 54.519531 C 123.414062 50.054688 121.609375 46.433594 120.414062 44.035156 C 117.425781 38.039062 112.613281 34.390625 109.101562 32.390625 L 105.589844 30.390625 L 108.394531 33.300781 C 110.960938 35.960938 112.769531 39.15625 113.632812 42.542969 C 113.730469 42.925781 115.96875 52.003906 111.03125 58.835938 C 109.984375 60.28125 108.96875 61.144531 107.984375 61.980469 C 106.53125 63.210938 105.160156 64.371094 103.894531 67.113281 C 102.445312 70.25 102.25 73.058594 102.261719 74.457031 C 102.273438 76.140625 102.539062 77.796875 103.050781 79.398438 L 67.539062 35.675781 L 88.269531 89.863281 C 88.019531 90.128906 87.773438 90.402344 87.535156 90.675781 C 85.976562 91.34375 83.628906 91.96875 81.109375 91.304688 C 77.976562 90.480469 76.0625 88.105469 75.242188 87.085938 C 74.402344 86.042969 74.074219 85.3125 73.691406 84.46875 C 73.296875 83.601562 72.851562 82.617188 71.769531 81.164062 C 71.167969 80.351562 69.5625 78.203125 67.234375 76.667969 C 63.457031 74.175781 59.417969 74.339844 56.738281 74.445312 C 50.042969 74.71875 44.746094 77.617188 41.484375 80.003906 L 38.222656 82.386719 L 42.027344 81.019531 C 45.503906 79.769531 49.15625 79.425781 52.597656 80.023438 C 52.988281 80.089844 62.1875 81.757812 66.402344 89.0625 C 67.296875 90.609375 67.667969 91.890625 68.023438 93.132812 C 68.554688 94.960938 69.050781 96.6875 71.035156 98.964844 C 73.296875 101.566406 75.785156 102.898438 77.0625 103.460938 C 78.027344 103.882812 79.007812 104.207031 80.039062 104.4375 L 22.570312 113.59375 L 80.464844 122.8125 C 80.316406 124.730469 79.660156 127.789062 77.144531 129.960938 C 74.699219 132.082031 71.652344 132.320312 70.351562 132.421875 C 69.019531 132.519531 68.230469 132.386719 67.320312 132.226562 C 66.378906 132.058594 65.3125 131.867188 63.511719 131.941406 C 62.5 131.984375 59.820312 132.089844 57.230469 133.144531 C 53.039062 134.851562 50.890625 138.28125 49.472656 140.550781 C 45.914062 146.230469 45.316406 152.238281 45.441406 156.277344 L 45.566406 160.320312 L 46.585938 156.402344 C 47.515625 152.835938 49.296875 149.621094 51.734375 147.117188 C 52.007812 146.835938 58.574219 140.183594 66.992188 140.835938 C 68.773438 140.972656 70.039062 141.390625 71.261719 141.796875 C 73.066406 142.390625 74.777344 142.953125 77.773438 142.605469 C 81.207031 142.203125 83.707031 140.910156 84.890625 140.167969 C 86.117188 139.40625 87.230469 138.496094 88.21875 137.445312 L 67.535156 191.507812 L 105.503906 144.769531 C 105.542969 144.777344 105.578125 144.789062 105.617188 144.800781 C 107.027344 146.113281 108.714844 148.257812 108.996094 151.15625 C 109.3125 154.382812 107.742188 157.003906 107.074219 158.125 C 106.386719 159.277344 105.816406 159.835938 105.160156 160.488281 C 104.484375 161.15625 103.710938 161.914062 102.726562 163.441406 C 102.175781 164.285156 100.714844 166.535156 100.082031 169.25 C 99.054688 173.660156 100.613281 177.390625 101.640625 179.863281 C 104.21875 186.046875 108.777344 190.007812 112.148438 192.242188 L 115.519531 194.480469 L 112.914062 191.382812 C 110.535156 188.554688 108.941406 185.246094 108.304688 181.8125 C 108.234375 181.421875 106.609375 172.210938 111.996094 165.730469 C 113.136719 164.355469 114.210938 163.5625 115.25 162.796875 C 116.78125 161.667969 118.226562 160.601562 119.671875 157.953125 C 121.332031 154.914062 121.714844 152.125 121.796875 150.734375 C 121.867188 149.578125 121.816406 148.421875 121.640625 147.273438 L 157.570312 191.511719 L 136.34375 136.03125 C 138.125 135.320312 141.140625 134.578125 144.175781 135.859375 C 147.164062 137.117188 148.722656 139.746094 149.390625 140.867188 C 150.074219 142.019531 150.296875 142.785156 150.554688 143.671875 C 150.824219 144.589844 151.121094 145.628906 151.984375 147.214844 C 152.46875 148.101562 153.746094 150.457031 155.84375 152.3125 C 159.226562 155.308594 163.25 155.71875 165.921875 155.992188 C 172.597656 156.664062 178.242188 154.542969 181.808594 152.644531 L 185.371094 150.746094 L 181.417969 151.5625 C 177.800781 152.304688 174.132812 152.132812 170.8125 151.050781 Z M 195.144531 113.59375 L 143.664062 121.792969 C 143.820312 121.273438 143.9375 120.738281 144.070312 120.207031 L 147.292969 120.835938 C 147.3125 120.839844 147.328125 120.84375 147.347656 120.84375 C 147.484375 120.84375 147.605469 120.746094 147.632812 120.605469 C 147.664062 120.449219 147.5625 120.296875 147.402344 120.265625 L 144.214844 119.640625 C 144.269531 119.402344 144.347656 119.175781 144.398438 118.9375 C 144.417969 118.945312 144.425781 118.964844 144.449219 118.96875 L 149.105469 119.703125 C 149.121094 119.707031 149.136719 119.707031 149.152344 119.707031 C 149.292969 119.707031 149.417969 119.605469 149.441406 119.460938 C 149.464844 119.304688 149.355469 119.15625 149.199219 119.128906 L 144.542969 118.394531 C 144.519531 118.390625 144.507812 118.40625 144.488281 118.40625 C 144.546875 118.101562 144.582031 117.789062 144.628906 117.480469 L 151.46875 118.050781 C 151.476562 118.050781 151.484375 118.050781 151.492188 118.050781 C 151.640625 118.050781 151.769531 117.933594 151.785156 117.785156 C 151.796875 117.625 151.679688 117.480469 151.519531 117.46875 L 144.71875 116.902344 C 144.761719 116.613281 144.816406 116.332031 144.851562 116.042969 L 149.371094 116.292969 C 149.378906 116.292969 149.382812 116.292969 149.390625 116.292969 C 149.542969 116.292969 149.671875 116.171875 149.679688 116.019531 C 149.6875 115.863281 149.566406 115.722656 149.40625 115.710938 L 144.921875 115.460938 C 144.949219 115.136719 144.949219 114.808594 144.96875 114.484375 L 158.476562 114.324219 C 158.636719 114.324219 158.765625 114.191406 158.761719 114.03125 C 158.761719 113.871094 158.628906 113.742188 158.472656 113.742188 C 158.472656 113.742188 158.46875 113.742188 158.46875 113.742188 L 145 113.902344 C 145.023438 113.421875 145.070312 112.949219 145.074219 112.460938 C 145.117188 112.488281 145.164062 112.519531 145.21875 112.519531 C 145.222656 112.519531 145.226562 112.519531 145.230469 112.519531 L 149.941406 112.328125 C 150.101562 112.320312 150.230469 112.183594 150.222656 112.023438 C 150.214844 111.867188 150.074219 111.738281 149.917969 111.746094 L 145.210938 111.9375 C 145.152344 111.941406 145.109375 111.976562 145.0625 112.003906 C 145.058594 111.6875 145.027344 111.378906 145.011719 111.0625 C 145.027344 111.066406 145.035156 111.078125 145.050781 111.078125 C 145.058594 111.078125 145.0625 111.078125 145.070312 111.078125 L 152.082031 110.605469 C 152.242188 110.59375 152.363281 110.457031 152.351562 110.292969 C 152.34375 110.132812 152.222656 110.011719 152.042969 110.023438 L 145.03125 110.496094 C 145.011719 110.496094 145 110.515625 144.984375 110.519531 C 144.96875 110.183594 144.960938 109.847656 144.933594 109.515625 C 144.980469 109.542969 145.023438 109.570312 145.078125 109.570312 C 145.09375 109.570312 145.105469 109.570312 145.121094 109.570312 L 149.789062 108.90625 C 149.949219 108.886719 150.058594 108.738281 150.035156 108.578125 C 150.011719 108.417969 149.867188 108.304688 149.707031 108.332031 L 145.039062 108.992188 C 144.988281 109 144.949219 109.039062 144.914062 109.066406 C 144.886719 108.816406 144.835938 108.574219 144.804688 108.320312 L 148.011719 107.742188 C 148.171875 107.714844 148.277344 107.566406 148.25 107.40625 C 148.21875 107.25 148.066406 107.132812 147.910156 107.171875 L 144.71875 107.746094 C 144.609375 106.992188 144.503906 106.238281 144.34375 105.503906 Z M 128.320312 139.390625 C 128.246094 139.367188 128.164062 139.371094 128.09375 139.40625 C 128.015625 139.453125 127.972656 139.527344 127.957031 139.609375 C 125.363281 141.078125 122.542969 142.183594 119.5625 142.867188 L 119.058594 142.242188 L 119.273438 142.9375 C 117.105469 143.414062 114.863281 143.683594 112.554688 143.683594 C 95.265625 143.683594 81.199219 129.613281 81.199219 112.324219 C 81.199219 95.035156 95.265625 80.964844 112.554688 80.964844 C 129.847656 80.964844 143.914062 95.03125 143.914062 112.324219 C 143.914062 123.863281 137.628906 133.941406 128.320312 139.390625 Z M 142.003906 86.824219 C 143.160156 86.230469 145.582031 85.21875 148.800781 85.113281 C 151.566406 85.011719 153.03125 85.644531 154.734375 86.363281 C 155.984375 86.898438 157.277344 87.445312 159.183594 87.753906 C 167.871094 89.15625 175.0625 83.164062 175.855469 82.476562 C 177.722656 80.851562 179.304688 78.867188 180.535156 76.632812 C 179.933594 80.007812 178.617188 83.964844 175.871094 87.632812 C 174.359375 89.660156 172.070312 92.71875 168.113281 93.964844 C 165.644531 94.738281 163.109375 94.632812 162.15625 94.589844 C 160.476562 94.519531 159.539062 94.269531 158.632812 94.03125 C 157.703125 93.785156 156.824219 93.554688 155.332031 93.546875 C 154.035156 93.535156 150.585938 93.523438 147.667969 95.664062 C 145.042969 97.582031 143.957031 100.367188 143.5 102.347656 C 142.402344 98.953125 140.742188 95.8125 138.65625 93.007812 L 137.367188 90.46875 C 138.679688 88.957031 140.238281 87.730469 142.003906 86.824219 Z M 135.726562 89.539062 C 135.265625 89.070312 134.777344 88.632812 134.285156 88.195312 C 134.347656 88.179688 134.410156 88.167969 134.453125 88.113281 L 136.496094 85.480469 C 136.59375 85.351562 136.570312 85.171875 136.445312 85.074219 C 136.3125 84.972656 136.132812 84.996094 136.035156 85.125 L 133.992188 87.757812 C 133.964844 87.796875 133.964844 87.847656 133.957031 87.894531 C 133.734375 87.699219 133.527344 87.484375 133.296875 87.296875 C 133.300781 87.296875 133.308594 87.300781 133.316406 87.300781 C 133.40625 87.300781 133.496094 87.257812 133.554688 87.179688 L 136.304688 83.347656 C 136.398438 83.21875 136.367188 83.035156 136.238281 82.945312 C 136.105469 82.851562 135.925781 82.878906 135.832031 83.011719 L 133.082031 86.84375 C 133.023438 86.921875 133.027344 87.019531 133.0625 87.109375 C 132.792969 86.890625 132.5 86.691406 132.226562 86.480469 L 135.886719 80.496094 C 135.972656 80.359375 135.929688 80.179688 135.792969 80.09375 C 135.652344 80.007812 135.476562 80.050781 135.390625 80.191406 L 131.753906 86.128906 C 131.519531 85.957031 131.292969 85.773438 131.054688 85.605469 L 133.375 81.578125 C 133.457031 81.441406 133.410156 81.261719 133.269531 81.183594 C 133.132812 81.101562 132.953125 81.148438 132.871094 81.289062 L 130.578125 85.269531 C 130.136719 84.976562 129.671875 84.714844 129.21875 84.441406 L 136.503906 72.699219 C 136.589844 72.5625 136.546875 72.382812 136.410156 72.296875 C 136.273438 72.214844 136.09375 72.253906 136.007812 72.394531 L 128.71875 84.140625 C 128.464844 83.992188 128.222656 83.832031 127.964844 83.691406 L 130.203125 79.808594 C 130.285156 79.667969 130.238281 79.492188 130.097656 79.410156 C 129.960938 79.328125 129.78125 79.378906 129.699219 79.519531 L 127.4375 83.441406 C 127.179688 83.304688 126.910156 83.1875 126.648438 83.058594 L 129.894531 77.082031 C 129.96875 76.9375 129.917969 76.761719 129.777344 76.6875 C 129.632812 76.609375 129.457031 76.664062 129.382812 76.804688 L 126.128906 82.808594 C 125.847656 82.679688 125.582031 82.53125 125.296875 82.410156 L 127.234375 78.113281 C 127.300781 77.964844 127.234375 77.792969 127.089844 77.726562 C 126.9375 77.660156 126.769531 77.726562 126.703125 77.875 L 124.765625 82.171875 C 124.761719 82.183594 124.769531 82.195312 124.765625 82.203125 C 124.542969 82.117188 124.316406 82.042969 124.09375 81.960938 L 125.300781 78.996094 C 125.363281 78.84375 125.289062 78.675781 125.144531 78.613281 C 124.992188 78.554688 124.824219 78.625 124.761719 78.773438 L 123.542969 81.753906 C 123.050781 81.574219 122.574219 81.382812 122.074219 81.230469 L 153.886719 42.066406 Z M 104.949219 67.597656 C 106.109375 65.089844 107.328125 64.058594 108.734375 62.863281 C 109.773438 61.984375 110.847656 61.074219 111.972656 59.515625 C 117.140625 52.367188 115.015625 43.265625 114.757812 42.25 C 114.144531 39.851562 113.085938 37.546875 111.644531 35.445312 C 114.386719 37.496094 117.328125 40.453125 119.375 44.554688 C 120.5 46.816406 122.203125 50.234375 121.535156 54.332031 C 121.117188 56.890625 119.882812 59.101562 119.417969 59.933594 C 118.597656 61.402344 117.957031 62.128906 117.332031 62.832031 C 116.695312 63.550781 116.09375 64.230469 115.417969 65.554688 C 114.828125 66.714844 113.261719 69.777344 113.855469 73.359375 C 114.425781 76.78125 116.667969 79.082031 118.265625 80.335938 C 116.40625 80.007812 114.507812 79.804688 112.554688 79.804688 C 110.910156 79.804688 109.304688 79.96875 107.726562 80.203125 L 104.585938 80.222656 C 103.828125 78.371094 103.433594 76.429688 103.421875 74.445312 C 103.414062 73.144531 103.597656 70.527344 104.949219 67.597656 Z M 71.226562 42.066406 L 103.039062 81.230469 C 102.3125 81.453125 101.605469 81.722656 100.902344 81.996094 L 99.6875 79.011719 C 99.625 78.863281 99.457031 78.789062 99.308594 78.851562 C 99.160156 78.914062 99.089844 79.082031 99.148438 79.230469 L 100.355469 82.195312 C 100.128906 82.289062 99.90625 82.375 99.683594 82.46875 C 99.679688 82.449219 99.6875 82.433594 99.679688 82.414062 L 97.746094 78.113281 C 97.679688 77.96875 97.507812 77.902344 97.359375 77.96875 C 97.214844 78.03125 97.148438 78.207031 97.214844 78.351562 L 99.152344 82.652344 C 99.164062 82.679688 99.199219 82.671875 99.214844 82.695312 C 98.925781 82.828125 98.640625 82.972656 98.351562 83.113281 L 95.0625 77.046875 C 94.984375 76.90625 94.808594 76.851562 94.667969 76.929688 C 94.527344 77.007812 94.476562 77.183594 94.550781 77.324219 L 97.828125 83.363281 C 97.570312 83.496094 97.296875 83.605469 97.042969 83.746094 L 94.746094 79.765625 C 94.667969 79.625 94.484375 79.574219 94.347656 79.65625 C 94.210938 79.738281 94.164062 79.914062 94.242188 80.054688 L 96.546875 84.050781 C 96.160156 84.269531 95.789062 84.503906 95.414062 84.738281 L 88.671875 73.113281 C 88.589844 72.972656 88.410156 72.925781 88.273438 73.007812 C 88.136719 73.085938 88.089844 73.265625 88.171875 73.402344 L 94.917969 85.039062 C 94.703125 85.179688 94.480469 85.304688 94.273438 85.449219 C 94.265625 85.410156 94.273438 85.367188 94.25 85.332031 L 91.617188 81.417969 C 91.527344 81.285156 91.34375 81.25 91.214844 81.339844 C 91.082031 81.429688 91.046875 81.609375 91.136719 81.742188 L 93.769531 85.65625 C 93.796875 85.703125 93.855469 85.703125 93.898438 85.726562 C 93.632812 85.914062 93.375 86.117188 93.117188 86.3125 L 88.796875 80.816406 C 88.695312 80.691406 88.511719 80.667969 88.390625 80.769531 C 88.261719 80.867188 88.242188 81.050781 88.339844 81.175781 L 92.652344 86.660156 C 92.421875 86.835938 92.179688 87 91.953125 87.183594 C 91.953125 87.179688 91.953125 87.175781 91.953125 87.175781 L 88.941406 83.546875 C 88.839844 83.421875 88.652344 83.40625 88.535156 83.507812 C 88.410156 83.609375 88.390625 83.792969 88.492188 83.917969 L 91.503906 87.546875 C 91.511719 87.554688 91.523438 87.550781 91.527344 87.558594 C 91.265625 87.78125 91.019531 88.023438 90.761719 88.253906 L 88.949219 85.902344 C 88.847656 85.777344 88.664062 85.753906 88.539062 85.851562 C 88.414062 85.949219 88.390625 86.132812 88.488281 86.261719 L 90.332031 88.648438 C 90.015625 88.941406 89.695312 89.226562 89.390625 89.535156 Z M 77.53125 102.394531 C 76.339844 101.871094 74.027344 100.632812 71.910156 98.199219 C 70.097656 96.117188 69.65625 94.585938 69.144531 92.808594 C 68.765625 91.503906 68.375 90.152344 67.414062 88.484375 C 63.003906 80.839844 53.832031 79.054688 52.800781 78.878906 C 50.359375 78.453125 47.824219 78.476562 45.316406 78.933594 C 48.3125 77.273438 52.210938 75.796875 56.789062 75.609375 C 59.3125 75.503906 63.128906 75.351562 66.597656 77.640625 C 68.75 79.0625 70.265625 81.097656 70.839844 81.867188 C 71.84375 83.214844 72.246094 84.097656 72.628906 84.953125 C 73.027344 85.828125 73.402344 86.65625 74.335938 87.820312 C 75.152344 88.828125 77.308594 91.511719 80.8125 92.429688 C 83.230469 93.066406 85.476562 92.65625 87.160156 92.0625 C 84.492188 95.402344 82.476562 99.273438 81.285156 103.496094 L 81.199219 103.484375 C 79.898438 103.265625 78.699219 102.90625 77.53125 102.394531 Z M 80.203125 121.59375 L 29.96875 113.59375 L 80.765625 105.503906 C 80.632812 106.132812 80.542969 106.78125 80.445312 107.425781 L 77.519531 106.671875 C 77.359375 106.636719 77.207031 106.726562 77.167969 106.882812 C 77.128906 107.039062 77.21875 107.195312 77.375 107.238281 L 80.355469 108.003906 C 80.324219 108.238281 80.273438 108.464844 80.25 108.699219 L 75.644531 107.699219 C 75.480469 107.664062 75.332031 107.761719 75.296875 107.917969 C 75.261719 108.078125 75.363281 108.230469 75.519531 108.265625 L 80.125 109.269531 C 80.144531 109.277344 80.167969 109.277344 80.1875 109.277344 C 80.160156 109.582031 80.160156 109.894531 80.140625 110.203125 L 73.1875 109.214844 C 73.023438 109.179688 72.882812 109.300781 72.859375 109.460938 C 72.835938 109.621094 72.949219 109.769531 73.109375 109.789062 L 80.066406 110.777344 C 80.082031 110.78125 80.09375 110.78125 80.109375 110.78125 C 80.109375 110.78125 80.109375 110.78125 80.113281 110.78125 C 80.097656 111.101562 80.070312 111.421875 80.0625 111.746094 C 80.019531 111.683594 79.949219 111.636719 79.867188 111.628906 L 75.179688 111.089844 C 75.003906 111.054688 74.875 111.1875 74.859375 111.34375 C 74.839844 111.503906 74.957031 111.648438 75.117188 111.664062 L 79.800781 112.207031 C 79.8125 112.207031 79.824219 112.207031 79.832031 112.207031 C 79.921875 112.207031 79.992188 112.160156 80.046875 112.097656 C 80.046875 112.171875 80.035156 112.246094 80.035156 112.320312 C 80.035156 112.585938 80.066406 112.84375 80.074219 113.109375 L 66.148438 113.398438 C 65.984375 113.402344 65.859375 113.535156 65.859375 113.695312 C 65.863281 113.851562 65.992188 113.980469 66.152344 113.980469 C 66.152344 113.980469 66.15625 113.980469 66.15625 113.980469 L 80.101562 113.691406 C 80.121094 114.164062 80.132812 114.640625 80.171875 115.109375 L 75.589844 115.363281 C 75.429688 115.371094 75.308594 115.507812 75.316406 115.667969 C 75.324219 115.820312 75.453125 115.941406 75.605469 115.941406 C 75.613281 115.941406 75.617188 115.941406 75.625 115.941406 L 80.210938 115.691406 C 80.242188 115.984375 80.304688 116.265625 80.34375 116.554688 L 73.476562 117.113281 C 73.316406 117.128906 73.199219 117.265625 73.210938 117.429688 C 73.222656 117.578125 73.351562 117.695312 73.503906 117.695312 C 73.511719 117.695312 73.519531 117.695312 73.527344 117.695312 L 80.433594 117.132812 C 80.480469 117.445312 80.523438 117.761719 80.578125 118.074219 C 80.539062 118.0625 80.503906 118.039062 80.457031 118.050781 L 75.796875 118.777344 C 75.640625 118.800781 75.53125 118.949219 75.554688 119.109375 C 75.578125 119.253906 75.703125 119.355469 75.84375 119.355469 C 75.859375 119.355469 75.875 119.355469 75.890625 119.351562 L 80.546875 118.621094 C 80.59375 118.613281 80.621094 118.582031 80.652344 118.558594 C 80.703125 118.804688 80.753906 119.046875 80.808594 119.289062 L 77.589844 119.917969 C 77.433594 119.949219 77.328125 120.101562 77.359375 120.253906 C 77.386719 120.398438 77.507812 120.492188 77.644531 120.492188 C 77.664062 120.492188 77.683594 120.492188 77.703125 120.488281 L 80.957031 119.859375 C 81.109375 120.503906 81.261719 121.15625 81.453125 121.789062 L 80.203125 121.585938 Z M 84.277344 139.179688 C 83.175781 139.867188 80.847656 141.070312 77.640625 141.449219 C 74.894531 141.761719 73.382812 141.265625 71.628906 140.691406 C 70.335938 140.261719 69.003906 139.820312 67.078125 139.671875 C 58.289062 138.960938 51.628906 145.554688 50.898438 146.304688 C 49.171875 148.078125 47.757812 150.183594 46.71875 152.511719 C 47.039062 149.101562 48.027344 145.050781 50.457031 141.167969 C 51.796875 139.023438 53.824219 135.785156 57.671875 134.222656 C 60.070312 133.242188 62.601562 133.140625 63.554688 133.109375 C 65.226562 133.027344 66.191406 133.207031 67.117188 133.371094 C 68.0625 133.539062 68.957031 133.699219 70.441406 133.585938 C 71.738281 133.484375 75.167969 133.21875 77.910156 130.84375 C 80.375 128.707031 81.246094 125.851562 81.535156 123.75 L 83.671875 127.207031 C 84.421875 128.65625 85.28125 130.039062 86.234375 131.351562 L 88.601562 135.175781 C 87.414062 136.785156 85.960938 138.132812 84.277344 139.179688 Z M 90.101562 135.789062 C 90.492188 136.164062 90.894531 136.527344 91.304688 136.886719 C 91.292969 136.898438 91.273438 136.894531 91.261719 136.914062 L 89.230469 139.5625 C 89.132812 139.6875 89.15625 139.875 89.285156 139.972656 C 89.339844 140.011719 89.402344 140.027344 89.460938 140.027344 C 89.550781 140.027344 89.636719 139.988281 89.691406 139.914062 L 91.722656 137.265625 C 91.917969 137.429688 92.125 137.582031 92.324219 137.742188 C 92.265625 137.761719 92.207031 137.789062 92.167969 137.839844 L 89.4375 141.6875 C 89.347656 141.820312 89.378906 142.003906 89.507812 142.09375 C 89.558594 142.128906 89.617188 142.148438 89.675781 142.148438 C 89.765625 142.148438 89.859375 142.101562 89.914062 142.023438 L 92.640625 138.175781 C 92.679688 138.125 92.679688 138.066406 92.679688 138.007812 C 92.9375 138.207031 93.203125 138.402344 93.464844 138.59375 L 89.875 144.542969 C 89.792969 144.679688 89.835938 144.859375 89.972656 144.941406 C 90.019531 144.96875 90.070312 144.984375 90.121094 144.984375 C 90.222656 144.984375 90.316406 144.933594 90.371094 144.84375 L 93.929688 138.945312 C 94.171875 139.113281 94.40625 139.285156 94.648438 139.445312 L 92.375 143.441406 C 92.296875 143.582031 92.34375 143.757812 92.484375 143.839844 C 92.53125 143.867188 92.582031 143.878906 92.628906 143.878906 C 92.730469 143.878906 92.828125 143.828125 92.882812 143.730469 L 95.144531 139.75 C 95.347656 139.878906 95.554688 140 95.757812 140.121094 L 89.28125 152.195312 C 89.207031 152.339844 89.257812 152.511719 89.402344 152.589844 C 89.445312 152.613281 89.492188 152.625 89.539062 152.625 C 89.640625 152.625 89.742188 152.570312 89.792969 152.472656 L 96.253906 140.425781 C 96.578125 140.609375 96.886719 140.8125 97.21875 140.988281 L 95.332031 145.265625 C 95.265625 145.414062 95.332031 145.585938 95.480469 145.648438 C 95.519531 145.667969 95.558594 145.675781 95.597656 145.675781 C 95.707031 145.675781 95.816406 145.613281 95.863281 145.503906 L 97.738281 141.242188 C 97.996094 141.375 98.261719 141.496094 98.523438 141.621094 L 95.933594 147.953125 C 95.875 148.097656 95.945312 148.269531 96.09375 148.328125 C 96.128906 148.34375 96.167969 148.351562 96.203125 148.351562 C 96.316406 148.351562 96.425781 148.285156 96.472656 148.171875 L 99.046875 141.875 C 99.328125 142.003906 99.597656 142.160156 99.882812 142.28125 L 98.464844 146.636719 C 98.417969 146.789062 98.5 146.957031 98.652344 147.003906 C 98.683594 147.011719 98.714844 147.019531 98.742188 147.019531 C 98.867188 147.019531 98.980469 146.941406 99.019531 146.816406 L 100.429688 142.480469 C 100.652344 142.570312 100.878906 142.644531 101.101562 142.726562 L 100.292969 145.554688 C 100.25 145.707031 100.339844 145.871094 100.492188 145.914062 C 100.519531 145.917969 100.546875 145.925781 100.574219 145.925781 C 100.699219 145.925781 100.816406 145.839844 100.851562 145.710938 L 101.644531 142.929688 C 102.65625 143.289062 103.6875 143.597656 104.738281 143.859375 L 71.226562 185.121094 Z M 118.65625 157.390625 C 117.332031 159.8125 116.046875 160.761719 114.558594 161.855469 C 113.464844 162.667969 112.335938 163.5 111.101562 164.984375 C 105.46875 171.765625 106.972656 180.992188 107.164062 182.019531 C 107.613281 184.453125 108.515625 186.824219 109.816406 189.019531 C 107.214844 186.785156 104.480469 183.640625 102.714844 179.414062 C 101.742188 177.082031 100.273438 173.558594 101.214844 169.511719 C 101.800781 167 103.179688 164.871094 103.707031 164.0625 C 104.621094 162.65625 105.3125 161.976562 105.980469 161.316406 C 106.664062 160.636719 107.308594 160 108.078125 158.71875 C 108.742188 157.601562 110.507812 154.648438 110.15625 151.042969 C 109.859375 148.03125 108.246094 145.773438 106.769531 144.300781 C 108.652344 144.640625 110.578125 144.847656 112.554688 144.847656 C 113.867188 144.847656 115.152344 144.746094 116.425781 144.59375 L 119.859375 144.820312 L 119.957031 145.132812 C 120.523438 146.945312 120.753906 148.808594 120.640625 150.664062 C 120.5625 151.960938 120.203125 154.554688 118.65625 157.390625 Z M 153.882812 185.121094 L 120.367188 143.859375 C 121.148438 143.664062 121.925781 143.460938 122.683594 143.210938 L 123.652344 146.367188 C 123.691406 146.496094 123.804688 146.574219 123.929688 146.574219 C 123.957031 146.574219 123.984375 146.570312 124.015625 146.5625 C 124.167969 146.515625 124.257812 146.351562 124.210938 146.199219 L 123.234375 143.011719 C 123.5 142.917969 123.761719 142.820312 124.019531 142.722656 C 123.960938 142.796875 123.929688 142.886719 123.960938 142.984375 L 125.507812 147.4375 C 125.550781 147.558594 125.660156 147.636719 125.78125 147.636719 C 125.816406 147.636719 125.84375 147.628906 125.878906 147.617188 C 126.03125 147.566406 126.109375 147.398438 126.058594 147.25 L 124.511719 142.792969 C 124.476562 142.691406 124.386719 142.644531 124.289062 142.625 C 124.625 142.492188 124.96875 142.382812 125.292969 142.246094 C 125.296875 142.261719 125.289062 142.273438 125.292969 142.292969 L 128.078125 148.746094 C 128.125 148.855469 128.234375 148.917969 128.34375 148.917969 C 128.382812 148.917969 128.421875 148.914062 128.460938 148.894531 C 128.605469 148.832031 128.675781 148.660156 128.609375 148.511719 L 125.824219 142.058594 C 125.816406 142.035156 125.789062 142.027344 125.777344 142.007812 C 126.070312 141.875 126.355469 141.730469 126.644531 141.589844 C 126.628906 141.652344 126.621094 141.722656 126.652344 141.785156 L 128.636719 146.066406 C 128.683594 146.171875 128.789062 146.234375 128.898438 146.234375 C 128.941406 146.234375 128.984375 146.222656 129.023438 146.207031 C 129.167969 146.136719 129.230469 145.964844 129.164062 145.820312 L 127.179688 141.539062 C 127.152344 141.472656 127.09375 141.429688 127.03125 141.398438 C 127.507812 141.164062 127.980469 140.929688 128.441406 140.671875 L 134.613281 152.117188 C 134.667969 152.214844 134.765625 152.269531 134.871094 152.269531 C 134.917969 152.269531 134.964844 152.257812 135.007812 152.234375 C 135.148438 152.15625 135.203125 151.980469 135.128906 151.839844 L 128.941406 140.363281 C 129.324219 140.140625 129.699219 139.917969 130.070312 139.675781 L 132.648438 143.507812 C 132.703125 143.589844 132.796875 143.636719 132.890625 143.636719 C 132.945312 143.636719 133.003906 143.621094 133.054688 143.585938 C 133.1875 143.5 133.222656 143.316406 133.132812 143.183594 L 130.566406 139.375 C 130.808594 139.214844 131.039062 139.035156 131.277344 138.867188 L 135.242188 144.425781 C 135.296875 144.507812 135.386719 144.550781 135.476562 144.550781 C 135.535156 144.550781 135.597656 144.53125 135.648438 144.496094 C 135.777344 144.40625 135.808594 144.222656 135.714844 144.09375 L 131.742188 138.519531 C 131.988281 138.335938 132.238281 138.15625 132.480469 137.96875 L 135.484375 141.589844 C 135.542969 141.65625 135.625 141.691406 135.707031 141.691406 C 135.773438 141.691406 135.839844 141.667969 135.894531 141.628906 C 136.015625 141.523438 136.035156 141.339844 135.933594 141.214844 L 132.949219 137.621094 C 133.132812 137.472656 133.3125 137.324219 133.492188 137.171875 L 135.542969 139.464844 C 135.601562 139.527344 135.679688 139.5625 135.761719 139.5625 C 135.828125 139.5625 135.898438 139.535156 135.953125 139.488281 C 136.070312 139.378906 136.082031 139.195312 135.976562 139.078125 L 133.921875 136.78125 C 134.292969 136.457031 134.65625 136.128906 135.011719 135.789062 Z M 166.03125 154.832031 C 163.519531 154.574219 159.722656 154.1875 156.621094 151.4375 C 154.675781 149.714844 153.46875 147.492188 153.015625 146.65625 C 152.210938 145.175781 151.941406 144.25 151.679688 143.34375 C 151.410156 142.425781 151.15625 141.550781 150.398438 140.269531 C 149.734375 139.152344 147.976562 136.191406 144.632812 134.785156 C 141.167969 133.324219 137.796875 134.191406 135.839844 134.984375 C 138.289062 132.472656 140.3125 129.558594 141.851562 126.363281 L 143.78125 123.28125 C 145.753906 123.632812 147.605469 124.339844 149.292969 125.386719 C 150.394531 126.066406 152.503906 127.621094 154.261719 130.332031 C 155.761719 132.648438 155.984375 134.230469 156.242188 136.058594 C 156.429688 137.40625 156.628906 138.796875 157.347656 140.585938 C 160.628906 148.765625 169.460938 151.835938 170.457031 152.160156 C 172.808594 152.921875 175.324219 153.261719 177.875 153.164062 C 174.671875 154.386719 170.597656 155.300781 166.03125 154.832031 Z M 166.03125 154.832031 " fill-opacity="1" fill-rule="nonzero"/></g><path fill="#000000" d="M 88.421875 71.476562 C 88.421875 71.738281 88.328125 71.960938 88.144531 72.144531 C 87.960938 72.328125 87.738281 72.417969 87.480469 72.417969 C 87.21875 72.417969 86.996094 72.328125 86.8125 72.144531 C 86.628906 71.960938 86.535156 71.738281 86.535156 71.476562 C 86.535156 71.214844 86.628906 70.996094 86.8125 70.808594 C 86.996094 70.625 87.21875 70.535156 87.480469 70.535156 C 87.738281 70.535156 87.960938 70.625 88.144531 70.808594 C 88.328125 70.996094 88.421875 71.214844 88.421875 71.476562 Z M 88.421875 71.476562 " fill-opacity="1" fill-rule="nonzero"/><path fill="#000000" d="M 86.683594 70.226562 C 86.824219 70.144531 86.871094 69.964844 86.789062 69.828125 L 84.414062 65.78125 C 84.332031 65.636719 84.152344 65.589844 84.015625 65.675781 C 83.875 65.757812 83.828125 65.9375 83.910156 66.074219 L 86.285156 70.121094 C 86.339844 70.214844 86.4375 70.265625 86.535156 70.265625 C 86.585938 70.265625 86.636719 70.253906 86.683594 70.226562 Z M 86.683594 70.226562 " fill-opacity="1" fill-rule="nonzero"/><path fill="#000000" d="M 83.746094 63.558594 C 83.484375 63.167969 82.910156 62.71875 82.472656 62.953125 C 82.058594 63.167969 82.082031 63.8125 82.160156 64.15625 C 82.355469 65 83.191406 65.410156 83.445312 65.511719 C 83.476562 65.527344 83.519531 65.535156 83.554688 65.535156 C 83.59375 65.535156 83.632812 65.527344 83.667969 65.511719 C 83.738281 65.480469 83.796875 65.425781 83.824219 65.355469 C 83.921875 65.109375 84.214844 64.257812 83.746094 63.558594 Z M 83.378906 64.828125 C 83.128906 64.675781 82.816406 64.414062 82.726562 64.023438 C 82.667969 63.773438 82.699219 63.511719 82.726562 63.472656 C 82.730469 63.472656 82.730469 63.472656 82.734375 63.472656 C 82.828125 63.472656 83.09375 63.636719 83.257812 63.886719 C 83.464844 64.183594 83.4375 64.5625 83.378906 64.828125 Z M 83.378906 64.828125 " fill-opacity="1" fill-rule="nonzero"/><path fill="#000000" d="M 138.324219 70.875 C 138.324219 71.136719 138.230469 71.359375 138.046875 71.542969 C 137.863281 71.726562 137.640625 71.820312 137.378906 71.820312 C 137.121094 71.820312 136.898438 71.726562 136.714844 71.542969 C 136.527344 71.359375 136.4375 71.136719 136.4375 70.875 C 136.4375 70.617188 136.527344 70.394531 136.714844 70.210938 C 136.898438 70.027344 137.121094 69.933594 137.378906 69.933594 C 137.640625 69.933594 137.863281 70.027344 138.046875 70.210938 C 138.230469 70.394531 138.324219 70.617188 138.324219 70.875 Z M 138.324219 70.875 " fill-opacity="1" fill-rule="nonzero"/><path fill="#000000" d="M 138.257812 69.628906 C 138.355469 69.628906 138.453125 69.582031 138.507812 69.488281 L 140.960938 65.488281 C 141.046875 65.351562 141.003906 65.171875 140.867188 65.089844 C 140.726562 65 140.550781 65.042969 140.464844 65.183594 L 138.011719 69.183594 C 137.925781 69.320312 137.96875 69.5 138.105469 69.585938 C 138.15625 69.613281 138.207031 69.628906 138.257812 69.628906 Z M 138.257812 69.628906 " fill-opacity="1" fill-rule="nonzero"/><path fill="#000000" d="M 140.84375 64.703125 C 140.894531 64.746094 140.964844 64.769531 141.03125 64.769531 C 141.039062 64.769531 141.050781 64.769531 141.058594 64.769531 C 141.324219 64.742188 142.210938 64.601562 142.609375 63.855469 C 142.832031 63.4375 142.957031 62.726562 142.542969 62.445312 C 142.070312 62.125 141.414062 62.671875 141.339844 62.734375 C 140.703125 63.285156 140.710938 64.15625 140.742188 64.503906 C 140.746094 64.582031 140.785156 64.652344 140.84375 64.703125 Z M 141.71875 63.175781 C 141.910156 63.015625 142.140625 62.917969 142.203125 62.917969 C 142.203125 62.917969 142.203125 62.917969 142.207031 62.917969 C 142.253906 62.984375 142.242188 63.308594 142.09375 63.582031 C 141.921875 63.90625 141.574219 64.058594 141.316406 64.132812 C 141.335938 63.835938 141.417969 63.4375 141.71875 63.175781 Z M 141.71875 63.175781 " fill-opacity="1" fill-rule="nonzero"/><path fill="#000000" d="M 161.429688 114.089844 C 161.429688 114.351562 161.335938 114.574219 161.152344 114.757812 C 160.96875 114.941406 160.746094 115.035156 160.484375 115.035156 C 160.226562 115.035156 160.003906 114.941406 159.820312 114.757812 C 159.636719 114.574219 159.542969 114.351562 159.542969 114.089844 C 159.542969 113.832031 159.636719 113.609375 159.820312 113.425781 C 160.003906 113.238281 160.226562 113.148438 160.484375 113.148438 C 160.746094 113.148438 160.96875 113.238281 161.152344 113.425781 C 161.335938 113.609375 161.429688 113.832031 161.429688 114.089844 Z M 161.429688 114.089844 " fill-opacity="1" fill-rule="nonzero"/><path fill="#000000" d="M 162.253906 114.296875 C 162.253906 114.296875 162.257812 114.296875 162.257812 114.296875 L 166.953125 114.222656 C 167.113281 114.21875 167.242188 114.085938 167.238281 113.925781 C 167.238281 113.765625 167.109375 113.632812 166.945312 113.640625 L 162.25 113.714844 C 162.089844 113.71875 161.960938 113.851562 161.964844 114.011719 C 161.964844 114.167969 162.097656 114.296875 162.253906 114.296875 Z M 162.253906 114.296875 " fill-opacity="1" fill-rule="nonzero"/><path fill="#000000" d="M 169.105469 114.738281 C 169.140625 114.738281 169.179688 114.734375 169.21875 114.734375 C 169.6875 114.695312 170.355469 114.417969 170.371094 113.917969 C 170.386719 113.457031 169.820312 113.160156 169.480469 113.058594 C 168.667969 112.816406 167.941406 113.289062 167.664062 113.503906 C 167.605469 113.554688 167.566406 113.621094 167.554688 113.699219 C 167.546875 113.773438 167.566406 113.851562 167.617188 113.910156 C 167.769531 114.113281 168.320312 114.738281 169.105469 114.738281 Z M 169.3125 113.613281 C 169.558594 113.6875 169.769531 113.839844 169.792969 113.886719 C 169.761719 113.964844 169.484375 114.128906 169.171875 114.152344 C 168.820312 114.183594 168.496094 113.96875 168.292969 113.789062 C 168.546875 113.644531 168.929688 113.5 169.3125 113.613281 Z M 169.3125 113.613281 " fill-opacity="1" fill-rule="nonzero"/><path fill="#000000" d="M 136.703125 153.789062 C 136.703125 154.050781 136.609375 154.273438 136.425781 154.457031 C 136.242188 154.640625 136.019531 154.734375 135.761719 154.734375 C 135.5 154.734375 135.277344 154.640625 135.09375 154.457031 C 134.910156 154.273438 134.816406 154.050781 134.816406 153.789062 C 134.816406 153.53125 134.910156 153.308594 135.09375 153.125 C 135.277344 152.941406 135.5 152.847656 135.761719 152.847656 C 136.019531 152.847656 136.242188 152.941406 136.425781 153.125 C 136.609375 153.308594 136.703125 153.53125 136.703125 153.789062 Z M 136.703125 153.789062 " fill-opacity="1" fill-rule="nonzero"/><path fill="#000000" d="M 136.398438 155.460938 L 138.648438 159.582031 C 138.703125 159.679688 138.800781 159.730469 138.902344 159.730469 C 138.953125 159.730469 139 159.71875 139.042969 159.695312 C 139.1875 159.621094 139.238281 159.445312 139.160156 159.300781 L 136.910156 155.179688 C 136.835938 155.035156 136.660156 154.984375 136.515625 155.0625 C 136.375 155.140625 136.324219 155.316406 136.398438 155.460938 Z M 136.398438 155.460938 " fill-opacity="1" fill-rule="nonzero"/><path fill="#000000" d="M 139.25 161.824219 C 139.453125 162.152344 139.867188 162.523438 140.257812 162.523438 C 140.34375 162.523438 140.425781 162.503906 140.503906 162.46875 C 141.015625 162.21875 140.871094 161.371094 140.851562 161.273438 C 140.691406 160.449219 139.933594 160.023438 139.613281 159.875 C 139.542969 159.839844 139.460938 159.839844 139.390625 159.867188 C 139.320312 159.894531 139.261719 159.949219 139.226562 160.019531 C 139.117188 160.265625 138.804688 161.109375 139.25 161.824219 Z M 139.652344 160.5625 C 139.898438 160.722656 140.207031 160.996094 140.28125 161.382812 C 140.332031 161.640625 140.292969 161.902344 140.261719 161.9375 C 140.261719 161.9375 140.261719 161.9375 140.257812 161.9375 C 140.171875 161.9375 139.90625 161.769531 139.746094 161.511719 C 139.546875 161.199219 139.582031 160.828125 139.652344 160.5625 Z M 139.652344 160.5625 " fill-opacity="1" fill-rule="nonzero"/><path fill="#000000" d="M 65.082031 113.65625 C 65.082031 113.917969 64.988281 114.140625 64.804688 114.324219 C 64.621094 114.507812 64.398438 114.601562 64.136719 114.601562 C 63.878906 114.601562 63.65625 114.507812 63.472656 114.324219 C 63.289062 114.140625 63.195312 113.917969 63.195312 113.65625 C 63.195312 113.398438 63.289062 113.175781 63.472656 112.992188 C 63.65625 112.808594 63.878906 112.714844 64.136719 112.714844 C 64.398438 112.714844 64.621094 112.808594 64.804688 112.992188 C 64.988281 113.175781 65.082031 113.398438 65.082031 113.65625 Z M 65.082031 113.65625 " fill-opacity="1" fill-rule="nonzero"/><path fill="#000000" d="M 62.371094 113.46875 C 62.367188 113.46875 62.363281 113.46875 62.363281 113.46875 L 57.671875 113.589844 C 57.511719 113.59375 57.382812 113.726562 57.386719 113.886719 C 57.390625 114.042969 57.523438 114.167969 57.675781 114.167969 C 57.679688 114.167969 57.683594 114.167969 57.683594 114.167969 L 62.375 114.046875 C 62.535156 114.042969 62.664062 113.910156 62.660156 113.75 C 62.65625 113.589844 62.523438 113.46875 62.371094 113.46875 Z M 62.371094 113.46875 " fill-opacity="1" fill-rule="nonzero"/><path fill="#000000" d="M 55.402344 113.097656 C 54.929688 113.140625 54.269531 113.421875 54.253906 113.921875 C 54.246094 114.386719 54.816406 114.675781 55.15625 114.773438 C 55.304688 114.816406 55.453125 114.832031 55.59375 114.832031 C 56.210938 114.832031 56.738281 114.488281 56.964844 114.308594 C 57.023438 114.261719 57.0625 114.191406 57.074219 114.113281 C 57.082031 114.039062 57.0625 113.960938 57.011719 113.898438 C 56.847656 113.695312 56.25 113.046875 55.402344 113.097656 Z M 55.316406 114.214844 C 55.070312 114.144531 54.855469 113.992188 54.835938 113.945312 C 54.863281 113.871094 55.144531 113.703125 55.453125 113.675781 C 55.476562 113.675781 55.5 113.675781 55.527344 113.675781 C 55.859375 113.675781 56.148438 113.863281 56.335938 114.03125 C 56.070312 114.183594 55.695312 114.324219 55.316406 114.214844 Z M 55.316406 114.214844 " fill-opacity="1" fill-rule="nonzero"/><path fill="#000000" d="M 89.460938 154.070312 C 89.460938 154.332031 89.371094 154.550781 89.1875 154.738281 C 89.003906 154.921875 88.78125 155.011719 88.519531 155.011719 C 88.257812 155.011719 88.035156 154.921875 87.851562 154.738281 C 87.667969 154.550781 87.578125 154.332031 87.578125 154.070312 C 87.578125 153.808594 87.667969 153.585938 87.851562 153.402344 C 88.035156 153.21875 88.257812 153.128906 88.519531 153.128906 C 88.78125 153.128906 89.003906 153.21875 89.1875 153.402344 C 89.371094 153.585938 89.460938 153.808594 89.460938 154.070312 Z M 89.460938 154.070312 " fill-opacity="1" fill-rule="nonzero"/><path fill="#000000" d="M 87.480469 155.523438 L 85.28125 159.671875 C 85.207031 159.816406 85.257812 159.992188 85.402344 160.066406 C 85.445312 160.089844 85.492188 160.101562 85.539062 160.101562 C 85.644531 160.101562 85.742188 160.042969 85.792969 159.945312 L 87.992188 155.800781 C 88.066406 155.65625 88.015625 155.480469 87.871094 155.40625 C 87.734375 155.332031 87.554688 155.382812 87.480469 155.523438 Z M 87.480469 155.523438 " fill-opacity="1" fill-rule="nonzero"/><path fill="#000000" d="M 85.449219 160.453125 C 85.386719 160.402344 85.308594 160.394531 85.230469 160.398438 C 84.96875 160.441406 84.089844 160.640625 83.742188 161.410156 C 83.546875 161.839844 83.46875 162.558594 83.898438 162.8125 C 83.992188 162.867188 84.089844 162.890625 84.191406 162.890625 C 84.527344 162.890625 84.890625 162.636719 85.082031 162.445312 C 85.679688 161.863281 85.621094 160.992188 85.566406 160.648438 C 85.554688 160.566406 85.511719 160.496094 85.449219 160.453125 Z M 84.675781 162.03125 C 84.492188 162.207031 84.261719 162.316406 84.203125 162.316406 C 84.152344 162.253906 84.144531 161.933594 84.269531 161.648438 C 84.421875 161.316406 84.757812 161.140625 85.011719 161.050781 C 85.015625 161.347656 84.957031 161.753906 84.675781 162.03125 Z M 84.675781 162.03125 " fill-opacity="1" fill-rule="nonzero"/></svg>